%TF.GenerationSoftware,KiCad,Pcbnew,9.0.0*%
%TF.CreationDate,2025-12-09T22:57:50+02:00*%
%TF.ProjectId,space invaders,73706163-6520-4696-9e76-61646572732e,rev?*%
%TF.SameCoordinates,Original*%
%TF.FileFunction,Paste,Top*%
%TF.FilePolarity,Positive*%
%FSLAX46Y46*%
G04 Gerber Fmt 4.6, Leading zero omitted, Abs format (unit mm)*
G04 Created by KiCad (PCBNEW 9.0.0) date 2025-12-09 22:57:50*
%MOMM*%
%LPD*%
G01*
G04 APERTURE LIST*
G04 Aperture macros list*
%AMRoundRect*
0 Rectangle with rounded corners*
0 $1 Rounding radius*
0 $2 $3 $4 $5 $6 $7 $8 $9 X,Y pos of 4 corners*
0 Add a 4 corners polygon primitive as box body*
4,1,4,$2,$3,$4,$5,$6,$7,$8,$9,$2,$3,0*
0 Add four circle primitives for the rounded corners*
1,1,$1+$1,$2,$3*
1,1,$1+$1,$4,$5*
1,1,$1+$1,$6,$7*
1,1,$1+$1,$8,$9*
0 Add four rect primitives between the rounded corners*
20,1,$1+$1,$2,$3,$4,$5,0*
20,1,$1+$1,$4,$5,$6,$7,0*
20,1,$1+$1,$6,$7,$8,$9,0*
20,1,$1+$1,$8,$9,$2,$3,0*%
G04 Aperture macros list end*
%ADD10RoundRect,0.225000X-0.225000X-0.250000X0.225000X-0.250000X0.225000X0.250000X-0.225000X0.250000X0*%
%ADD11RoundRect,0.200000X-0.275000X0.200000X-0.275000X-0.200000X0.275000X-0.200000X0.275000X0.200000X0*%
%ADD12RoundRect,0.200000X0.200000X0.275000X-0.200000X0.275000X-0.200000X-0.275000X0.200000X-0.275000X0*%
%ADD13RoundRect,0.225000X-0.250000X0.225000X-0.250000X-0.225000X0.250000X-0.225000X0.250000X0.225000X0*%
%ADD14R,0.700000X0.300000*%
%ADD15RoundRect,0.225000X0.250000X-0.225000X0.250000X0.225000X-0.250000X0.225000X-0.250000X-0.225000X0*%
%ADD16RoundRect,0.200000X-0.200000X-0.275000X0.200000X-0.275000X0.200000X0.275000X-0.200000X0.275000X0*%
%ADD17RoundRect,0.225000X0.225000X0.250000X-0.225000X0.250000X-0.225000X-0.250000X0.225000X-0.250000X0*%
%ADD18RoundRect,0.375000X0.375000X-0.625000X0.375000X0.625000X-0.375000X0.625000X-0.375000X-0.625000X0*%
%ADD19RoundRect,0.500000X1.400000X-0.500000X1.400000X0.500000X-1.400000X0.500000X-1.400000X-0.500000X0*%
%ADD20RoundRect,0.200000X0.275000X-0.200000X0.275000X0.200000X-0.275000X0.200000X-0.275000X-0.200000X0*%
%ADD21RoundRect,0.242500X0.242500X0.422500X-0.242500X0.422500X-0.242500X-0.422500X0.242500X-0.422500X0*%
%ADD22RoundRect,0.150000X0.825000X0.150000X-0.825000X0.150000X-0.825000X-0.150000X0.825000X-0.150000X0*%
%ADD23R,1.500000X0.550000*%
%ADD24R,0.550000X1.500000*%
G04 APERTURE END LIST*
D10*
%TO.C,C7*%
X183586600Y-77012600D03*
X185136600Y-77012600D03*
%TD*%
D11*
%TO.C,R2*%
X138076200Y-100150400D03*
X138076200Y-101800400D03*
%TD*%
D12*
%TO.C,R9*%
X180106600Y-88239400D03*
X178456600Y-88239400D03*
%TD*%
D13*
%TO.C,C4*%
X165317600Y-96646600D03*
X165317600Y-98196600D03*
%TD*%
D12*
%TO.C,R4*%
X123405400Y-67462400D03*
X121755400Y-67462400D03*
%TD*%
D14*
%TO.C,J9*%
X184681600Y-88462200D03*
X184681600Y-87962200D03*
X184681600Y-87462200D03*
X184681600Y-86962200D03*
X184681600Y-86462200D03*
X184681600Y-85962200D03*
X184681600Y-85462200D03*
X184681600Y-84962200D03*
X184681600Y-84462200D03*
X184681600Y-83962200D03*
X184681600Y-83462200D03*
X184681600Y-82962200D03*
X186381600Y-83212200D03*
X186381600Y-83712200D03*
X186381600Y-84212200D03*
X186381600Y-84712200D03*
X186381600Y-85212200D03*
X186381600Y-85712200D03*
X186381600Y-86212200D03*
X186381600Y-86712200D03*
X186381600Y-87212200D03*
X186381600Y-87712200D03*
X186381600Y-88212200D03*
X186381600Y-88712200D03*
%TD*%
D13*
%TO.C,C3*%
X162269600Y-96646600D03*
X162269600Y-98196600D03*
%TD*%
D11*
%TO.C,R3*%
X130302000Y-73152000D03*
X130302000Y-74802000D03*
%TD*%
D13*
%TO.C,C6*%
X163793600Y-96646600D03*
X163793600Y-98196600D03*
%TD*%
D15*
%TO.C,C9*%
X137428400Y-138684200D03*
X137428400Y-137134200D03*
%TD*%
D16*
%TO.C,R5*%
X150611000Y-124307500D03*
X152261000Y-124307500D03*
%TD*%
D11*
%TO.C,R6*%
X151703200Y-64389400D03*
X151703200Y-66039400D03*
%TD*%
D17*
%TO.C,C10*%
X148922200Y-64858800D03*
X147372200Y-64858800D03*
%TD*%
D12*
%TO.C,R8*%
X180106600Y-84607200D03*
X178456600Y-84607200D03*
%TD*%
D18*
%TO.C,U7*%
X187776600Y-76988000D03*
X190076600Y-76988000D03*
D19*
X190076600Y-70688000D03*
D18*
X192376600Y-76988000D03*
%TD*%
D20*
%TO.C,R1*%
X134266200Y-101800400D03*
X134266200Y-100150400D03*
%TD*%
D13*
%TO.C,C5*%
X166841600Y-96646600D03*
X166841600Y-98196600D03*
%TD*%
D21*
%TO.C,U5*%
X177241200Y-64820800D03*
X177241200Y-63170800D03*
X176041200Y-64820800D03*
X176041200Y-63170800D03*
D22*
X179116200Y-65900800D03*
X179116200Y-64630800D03*
X179116200Y-63360800D03*
X179116200Y-62090800D03*
X174166200Y-62090800D03*
X174166200Y-63360800D03*
X174166200Y-64630800D03*
X174166200Y-65900800D03*
%TD*%
D11*
%TO.C,R7*%
X156783200Y-64389400D03*
X156783200Y-66039400D03*
%TD*%
D10*
%TO.C,C8*%
X178801800Y-70662600D03*
X180351800Y-70662600D03*
%TD*%
D13*
%TO.C,C1*%
X142597400Y-100149600D03*
X142597400Y-101699600D03*
%TD*%
D10*
%TO.C,C2*%
X175699400Y-68579400D03*
X177249400Y-68579400D03*
%TD*%
D23*
%TO.C,U1*%
X149087600Y-100140000D03*
X149087600Y-100940000D03*
X149087600Y-101740000D03*
X149087600Y-102540000D03*
X149087600Y-103340000D03*
X149087600Y-104140000D03*
X149087600Y-104940000D03*
X149087600Y-105740000D03*
X149087600Y-106540000D03*
X149087600Y-107340000D03*
X149087600Y-108140000D03*
D24*
X150787600Y-109840000D03*
X151587600Y-109840000D03*
X152387600Y-109840000D03*
X153187600Y-109840000D03*
X153987600Y-109840000D03*
X154787600Y-109840000D03*
X155587600Y-109840000D03*
X156387600Y-109840000D03*
X157187600Y-109840000D03*
X157987600Y-109840000D03*
X158787600Y-109840000D03*
D23*
X160487600Y-108140000D03*
X160487600Y-107340000D03*
X160487600Y-106540000D03*
X160487600Y-105740000D03*
X160487600Y-104940000D03*
X160487600Y-104140000D03*
X160487600Y-103340000D03*
X160487600Y-102540000D03*
X160487600Y-101740000D03*
X160487600Y-100940000D03*
X160487600Y-100140000D03*
D24*
X158787600Y-98440000D03*
X157987600Y-98440000D03*
X157187600Y-98440000D03*
X156387600Y-98440000D03*
X155587600Y-98440000D03*
X154787600Y-98440000D03*
X153987600Y-98440000D03*
X153187600Y-98440000D03*
X152387600Y-98440000D03*
X151587600Y-98440000D03*
X150787600Y-98440000D03*
%TD*%
M02*
