%TF.GenerationSoftware,KiCad,Pcbnew,9.0.0*%
%TF.CreationDate,2026-02-17T16:35:28+02:00*%
%TF.ProjectId,space invaders,73706163-6520-4696-9e76-61646572732e,rev?*%
%TF.SameCoordinates,Original*%
%TF.FileFunction,Paste,Top*%
%TF.FilePolarity,Positive*%
%FSLAX46Y46*%
G04 Gerber Fmt 4.6, Leading zero omitted, Abs format (unit mm)*
G04 Created by KiCad (PCBNEW 9.0.0) date 2026-02-17 16:35:28*
%MOMM*%
%LPD*%
G01*
G04 APERTURE LIST*
G04 Aperture macros list*
%AMRoundRect*
0 Rectangle with rounded corners*
0 $1 Rounding radius*
0 $2 $3 $4 $5 $6 $7 $8 $9 X,Y pos of 4 corners*
0 Add a 4 corners polygon primitive as box body*
4,1,4,$2,$3,$4,$5,$6,$7,$8,$9,$2,$3,0*
0 Add four circle primitives for the rounded corners*
1,1,$1+$1,$2,$3*
1,1,$1+$1,$4,$5*
1,1,$1+$1,$6,$7*
1,1,$1+$1,$8,$9*
0 Add four rect primitives between the rounded corners*
20,1,$1+$1,$2,$3,$4,$5,0*
20,1,$1+$1,$4,$5,$6,$7,0*
20,1,$1+$1,$6,$7,$8,$9,0*
20,1,$1+$1,$8,$9,$2,$3,0*%
G04 Aperture macros list end*
%ADD10RoundRect,0.225000X-0.225000X-0.250000X0.225000X-0.250000X0.225000X0.250000X-0.225000X0.250000X0*%
%ADD11RoundRect,0.200000X-0.275000X0.200000X-0.275000X-0.200000X0.275000X-0.200000X0.275000X0.200000X0*%
%ADD12RoundRect,0.225000X-0.250000X0.225000X-0.250000X-0.225000X0.250000X-0.225000X0.250000X0.225000X0*%
%ADD13RoundRect,0.200000X0.200000X0.275000X-0.200000X0.275000X-0.200000X-0.275000X0.200000X-0.275000X0*%
%ADD14RoundRect,0.225000X0.225000X0.250000X-0.225000X0.250000X-0.225000X-0.250000X0.225000X-0.250000X0*%
%ADD15RoundRect,0.225000X0.250000X-0.225000X0.250000X0.225000X-0.250000X0.225000X-0.250000X-0.225000X0*%
%ADD16RoundRect,0.200000X-0.200000X-0.275000X0.200000X-0.275000X0.200000X0.275000X-0.200000X0.275000X0*%
%ADD17RoundRect,0.375000X0.375000X-0.625000X0.375000X0.625000X-0.375000X0.625000X-0.375000X-0.625000X0*%
%ADD18RoundRect,0.500000X1.400000X-0.500000X1.400000X0.500000X-1.400000X0.500000X-1.400000X-0.500000X0*%
%ADD19RoundRect,0.200000X0.275000X-0.200000X0.275000X0.200000X-0.275000X0.200000X-0.275000X-0.200000X0*%
%ADD20RoundRect,0.242500X0.242500X0.422500X-0.242500X0.422500X-0.242500X-0.422500X0.242500X-0.422500X0*%
%ADD21RoundRect,0.150000X0.825000X0.150000X-0.825000X0.150000X-0.825000X-0.150000X0.825000X-0.150000X0*%
%ADD22R,1.500000X0.550000*%
%ADD23R,0.550000X1.500000*%
G04 APERTURE END LIST*
D10*
%TO.C,C7*%
X183869800Y-39543800D03*
X185419800Y-39543800D03*
%TD*%
D11*
%TO.C,R2*%
X138359400Y-62681600D03*
X138359400Y-64331600D03*
%TD*%
D12*
%TO.C,C4*%
X165600800Y-59177800D03*
X165600800Y-60727800D03*
%TD*%
D13*
%TO.C,R10*%
X116475000Y-106142800D03*
X114825000Y-106142800D03*
%TD*%
%TO.C,R4*%
X123688600Y-29993600D03*
X122038600Y-29993600D03*
%TD*%
D12*
%TO.C,C3*%
X162552800Y-59177800D03*
X162552800Y-60727800D03*
%TD*%
D14*
%TO.C,C13*%
X116526600Y-112848400D03*
X114976600Y-112848400D03*
%TD*%
D11*
%TO.C,R3*%
X130585200Y-35683200D03*
X130585200Y-37333200D03*
%TD*%
D12*
%TO.C,C6*%
X164076800Y-59177800D03*
X164076800Y-60727800D03*
%TD*%
D15*
%TO.C,C9*%
X137711600Y-101215400D03*
X137711600Y-99665400D03*
%TD*%
D16*
%TO.C,R5*%
X150894200Y-86838700D03*
X152544200Y-86838700D03*
%TD*%
D11*
%TO.C,R6*%
X151986400Y-26920600D03*
X151986400Y-28570600D03*
%TD*%
D14*
%TO.C,C10*%
X149205400Y-27390000D03*
X147655400Y-27390000D03*
%TD*%
D15*
%TO.C,C11*%
X129213600Y-111997800D03*
X129213600Y-110447800D03*
%TD*%
D17*
%TO.C,U7*%
X188059800Y-39519200D03*
X190359800Y-39519200D03*
D18*
X190359800Y-33219200D03*
D17*
X192659800Y-39519200D03*
%TD*%
D19*
%TO.C,R1*%
X134549400Y-64331600D03*
X134549400Y-62681600D03*
%TD*%
D12*
%TO.C,C5*%
X167124800Y-59177800D03*
X167124800Y-60727800D03*
%TD*%
%TO.C,C14*%
X129315200Y-104199400D03*
X129315200Y-105749400D03*
%TD*%
D15*
%TO.C,C12*%
X129315200Y-108848200D03*
X129315200Y-107298200D03*
%TD*%
D20*
%TO.C,U5*%
X177524400Y-27352000D03*
X177524400Y-25702000D03*
X176324400Y-27352000D03*
X176324400Y-25702000D03*
D21*
X179399400Y-28432000D03*
X179399400Y-27162000D03*
X179399400Y-25892000D03*
X179399400Y-24622000D03*
X174449400Y-24622000D03*
X174449400Y-25892000D03*
X174449400Y-27162000D03*
X174449400Y-28432000D03*
%TD*%
D11*
%TO.C,R7*%
X157066400Y-26920600D03*
X157066400Y-28570600D03*
%TD*%
D10*
%TO.C,C8*%
X179085000Y-33193800D03*
X180635000Y-33193800D03*
%TD*%
D12*
%TO.C,C1*%
X142880600Y-62680800D03*
X142880600Y-64230800D03*
%TD*%
D10*
%TO.C,C2*%
X175982600Y-31110600D03*
X177532600Y-31110600D03*
%TD*%
D22*
%TO.C,U1*%
X149370800Y-62671200D03*
X149370800Y-63471200D03*
X149370800Y-64271200D03*
X149370800Y-65071200D03*
X149370800Y-65871200D03*
X149370800Y-66671200D03*
X149370800Y-67471200D03*
X149370800Y-68271200D03*
X149370800Y-69071200D03*
X149370800Y-69871200D03*
X149370800Y-70671200D03*
D23*
X151070800Y-72371200D03*
X151870800Y-72371200D03*
X152670800Y-72371200D03*
X153470800Y-72371200D03*
X154270800Y-72371200D03*
X155070800Y-72371200D03*
X155870800Y-72371200D03*
X156670800Y-72371200D03*
X157470800Y-72371200D03*
X158270800Y-72371200D03*
X159070800Y-72371200D03*
D22*
X160770800Y-70671200D03*
X160770800Y-69871200D03*
X160770800Y-69071200D03*
X160770800Y-68271200D03*
X160770800Y-67471200D03*
X160770800Y-66671200D03*
X160770800Y-65871200D03*
X160770800Y-65071200D03*
X160770800Y-64271200D03*
X160770800Y-63471200D03*
X160770800Y-62671200D03*
D23*
X159070800Y-60971200D03*
X158270800Y-60971200D03*
X157470800Y-60971200D03*
X156670800Y-60971200D03*
X155870800Y-60971200D03*
X155070800Y-60971200D03*
X154270800Y-60971200D03*
X153470800Y-60971200D03*
X152670800Y-60971200D03*
X151870800Y-60971200D03*
X151070800Y-60971200D03*
%TD*%
D21*
%TO.C,U8*%
X124475000Y-112484000D03*
X124475000Y-111214000D03*
X124475000Y-109944000D03*
X124475000Y-108674000D03*
X124475000Y-107404000D03*
X124475000Y-106134000D03*
X124475000Y-104864000D03*
X124475000Y-103594000D03*
X119525000Y-103594000D03*
X119525000Y-104864000D03*
X119525000Y-106134000D03*
X119525000Y-107404000D03*
X119525000Y-108674000D03*
X119525000Y-109944000D03*
X119525000Y-111214000D03*
X119525000Y-112484000D03*
%TD*%
M02*
