%TF.GenerationSoftware,KiCad,Pcbnew,9.0.0*%
%TF.CreationDate,2026-02-16T23:45:47+02:00*%
%TF.ProjectId,space invaders,73706163-6520-4696-9e76-61646572732e,rev?*%
%TF.SameCoordinates,Original*%
%TF.FileFunction,Copper,L1,Top*%
%TF.FilePolarity,Positive*%
%FSLAX46Y46*%
G04 Gerber Fmt 4.6, Leading zero omitted, Abs format (unit mm)*
G04 Created by KiCad (PCBNEW 9.0.0) date 2026-02-16 23:45:47*
%MOMM*%
%LPD*%
G01*
G04 APERTURE LIST*
G04 Aperture macros list*
%AMRoundRect*
0 Rectangle with rounded corners*
0 $1 Rounding radius*
0 $2 $3 $4 $5 $6 $7 $8 $9 X,Y pos of 4 corners*
0 Add a 4 corners polygon primitive as box body*
4,1,4,$2,$3,$4,$5,$6,$7,$8,$9,$2,$3,0*
0 Add four circle primitives for the rounded corners*
1,1,$1+$1,$2,$3*
1,1,$1+$1,$4,$5*
1,1,$1+$1,$6,$7*
1,1,$1+$1,$8,$9*
0 Add four rect primitives between the rounded corners*
20,1,$1+$1,$2,$3,$4,$5,0*
20,1,$1+$1,$4,$5,$6,$7,0*
20,1,$1+$1,$6,$7,$8,$9,0*
20,1,$1+$1,$8,$9,$2,$3,0*%
G04 Aperture macros list end*
%TA.AperFunction,SMDPad,CuDef*%
%ADD10RoundRect,0.225000X-0.225000X-0.250000X0.225000X-0.250000X0.225000X0.250000X-0.225000X0.250000X0*%
%TD*%
%TA.AperFunction,SMDPad,CuDef*%
%ADD11RoundRect,0.200000X-0.275000X0.200000X-0.275000X-0.200000X0.275000X-0.200000X0.275000X0.200000X0*%
%TD*%
%TA.AperFunction,ComponentPad*%
%ADD12R,1.700000X1.700000*%
%TD*%
%TA.AperFunction,ComponentPad*%
%ADD13O,1.700000X1.700000*%
%TD*%
%TA.AperFunction,SMDPad,CuDef*%
%ADD14RoundRect,0.200000X0.200000X0.275000X-0.200000X0.275000X-0.200000X-0.275000X0.200000X-0.275000X0*%
%TD*%
%TA.AperFunction,SMDPad,CuDef*%
%ADD15RoundRect,0.225000X-0.250000X0.225000X-0.250000X-0.225000X0.250000X-0.225000X0.250000X0.225000X0*%
%TD*%
%TA.AperFunction,ComponentPad*%
%ADD16C,2.000000*%
%TD*%
%TA.AperFunction,ComponentPad*%
%ADD17C,1.778000*%
%TD*%
%TA.AperFunction,ComponentPad*%
%ADD18C,2.286000*%
%TD*%
%TA.AperFunction,SMDPad,CuDef*%
%ADD19R,0.700000X0.300000*%
%TD*%
%TA.AperFunction,HeatsinkPad*%
%ADD20O,1.400000X0.800000*%
%TD*%
%TA.AperFunction,ComponentPad*%
%ADD21R,1.308000X1.308000*%
%TD*%
%TA.AperFunction,ComponentPad*%
%ADD22C,1.308000*%
%TD*%
%TA.AperFunction,SMDPad,CuDef*%
%ADD23RoundRect,0.225000X0.225000X0.250000X-0.225000X0.250000X-0.225000X-0.250000X0.225000X-0.250000X0*%
%TD*%
%TA.AperFunction,SMDPad,CuDef*%
%ADD24RoundRect,0.225000X0.250000X-0.225000X0.250000X0.225000X-0.250000X0.225000X-0.250000X-0.225000X0*%
%TD*%
%TA.AperFunction,SMDPad,CuDef*%
%ADD25RoundRect,0.200000X-0.200000X-0.275000X0.200000X-0.275000X0.200000X0.275000X-0.200000X0.275000X0*%
%TD*%
%TA.AperFunction,ComponentPad*%
%ADD26R,1.508000X1.508000*%
%TD*%
%TA.AperFunction,ComponentPad*%
%ADD27C,1.508000*%
%TD*%
%TA.AperFunction,ComponentPad*%
%ADD28C,3.000000*%
%TD*%
%TA.AperFunction,SMDPad,CuDef*%
%ADD29RoundRect,0.375000X0.375000X-0.625000X0.375000X0.625000X-0.375000X0.625000X-0.375000X-0.625000X0*%
%TD*%
%TA.AperFunction,SMDPad,CuDef*%
%ADD30RoundRect,0.500000X1.400000X-0.500000X1.400000X0.500000X-1.400000X0.500000X-1.400000X-0.500000X0*%
%TD*%
%TA.AperFunction,SMDPad,CuDef*%
%ADD31RoundRect,0.200000X0.275000X-0.200000X0.275000X0.200000X-0.275000X0.200000X-0.275000X-0.200000X0*%
%TD*%
%TA.AperFunction,ComponentPad*%
%ADD32C,4.000000*%
%TD*%
%TA.AperFunction,ComponentPad*%
%ADD33R,1.600000X1.600000*%
%TD*%
%TA.AperFunction,ComponentPad*%
%ADD34C,1.600000*%
%TD*%
%TA.AperFunction,SMDPad,CuDef*%
%ADD35RoundRect,0.150000X0.825000X0.150000X-0.825000X0.150000X-0.825000X-0.150000X0.825000X-0.150000X0*%
%TD*%
%TA.AperFunction,HeatsinkPad*%
%ADD36R,2.410000X3.300000*%
%TD*%
%TA.AperFunction,SMDPad,CuDef*%
%ADD37R,1.500000X0.550000*%
%TD*%
%TA.AperFunction,SMDPad,CuDef*%
%ADD38R,0.550000X1.500000*%
%TD*%
%TA.AperFunction,ViaPad*%
%ADD39C,0.600000*%
%TD*%
%TA.AperFunction,Conductor*%
%ADD40C,0.200000*%
%TD*%
%TA.AperFunction,Conductor*%
%ADD41C,0.550000*%
%TD*%
%TA.AperFunction,Conductor*%
%ADD42C,0.300000*%
%TD*%
%TA.AperFunction,Conductor*%
%ADD43C,0.500000*%
%TD*%
%TA.AperFunction,Conductor*%
%ADD44C,0.350000*%
%TD*%
G04 APERTURE END LIST*
D10*
%TO.P,C7,1*%
%TO.N,GND*%
X183869800Y-39543800D03*
%TO.P,C7,2*%
%TO.N,Net-(U7-VI)*%
X185419800Y-39543800D03*
%TD*%
D11*
%TO.P,R2,1*%
%TO.N,Net-(C1-Pad1)*%
X138359400Y-62681600D03*
%TO.P,R2,2*%
%TO.N,VDD*%
X138359400Y-64331600D03*
%TD*%
D12*
%TO.P,J3,1,Pin_1*%
%TO.N,Net-(J3-Pin_1)*%
X106571200Y-66825600D03*
D13*
%TO.P,J3,2,Pin_2*%
%TO.N,Net-(J3-Pin_2)*%
X106571200Y-69365600D03*
%TO.P,J3,3,Pin_3*%
%TO.N,Net-(J3-Pin_3)*%
X106571200Y-71905600D03*
%TO.P,J3,4,Pin_4*%
%TO.N,Net-(J3-Pin_4)*%
X106571200Y-74445600D03*
%TO.P,J3,5,Pin_5*%
%TO.N,Net-(J3-Pin_5)*%
X106571200Y-76985600D03*
%TO.P,J3,6,Pin_6*%
%TO.N,Net-(J3-Pin_6)*%
X106571200Y-79525600D03*
%TD*%
D14*
%TO.P,R9,1*%
%TO.N,Net-(J9-CC2)*%
X180389800Y-50770600D03*
%TO.P,R9,2*%
%TO.N,GND*%
X178739800Y-50770600D03*
%TD*%
D15*
%TO.P,C4,1*%
%TO.N,VDD*%
X165600800Y-59177800D03*
%TO.P,C4,2*%
%TO.N,GND*%
X165600800Y-60727800D03*
%TD*%
D14*
%TO.P,R10,1*%
%TO.N,VDD*%
X116475000Y-106142800D03*
%TO.P,R10,2*%
%TO.N,Tx1*%
X114825000Y-106142800D03*
%TD*%
%TO.P,R4,1*%
%TO.N,VDD*%
X123688600Y-29993600D03*
%TO.P,R4,2*%
%TO.N,uC RX2*%
X122038600Y-29993600D03*
%TD*%
D16*
%TO.P,SW1,1,1*%
%TO.N,GND*%
X142870000Y-66479600D03*
X142870000Y-72979600D03*
%TO.P,SW1,2,2*%
%TO.N,icsp2*%
X138370000Y-66479600D03*
X138370000Y-72979600D03*
%TD*%
D17*
%TO.P,U3,B1A,SEL+*%
%TO.N,SW Control*%
X150792600Y-91080500D03*
%TO.P,U3,B1B*%
%TO.N,N/C*%
X157142600Y-91080500D03*
%TO.P,U3,B2A,SEL-*%
%TO.N,GND*%
X150792600Y-96160500D03*
%TO.P,U3,B2B*%
%TO.N,N/C*%
X157142600Y-96160500D03*
%TO.P,U3,H1,H+*%
%TO.N,VDD*%
X151427600Y-113940500D03*
%TO.P,U3,H2,H*%
%TO.N,Horz Control*%
X153967600Y-113940500D03*
%TO.P,U3,H3,H-*%
%TO.N,GND*%
X156507600Y-113940500D03*
D18*
%TO.P,U3,S1,SHIELD*%
X146347600Y-97113000D03*
%TO.P,U3,S2,SHIELD*%
X146347600Y-110448000D03*
%TO.P,U3,S3,SHIELD*%
X161587600Y-110448000D03*
%TO.P,U3,S4,SHIELD*%
X161587600Y-97113000D03*
D17*
%TO.P,U3,V1,V+*%
%TO.N,VDD*%
X143807600Y-101240500D03*
%TO.P,U3,V2,V*%
%TO.N,Vert Control*%
X143807600Y-103780500D03*
%TO.P,U3,V3,V-*%
%TO.N,GND*%
X143807600Y-106320500D03*
%TD*%
D19*
%TO.P,J9,A1*%
%TO.N,N/C*%
X184964800Y-50993400D03*
%TO.P,J9,A2*%
X184964800Y-50493400D03*
%TO.P,J9,A3*%
X184964800Y-49993400D03*
%TO.P,J9,A4*%
X184964800Y-49493400D03*
%TO.P,J9,A5,CC1*%
%TO.N,Net-(J9-CC1)*%
X184964800Y-48993400D03*
%TO.P,J9,A6*%
%TO.N,N/C*%
X184964800Y-48493400D03*
%TO.P,J9,A7*%
X184964800Y-47993400D03*
%TO.P,J9,A8*%
X184964800Y-47493400D03*
%TO.P,J9,A9,VBUS*%
%TO.N,Net-(U7-VI)*%
X184964800Y-46993400D03*
%TO.P,J9,A10*%
%TO.N,N/C*%
X184964800Y-46493400D03*
%TO.P,J9,A11*%
X184964800Y-45993400D03*
%TO.P,J9,A12,GND*%
%TO.N,GND*%
X184964800Y-45493400D03*
%TO.P,J9,B1*%
%TO.N,N/C*%
X186664800Y-45743400D03*
%TO.P,J9,B2*%
X186664800Y-46243400D03*
%TO.P,J9,B3*%
X186664800Y-46743400D03*
%TO.P,J9,B4*%
X186664800Y-47243400D03*
%TO.P,J9,B5,CC2*%
%TO.N,Net-(J9-CC2)*%
X186664800Y-47743400D03*
%TO.P,J9,B6*%
%TO.N,N/C*%
X186664800Y-48243400D03*
%TO.P,J9,B7*%
X186664800Y-48743400D03*
%TO.P,J9,B8*%
X186664800Y-49243400D03*
%TO.P,J9,B9,VBUS*%
%TO.N,Net-(U7-VI)*%
X186664800Y-49743400D03*
%TO.P,J9,B10*%
%TO.N,N/C*%
X186664800Y-50243400D03*
%TO.P,J9,B11*%
X186664800Y-50743400D03*
%TO.P,J9,B12,GND*%
%TO.N,GND*%
X186664800Y-51243400D03*
D20*
%TO.P,J9,S1,SHIELD*%
X192824800Y-52733400D03*
X186874800Y-52373400D03*
X186874800Y-44113400D03*
X192824800Y-43753400D03*
%TD*%
D15*
%TO.P,C3,1*%
%TO.N,VDD*%
X162552800Y-59177800D03*
%TO.P,C3,2*%
%TO.N,GND*%
X162552800Y-60727800D03*
%TD*%
D21*
%TO.P,U4,1,VCC*%
%TO.N,VDD*%
X125265600Y-33613000D03*
D22*
%TO.P,U4,2,RX*%
%TO.N,uC TX2*%
X122725600Y-33613000D03*
%TO.P,U4,3,TX*%
%TO.N,uC RX2*%
X120185600Y-33613000D03*
%TO.P,U4,4,DAC_R*%
%TO.N,unconnected-(U4-DAC_R-Pad4)*%
X117645600Y-33613000D03*
%TO.P,U4,5,DAC_L*%
%TO.N,unconnected-(U4-DAC_L-Pad5)*%
X115105600Y-33613000D03*
%TO.P,U4,6,SPK1*%
%TO.N,Net-(J11-Pin_2)*%
X112565600Y-33613000D03*
%TO.P,U4,7,GND*%
%TO.N,GND*%
X110025600Y-33613000D03*
%TO.P,U4,8,SPK2*%
%TO.N,Net-(J11-Pin_1)*%
X107485600Y-33613000D03*
%TO.P,U4,9,IO1*%
%TO.N,unconnected-(U4-IO1-Pad9)*%
X107485600Y-51647000D03*
%TO.P,U4,10,GND*%
%TO.N,GND*%
X110025600Y-51647000D03*
%TO.P,U4,11,IO2*%
%TO.N,unconnected-(U4-IO2-Pad11)*%
X112565600Y-51647000D03*
%TO.P,U4,12,ADKEY1*%
%TO.N,unconnected-(U4-ADKEY1-Pad12)*%
X115105600Y-51647000D03*
%TO.P,U4,13,ADKEY2*%
%TO.N,unconnected-(U4-ADKEY2-Pad13)*%
X117645600Y-51647000D03*
%TO.P,U4,14,USB+*%
%TO.N,unconnected-(U4-USB+-Pad14)*%
X120185600Y-51647000D03*
%TO.P,U4,15,USB-*%
%TO.N,unconnected-(U4-USB--Pad15)*%
X122725600Y-51647000D03*
%TO.P,U4,16,BUSY*%
%TO.N,unconnected-(U4-BUSY-Pad16)*%
X125265600Y-51647000D03*
%TD*%
D23*
%TO.P,C13,1*%
%TO.N,VDD*%
X116526600Y-112848400D03*
%TO.P,C13,2*%
%TO.N,Net-(U8-V+)*%
X114976600Y-112848400D03*
%TD*%
D11*
%TO.P,R3,1*%
%TO.N,VDD*%
X130585200Y-35683200D03*
%TO.P,R3,2*%
%TO.N,uC TX2*%
X130585200Y-37333200D03*
%TD*%
D12*
%TO.P,J8,1,Pin_1*%
%TO.N,Net-(J8-Pin_1)*%
X106571200Y-83270000D03*
D13*
%TO.P,J8,2,Pin_2*%
%TO.N,Net-(J8-Pin_2)*%
X106571200Y-85810000D03*
%TO.P,J8,3,Pin_3*%
%TO.N,Net-(J8-Pin_3)*%
X106571200Y-88350000D03*
%TO.P,J8,4,Pin_4*%
%TO.N,Net-(J8-Pin_4)*%
X106571200Y-90890000D03*
%TO.P,J8,5,Pin_5*%
%TO.N,Net-(J8-Pin_5)*%
X106571200Y-93430000D03*
%TD*%
D15*
%TO.P,C6,1*%
%TO.N,VDD*%
X164076800Y-59177800D03*
%TO.P,C6,2*%
%TO.N,GND*%
X164076800Y-60727800D03*
%TD*%
D12*
%TO.P,J11,1,Pin_1*%
%TO.N,Net-(J11-Pin_1)*%
X109220000Y-26009600D03*
D13*
%TO.P,J11,2,Pin_2*%
%TO.N,Net-(J11-Pin_2)*%
X111760000Y-26009600D03*
%TD*%
D24*
%TO.P,C9,1*%
%TO.N,VDD*%
X137711600Y-101215400D03*
%TO.P,C9,2*%
%TO.N,GND*%
X137711600Y-99665400D03*
%TD*%
D12*
%TO.P,J6,1,Pin_1*%
%TO.N,Net-(J6-Pin_1)*%
X194099600Y-67796000D03*
D13*
%TO.P,J6,2,Pin_2*%
%TO.N,Net-(J6-Pin_2)*%
X194099600Y-65256000D03*
%TD*%
D12*
%TO.P,J7,1,Pin_1*%
%TO.N,Net-(J7-Pin_1)*%
X194048800Y-88009400D03*
D13*
%TO.P,J7,2,Pin_2*%
%TO.N,Net-(J7-Pin_2)*%
X194048800Y-85469400D03*
%TO.P,J7,3,Pin_3*%
%TO.N,Net-(J7-Pin_3)*%
X194048800Y-82929400D03*
%TO.P,J7,4,Pin_4*%
%TO.N,Net-(J7-Pin_4)*%
X194048800Y-80389400D03*
%TD*%
D25*
%TO.P,R5,1*%
%TO.N,SW Control*%
X150894200Y-86838700D03*
%TO.P,R5,2*%
%TO.N,VDD*%
X152544200Y-86838700D03*
%TD*%
D11*
%TO.P,R6,1*%
%TO.N,SCL1*%
X151986400Y-26920600D03*
%TO.P,R6,2*%
%TO.N,VDD*%
X151986400Y-28570600D03*
%TD*%
D23*
%TO.P,C10,1*%
%TO.N,VDD*%
X149205400Y-27390000D03*
%TO.P,C10,2*%
%TO.N,GND*%
X147655400Y-27390000D03*
%TD*%
D24*
%TO.P,C11,1*%
%TO.N,Net-(U8-C1+)*%
X129213600Y-111997800D03*
%TO.P,C11,2*%
%TO.N,Net-(U8-C1-)*%
X129213600Y-110447800D03*
%TD*%
D12*
%TO.P,J4,1,Pin_1*%
%TO.N,Net-(J4-Pin_1)*%
X106571200Y-57698800D03*
D13*
%TO.P,J4,2,Pin_2*%
%TO.N,Tx1*%
X106571200Y-60238800D03*
%TO.P,J4,3,Pin_3*%
%TO.N,Rx1*%
X106571200Y-62778800D03*
%TD*%
D26*
%TO.P,U2,1,GND*%
%TO.N,GND*%
X149446400Y-31485600D03*
D27*
%TO.P,U2,2,VCC_IN*%
%TO.N,VDD*%
X151986400Y-31485600D03*
%TO.P,U2,3,SCL*%
%TO.N,SCL1*%
X154526400Y-31485600D03*
%TO.P,U2,4,SDA*%
%TO.N,SDA1*%
X157066400Y-31485600D03*
D28*
%TO.P,U2,S1*%
%TO.N,N/C*%
X142256400Y-31985600D03*
%TO.P,U2,S2*%
X164256400Y-31985600D03*
%TO.P,U2,S3*%
X164256400Y-53985600D03*
%TO.P,U2,S4*%
X142256400Y-53985600D03*
%TD*%
D14*
%TO.P,R8,1*%
%TO.N,Net-(J9-CC1)*%
X180389800Y-47138400D03*
%TO.P,R8,2*%
%TO.N,GND*%
X178739800Y-47138400D03*
%TD*%
D29*
%TO.P,U7,1,GND*%
%TO.N,GND*%
X188059800Y-39519200D03*
%TO.P,U7,2,VO*%
%TO.N,VDD*%
X190359800Y-39519200D03*
D30*
X190359800Y-33219200D03*
D29*
%TO.P,U7,3,VI*%
%TO.N,Net-(U7-VI)*%
X192659800Y-39519200D03*
%TD*%
D31*
%TO.P,R1,1*%
%TO.N,icsp2*%
X134549400Y-64331600D03*
%TO.P,R1,2*%
%TO.N,Net-(C1-Pad1)*%
X134549400Y-62681600D03*
%TD*%
D12*
%TO.P,J1,1,Pin_1*%
%TO.N,VPP*%
X181145600Y-84844800D03*
D13*
%TO.P,J1,2,Pin_2*%
%TO.N,icsp2*%
X178605600Y-84844800D03*
%TO.P,J1,3,Pin_3*%
%TO.N,GND*%
X176065600Y-84844800D03*
%TO.P,J1,4,Pin_4*%
%TO.N,icsp4*%
X173525600Y-84844800D03*
%TO.P,J1,5,Pin_5*%
%TO.N,icsp5*%
X170985600Y-84844800D03*
%TD*%
D15*
%TO.P,C5,1*%
%TO.N,VDD*%
X167124800Y-59177800D03*
%TO.P,C5,2*%
%TO.N,GND*%
X167124800Y-60727800D03*
%TD*%
%TO.P,C14,1*%
%TO.N,GND*%
X129315200Y-104199400D03*
%TO.P,C14,2*%
%TO.N,Net-(U8-V-)*%
X129315200Y-105749400D03*
%TD*%
D32*
%TO.P,J10,0*%
%TO.N,N/C*%
X108484000Y-119439869D03*
X133484000Y-119439869D03*
D33*
%TO.P,J10,1,1*%
%TO.N,unconnected-(J10-Pad1)*%
X115444000Y-118019869D03*
D34*
%TO.P,J10,2,2*%
%TO.N,Net-(U8-DOUT1)*%
X118214000Y-118019869D03*
%TO.P,J10,3,3*%
%TO.N,RXD*%
X120984000Y-118019869D03*
%TO.P,J10,4,4*%
%TO.N,unconnected-(J10-Pad4)*%
X123754000Y-118019869D03*
%TO.P,J10,5,5*%
%TO.N,GND*%
X126524000Y-118019869D03*
%TO.P,J10,6,6*%
%TO.N,unconnected-(J10-Pad6)*%
X116829000Y-120859869D03*
%TO.P,J10,7,7*%
%TO.N,unconnected-(J10-Pad7)*%
X119599000Y-120859869D03*
%TO.P,J10,8,8*%
%TO.N,unconnected-(J10-Pad8)*%
X122369000Y-120859869D03*
%TO.P,J10,9,9*%
%TO.N,unconnected-(J10-Pad9)*%
X125139000Y-120859869D03*
%TD*%
D12*
%TO.P,J2,1,Pin_1*%
%TO.N,Net-(J2-Pin_1)*%
X194099600Y-76615200D03*
D13*
%TO.P,J2,2,Pin_2*%
%TO.N,Net-(J2-Pin_2)*%
X194099600Y-74075200D03*
%TO.P,J2,3,Pin_3*%
%TO.N,Net-(J2-Pin_3)*%
X194099600Y-71535200D03*
%TD*%
D12*
%TO.P,J5,1,Pin_1*%
%TO.N,Net-(J5-Pin_1)*%
X194099600Y-61629200D03*
D13*
%TO.P,J5,2,Pin_2*%
%TO.N,Net-(J5-Pin_2)*%
X194099600Y-59089200D03*
%TO.P,J5,3,Pin_3*%
%TO.N,Net-(J5-Pin_3)*%
X194099600Y-56549200D03*
%TD*%
D24*
%TO.P,C12,1*%
%TO.N,Net-(U8-C2+)*%
X129315200Y-108848200D03*
%TO.P,C12,2*%
%TO.N,Net-(U8-C2-)*%
X129315200Y-107298200D03*
%TD*%
D35*
%TO.P,U5,1,A0*%
%TO.N,GND*%
X179399400Y-28432000D03*
%TO.P,U5,2,A1*%
X179399400Y-27162000D03*
%TO.P,U5,3,A2*%
X179399400Y-25892000D03*
%TO.P,U5,4,GND*%
X179399400Y-24622000D03*
%TO.P,U5,5,SDA*%
%TO.N,SDA1*%
X174449400Y-24622000D03*
%TO.P,U5,6,SCL*%
%TO.N,SCL1*%
X174449400Y-25892000D03*
%TO.P,U5,7,WP*%
%TO.N,GND*%
X174449400Y-27162000D03*
%TO.P,U5,8,VCC*%
%TO.N,VDD*%
X174449400Y-28432000D03*
D36*
%TO.P,U5,9*%
%TO.N,N/C*%
X176924400Y-26527000D03*
%TD*%
D11*
%TO.P,R7,1*%
%TO.N,SDA1*%
X157066400Y-26920600D03*
%TO.P,R7,2*%
%TO.N,VDD*%
X157066400Y-28570600D03*
%TD*%
D10*
%TO.P,C8,1*%
%TO.N,VDD*%
X179085000Y-33193800D03*
%TO.P,C8,2*%
%TO.N,GND*%
X180635000Y-33193800D03*
%TD*%
D15*
%TO.P,C1,1*%
%TO.N,Net-(C1-Pad1)*%
X142880600Y-62680800D03*
%TO.P,C1,2*%
%TO.N,GND*%
X142880600Y-64230800D03*
%TD*%
D10*
%TO.P,C2,1*%
%TO.N,VDD*%
X175982600Y-31110600D03*
%TO.P,C2,2*%
%TO.N,GND*%
X177532600Y-31110600D03*
%TD*%
D37*
%TO.P,U1,1,RC7/RX1/DT1/AN19*%
%TO.N,Rx1*%
X149370800Y-62671200D03*
%TO.P,U1,2,RD4/P2D/SDO2/AN24*%
%TO.N,Net-(J3-Pin_5)*%
X149370800Y-63471200D03*
%TO.P,U1,3,RD5/P1B/AN25*%
%TO.N,Net-(J3-Pin_6)*%
X149370800Y-64271200D03*
%TO.P,U1,4,RD6/TX2/CK2/P1C/AN26*%
%TO.N,uC TX2*%
X149370800Y-65071200D03*
%TO.P,U1,5,RD7/RX2/DT2/P1D/AN27*%
%TO.N,uC RX2*%
X149370800Y-65871200D03*
%TO.P,U1,6,VSS*%
%TO.N,GND*%
X149370800Y-66671200D03*
%TO.P,U1,7,VDD*%
%TO.N,VDD*%
X149370800Y-67471200D03*
%TO.P,U1,8,AN12/FLT0/INT0/RB0*%
%TO.N,SW Control*%
X149370800Y-68271200D03*
%TO.P,U1,9,AN10/C12IN3-/CTDIN/INT1/RB1*%
%TO.N,Net-(J8-Pin_1)*%
X149370800Y-69071200D03*
%TO.P,U1,10,AN8/CTED1/INT2/RB2*%
%TO.N,Net-(J8-Pin_2)*%
X149370800Y-69871200D03*
%TO.P,U1,11,AN9/C12IN2-/CTED2/RB3*%
%TO.N,Net-(J8-Pin_3)*%
X149370800Y-70671200D03*
D38*
%TO.P,U1,12,NC*%
%TO.N,unconnected-(U1-NC-Pad12)*%
X151070800Y-72371200D03*
%TO.P,U1,13,NC*%
%TO.N,unconnected-(U1-NC-Pad13)*%
X151870800Y-72371200D03*
%TO.P,U1,14,AN11/T5G/IOC/RB4*%
%TO.N,Net-(J8-Pin_4)*%
X152670800Y-72371200D03*
%TO.P,U1,15,AN13/CCP3/IOC/RB5*%
%TO.N,Net-(J8-Pin_5)*%
X153470800Y-72371200D03*
%TO.P,U1,16,PGC/IOC/RB6*%
%TO.N,icsp5*%
X154270800Y-72371200D03*
%TO.P,U1,17,PGD/IOC/RB7*%
%TO.N,icsp4*%
X155070800Y-72371200D03*
%TO.P,U1,18,~{MCLR}/VPP/RE3*%
%TO.N,icsp2*%
X155870800Y-72371200D03*
%TO.P,U1,19,AN0/C12IN0-/RA0*%
%TO.N,Vert Control*%
X156670800Y-72371200D03*
%TO.P,U1,20,AN1/C12INC1-/RA1*%
%TO.N,Horz Control*%
X157470800Y-72371200D03*
%TO.P,U1,21,VREF-/AN2/C2IN+/RA2*%
%TO.N,Net-(J7-Pin_1)*%
X158270800Y-72371200D03*
%TO.P,U1,22,VREF+/AN3/C1IN+/RA3*%
%TO.N,Net-(J7-Pin_2)*%
X159070800Y-72371200D03*
D37*
%TO.P,U1,23,C1OUT/SRQ/T0CKI/RA4*%
%TO.N,Net-(J7-Pin_3)*%
X160770800Y-70671200D03*
%TO.P,U1,24,AN4/C2OUT/SRQN/~{SS1}/RA5*%
%TO.N,Net-(J7-Pin_4)*%
X160770800Y-69871200D03*
%TO.P,U1,25,RE0/P3A/AN5*%
%TO.N,Net-(J2-Pin_1)*%
X160770800Y-69071200D03*
%TO.P,U1,26,RE1/P3B/AN6*%
%TO.N,Net-(J2-Pin_2)*%
X160770800Y-68271200D03*
%TO.P,U1,27,RE2/CCP5/AN7*%
%TO.N,Net-(J2-Pin_3)*%
X160770800Y-67471200D03*
%TO.P,U1,28,VDD*%
%TO.N,VDD*%
X160770800Y-66671200D03*
%TO.P,U1,29,VSS*%
%TO.N,GND*%
X160770800Y-65871200D03*
%TO.P,U1,30,OSC1/CLKIN/RA7*%
%TO.N,Net-(J6-Pin_1)*%
X160770800Y-65071200D03*
%TO.P,U1,31,OSC2/CLKOUT/RA6*%
%TO.N,Net-(J6-Pin_2)*%
X160770800Y-64271200D03*
%TO.P,U1,32,RC0/P2B/SOSCO/SCLKI*%
%TO.N,Net-(J5-Pin_1)*%
X160770800Y-63471200D03*
%TO.P,U1,33,NC*%
%TO.N,unconnected-(U1-NC-Pad33)*%
X160770800Y-62671200D03*
D38*
%TO.P,U1,34,NC*%
%TO.N,unconnected-(U1-NC-Pad34)*%
X159070800Y-60971200D03*
%TO.P,U1,35,RC1/SOSCI/P2A*%
%TO.N,Net-(J5-Pin_2)*%
X158270800Y-60971200D03*
%TO.P,U1,36,RC2/T1G/CCP2/AN14*%
%TO.N,Net-(J5-Pin_3)*%
X157470800Y-60971200D03*
%TO.P,U1,37,RC3/REFO/SCL1/SCK1/AN15*%
%TO.N,SCL1*%
X156670800Y-60971200D03*
%TO.P,U1,38,RD0/SCL2/SCK2/AN20*%
%TO.N,Net-(J3-Pin_1)*%
X155870800Y-60971200D03*
%TO.P,U1,39,RD1/SDI1/SDA2/AN21*%
%TO.N,Net-(J3-Pin_2)*%
X155070800Y-60971200D03*
%TO.P,U1,40,RD2/P2B/AN22*%
%TO.N,Net-(J3-Pin_3)*%
X154270800Y-60971200D03*
%TO.P,U1,41,RD3/P2C/~{SS2}/AN23*%
%TO.N,Net-(J3-Pin_4)*%
X153470800Y-60971200D03*
%TO.P,U1,42,RC4/SDA1/SDI1/AN16*%
%TO.N,SDA1*%
X152670800Y-60971200D03*
%TO.P,U1,43,RC5/SDO1/AN17*%
%TO.N,Net-(J4-Pin_1)*%
X151870800Y-60971200D03*
%TO.P,U1,44,RC6/TX1/CK1/AN18*%
%TO.N,Tx1*%
X151070800Y-60971200D03*
%TD*%
D35*
%TO.P,U8,1,C1+*%
%TO.N,Net-(U8-C1+)*%
X124475000Y-112484000D03*
%TO.P,U8,2,V+*%
%TO.N,Net-(U8-V+)*%
X124475000Y-111214000D03*
%TO.P,U8,3,C1-*%
%TO.N,Net-(U8-C1-)*%
X124475000Y-109944000D03*
%TO.P,U8,4,C2+*%
%TO.N,Net-(U8-C2+)*%
X124475000Y-108674000D03*
%TO.P,U8,5,C2-*%
%TO.N,Net-(U8-C2-)*%
X124475000Y-107404000D03*
%TO.P,U8,6,V-*%
%TO.N,Net-(U8-V-)*%
X124475000Y-106134000D03*
%TO.P,U8,7,DOUT2*%
%TO.N,unconnected-(U8-DOUT2-Pad7)*%
X124475000Y-104864000D03*
%TO.P,U8,8,RIN2*%
%TO.N,unconnected-(U8-RIN2-Pad8)*%
X124475000Y-103594000D03*
%TO.P,U8,9,ROUT2*%
%TO.N,unconnected-(U8-ROUT2-Pad9)*%
X119525000Y-103594000D03*
%TO.P,U8,10,DIN2*%
%TO.N,unconnected-(U8-DIN2-Pad10)*%
X119525000Y-104864000D03*
%TO.P,U8,11,DIN1*%
%TO.N,Tx1*%
X119525000Y-106134000D03*
%TO.P,U8,12,ROUT1*%
%TO.N,Rx1*%
X119525000Y-107404000D03*
%TO.P,U8,13,RIN1*%
%TO.N,RXD*%
X119525000Y-108674000D03*
%TO.P,U8,14,DOUT1*%
%TO.N,Net-(U8-DOUT1)*%
X119525000Y-109944000D03*
%TO.P,U8,15,GND*%
%TO.N,GND*%
X119525000Y-111214000D03*
%TO.P,U8,16,VCC*%
%TO.N,VDD*%
X119525000Y-112484000D03*
%TD*%
D39*
%TO.N,GND*%
X146347600Y-27390000D03*
X178387400Y-31110600D03*
X164838800Y-61730800D03*
X161968400Y-65871200D03*
X178739800Y-48840200D03*
X172901600Y-27148800D03*
X182909200Y-39544000D03*
X188059800Y-41084774D03*
X137711600Y-98421400D03*
X161587600Y-103488400D03*
X148062000Y-66671200D03*
%TO.N,icsp2*%
X157306000Y-70735200D03*
%TO.N,icsp4*%
X155070800Y-75954800D03*
X157472800Y-80222000D03*
%TO.N,icsp5*%
X152850000Y-76158000D03*
X156812400Y-81542800D03*
%TO.N,Net-(J3-Pin_4)*%
X145406400Y-60685600D03*
%TO.N,Net-(J3-Pin_2)*%
X149446400Y-55685600D03*
X121557200Y-55990400D03*
%TO.N,Net-(J3-Pin_5)*%
X146477415Y-62460599D03*
%TO.N,Net-(J3-Pin_1)*%
X118331400Y-56955600D03*
X141826400Y-56955600D03*
%TO.N,Net-(J3-Pin_3)*%
X149406400Y-59585600D03*
X132906400Y-61685600D03*
%TO.N,Net-(J3-Pin_6)*%
X148258412Y-64241596D03*
%TO.N,Net-(J4-Pin_1)*%
X151834000Y-58225600D03*
%TO.N,Net-(J5-Pin_3)*%
X162197200Y-56701600D03*
X157777600Y-56650800D03*
%TO.N,Net-(J5-Pin_2)*%
X158488800Y-57920800D03*
X163111600Y-57870000D03*
%TO.N,Net-(J8-Pin_1)*%
X140124800Y-69071200D03*
%TO.N,Net-(J8-Pin_3)*%
X147185800Y-72271800D03*
X147490600Y-70798600D03*
%TO.N,Net-(J8-Pin_2)*%
X140150000Y-69871200D03*
%TO.N,SCL1*%
X156670800Y-59760400D03*
X153256400Y-27770464D03*
X169807600Y-28152000D03*
%TO.N,SW Control*%
X150906400Y-85185600D03*
X146992000Y-68271200D03*
%TO.N,Horz Control*%
X157472800Y-73668800D03*
%TO.N,VDD*%
X168736000Y-73376800D03*
X168075600Y-66671200D03*
X113770400Y-110968800D03*
X158488800Y-25612000D03*
X159846000Y-77745600D03*
X139299100Y-101240500D03*
X160912800Y-72208400D03*
X158474400Y-28571200D03*
X123625600Y-116099600D03*
%TO.N,SDA1*%
X152670800Y-59725600D03*
X154221600Y-26932800D03*
X154308800Y-29282400D03*
%TO.N,Net-(U8-V+)*%
X117682000Y-114626400D03*
X126622800Y-111730800D03*
%TO.N,Tx1*%
X151021200Y-58784400D03*
%TO.N,Rx1*%
X117631200Y-108378000D03*
X147719200Y-60562400D03*
%TD*%
D40*
%TO.N,GND*%
X183888800Y-43671400D02*
X184447600Y-43112600D01*
D41*
X178387400Y-29444000D02*
X179399400Y-28432000D01*
X186874800Y-51423400D02*
X186770800Y-51319400D01*
X156507600Y-113940500D02*
X156571100Y-114004000D01*
D40*
X184964800Y-45493400D02*
X184237600Y-45493400D01*
D41*
X156571100Y-114004000D02*
X158031600Y-114004000D01*
X158031600Y-114004000D02*
X161587600Y-110448000D01*
X179399400Y-28432000D02*
X179399400Y-27162000D01*
X156507600Y-114918400D02*
X156507600Y-113940500D01*
X162552800Y-60727800D02*
X164076800Y-60727800D01*
X179399400Y-27162000D02*
X179399400Y-25892000D01*
X155796400Y-115629600D02*
X156507600Y-114918400D01*
X137711600Y-99665400D02*
X137711600Y-98421400D01*
X186874800Y-52373400D02*
X186874800Y-51423400D01*
X152888100Y-98256000D02*
X160444600Y-98256000D01*
X183869800Y-39543800D02*
X182909400Y-39543800D01*
X186770800Y-51319400D02*
X186664800Y-51319400D01*
X160770800Y-65871200D02*
X161968400Y-65871200D01*
X146347600Y-112064446D02*
X149912754Y-115629600D01*
X146347600Y-110448000D02*
X146347600Y-112064446D01*
X165600800Y-60727800D02*
X164838800Y-60727800D01*
X161587600Y-103488400D02*
X161587600Y-110448000D01*
X174436200Y-27148800D02*
X172901600Y-27148800D01*
X182909200Y-39544000D02*
X182909400Y-39543800D01*
X150792600Y-96160500D02*
X152888100Y-98256000D01*
X178739800Y-48840200D02*
X178739800Y-50770600D01*
X149370800Y-66671200D02*
X148062000Y-66671200D01*
X161587600Y-97113000D02*
X161587600Y-103488400D01*
X174449400Y-27162000D02*
X174436200Y-27148800D01*
X142880600Y-66469000D02*
X142870000Y-66479600D01*
D40*
X184981000Y-43112600D02*
X185209600Y-42884000D01*
X186874800Y-43177600D02*
X186874800Y-44113400D01*
X184237600Y-45493400D02*
X183888800Y-45144600D01*
D41*
X181734400Y-33193800D02*
X188059800Y-39519200D01*
X165600800Y-60727800D02*
X167124800Y-60727800D01*
X178388000Y-31111200D02*
X178387400Y-31110600D01*
D40*
X184447600Y-43112600D02*
X184981000Y-43112600D01*
D41*
X177532600Y-31110600D02*
X178387400Y-31110600D01*
X179399400Y-24622000D02*
X179399400Y-25892000D01*
X178739800Y-47138400D02*
X178739800Y-48840200D01*
D40*
X185209600Y-42884000D02*
X186581200Y-42884000D01*
X183888800Y-45144600D02*
X183888800Y-43671400D01*
D41*
X147655400Y-27390000D02*
X146347600Y-27390000D01*
X188059800Y-39519200D02*
X188059800Y-41084774D01*
X180635000Y-33193800D02*
X181734400Y-33193800D01*
X148026400Y-66635600D02*
X148062000Y-66671200D01*
X164838800Y-60727800D02*
X164838800Y-61730800D01*
D40*
X186581200Y-42884000D02*
X186874800Y-43177600D01*
D41*
X149912754Y-115629600D02*
X155796400Y-115629600D01*
X143807600Y-106320500D02*
X143807600Y-107908000D01*
X143026000Y-66635600D02*
X148026400Y-66635600D01*
X160444600Y-98256000D02*
X161587600Y-97113000D01*
X143807600Y-107908000D02*
X146347600Y-110448000D01*
X178387400Y-31110600D02*
X178387400Y-29444000D01*
X142880600Y-64230800D02*
X142880600Y-66469000D01*
X142870000Y-66479600D02*
X143026000Y-66635600D01*
X164838800Y-60727800D02*
X164076800Y-60727800D01*
%TO.N,Net-(C1-Pad1)*%
X142879800Y-62681600D02*
X142880600Y-62680800D01*
X138359400Y-62681600D02*
X142879800Y-62681600D01*
X134549400Y-62681600D02*
X138359400Y-62681600D01*
D40*
%TO.N,icsp2*%
X146936857Y-71670800D02*
X147434743Y-71670800D01*
D41*
X136222000Y-64331600D02*
X138370000Y-66479600D01*
D40*
X150494800Y-71389400D02*
X150564000Y-71320200D01*
D42*
X155870800Y-72371200D02*
X155870800Y-71544200D01*
D40*
X150494800Y-71553600D02*
X150494800Y-71389400D01*
X140396800Y-71687600D02*
X142322108Y-71687600D01*
X150564000Y-71320200D02*
X155646800Y-71320200D01*
X147451543Y-71687600D02*
X150360800Y-71687600D01*
D41*
X134549400Y-64331600D02*
X136222000Y-64331600D01*
D40*
X143417892Y-71687600D02*
X146920057Y-71687600D01*
X147434743Y-71670800D02*
X147451543Y-71687600D01*
X142322108Y-71687600D02*
X142331108Y-71678600D01*
D42*
X155870800Y-71544200D02*
X156679800Y-70735200D01*
X156679800Y-70735200D02*
X157306000Y-70735200D01*
D41*
X138370000Y-66479600D02*
X138370000Y-72979600D01*
D42*
X155769800Y-71320200D02*
X155769800Y-72270200D01*
D40*
X150360800Y-71687600D02*
X150494800Y-71553600D01*
X142331108Y-71678600D02*
X143408892Y-71678600D01*
X146920057Y-71687600D02*
X146936857Y-71670800D01*
X140029400Y-71320200D02*
X140396800Y-71687600D01*
X143408892Y-71678600D02*
X143417892Y-71687600D01*
D41*
X138370000Y-72979600D02*
X140029400Y-71320200D01*
D42*
X155769800Y-72270200D02*
X155870800Y-72371200D01*
D41*
%TO.N,icsp4*%
X155070800Y-75954800D02*
X155070800Y-72371200D01*
X157472800Y-80222000D02*
X168902800Y-80222000D01*
X168902800Y-80222000D02*
X173525600Y-84844800D01*
%TO.N,icsp5*%
X158692000Y-84844800D02*
X170985600Y-84844800D01*
X154270800Y-74935674D02*
X154270800Y-72371200D01*
X157168000Y-81898400D02*
X157168000Y-83320800D01*
X152850000Y-76158000D02*
X153048474Y-76158000D01*
X153048474Y-76158000D02*
X154270800Y-74935674D01*
X157168000Y-83320800D02*
X158692000Y-84844800D01*
X156812400Y-81542800D02*
X157168000Y-81898400D01*
%TO.N,Net-(J2-Pin_3)*%
X160770800Y-67471200D02*
X190035600Y-67471200D01*
X160770800Y-67471200D02*
X160821600Y-67522000D01*
X190035600Y-67471200D02*
X194099600Y-71535200D01*
%TO.N,Net-(J2-Pin_1)*%
X186555600Y-69071200D02*
X194099600Y-76615200D01*
X160770800Y-69071200D02*
X186555600Y-69071200D01*
%TO.N,Net-(J2-Pin_2)*%
X194099600Y-73872000D02*
X194099600Y-74075200D01*
X188295600Y-68271200D02*
X194099600Y-74075200D01*
X160770800Y-68271200D02*
X188295600Y-68271200D01*
%TO.N,Net-(J3-Pin_4)*%
X146606400Y-59485600D02*
X147906400Y-59485600D01*
X152806400Y-62585600D02*
X153470800Y-61921200D01*
X145406400Y-60685600D02*
X146606400Y-59485600D01*
D43*
X147906400Y-59485600D02*
X151006400Y-62585600D01*
D41*
X151006400Y-62585600D02*
X152806400Y-62585600D01*
X153470800Y-61921200D02*
X153470800Y-60971200D01*
%TO.N,Net-(J3-Pin_2)*%
X109226400Y-69405600D02*
X120236400Y-58395600D01*
X155070800Y-60971200D02*
X155070800Y-56230000D01*
X106571200Y-69365600D02*
X109186400Y-69365600D01*
X155070800Y-56230000D02*
X154526400Y-55685600D01*
X120236400Y-56142800D02*
X120388800Y-55990400D01*
X154526400Y-55685600D02*
X149446400Y-55685600D01*
X120236400Y-58395600D02*
X120236400Y-56142800D01*
X120388800Y-55990400D02*
X121557200Y-55990400D01*
X109186400Y-69365600D02*
X109226400Y-69405600D01*
%TO.N,Net-(J3-Pin_5)*%
X148697600Y-63471200D02*
X149370800Y-63471200D01*
X147126400Y-62805600D02*
X146781399Y-62460599D01*
X149365196Y-63465596D02*
X147806396Y-63465596D01*
X147806396Y-63465596D02*
X147146400Y-62805600D01*
X146781399Y-62460599D02*
X146477415Y-62460599D01*
X147146400Y-62805600D02*
X147126400Y-62805600D01*
X149370800Y-63471200D02*
X149365196Y-63465596D01*
%TO.N,Net-(J3-Pin_1)*%
X154729600Y-54618800D02*
X155870800Y-55760000D01*
X108461400Y-66825600D02*
X106571200Y-66825600D01*
X143096400Y-56955600D02*
X145433200Y-54618800D01*
X155870800Y-55760000D02*
X155870800Y-60971200D01*
X141826400Y-56955600D02*
X143096400Y-56955600D01*
X145433200Y-54618800D02*
X154729600Y-54618800D01*
X118331400Y-56955600D02*
X108461400Y-66825600D01*
%TO.N,Net-(J3-Pin_3)*%
X153140000Y-57499600D02*
X154270800Y-58630400D01*
X114756400Y-71905600D02*
X124996400Y-61665600D01*
X151092400Y-57499600D02*
X153140000Y-57499600D01*
X106571200Y-71905600D02*
X114756400Y-71905600D01*
X154270800Y-58630400D02*
X154270800Y-59812457D01*
X154270800Y-59812457D02*
X154270800Y-60971200D01*
X149406400Y-59585600D02*
X149406400Y-59185600D01*
X149406400Y-59185600D02*
X151092400Y-57499600D01*
X125016400Y-61685600D02*
X132906400Y-61685600D01*
X124996400Y-61665600D02*
X125016400Y-61685600D01*
%TO.N,Net-(J3-Pin_6)*%
X148391196Y-64241596D02*
X148420800Y-64271200D01*
X148420800Y-64271200D02*
X149370800Y-64271200D01*
X148258412Y-64241596D02*
X148391196Y-64241596D01*
%TO.N,Net-(U8-C1-)*%
X124475000Y-109944000D02*
X128709800Y-109944000D01*
X128709800Y-109944000D02*
X129213600Y-110447800D01*
%TO.N,Net-(J4-Pin_1)*%
X151870800Y-60971200D02*
X151870800Y-58262400D01*
X151870800Y-58262400D02*
X151834000Y-58225600D01*
%TO.N,Net-(U8-C1+)*%
X128727400Y-112484000D02*
X129213600Y-111997800D01*
X124475000Y-112484000D02*
X128727400Y-112484000D01*
%TO.N,Net-(J5-Pin_3)*%
X157470800Y-56957600D02*
X157777600Y-56650800D01*
X162197200Y-56701600D02*
X162349600Y-56549200D01*
X162349600Y-56549200D02*
X194099600Y-56549200D01*
X157470800Y-60971200D02*
X157470800Y-56957600D01*
%TO.N,Net-(J5-Pin_1)*%
X167822800Y-63471200D02*
X169664800Y-61629200D01*
X169664800Y-61629200D02*
X194099600Y-61629200D01*
X160770800Y-63471200D02*
X167822800Y-63471200D01*
%TO.N,Net-(J5-Pin_2)*%
X192880400Y-57870000D02*
X194099600Y-59089200D01*
X158270800Y-58138800D02*
X158488800Y-57920800D01*
X158270800Y-60971200D02*
X158270800Y-58138800D01*
X163111600Y-57870000D02*
X192880400Y-57870000D01*
%TO.N,Net-(J6-Pin_1)*%
X192798800Y-67796000D02*
X194099600Y-67796000D01*
X169703200Y-65071200D02*
X170404000Y-65772000D01*
X170404000Y-65772000D02*
X190774800Y-65772000D01*
X160770800Y-65071200D02*
X169703200Y-65071200D01*
X190774800Y-65772000D02*
X192798800Y-67796000D01*
%TO.N,Net-(J6-Pin_2)*%
X160770800Y-64271200D02*
X193299800Y-64271200D01*
X193299800Y-64271200D02*
X194099600Y-65071000D01*
%TO.N,Net-(J7-Pin_2)*%
X161497484Y-73758600D02*
X162068084Y-74329200D01*
X159070800Y-73387200D02*
X159442200Y-73758600D01*
X162068084Y-74329200D02*
X182908600Y-74329200D01*
X159442200Y-73758600D02*
X161497484Y-73758600D01*
X182908600Y-74329200D02*
X194048800Y-85469400D01*
X159070800Y-72371200D02*
X159070800Y-73387200D01*
%TO.N,Net-(J7-Pin_3)*%
X161790400Y-70671200D02*
X163467200Y-72348000D01*
X191407200Y-79561600D02*
X191407200Y-80069600D01*
X191407200Y-80287800D02*
X191407200Y-80069600D01*
X160770800Y-70671200D02*
X161790400Y-70671200D01*
X194048800Y-82929400D02*
X191407200Y-80287800D01*
X184193600Y-72348000D02*
X191407200Y-79561600D01*
X163467200Y-72348000D02*
X184193600Y-72348000D01*
%TO.N,Net-(J7-Pin_4)*%
X165054400Y-69871200D02*
X166210400Y-71027200D01*
X184686600Y-71027200D02*
X194048800Y-80389400D01*
X160770800Y-69871200D02*
X165054400Y-69871200D01*
X166210400Y-71027200D02*
X184686600Y-71027200D01*
%TO.N,Net-(J7-Pin_1)*%
X161207120Y-74459600D02*
X162346720Y-75599200D01*
X158844400Y-74634000D02*
X160431280Y-74634000D01*
X181638600Y-75599200D02*
X194048800Y-88009400D01*
X160605680Y-74459600D02*
X161207120Y-74459600D01*
X193947200Y-87603000D02*
X194048800Y-87603000D01*
X158270800Y-74060400D02*
X158270800Y-72371200D01*
X162346720Y-75599200D02*
X181638600Y-75599200D01*
X160431280Y-74634000D02*
X160605680Y-74459600D01*
X158270800Y-74060400D02*
X158844400Y-74634000D01*
%TO.N,Net-(J8-Pin_1)*%
X149370800Y-69071200D02*
X140124800Y-69071200D01*
%TO.N,Net-(J8-Pin_4)*%
X125214800Y-90890000D02*
X134104800Y-82000000D01*
X152670800Y-73671200D02*
X152670800Y-72371200D01*
X134104800Y-82000000D02*
X141318400Y-82000000D01*
X147465200Y-74024400D02*
X152317600Y-74024400D01*
X152317600Y-74024400D02*
X152670800Y-73671200D01*
X147211200Y-74278400D02*
X147465200Y-74024400D01*
X141318400Y-82000000D02*
X147211200Y-76107200D01*
X147211200Y-76107200D02*
X147211200Y-74278400D01*
X106571200Y-90890000D02*
X125214800Y-90890000D01*
%TO.N,Net-(J8-Pin_3)*%
X147668400Y-70620800D02*
X149320400Y-70620800D01*
X107587200Y-87334000D02*
X106571200Y-88350000D01*
X131361600Y-80679200D02*
X124706800Y-87334000D01*
X138778400Y-80679200D02*
X131361600Y-80679200D01*
X147490600Y-70798600D02*
X147668400Y-70620800D01*
X147185800Y-72271800D02*
X138778400Y-80679200D01*
X124706800Y-87334000D02*
X107587200Y-87334000D01*
X149320400Y-70620800D02*
X149370800Y-70671200D01*
%TO.N,Net-(J8-Pin_2)*%
X140150000Y-69871200D02*
X140111600Y-69871200D01*
X149370800Y-69871200D02*
X140150000Y-69871200D01*
%TO.N,Net-(J8-Pin_5)*%
X132326800Y-93430000D02*
X150818000Y-74938800D01*
X150818000Y-74938800D02*
X153205600Y-74938800D01*
X106571200Y-93430000D02*
X132326800Y-93430000D01*
X153205600Y-74938800D02*
X153470800Y-74673600D01*
X153470800Y-74673600D02*
X153470800Y-72371200D01*
%TO.N,Net-(J11-Pin_2)*%
X112565600Y-27032800D02*
X112572800Y-27025600D01*
X112572800Y-27025600D02*
X111760000Y-26212800D01*
X111760000Y-26212800D02*
X111760000Y-26009600D01*
X112565600Y-33613000D02*
X112565600Y-27032800D01*
%TO.N,Net-(J11-Pin_1)*%
X107485600Y-27388400D02*
X108864400Y-26009600D01*
X107485600Y-33613000D02*
X107485600Y-27388400D01*
X108864400Y-26009600D02*
X109220000Y-26009600D01*
%TO.N,SCL1*%
X156670800Y-60971200D02*
X156670800Y-59760400D01*
X172067600Y-25892000D02*
X169807600Y-28152000D01*
X174449400Y-25892000D02*
X172067600Y-25892000D01*
X153256400Y-27770464D02*
X153256400Y-30215600D01*
X153256400Y-30215600D02*
X154526400Y-31485600D01*
X151986400Y-26920600D02*
X152836264Y-27770464D01*
X152836264Y-27770464D02*
X153256400Y-27770464D01*
%TO.N,SW Control*%
X150906400Y-85185600D02*
X150894200Y-85197800D01*
X150894200Y-90978900D02*
X150792600Y-91080500D01*
X150894200Y-86838700D02*
X150894200Y-85197800D01*
X146992000Y-68271200D02*
X149370800Y-68271200D01*
X150894200Y-86838700D02*
X150894200Y-90978900D01*
D44*
%TO.N,Net-(U7-VI)*%
X184964800Y-46993400D02*
X184312800Y-46993400D01*
X183214000Y-41749600D02*
X185419800Y-39543800D01*
X186100000Y-49743400D02*
X186664800Y-49743400D01*
D41*
X192659800Y-39519200D02*
X192659800Y-40672800D01*
X191032800Y-42299800D02*
X188175800Y-42299800D01*
X192709800Y-39569200D02*
X192659800Y-39519200D01*
X188175800Y-42299800D02*
X185419800Y-39543800D01*
D44*
X185819200Y-47195800D02*
X185819200Y-49462600D01*
D41*
X192659800Y-40672800D02*
X191032800Y-42299800D01*
D44*
X184964800Y-46993400D02*
X185616800Y-46993400D01*
X185819200Y-49462600D02*
X186100000Y-49743400D01*
X185616800Y-46993400D02*
X185819200Y-47195800D01*
X183214000Y-45894600D02*
X183214000Y-41749600D01*
X184312800Y-46993400D02*
X183214000Y-45894600D01*
%TO.N,Net-(J9-CC2)*%
X186664800Y-47743400D02*
X188316400Y-47743400D01*
X188316400Y-47743400D02*
X189222800Y-48649800D01*
D41*
X188308400Y-53780600D02*
X189222800Y-52866200D01*
X189222800Y-52866200D02*
X189222800Y-48649800D01*
X183399800Y-53780600D02*
X188308400Y-53780600D01*
X180389800Y-50770600D02*
X183399800Y-53780600D01*
D44*
%TO.N,Net-(J9-CC1)*%
X182244800Y-48993400D02*
X184964800Y-48993400D01*
X180389800Y-47138400D02*
X182244800Y-48993400D01*
D41*
%TO.N,uC RX2*%
X147592000Y-65871200D02*
X149370800Y-65871200D01*
X122038600Y-31760000D02*
X120185600Y-33613000D01*
X120185600Y-33613000D02*
X120185600Y-38464800D01*
X122038600Y-29993600D02*
X122038600Y-31760000D01*
X120185600Y-38464800D02*
X147592000Y-65871200D01*
%TO.N,Horz Control*%
X157470800Y-72371200D02*
X157470800Y-73666800D01*
X157470800Y-73666800D02*
X157472800Y-73668800D01*
%TO.N,Vert Control*%
X150846800Y-84409600D02*
X156670800Y-78585600D01*
X142029600Y-102002500D02*
X142029600Y-93226800D01*
X156670800Y-78585600D02*
X156670800Y-72371200D01*
X142029600Y-93226800D02*
X150130400Y-85126000D01*
X150584970Y-84409600D02*
X150846800Y-84409600D01*
X150130400Y-85126000D02*
X150130400Y-84864170D01*
X143807600Y-103780500D02*
X142029600Y-102002500D01*
X150130400Y-84864170D02*
X150584970Y-84409600D01*
%TO.N,uC TX2*%
X122725600Y-39804800D02*
X147992000Y-65071200D01*
X125197200Y-37333200D02*
X122725600Y-39804800D01*
X130585200Y-37333200D02*
X125197200Y-37333200D01*
X147992000Y-65071200D02*
X149370800Y-65071200D01*
X122725600Y-33613000D02*
X122725600Y-39804800D01*
%TO.N,VDD*%
X149243200Y-96020800D02*
X149243200Y-95411200D01*
X155817747Y-65997253D02*
X156738400Y-65076600D01*
X123688600Y-32036000D02*
X124769918Y-33117318D01*
X137138400Y-29130000D02*
X147465400Y-29130000D01*
X158473800Y-28570600D02*
X158474400Y-28571200D01*
X152544200Y-92111922D02*
X152544200Y-86838700D01*
X127335800Y-35683200D02*
X125761282Y-34108682D01*
X189359800Y-32219200D02*
X180059600Y-32219200D01*
X116526600Y-111426000D02*
X116526600Y-106194400D01*
X160770800Y-66671200D02*
X168075600Y-66671200D01*
X113770400Y-110968800D02*
X116069400Y-110968800D01*
X151986400Y-28570600D02*
X151986400Y-31485600D01*
X151427600Y-108860500D02*
X143807600Y-101240500D01*
X175982600Y-31110600D02*
X178065800Y-33193800D01*
X175982600Y-31110600D02*
X175390200Y-31110600D01*
X149370800Y-67471200D02*
X155078947Y-67471200D01*
X141193600Y-68002400D02*
X140126800Y-66935600D01*
X139261000Y-101202400D02*
X139299100Y-101240500D01*
X148938400Y-97366935D02*
X148938400Y-96325600D01*
X140126800Y-66935600D02*
X140126800Y-65056000D01*
X116526600Y-112848400D02*
X116526600Y-111426000D01*
X167124800Y-59177800D02*
X165600800Y-59177800D01*
X137711600Y-108211200D02*
X129823200Y-116099600D01*
X151929160Y-25612000D02*
X158488800Y-25612000D01*
X119160600Y-112848400D02*
X119525000Y-112484000D01*
X148938400Y-96325600D02*
X149243200Y-96020800D01*
X162552800Y-59177800D02*
X159657200Y-56282200D01*
X158474400Y-28571200D02*
X158566400Y-28479200D01*
X149600878Y-95053522D02*
X149602600Y-95053522D01*
X152544200Y-84123880D02*
X158922480Y-77745600D01*
X137711600Y-101215400D02*
X137711600Y-108211200D01*
X150805800Y-26735360D02*
X151929160Y-25612000D01*
X158333000Y-66671200D02*
X160770800Y-66671200D01*
X150805800Y-27390000D02*
X151986400Y-28570600D01*
X116526600Y-112848400D02*
X119160600Y-112848400D01*
X159657200Y-29754000D02*
X158474400Y-28571200D01*
X159657200Y-56282200D02*
X159657200Y-29754000D01*
X129823200Y-116099600D02*
X123625600Y-116099600D01*
X178065800Y-33193800D02*
X179085000Y-33193800D01*
X165600800Y-59177800D02*
X164076800Y-59177800D01*
X116526600Y-106194400D02*
X116475000Y-106142800D01*
X140126800Y-65056000D02*
X139402400Y-64331600D01*
X190359800Y-33219200D02*
X189359800Y-32219200D01*
X162552800Y-59177800D02*
X164076800Y-59177800D01*
X139402400Y-64331600D02*
X138359400Y-64331600D01*
X158922480Y-77745600D02*
X159846000Y-77745600D01*
X160912800Y-72208400D02*
X161573200Y-72208400D01*
X158566400Y-28479200D02*
X168491600Y-28479200D01*
X174422400Y-30196800D02*
X174449400Y-30169800D01*
X152544200Y-86838700D02*
X152544200Y-84123880D01*
X149243200Y-95411200D02*
X149600878Y-95053522D01*
X170209200Y-30196800D02*
X174422400Y-30196800D01*
X162741600Y-73376800D02*
X168736000Y-73376800D01*
X123688600Y-29993600D02*
X123688600Y-32036000D01*
X156738400Y-65076600D02*
X162552800Y-59262200D01*
X162552800Y-59262200D02*
X162552800Y-59177800D01*
X151427600Y-113940500D02*
X151427600Y-108860500D01*
X145064835Y-101240500D02*
X148938400Y-97366935D01*
X147465400Y-29130000D02*
X149205400Y-27390000D01*
X156738400Y-65076600D02*
X158333000Y-66671200D01*
X144597200Y-68002400D02*
X141193600Y-68002400D01*
X175390200Y-31110600D02*
X174449400Y-30169800D01*
X130585200Y-35683200D02*
X137138400Y-29130000D01*
X161573200Y-72208400D02*
X162741600Y-73376800D01*
X143807600Y-101240500D02*
X145064835Y-101240500D01*
X150805800Y-27390000D02*
X150805800Y-26735360D01*
X190359800Y-39519200D02*
X190359800Y-33920200D01*
X174449400Y-30169800D02*
X174449400Y-28432000D01*
X149602600Y-95053522D02*
X152544200Y-92111922D01*
X149205400Y-27390000D02*
X150805800Y-27390000D01*
X168491600Y-28479200D02*
X170209200Y-30196800D01*
X157066400Y-28570600D02*
X158473800Y-28570600D01*
X180059600Y-32219200D02*
X179085000Y-33193800D01*
X116069400Y-110968800D02*
X116526600Y-111426000D01*
X155817747Y-66732400D02*
X155817747Y-65997253D01*
X137914800Y-101202400D02*
X139261000Y-101202400D01*
X149370800Y-67471200D02*
X145128400Y-67471200D01*
X145128400Y-67471200D02*
X144597200Y-68002400D01*
X155078947Y-67471200D02*
X155817747Y-66732400D01*
X130585200Y-35683200D02*
X127335800Y-35683200D01*
%TO.N,SDA1*%
X155854564Y-29282400D02*
X157271718Y-30699554D01*
X154221600Y-26932800D02*
X157054200Y-26932800D01*
X154308800Y-29282400D02*
X155854564Y-29282400D01*
X154221600Y-26932800D02*
X154233800Y-26920600D01*
X169917600Y-24622000D02*
X174449400Y-24622000D01*
X157271718Y-31280282D02*
X157066400Y-31485600D01*
X157271718Y-30699554D02*
X157271718Y-31280282D01*
X152670800Y-60971200D02*
X152670800Y-59725600D01*
X157054200Y-26932800D02*
X157066400Y-26920600D01*
X167592600Y-26920600D02*
X169904400Y-24608800D01*
X169904400Y-24608800D02*
X169917600Y-24622000D01*
X157066400Y-26920600D02*
X167592600Y-26920600D01*
%TO.N,Net-(U8-C2-)*%
X124475000Y-107404000D02*
X129209400Y-107404000D01*
X129209400Y-107404000D02*
X129315200Y-107298200D01*
%TO.N,Net-(U8-C2+)*%
X129141000Y-108674000D02*
X129315200Y-108848200D01*
X124475000Y-108674000D02*
X129141000Y-108674000D01*
%TO.N,Net-(U8-V+)*%
X114976600Y-112848400D02*
X116754600Y-114626400D01*
X126106000Y-111214000D02*
X126622800Y-111730800D01*
X116754600Y-114626400D02*
X117682000Y-114626400D01*
X124475000Y-111214000D02*
X126106000Y-111214000D01*
%TO.N,Net-(U8-V-)*%
X124475000Y-106134000D02*
X128930600Y-106134000D01*
X128930600Y-106134000D02*
X129315200Y-105749400D01*
%TO.N,Tx1*%
X151070800Y-58834000D02*
X151070800Y-60971200D01*
X151021200Y-58784400D02*
X151070800Y-58834000D01*
X118550001Y-106134000D02*
X119525000Y-106134000D01*
X114825000Y-106142800D02*
X115726000Y-105241800D01*
X104016800Y-62793200D02*
X106571200Y-60238800D01*
X114825000Y-106142800D02*
X104016800Y-95334600D01*
X104016800Y-95334600D02*
X104016800Y-62793200D01*
X115726000Y-105241800D02*
X117657801Y-105241800D01*
X117657801Y-105241800D02*
X118550001Y-106134000D01*
%TO.N,Rx1*%
X117631200Y-108022400D02*
X117631200Y-108378000D01*
X119525000Y-107404000D02*
X118249600Y-107404000D01*
X149370800Y-62214000D02*
X149370800Y-62671200D01*
X147719200Y-60562400D02*
X149370800Y-62214000D01*
X118249600Y-107404000D02*
X117631200Y-108022400D01*
%TO.N,Net-(U8-DOUT1)*%
X120499999Y-109944000D02*
X119525000Y-109944000D01*
X118214000Y-118019869D02*
X118214000Y-115872400D01*
X118214000Y-115872400D02*
X120926000Y-113160400D01*
X120926000Y-113160400D02*
X120926000Y-110370001D01*
X120926000Y-110370001D02*
X120499999Y-109944000D01*
%TO.N,RXD*%
X120984000Y-115947200D02*
X122152400Y-114778800D01*
X120499999Y-108674000D02*
X119525000Y-108674000D01*
X122152400Y-110326401D02*
X120499999Y-108674000D01*
X120984000Y-118019869D02*
X120984000Y-115947200D01*
X122152400Y-114778800D02*
X122152400Y-110326401D01*
%TD*%
M02*
