%TF.GenerationSoftware,KiCad,Pcbnew,9.0.0*%
%TF.CreationDate,2025-12-09T22:57:50+02:00*%
%TF.ProjectId,space invaders,73706163-6520-4696-9e76-61646572732e,rev?*%
%TF.SameCoordinates,Original*%
%TF.FileFunction,Legend,Top*%
%TF.FilePolarity,Positive*%
%FSLAX46Y46*%
G04 Gerber Fmt 4.6, Leading zero omitted, Abs format (unit mm)*
G04 Created by KiCad (PCBNEW 9.0.0) date 2025-12-09 22:57:50*
%MOMM*%
%LPD*%
G01*
G04 APERTURE LIST*
%ADD10C,0.150000*%
%ADD11C,0.120000*%
%ADD12C,0.127000*%
%ADD13C,0.200000*%
G04 APERTURE END LIST*
D10*
X184194933Y-75942180D02*
X184147314Y-75989800D01*
X184147314Y-75989800D02*
X184004457Y-76037419D01*
X184004457Y-76037419D02*
X183909219Y-76037419D01*
X183909219Y-76037419D02*
X183766362Y-75989800D01*
X183766362Y-75989800D02*
X183671124Y-75894561D01*
X183671124Y-75894561D02*
X183623505Y-75799323D01*
X183623505Y-75799323D02*
X183575886Y-75608847D01*
X183575886Y-75608847D02*
X183575886Y-75465990D01*
X183575886Y-75465990D02*
X183623505Y-75275514D01*
X183623505Y-75275514D02*
X183671124Y-75180276D01*
X183671124Y-75180276D02*
X183766362Y-75085038D01*
X183766362Y-75085038D02*
X183909219Y-75037419D01*
X183909219Y-75037419D02*
X184004457Y-75037419D01*
X184004457Y-75037419D02*
X184147314Y-75085038D01*
X184147314Y-75085038D02*
X184194933Y-75132657D01*
X184528267Y-75037419D02*
X185194933Y-75037419D01*
X185194933Y-75037419D02*
X184766362Y-76037419D01*
X139961019Y-101142066D02*
X139484828Y-101475399D01*
X139961019Y-101713494D02*
X138961019Y-101713494D01*
X138961019Y-101713494D02*
X138961019Y-101332542D01*
X138961019Y-101332542D02*
X139008638Y-101237304D01*
X139008638Y-101237304D02*
X139056257Y-101189685D01*
X139056257Y-101189685D02*
X139151495Y-101142066D01*
X139151495Y-101142066D02*
X139294352Y-101142066D01*
X139294352Y-101142066D02*
X139389590Y-101189685D01*
X139389590Y-101189685D02*
X139437209Y-101237304D01*
X139437209Y-101237304D02*
X139484828Y-101332542D01*
X139484828Y-101332542D02*
X139484828Y-101713494D01*
X139056257Y-100761113D02*
X139008638Y-100713494D01*
X139008638Y-100713494D02*
X138961019Y-100618256D01*
X138961019Y-100618256D02*
X138961019Y-100380161D01*
X138961019Y-100380161D02*
X139008638Y-100284923D01*
X139008638Y-100284923D02*
X139056257Y-100237304D01*
X139056257Y-100237304D02*
X139151495Y-100189685D01*
X139151495Y-100189685D02*
X139246733Y-100189685D01*
X139246733Y-100189685D02*
X139389590Y-100237304D01*
X139389590Y-100237304D02*
X139961019Y-100808732D01*
X139961019Y-100808732D02*
X139961019Y-100189685D01*
X105954666Y-101419219D02*
X105954666Y-102133504D01*
X105954666Y-102133504D02*
X105907047Y-102276361D01*
X105907047Y-102276361D02*
X105811809Y-102371600D01*
X105811809Y-102371600D02*
X105668952Y-102419219D01*
X105668952Y-102419219D02*
X105573714Y-102419219D01*
X106335619Y-101419219D02*
X106954666Y-101419219D01*
X106954666Y-101419219D02*
X106621333Y-101800171D01*
X106621333Y-101800171D02*
X106764190Y-101800171D01*
X106764190Y-101800171D02*
X106859428Y-101847790D01*
X106859428Y-101847790D02*
X106907047Y-101895409D01*
X106907047Y-101895409D02*
X106954666Y-101990647D01*
X106954666Y-101990647D02*
X106954666Y-102228742D01*
X106954666Y-102228742D02*
X106907047Y-102323980D01*
X106907047Y-102323980D02*
X106859428Y-102371600D01*
X106859428Y-102371600D02*
X106764190Y-102419219D01*
X106764190Y-102419219D02*
X106478476Y-102419219D01*
X106478476Y-102419219D02*
X106383238Y-102371600D01*
X106383238Y-102371600D02*
X106335619Y-102323980D01*
X179114933Y-90124219D02*
X178781600Y-89648028D01*
X178543505Y-90124219D02*
X178543505Y-89124219D01*
X178543505Y-89124219D02*
X178924457Y-89124219D01*
X178924457Y-89124219D02*
X179019695Y-89171838D01*
X179019695Y-89171838D02*
X179067314Y-89219457D01*
X179067314Y-89219457D02*
X179114933Y-89314695D01*
X179114933Y-89314695D02*
X179114933Y-89457552D01*
X179114933Y-89457552D02*
X179067314Y-89552790D01*
X179067314Y-89552790D02*
X179019695Y-89600409D01*
X179019695Y-89600409D02*
X178924457Y-89648028D01*
X178924457Y-89648028D02*
X178543505Y-89648028D01*
X179591124Y-90124219D02*
X179781600Y-90124219D01*
X179781600Y-90124219D02*
X179876838Y-90076600D01*
X179876838Y-90076600D02*
X179924457Y-90028980D01*
X179924457Y-90028980D02*
X180019695Y-89886123D01*
X180019695Y-89886123D02*
X180067314Y-89695647D01*
X180067314Y-89695647D02*
X180067314Y-89314695D01*
X180067314Y-89314695D02*
X180019695Y-89219457D01*
X180019695Y-89219457D02*
X179972076Y-89171838D01*
X179972076Y-89171838D02*
X179876838Y-89124219D01*
X179876838Y-89124219D02*
X179686362Y-89124219D01*
X179686362Y-89124219D02*
X179591124Y-89171838D01*
X179591124Y-89171838D02*
X179543505Y-89219457D01*
X179543505Y-89219457D02*
X179495886Y-89314695D01*
X179495886Y-89314695D02*
X179495886Y-89552790D01*
X179495886Y-89552790D02*
X179543505Y-89648028D01*
X179543505Y-89648028D02*
X179591124Y-89695647D01*
X179591124Y-89695647D02*
X179686362Y-89743266D01*
X179686362Y-89743266D02*
X179876838Y-89743266D01*
X179876838Y-89743266D02*
X179972076Y-89695647D01*
X179972076Y-89695647D02*
X180019695Y-89648028D01*
X180019695Y-89648028D02*
X180067314Y-89552790D01*
X165537333Y-92714180D02*
X165489714Y-92761800D01*
X165489714Y-92761800D02*
X165346857Y-92809419D01*
X165346857Y-92809419D02*
X165251619Y-92809419D01*
X165251619Y-92809419D02*
X165108762Y-92761800D01*
X165108762Y-92761800D02*
X165013524Y-92666561D01*
X165013524Y-92666561D02*
X164965905Y-92571323D01*
X164965905Y-92571323D02*
X164918286Y-92380847D01*
X164918286Y-92380847D02*
X164918286Y-92237990D01*
X164918286Y-92237990D02*
X164965905Y-92047514D01*
X164965905Y-92047514D02*
X165013524Y-91952276D01*
X165013524Y-91952276D02*
X165108762Y-91857038D01*
X165108762Y-91857038D02*
X165251619Y-91809419D01*
X165251619Y-91809419D02*
X165346857Y-91809419D01*
X165346857Y-91809419D02*
X165489714Y-91857038D01*
X165489714Y-91857038D02*
X165537333Y-91904657D01*
X166394476Y-92142752D02*
X166394476Y-92809419D01*
X166156381Y-91761800D02*
X165918286Y-92476085D01*
X165918286Y-92476085D02*
X166537333Y-92476085D01*
X122413733Y-69347219D02*
X122080400Y-68871028D01*
X121842305Y-69347219D02*
X121842305Y-68347219D01*
X121842305Y-68347219D02*
X122223257Y-68347219D01*
X122223257Y-68347219D02*
X122318495Y-68394838D01*
X122318495Y-68394838D02*
X122366114Y-68442457D01*
X122366114Y-68442457D02*
X122413733Y-68537695D01*
X122413733Y-68537695D02*
X122413733Y-68680552D01*
X122413733Y-68680552D02*
X122366114Y-68775790D01*
X122366114Y-68775790D02*
X122318495Y-68823409D01*
X122318495Y-68823409D02*
X122223257Y-68871028D01*
X122223257Y-68871028D02*
X121842305Y-68871028D01*
X123270876Y-68680552D02*
X123270876Y-69347219D01*
X123032781Y-68299600D02*
X122794686Y-69013885D01*
X122794686Y-69013885D02*
X123413733Y-69013885D01*
X144994000Y-108531732D02*
X145041619Y-108388875D01*
X145041619Y-108388875D02*
X145041619Y-108150780D01*
X145041619Y-108150780D02*
X144994000Y-108055542D01*
X144994000Y-108055542D02*
X144946380Y-108007923D01*
X144946380Y-108007923D02*
X144851142Y-107960304D01*
X144851142Y-107960304D02*
X144755904Y-107960304D01*
X144755904Y-107960304D02*
X144660666Y-108007923D01*
X144660666Y-108007923D02*
X144613047Y-108055542D01*
X144613047Y-108055542D02*
X144565428Y-108150780D01*
X144565428Y-108150780D02*
X144517809Y-108341256D01*
X144517809Y-108341256D02*
X144470190Y-108436494D01*
X144470190Y-108436494D02*
X144422571Y-108484113D01*
X144422571Y-108484113D02*
X144327333Y-108531732D01*
X144327333Y-108531732D02*
X144232095Y-108531732D01*
X144232095Y-108531732D02*
X144136857Y-108484113D01*
X144136857Y-108484113D02*
X144089238Y-108436494D01*
X144089238Y-108436494D02*
X144041619Y-108341256D01*
X144041619Y-108341256D02*
X144041619Y-108103161D01*
X144041619Y-108103161D02*
X144089238Y-107960304D01*
X144041619Y-107626970D02*
X145041619Y-107388875D01*
X145041619Y-107388875D02*
X144327333Y-107198399D01*
X144327333Y-107198399D02*
X145041619Y-107007923D01*
X145041619Y-107007923D02*
X144041619Y-106769828D01*
X145041619Y-105865066D02*
X145041619Y-106436494D01*
X145041619Y-106150780D02*
X144041619Y-106150780D01*
X144041619Y-106150780D02*
X144184476Y-106246018D01*
X144184476Y-106246018D02*
X144279714Y-106341256D01*
X144279714Y-106341256D02*
X144327333Y-106436494D01*
X150297495Y-125469119D02*
X150297495Y-126278642D01*
X150297495Y-126278642D02*
X150345114Y-126373880D01*
X150345114Y-126373880D02*
X150392733Y-126421500D01*
X150392733Y-126421500D02*
X150487971Y-126469119D01*
X150487971Y-126469119D02*
X150678447Y-126469119D01*
X150678447Y-126469119D02*
X150773685Y-126421500D01*
X150773685Y-126421500D02*
X150821304Y-126373880D01*
X150821304Y-126373880D02*
X150868923Y-126278642D01*
X150868923Y-126278642D02*
X150868923Y-125469119D01*
X151249876Y-125469119D02*
X151868923Y-125469119D01*
X151868923Y-125469119D02*
X151535590Y-125850071D01*
X151535590Y-125850071D02*
X151678447Y-125850071D01*
X151678447Y-125850071D02*
X151773685Y-125897690D01*
X151773685Y-125897690D02*
X151821304Y-125945309D01*
X151821304Y-125945309D02*
X151868923Y-126040547D01*
X151868923Y-126040547D02*
X151868923Y-126278642D01*
X151868923Y-126278642D02*
X151821304Y-126373880D01*
X151821304Y-126373880D02*
X151773685Y-126421500D01*
X151773685Y-126421500D02*
X151678447Y-126469119D01*
X151678447Y-126469119D02*
X151392733Y-126469119D01*
X151392733Y-126469119D02*
X151297495Y-126421500D01*
X151297495Y-126421500D02*
X151249876Y-126373880D01*
X182796419Y-86045533D02*
X183510704Y-86045533D01*
X183510704Y-86045533D02*
X183653561Y-86093152D01*
X183653561Y-86093152D02*
X183748800Y-86188390D01*
X183748800Y-86188390D02*
X183796419Y-86331247D01*
X183796419Y-86331247D02*
X183796419Y-86426485D01*
X183796419Y-85521723D02*
X183796419Y-85331247D01*
X183796419Y-85331247D02*
X183748800Y-85236009D01*
X183748800Y-85236009D02*
X183701180Y-85188390D01*
X183701180Y-85188390D02*
X183558323Y-85093152D01*
X183558323Y-85093152D02*
X183367847Y-85045533D01*
X183367847Y-85045533D02*
X182986895Y-85045533D01*
X182986895Y-85045533D02*
X182891657Y-85093152D01*
X182891657Y-85093152D02*
X182844038Y-85140771D01*
X182844038Y-85140771D02*
X182796419Y-85236009D01*
X182796419Y-85236009D02*
X182796419Y-85426485D01*
X182796419Y-85426485D02*
X182844038Y-85521723D01*
X182844038Y-85521723D02*
X182891657Y-85569342D01*
X182891657Y-85569342D02*
X182986895Y-85616961D01*
X182986895Y-85616961D02*
X183224990Y-85616961D01*
X183224990Y-85616961D02*
X183320228Y-85569342D01*
X183320228Y-85569342D02*
X183367847Y-85521723D01*
X183367847Y-85521723D02*
X183415466Y-85426485D01*
X183415466Y-85426485D02*
X183415466Y-85236009D01*
X183415466Y-85236009D02*
X183367847Y-85140771D01*
X183367847Y-85140771D02*
X183320228Y-85093152D01*
X183320228Y-85093152D02*
X183224990Y-85045533D01*
X164059180Y-97588266D02*
X164106800Y-97635885D01*
X164106800Y-97635885D02*
X164154419Y-97778742D01*
X164154419Y-97778742D02*
X164154419Y-97873980D01*
X164154419Y-97873980D02*
X164106800Y-98016837D01*
X164106800Y-98016837D02*
X164011561Y-98112075D01*
X164011561Y-98112075D02*
X163916323Y-98159694D01*
X163916323Y-98159694D02*
X163725847Y-98207313D01*
X163725847Y-98207313D02*
X163582990Y-98207313D01*
X163582990Y-98207313D02*
X163392514Y-98159694D01*
X163392514Y-98159694D02*
X163297276Y-98112075D01*
X163297276Y-98112075D02*
X163202038Y-98016837D01*
X163202038Y-98016837D02*
X163154419Y-97873980D01*
X163154419Y-97873980D02*
X163154419Y-97778742D01*
X163154419Y-97778742D02*
X163202038Y-97635885D01*
X163202038Y-97635885D02*
X163249657Y-97588266D01*
X163154419Y-97254932D02*
X163154419Y-96635885D01*
X163154419Y-96635885D02*
X163535371Y-96969218D01*
X163535371Y-96969218D02*
X163535371Y-96826361D01*
X163535371Y-96826361D02*
X163582990Y-96731123D01*
X163582990Y-96731123D02*
X163630609Y-96683504D01*
X163630609Y-96683504D02*
X163725847Y-96635885D01*
X163725847Y-96635885D02*
X163963942Y-96635885D01*
X163963942Y-96635885D02*
X164059180Y-96683504D01*
X164059180Y-96683504D02*
X164106800Y-96731123D01*
X164106800Y-96731123D02*
X164154419Y-96826361D01*
X164154419Y-96826361D02*
X164154419Y-97112075D01*
X164154419Y-97112075D02*
X164106800Y-97207313D01*
X164106800Y-97207313D02*
X164059180Y-97254932D01*
X126782219Y-73635704D02*
X127591742Y-73635704D01*
X127591742Y-73635704D02*
X127686980Y-73588085D01*
X127686980Y-73588085D02*
X127734600Y-73540466D01*
X127734600Y-73540466D02*
X127782219Y-73445228D01*
X127782219Y-73445228D02*
X127782219Y-73254752D01*
X127782219Y-73254752D02*
X127734600Y-73159514D01*
X127734600Y-73159514D02*
X127686980Y-73111895D01*
X127686980Y-73111895D02*
X127591742Y-73064276D01*
X127591742Y-73064276D02*
X126782219Y-73064276D01*
X127115552Y-72159514D02*
X127782219Y-72159514D01*
X126734600Y-72397609D02*
X127448885Y-72635704D01*
X127448885Y-72635704D02*
X127448885Y-72016657D01*
X132186819Y-74143666D02*
X131710628Y-74476999D01*
X132186819Y-74715094D02*
X131186819Y-74715094D01*
X131186819Y-74715094D02*
X131186819Y-74334142D01*
X131186819Y-74334142D02*
X131234438Y-74238904D01*
X131234438Y-74238904D02*
X131282057Y-74191285D01*
X131282057Y-74191285D02*
X131377295Y-74143666D01*
X131377295Y-74143666D02*
X131520152Y-74143666D01*
X131520152Y-74143666D02*
X131615390Y-74191285D01*
X131615390Y-74191285D02*
X131663009Y-74238904D01*
X131663009Y-74238904D02*
X131710628Y-74334142D01*
X131710628Y-74334142D02*
X131710628Y-74715094D01*
X131186819Y-73810332D02*
X131186819Y-73191285D01*
X131186819Y-73191285D02*
X131567771Y-73524618D01*
X131567771Y-73524618D02*
X131567771Y-73381761D01*
X131567771Y-73381761D02*
X131615390Y-73286523D01*
X131615390Y-73286523D02*
X131663009Y-73238904D01*
X131663009Y-73238904D02*
X131758247Y-73191285D01*
X131758247Y-73191285D02*
X131996342Y-73191285D01*
X131996342Y-73191285D02*
X132091580Y-73238904D01*
X132091580Y-73238904D02*
X132139200Y-73286523D01*
X132139200Y-73286523D02*
X132186819Y-73381761D01*
X132186819Y-73381761D02*
X132186819Y-73667475D01*
X132186819Y-73667475D02*
X132139200Y-73762713D01*
X132139200Y-73762713D02*
X132091580Y-73810332D01*
X105954666Y-117863619D02*
X105954666Y-118577904D01*
X105954666Y-118577904D02*
X105907047Y-118720761D01*
X105907047Y-118720761D02*
X105811809Y-118816000D01*
X105811809Y-118816000D02*
X105668952Y-118863619D01*
X105668952Y-118863619D02*
X105573714Y-118863619D01*
X106573714Y-118292190D02*
X106478476Y-118244571D01*
X106478476Y-118244571D02*
X106430857Y-118196952D01*
X106430857Y-118196952D02*
X106383238Y-118101714D01*
X106383238Y-118101714D02*
X106383238Y-118054095D01*
X106383238Y-118054095D02*
X106430857Y-117958857D01*
X106430857Y-117958857D02*
X106478476Y-117911238D01*
X106478476Y-117911238D02*
X106573714Y-117863619D01*
X106573714Y-117863619D02*
X106764190Y-117863619D01*
X106764190Y-117863619D02*
X106859428Y-117911238D01*
X106859428Y-117911238D02*
X106907047Y-117958857D01*
X106907047Y-117958857D02*
X106954666Y-118054095D01*
X106954666Y-118054095D02*
X106954666Y-118101714D01*
X106954666Y-118101714D02*
X106907047Y-118196952D01*
X106907047Y-118196952D02*
X106859428Y-118244571D01*
X106859428Y-118244571D02*
X106764190Y-118292190D01*
X106764190Y-118292190D02*
X106573714Y-118292190D01*
X106573714Y-118292190D02*
X106478476Y-118339809D01*
X106478476Y-118339809D02*
X106430857Y-118387428D01*
X106430857Y-118387428D02*
X106383238Y-118482666D01*
X106383238Y-118482666D02*
X106383238Y-118673142D01*
X106383238Y-118673142D02*
X106430857Y-118768380D01*
X106430857Y-118768380D02*
X106478476Y-118816000D01*
X106478476Y-118816000D02*
X106573714Y-118863619D01*
X106573714Y-118863619D02*
X106764190Y-118863619D01*
X106764190Y-118863619D02*
X106859428Y-118816000D01*
X106859428Y-118816000D02*
X106907047Y-118768380D01*
X106907047Y-118768380D02*
X106954666Y-118673142D01*
X106954666Y-118673142D02*
X106954666Y-118482666D01*
X106954666Y-118482666D02*
X106907047Y-118387428D01*
X106907047Y-118387428D02*
X106859428Y-118339809D01*
X106859428Y-118339809D02*
X106764190Y-118292190D01*
X165583180Y-97588266D02*
X165630800Y-97635885D01*
X165630800Y-97635885D02*
X165678419Y-97778742D01*
X165678419Y-97778742D02*
X165678419Y-97873980D01*
X165678419Y-97873980D02*
X165630800Y-98016837D01*
X165630800Y-98016837D02*
X165535561Y-98112075D01*
X165535561Y-98112075D02*
X165440323Y-98159694D01*
X165440323Y-98159694D02*
X165249847Y-98207313D01*
X165249847Y-98207313D02*
X165106990Y-98207313D01*
X165106990Y-98207313D02*
X164916514Y-98159694D01*
X164916514Y-98159694D02*
X164821276Y-98112075D01*
X164821276Y-98112075D02*
X164726038Y-98016837D01*
X164726038Y-98016837D02*
X164678419Y-97873980D01*
X164678419Y-97873980D02*
X164678419Y-97778742D01*
X164678419Y-97778742D02*
X164726038Y-97635885D01*
X164726038Y-97635885D02*
X164773657Y-97588266D01*
X164678419Y-96731123D02*
X164678419Y-96921599D01*
X164678419Y-96921599D02*
X164726038Y-97016837D01*
X164726038Y-97016837D02*
X164773657Y-97064456D01*
X164773657Y-97064456D02*
X164916514Y-97159694D01*
X164916514Y-97159694D02*
X165106990Y-97207313D01*
X165106990Y-97207313D02*
X165487942Y-97207313D01*
X165487942Y-97207313D02*
X165583180Y-97159694D01*
X165583180Y-97159694D02*
X165630800Y-97112075D01*
X165630800Y-97112075D02*
X165678419Y-97016837D01*
X165678419Y-97016837D02*
X165678419Y-96826361D01*
X165678419Y-96826361D02*
X165630800Y-96731123D01*
X165630800Y-96731123D02*
X165583180Y-96683504D01*
X165583180Y-96683504D02*
X165487942Y-96635885D01*
X165487942Y-96635885D02*
X165249847Y-96635885D01*
X165249847Y-96635885D02*
X165154609Y-96683504D01*
X165154609Y-96683504D02*
X165106990Y-96731123D01*
X165106990Y-96731123D02*
X165059371Y-96826361D01*
X165059371Y-96826361D02*
X165059371Y-97016837D01*
X165059371Y-97016837D02*
X165106990Y-97112075D01*
X165106990Y-97112075D02*
X165154609Y-97159694D01*
X165154609Y-97159694D02*
X165249847Y-97207313D01*
X136357980Y-138075866D02*
X136405600Y-138123485D01*
X136405600Y-138123485D02*
X136453219Y-138266342D01*
X136453219Y-138266342D02*
X136453219Y-138361580D01*
X136453219Y-138361580D02*
X136405600Y-138504437D01*
X136405600Y-138504437D02*
X136310361Y-138599675D01*
X136310361Y-138599675D02*
X136215123Y-138647294D01*
X136215123Y-138647294D02*
X136024647Y-138694913D01*
X136024647Y-138694913D02*
X135881790Y-138694913D01*
X135881790Y-138694913D02*
X135691314Y-138647294D01*
X135691314Y-138647294D02*
X135596076Y-138599675D01*
X135596076Y-138599675D02*
X135500838Y-138504437D01*
X135500838Y-138504437D02*
X135453219Y-138361580D01*
X135453219Y-138361580D02*
X135453219Y-138266342D01*
X135453219Y-138266342D02*
X135500838Y-138123485D01*
X135500838Y-138123485D02*
X135548457Y-138075866D01*
X136453219Y-137599675D02*
X136453219Y-137409199D01*
X136453219Y-137409199D02*
X136405600Y-137313961D01*
X136405600Y-137313961D02*
X136357980Y-137266342D01*
X136357980Y-137266342D02*
X136215123Y-137171104D01*
X136215123Y-137171104D02*
X136024647Y-137123485D01*
X136024647Y-137123485D02*
X135643695Y-137123485D01*
X135643695Y-137123485D02*
X135548457Y-137171104D01*
X135548457Y-137171104D02*
X135500838Y-137218723D01*
X135500838Y-137218723D02*
X135453219Y-137313961D01*
X135453219Y-137313961D02*
X135453219Y-137504437D01*
X135453219Y-137504437D02*
X135500838Y-137599675D01*
X135500838Y-137599675D02*
X135548457Y-137647294D01*
X135548457Y-137647294D02*
X135643695Y-137694913D01*
X135643695Y-137694913D02*
X135881790Y-137694913D01*
X135881790Y-137694913D02*
X135977028Y-137647294D01*
X135977028Y-137647294D02*
X136024647Y-137599675D01*
X136024647Y-137599675D02*
X136072266Y-137504437D01*
X136072266Y-137504437D02*
X136072266Y-137313961D01*
X136072266Y-137313961D02*
X136024647Y-137218723D01*
X136024647Y-137218723D02*
X135977028Y-137171104D01*
X135977028Y-137171104D02*
X135881790Y-137123485D01*
X195957866Y-103493219D02*
X195957866Y-104207504D01*
X195957866Y-104207504D02*
X195910247Y-104350361D01*
X195910247Y-104350361D02*
X195815009Y-104445600D01*
X195815009Y-104445600D02*
X195672152Y-104493219D01*
X195672152Y-104493219D02*
X195576914Y-104493219D01*
X196862628Y-103493219D02*
X196672152Y-103493219D01*
X196672152Y-103493219D02*
X196576914Y-103540838D01*
X196576914Y-103540838D02*
X196529295Y-103588457D01*
X196529295Y-103588457D02*
X196434057Y-103731314D01*
X196434057Y-103731314D02*
X196386438Y-103921790D01*
X196386438Y-103921790D02*
X196386438Y-104302742D01*
X196386438Y-104302742D02*
X196434057Y-104397980D01*
X196434057Y-104397980D02*
X196481676Y-104445600D01*
X196481676Y-104445600D02*
X196576914Y-104493219D01*
X196576914Y-104493219D02*
X196767390Y-104493219D01*
X196767390Y-104493219D02*
X196862628Y-104445600D01*
X196862628Y-104445600D02*
X196910247Y-104397980D01*
X196910247Y-104397980D02*
X196957866Y-104302742D01*
X196957866Y-104302742D02*
X196957866Y-104064647D01*
X196957866Y-104064647D02*
X196910247Y-103969409D01*
X196910247Y-103969409D02*
X196862628Y-103921790D01*
X196862628Y-103921790D02*
X196767390Y-103874171D01*
X196767390Y-103874171D02*
X196576914Y-103874171D01*
X196576914Y-103874171D02*
X196481676Y-103921790D01*
X196481676Y-103921790D02*
X196434057Y-103969409D01*
X196434057Y-103969409D02*
X196386438Y-104064647D01*
X195957866Y-121273219D02*
X195957866Y-121987504D01*
X195957866Y-121987504D02*
X195910247Y-122130361D01*
X195910247Y-122130361D02*
X195815009Y-122225600D01*
X195815009Y-122225600D02*
X195672152Y-122273219D01*
X195672152Y-122273219D02*
X195576914Y-122273219D01*
X196338819Y-121273219D02*
X197005485Y-121273219D01*
X197005485Y-121273219D02*
X196576914Y-122273219D01*
X111537942Y-70456619D02*
X111061752Y-70456619D01*
X111061752Y-70456619D02*
X111061752Y-69456619D01*
X111823657Y-70409000D02*
X111966514Y-70456619D01*
X111966514Y-70456619D02*
X112204609Y-70456619D01*
X112204609Y-70456619D02*
X112299847Y-70409000D01*
X112299847Y-70409000D02*
X112347466Y-70361380D01*
X112347466Y-70361380D02*
X112395085Y-70266142D01*
X112395085Y-70266142D02*
X112395085Y-70170904D01*
X112395085Y-70170904D02*
X112347466Y-70075666D01*
X112347466Y-70075666D02*
X112299847Y-70028047D01*
X112299847Y-70028047D02*
X112204609Y-69980428D01*
X112204609Y-69980428D02*
X112014133Y-69932809D01*
X112014133Y-69932809D02*
X111918895Y-69885190D01*
X111918895Y-69885190D02*
X111871276Y-69837571D01*
X111871276Y-69837571D02*
X111823657Y-69742333D01*
X111823657Y-69742333D02*
X111823657Y-69647095D01*
X111823657Y-69647095D02*
X111871276Y-69551857D01*
X111871276Y-69551857D02*
X111918895Y-69504238D01*
X111918895Y-69504238D02*
X112014133Y-69456619D01*
X112014133Y-69456619D02*
X112252228Y-69456619D01*
X112252228Y-69456619D02*
X112395085Y-69504238D01*
X113347466Y-70456619D02*
X112776038Y-70456619D01*
X113061752Y-70456619D02*
X113061752Y-69456619D01*
X113061752Y-69456619D02*
X112966514Y-69599476D01*
X112966514Y-69599476D02*
X112871276Y-69694714D01*
X112871276Y-69694714D02*
X112776038Y-69742333D01*
X151269333Y-123332319D02*
X150936000Y-122856128D01*
X150697905Y-123332319D02*
X150697905Y-122332319D01*
X150697905Y-122332319D02*
X151078857Y-122332319D01*
X151078857Y-122332319D02*
X151174095Y-122379938D01*
X151174095Y-122379938D02*
X151221714Y-122427557D01*
X151221714Y-122427557D02*
X151269333Y-122522795D01*
X151269333Y-122522795D02*
X151269333Y-122665652D01*
X151269333Y-122665652D02*
X151221714Y-122760890D01*
X151221714Y-122760890D02*
X151174095Y-122808509D01*
X151174095Y-122808509D02*
X151078857Y-122856128D01*
X151078857Y-122856128D02*
X150697905Y-122856128D01*
X152174095Y-122332319D02*
X151697905Y-122332319D01*
X151697905Y-122332319D02*
X151650286Y-122808509D01*
X151650286Y-122808509D02*
X151697905Y-122760890D01*
X151697905Y-122760890D02*
X151793143Y-122713271D01*
X151793143Y-122713271D02*
X152031238Y-122713271D01*
X152031238Y-122713271D02*
X152126476Y-122760890D01*
X152126476Y-122760890D02*
X152174095Y-122808509D01*
X152174095Y-122808509D02*
X152221714Y-122903747D01*
X152221714Y-122903747D02*
X152221714Y-123141842D01*
X152221714Y-123141842D02*
X152174095Y-123237080D01*
X152174095Y-123237080D02*
X152126476Y-123284700D01*
X152126476Y-123284700D02*
X152031238Y-123332319D01*
X152031238Y-123332319D02*
X151793143Y-123332319D01*
X151793143Y-123332319D02*
X151697905Y-123284700D01*
X151697905Y-123284700D02*
X151650286Y-123237080D01*
X153588019Y-65381066D02*
X153111828Y-65714399D01*
X153588019Y-65952494D02*
X152588019Y-65952494D01*
X152588019Y-65952494D02*
X152588019Y-65571542D01*
X152588019Y-65571542D02*
X152635638Y-65476304D01*
X152635638Y-65476304D02*
X152683257Y-65428685D01*
X152683257Y-65428685D02*
X152778495Y-65381066D01*
X152778495Y-65381066D02*
X152921352Y-65381066D01*
X152921352Y-65381066D02*
X153016590Y-65428685D01*
X153016590Y-65428685D02*
X153064209Y-65476304D01*
X153064209Y-65476304D02*
X153111828Y-65571542D01*
X153111828Y-65571542D02*
X153111828Y-65952494D01*
X152588019Y-64523923D02*
X152588019Y-64714399D01*
X152588019Y-64714399D02*
X152635638Y-64809637D01*
X152635638Y-64809637D02*
X152683257Y-64857256D01*
X152683257Y-64857256D02*
X152826114Y-64952494D01*
X152826114Y-64952494D02*
X153016590Y-65000113D01*
X153016590Y-65000113D02*
X153397542Y-65000113D01*
X153397542Y-65000113D02*
X153492780Y-64952494D01*
X153492780Y-64952494D02*
X153540400Y-64904875D01*
X153540400Y-64904875D02*
X153588019Y-64809637D01*
X153588019Y-64809637D02*
X153588019Y-64619161D01*
X153588019Y-64619161D02*
X153540400Y-64523923D01*
X153540400Y-64523923D02*
X153492780Y-64476304D01*
X153492780Y-64476304D02*
X153397542Y-64428685D01*
X153397542Y-64428685D02*
X153159447Y-64428685D01*
X153159447Y-64428685D02*
X153064209Y-64476304D01*
X153064209Y-64476304D02*
X153016590Y-64523923D01*
X153016590Y-64523923D02*
X152968971Y-64619161D01*
X152968971Y-64619161D02*
X152968971Y-64809637D01*
X152968971Y-64809637D02*
X153016590Y-64904875D01*
X153016590Y-64904875D02*
X153064209Y-64952494D01*
X153064209Y-64952494D02*
X153159447Y-65000113D01*
X147504342Y-66648380D02*
X147456723Y-66696000D01*
X147456723Y-66696000D02*
X147313866Y-66743619D01*
X147313866Y-66743619D02*
X147218628Y-66743619D01*
X147218628Y-66743619D02*
X147075771Y-66696000D01*
X147075771Y-66696000D02*
X146980533Y-66600761D01*
X146980533Y-66600761D02*
X146932914Y-66505523D01*
X146932914Y-66505523D02*
X146885295Y-66315047D01*
X146885295Y-66315047D02*
X146885295Y-66172190D01*
X146885295Y-66172190D02*
X146932914Y-65981714D01*
X146932914Y-65981714D02*
X146980533Y-65886476D01*
X146980533Y-65886476D02*
X147075771Y-65791238D01*
X147075771Y-65791238D02*
X147218628Y-65743619D01*
X147218628Y-65743619D02*
X147313866Y-65743619D01*
X147313866Y-65743619D02*
X147456723Y-65791238D01*
X147456723Y-65791238D02*
X147504342Y-65838857D01*
X148456723Y-66743619D02*
X147885295Y-66743619D01*
X148171009Y-66743619D02*
X148171009Y-65743619D01*
X148171009Y-65743619D02*
X148075771Y-65886476D01*
X148075771Y-65886476D02*
X147980533Y-65981714D01*
X147980533Y-65981714D02*
X147885295Y-66029333D01*
X149075771Y-65743619D02*
X149171009Y-65743619D01*
X149171009Y-65743619D02*
X149266247Y-65791238D01*
X149266247Y-65791238D02*
X149313866Y-65838857D01*
X149313866Y-65838857D02*
X149361485Y-65934095D01*
X149361485Y-65934095D02*
X149409104Y-66124571D01*
X149409104Y-66124571D02*
X149409104Y-66362666D01*
X149409104Y-66362666D02*
X149361485Y-66553142D01*
X149361485Y-66553142D02*
X149313866Y-66648380D01*
X149313866Y-66648380D02*
X149266247Y-66696000D01*
X149266247Y-66696000D02*
X149171009Y-66743619D01*
X149171009Y-66743619D02*
X149075771Y-66743619D01*
X149075771Y-66743619D02*
X148980533Y-66696000D01*
X148980533Y-66696000D02*
X148932914Y-66648380D01*
X148932914Y-66648380D02*
X148885295Y-66553142D01*
X148885295Y-66553142D02*
X148837676Y-66362666D01*
X148837676Y-66362666D02*
X148837676Y-66124571D01*
X148837676Y-66124571D02*
X148885295Y-65934095D01*
X148885295Y-65934095D02*
X148932914Y-65838857D01*
X148932914Y-65838857D02*
X148980533Y-65791238D01*
X148980533Y-65791238D02*
X149075771Y-65743619D01*
X105954666Y-92292419D02*
X105954666Y-93006704D01*
X105954666Y-93006704D02*
X105907047Y-93149561D01*
X105907047Y-93149561D02*
X105811809Y-93244800D01*
X105811809Y-93244800D02*
X105668952Y-93292419D01*
X105668952Y-93292419D02*
X105573714Y-93292419D01*
X106859428Y-92625752D02*
X106859428Y-93292419D01*
X106621333Y-92244800D02*
X106383238Y-92959085D01*
X106383238Y-92959085D02*
X107002285Y-92959085D01*
X142686295Y-65939219D02*
X142686295Y-66748742D01*
X142686295Y-66748742D02*
X142733914Y-66843980D01*
X142733914Y-66843980D02*
X142781533Y-66891600D01*
X142781533Y-66891600D02*
X142876771Y-66939219D01*
X142876771Y-66939219D02*
X143067247Y-66939219D01*
X143067247Y-66939219D02*
X143162485Y-66891600D01*
X143162485Y-66891600D02*
X143210104Y-66843980D01*
X143210104Y-66843980D02*
X143257723Y-66748742D01*
X143257723Y-66748742D02*
X143257723Y-65939219D01*
X143686295Y-66034457D02*
X143733914Y-65986838D01*
X143733914Y-65986838D02*
X143829152Y-65939219D01*
X143829152Y-65939219D02*
X144067247Y-65939219D01*
X144067247Y-65939219D02*
X144162485Y-65986838D01*
X144162485Y-65986838D02*
X144210104Y-66034457D01*
X144210104Y-66034457D02*
X144257723Y-66129695D01*
X144257723Y-66129695D02*
X144257723Y-66224933D01*
X144257723Y-66224933D02*
X144210104Y-66367790D01*
X144210104Y-66367790D02*
X143638676Y-66939219D01*
X143638676Y-66939219D02*
X144257723Y-66939219D01*
X179114933Y-86492019D02*
X178781600Y-86015828D01*
X178543505Y-86492019D02*
X178543505Y-85492019D01*
X178543505Y-85492019D02*
X178924457Y-85492019D01*
X178924457Y-85492019D02*
X179019695Y-85539638D01*
X179019695Y-85539638D02*
X179067314Y-85587257D01*
X179067314Y-85587257D02*
X179114933Y-85682495D01*
X179114933Y-85682495D02*
X179114933Y-85825352D01*
X179114933Y-85825352D02*
X179067314Y-85920590D01*
X179067314Y-85920590D02*
X179019695Y-85968209D01*
X179019695Y-85968209D02*
X178924457Y-86015828D01*
X178924457Y-86015828D02*
X178543505Y-86015828D01*
X179686362Y-85920590D02*
X179591124Y-85872971D01*
X179591124Y-85872971D02*
X179543505Y-85825352D01*
X179543505Y-85825352D02*
X179495886Y-85730114D01*
X179495886Y-85730114D02*
X179495886Y-85682495D01*
X179495886Y-85682495D02*
X179543505Y-85587257D01*
X179543505Y-85587257D02*
X179591124Y-85539638D01*
X179591124Y-85539638D02*
X179686362Y-85492019D01*
X179686362Y-85492019D02*
X179876838Y-85492019D01*
X179876838Y-85492019D02*
X179972076Y-85539638D01*
X179972076Y-85539638D02*
X180019695Y-85587257D01*
X180019695Y-85587257D02*
X180067314Y-85682495D01*
X180067314Y-85682495D02*
X180067314Y-85730114D01*
X180067314Y-85730114D02*
X180019695Y-85825352D01*
X180019695Y-85825352D02*
X179972076Y-85872971D01*
X179972076Y-85872971D02*
X179876838Y-85920590D01*
X179876838Y-85920590D02*
X179686362Y-85920590D01*
X179686362Y-85920590D02*
X179591124Y-85968209D01*
X179591124Y-85968209D02*
X179543505Y-86015828D01*
X179543505Y-86015828D02*
X179495886Y-86111066D01*
X179495886Y-86111066D02*
X179495886Y-86301542D01*
X179495886Y-86301542D02*
X179543505Y-86396780D01*
X179543505Y-86396780D02*
X179591124Y-86444400D01*
X179591124Y-86444400D02*
X179686362Y-86492019D01*
X179686362Y-86492019D02*
X179876838Y-86492019D01*
X179876838Y-86492019D02*
X179972076Y-86444400D01*
X179972076Y-86444400D02*
X180019695Y-86396780D01*
X180019695Y-86396780D02*
X180067314Y-86301542D01*
X180067314Y-86301542D02*
X180067314Y-86111066D01*
X180067314Y-86111066D02*
X180019695Y-86015828D01*
X180019695Y-86015828D02*
X179972076Y-85968209D01*
X179972076Y-85968209D02*
X179876838Y-85920590D01*
X185031419Y-74599904D02*
X185840942Y-74599904D01*
X185840942Y-74599904D02*
X185936180Y-74552285D01*
X185936180Y-74552285D02*
X185983800Y-74504666D01*
X185983800Y-74504666D02*
X186031419Y-74409428D01*
X186031419Y-74409428D02*
X186031419Y-74218952D01*
X186031419Y-74218952D02*
X185983800Y-74123714D01*
X185983800Y-74123714D02*
X185936180Y-74076095D01*
X185936180Y-74076095D02*
X185840942Y-74028476D01*
X185840942Y-74028476D02*
X185031419Y-74028476D01*
X185031419Y-73647523D02*
X185031419Y-72980857D01*
X185031419Y-72980857D02*
X186031419Y-73409428D01*
X133291019Y-101142066D02*
X132814828Y-101475399D01*
X133291019Y-101713494D02*
X132291019Y-101713494D01*
X132291019Y-101713494D02*
X132291019Y-101332542D01*
X132291019Y-101332542D02*
X132338638Y-101237304D01*
X132338638Y-101237304D02*
X132386257Y-101189685D01*
X132386257Y-101189685D02*
X132481495Y-101142066D01*
X132481495Y-101142066D02*
X132624352Y-101142066D01*
X132624352Y-101142066D02*
X132719590Y-101189685D01*
X132719590Y-101189685D02*
X132767209Y-101237304D01*
X132767209Y-101237304D02*
X132814828Y-101332542D01*
X132814828Y-101332542D02*
X132814828Y-101713494D01*
X133291019Y-100189685D02*
X133291019Y-100761113D01*
X133291019Y-100475399D02*
X132291019Y-100475399D01*
X132291019Y-100475399D02*
X132433876Y-100570637D01*
X132433876Y-100570637D02*
X132529114Y-100665875D01*
X132529114Y-100665875D02*
X132576733Y-100761113D01*
X182647219Y-122646933D02*
X183361504Y-122646933D01*
X183361504Y-122646933D02*
X183504361Y-122694552D01*
X183504361Y-122694552D02*
X183599600Y-122789790D01*
X183599600Y-122789790D02*
X183647219Y-122932647D01*
X183647219Y-122932647D02*
X183647219Y-123027885D01*
X183647219Y-121646933D02*
X183647219Y-122218361D01*
X183647219Y-121932647D02*
X182647219Y-121932647D01*
X182647219Y-121932647D02*
X182790076Y-122027885D01*
X182790076Y-122027885D02*
X182885314Y-122123123D01*
X182885314Y-122123123D02*
X182932933Y-122218361D01*
X168631180Y-97588266D02*
X168678800Y-97635885D01*
X168678800Y-97635885D02*
X168726419Y-97778742D01*
X168726419Y-97778742D02*
X168726419Y-97873980D01*
X168726419Y-97873980D02*
X168678800Y-98016837D01*
X168678800Y-98016837D02*
X168583561Y-98112075D01*
X168583561Y-98112075D02*
X168488323Y-98159694D01*
X168488323Y-98159694D02*
X168297847Y-98207313D01*
X168297847Y-98207313D02*
X168154990Y-98207313D01*
X168154990Y-98207313D02*
X167964514Y-98159694D01*
X167964514Y-98159694D02*
X167869276Y-98112075D01*
X167869276Y-98112075D02*
X167774038Y-98016837D01*
X167774038Y-98016837D02*
X167726419Y-97873980D01*
X167726419Y-97873980D02*
X167726419Y-97778742D01*
X167726419Y-97778742D02*
X167774038Y-97635885D01*
X167774038Y-97635885D02*
X167821657Y-97588266D01*
X167726419Y-96683504D02*
X167726419Y-97159694D01*
X167726419Y-97159694D02*
X168202609Y-97207313D01*
X168202609Y-97207313D02*
X168154990Y-97159694D01*
X168154990Y-97159694D02*
X168107371Y-97064456D01*
X168107371Y-97064456D02*
X168107371Y-96826361D01*
X168107371Y-96826361D02*
X168154990Y-96731123D01*
X168154990Y-96731123D02*
X168202609Y-96683504D01*
X168202609Y-96683504D02*
X168297847Y-96635885D01*
X168297847Y-96635885D02*
X168535942Y-96635885D01*
X168535942Y-96635885D02*
X168631180Y-96683504D01*
X168631180Y-96683504D02*
X168678800Y-96731123D01*
X168678800Y-96731123D02*
X168726419Y-96826361D01*
X168726419Y-96826361D02*
X168726419Y-97064456D01*
X168726419Y-97064456D02*
X168678800Y-97159694D01*
X168678800Y-97159694D02*
X168631180Y-97207313D01*
X195957866Y-111062419D02*
X195957866Y-111776704D01*
X195957866Y-111776704D02*
X195910247Y-111919561D01*
X195910247Y-111919561D02*
X195815009Y-112014800D01*
X195815009Y-112014800D02*
X195672152Y-112062419D01*
X195672152Y-112062419D02*
X195576914Y-112062419D01*
X196386438Y-111157657D02*
X196434057Y-111110038D01*
X196434057Y-111110038D02*
X196529295Y-111062419D01*
X196529295Y-111062419D02*
X196767390Y-111062419D01*
X196767390Y-111062419D02*
X196862628Y-111110038D01*
X196862628Y-111110038D02*
X196910247Y-111157657D01*
X196910247Y-111157657D02*
X196957866Y-111252895D01*
X196957866Y-111252895D02*
X196957866Y-111348133D01*
X196957866Y-111348133D02*
X196910247Y-111490990D01*
X196910247Y-111490990D02*
X196338819Y-112062419D01*
X196338819Y-112062419D02*
X196957866Y-112062419D01*
X196008666Y-96025619D02*
X196008666Y-96739904D01*
X196008666Y-96739904D02*
X195961047Y-96882761D01*
X195961047Y-96882761D02*
X195865809Y-96978000D01*
X195865809Y-96978000D02*
X195722952Y-97025619D01*
X195722952Y-97025619D02*
X195627714Y-97025619D01*
X196961047Y-96025619D02*
X196484857Y-96025619D01*
X196484857Y-96025619D02*
X196437238Y-96501809D01*
X196437238Y-96501809D02*
X196484857Y-96454190D01*
X196484857Y-96454190D02*
X196580095Y-96406571D01*
X196580095Y-96406571D02*
X196818190Y-96406571D01*
X196818190Y-96406571D02*
X196913428Y-96454190D01*
X196913428Y-96454190D02*
X196961047Y-96501809D01*
X196961047Y-96501809D02*
X197008666Y-96597047D01*
X197008666Y-96597047D02*
X197008666Y-96835142D01*
X197008666Y-96835142D02*
X196961047Y-96930380D01*
X196961047Y-96930380D02*
X196913428Y-96978000D01*
X196913428Y-96978000D02*
X196818190Y-97025619D01*
X196818190Y-97025619D02*
X196580095Y-97025619D01*
X196580095Y-97025619D02*
X196484857Y-96978000D01*
X196484857Y-96978000D02*
X196437238Y-96930380D01*
X175879295Y-66850619D02*
X175879295Y-67660142D01*
X175879295Y-67660142D02*
X175926914Y-67755380D01*
X175926914Y-67755380D02*
X175974533Y-67803000D01*
X175974533Y-67803000D02*
X176069771Y-67850619D01*
X176069771Y-67850619D02*
X176260247Y-67850619D01*
X176260247Y-67850619D02*
X176355485Y-67803000D01*
X176355485Y-67803000D02*
X176403104Y-67755380D01*
X176403104Y-67755380D02*
X176450723Y-67660142D01*
X176450723Y-67660142D02*
X176450723Y-66850619D01*
X177403104Y-66850619D02*
X176926914Y-66850619D01*
X176926914Y-66850619D02*
X176879295Y-67326809D01*
X176879295Y-67326809D02*
X176926914Y-67279190D01*
X176926914Y-67279190D02*
X177022152Y-67231571D01*
X177022152Y-67231571D02*
X177260247Y-67231571D01*
X177260247Y-67231571D02*
X177355485Y-67279190D01*
X177355485Y-67279190D02*
X177403104Y-67326809D01*
X177403104Y-67326809D02*
X177450723Y-67422047D01*
X177450723Y-67422047D02*
X177450723Y-67660142D01*
X177450723Y-67660142D02*
X177403104Y-67755380D01*
X177403104Y-67755380D02*
X177355485Y-67803000D01*
X177355485Y-67803000D02*
X177260247Y-67850619D01*
X177260247Y-67850619D02*
X177022152Y-67850619D01*
X177022152Y-67850619D02*
X176926914Y-67803000D01*
X176926914Y-67803000D02*
X176879295Y-67755380D01*
X158668019Y-65381066D02*
X158191828Y-65714399D01*
X158668019Y-65952494D02*
X157668019Y-65952494D01*
X157668019Y-65952494D02*
X157668019Y-65571542D01*
X157668019Y-65571542D02*
X157715638Y-65476304D01*
X157715638Y-65476304D02*
X157763257Y-65428685D01*
X157763257Y-65428685D02*
X157858495Y-65381066D01*
X157858495Y-65381066D02*
X158001352Y-65381066D01*
X158001352Y-65381066D02*
X158096590Y-65428685D01*
X158096590Y-65428685D02*
X158144209Y-65476304D01*
X158144209Y-65476304D02*
X158191828Y-65571542D01*
X158191828Y-65571542D02*
X158191828Y-65952494D01*
X157668019Y-65047732D02*
X157668019Y-64381066D01*
X157668019Y-64381066D02*
X158668019Y-64809637D01*
X179410133Y-69592180D02*
X179362514Y-69639800D01*
X179362514Y-69639800D02*
X179219657Y-69687419D01*
X179219657Y-69687419D02*
X179124419Y-69687419D01*
X179124419Y-69687419D02*
X178981562Y-69639800D01*
X178981562Y-69639800D02*
X178886324Y-69544561D01*
X178886324Y-69544561D02*
X178838705Y-69449323D01*
X178838705Y-69449323D02*
X178791086Y-69258847D01*
X178791086Y-69258847D02*
X178791086Y-69115990D01*
X178791086Y-69115990D02*
X178838705Y-68925514D01*
X178838705Y-68925514D02*
X178886324Y-68830276D01*
X178886324Y-68830276D02*
X178981562Y-68735038D01*
X178981562Y-68735038D02*
X179124419Y-68687419D01*
X179124419Y-68687419D02*
X179219657Y-68687419D01*
X179219657Y-68687419D02*
X179362514Y-68735038D01*
X179362514Y-68735038D02*
X179410133Y-68782657D01*
X179981562Y-69115990D02*
X179886324Y-69068371D01*
X179886324Y-69068371D02*
X179838705Y-69020752D01*
X179838705Y-69020752D02*
X179791086Y-68925514D01*
X179791086Y-68925514D02*
X179791086Y-68877895D01*
X179791086Y-68877895D02*
X179838705Y-68782657D01*
X179838705Y-68782657D02*
X179886324Y-68735038D01*
X179886324Y-68735038D02*
X179981562Y-68687419D01*
X179981562Y-68687419D02*
X180172038Y-68687419D01*
X180172038Y-68687419D02*
X180267276Y-68735038D01*
X180267276Y-68735038D02*
X180314895Y-68782657D01*
X180314895Y-68782657D02*
X180362514Y-68877895D01*
X180362514Y-68877895D02*
X180362514Y-68925514D01*
X180362514Y-68925514D02*
X180314895Y-69020752D01*
X180314895Y-69020752D02*
X180267276Y-69068371D01*
X180267276Y-69068371D02*
X180172038Y-69115990D01*
X180172038Y-69115990D02*
X179981562Y-69115990D01*
X179981562Y-69115990D02*
X179886324Y-69163609D01*
X179886324Y-69163609D02*
X179838705Y-69211228D01*
X179838705Y-69211228D02*
X179791086Y-69306466D01*
X179791086Y-69306466D02*
X179791086Y-69496942D01*
X179791086Y-69496942D02*
X179838705Y-69592180D01*
X179838705Y-69592180D02*
X179886324Y-69639800D01*
X179886324Y-69639800D02*
X179981562Y-69687419D01*
X179981562Y-69687419D02*
X180172038Y-69687419D01*
X180172038Y-69687419D02*
X180267276Y-69639800D01*
X180267276Y-69639800D02*
X180314895Y-69592180D01*
X180314895Y-69592180D02*
X180362514Y-69496942D01*
X180362514Y-69496942D02*
X180362514Y-69306466D01*
X180362514Y-69306466D02*
X180314895Y-69211228D01*
X180314895Y-69211228D02*
X180267276Y-69163609D01*
X180267276Y-69163609D02*
X180172038Y-69115990D01*
X144386980Y-101091266D02*
X144434600Y-101138885D01*
X144434600Y-101138885D02*
X144482219Y-101281742D01*
X144482219Y-101281742D02*
X144482219Y-101376980D01*
X144482219Y-101376980D02*
X144434600Y-101519837D01*
X144434600Y-101519837D02*
X144339361Y-101615075D01*
X144339361Y-101615075D02*
X144244123Y-101662694D01*
X144244123Y-101662694D02*
X144053647Y-101710313D01*
X144053647Y-101710313D02*
X143910790Y-101710313D01*
X143910790Y-101710313D02*
X143720314Y-101662694D01*
X143720314Y-101662694D02*
X143625076Y-101615075D01*
X143625076Y-101615075D02*
X143529838Y-101519837D01*
X143529838Y-101519837D02*
X143482219Y-101376980D01*
X143482219Y-101376980D02*
X143482219Y-101281742D01*
X143482219Y-101281742D02*
X143529838Y-101138885D01*
X143529838Y-101138885D02*
X143577457Y-101091266D01*
X144482219Y-100138885D02*
X144482219Y-100710313D01*
X144482219Y-100424599D02*
X143482219Y-100424599D01*
X143482219Y-100424599D02*
X143625076Y-100519837D01*
X143625076Y-100519837D02*
X143720314Y-100615075D01*
X143720314Y-100615075D02*
X143767933Y-100710313D01*
X176307733Y-67508980D02*
X176260114Y-67556600D01*
X176260114Y-67556600D02*
X176117257Y-67604219D01*
X176117257Y-67604219D02*
X176022019Y-67604219D01*
X176022019Y-67604219D02*
X175879162Y-67556600D01*
X175879162Y-67556600D02*
X175783924Y-67461361D01*
X175783924Y-67461361D02*
X175736305Y-67366123D01*
X175736305Y-67366123D02*
X175688686Y-67175647D01*
X175688686Y-67175647D02*
X175688686Y-67032790D01*
X175688686Y-67032790D02*
X175736305Y-66842314D01*
X175736305Y-66842314D02*
X175783924Y-66747076D01*
X175783924Y-66747076D02*
X175879162Y-66651838D01*
X175879162Y-66651838D02*
X176022019Y-66604219D01*
X176022019Y-66604219D02*
X176117257Y-66604219D01*
X176117257Y-66604219D02*
X176260114Y-66651838D01*
X176260114Y-66651838D02*
X176307733Y-66699457D01*
X176688686Y-66699457D02*
X176736305Y-66651838D01*
X176736305Y-66651838D02*
X176831543Y-66604219D01*
X176831543Y-66604219D02*
X177069638Y-66604219D01*
X177069638Y-66604219D02*
X177164876Y-66651838D01*
X177164876Y-66651838D02*
X177212495Y-66699457D01*
X177212495Y-66699457D02*
X177260114Y-66794695D01*
X177260114Y-66794695D02*
X177260114Y-66889933D01*
X177260114Y-66889933D02*
X177212495Y-67032790D01*
X177212495Y-67032790D02*
X176641067Y-67604219D01*
X176641067Y-67604219D02*
X177260114Y-67604219D01*
X154025695Y-96144819D02*
X154025695Y-96954342D01*
X154025695Y-96954342D02*
X154073314Y-97049580D01*
X154073314Y-97049580D02*
X154120933Y-97097200D01*
X154120933Y-97097200D02*
X154216171Y-97144819D01*
X154216171Y-97144819D02*
X154406647Y-97144819D01*
X154406647Y-97144819D02*
X154501885Y-97097200D01*
X154501885Y-97097200D02*
X154549504Y-97049580D01*
X154549504Y-97049580D02*
X154597123Y-96954342D01*
X154597123Y-96954342D02*
X154597123Y-96144819D01*
X155597123Y-97144819D02*
X155025695Y-97144819D01*
X155311409Y-97144819D02*
X155311409Y-96144819D01*
X155311409Y-96144819D02*
X155216171Y-96287676D01*
X155216171Y-96287676D02*
X155120933Y-96382914D01*
X155120933Y-96382914D02*
X155025695Y-96430533D01*
D11*
%TO.C,C7*%
X184221020Y-76502600D02*
X184502180Y-76502600D01*
X184221020Y-77522600D02*
X184502180Y-77522600D01*
%TO.C,R2*%
X137553700Y-100738142D02*
X137553700Y-101212658D01*
X138598700Y-100738142D02*
X138598700Y-101212658D01*
%TO.C,J3*%
X104958000Y-102964400D02*
X106288000Y-102964400D01*
X104958000Y-104294400D02*
X104958000Y-102964400D01*
X104958000Y-105564400D02*
X104958000Y-118324400D01*
X104958000Y-105564400D02*
X107618000Y-105564400D01*
X104958000Y-118324400D02*
X107618000Y-118324400D01*
X107618000Y-105564400D02*
X107618000Y-118324400D01*
%TO.C,R9*%
X179518858Y-87716900D02*
X179044342Y-87716900D01*
X179518858Y-88761900D02*
X179044342Y-88761900D01*
%TO.C,C4*%
X164807600Y-97281020D02*
X164807600Y-97562180D01*
X165827600Y-97281020D02*
X165827600Y-97562180D01*
%TO.C,R4*%
X122817658Y-66939900D02*
X122343142Y-66939900D01*
X122817658Y-67984900D02*
X122343142Y-67984900D01*
%TO.C,SW1*%
X137086800Y-104948400D02*
X137086800Y-109448400D01*
X139586800Y-110698400D02*
X141086800Y-110698400D01*
X141086800Y-103698400D02*
X139586800Y-103698400D01*
X143586800Y-109448400D02*
X143586800Y-104948400D01*
D12*
%TO.C,U3*%
X142584400Y-136349300D02*
X145734400Y-136349300D01*
X142584400Y-146149300D02*
X142584400Y-136349300D01*
X145734400Y-146149300D02*
X142584400Y-146149300D01*
X145734400Y-146419300D02*
X145734400Y-146149300D01*
X147614400Y-133249300D02*
X148234400Y-133249300D01*
X148234400Y-126949300D02*
X159134400Y-126949300D01*
X148234400Y-133249300D02*
X148234400Y-126949300D01*
X148834400Y-149149300D02*
X147614400Y-149149300D01*
X148834400Y-152349300D02*
X148834400Y-149149300D01*
X158534400Y-149149300D02*
X158534400Y-152349300D01*
X159134400Y-126949300D02*
X159134400Y-133249300D01*
X159134400Y-133249300D02*
X159764400Y-133249300D01*
X159764400Y-149149300D02*
X158534400Y-149149300D01*
X161634400Y-137149300D02*
X163184400Y-137149300D01*
X161634400Y-145249300D02*
X161634400Y-146369300D01*
X163184400Y-137149300D02*
X163184400Y-145249300D01*
X163184400Y-145249300D02*
X161634400Y-145249300D01*
D13*
X147734400Y-127899300D02*
G75*
G02*
X147534400Y-127899300I-100000J0D01*
G01*
X147534400Y-127899300D02*
G75*
G02*
X147734400Y-127899300I100000J0D01*
G01*
D11*
%TO.C,J9*%
X184331600Y-80962200D02*
X191591600Y-80962200D01*
X184331600Y-82462200D02*
X184331600Y-80962200D01*
X184331600Y-90462200D02*
X184331600Y-88962200D01*
X184331600Y-90462200D02*
X191591600Y-90462200D01*
%TO.C,C3*%
X161759600Y-97281020D02*
X161759600Y-97562180D01*
X162779600Y-97281020D02*
X162779600Y-97562180D01*
D12*
%TO.C,U4*%
X105932400Y-69938800D02*
X126252400Y-69938800D01*
X105932400Y-90258800D02*
X105932400Y-69938800D01*
X126252400Y-69938800D02*
X126252400Y-90258800D01*
X126252400Y-90258800D02*
X105932400Y-90258800D01*
D13*
X125082400Y-69298800D02*
G75*
G02*
X124882400Y-69298800I-100000J0D01*
G01*
X124882400Y-69298800D02*
G75*
G02*
X125082400Y-69298800I100000J0D01*
G01*
D11*
%TO.C,R3*%
X129779500Y-73739742D02*
X129779500Y-74214258D01*
X130824500Y-73739742D02*
X130824500Y-74214258D01*
%TO.C,J8*%
X104958000Y-119408800D02*
X106288000Y-119408800D01*
X104958000Y-120738800D02*
X104958000Y-119408800D01*
X104958000Y-122008800D02*
X104958000Y-132228800D01*
X104958000Y-122008800D02*
X107618000Y-122008800D01*
X104958000Y-132228800D02*
X107618000Y-132228800D01*
X107618000Y-122008800D02*
X107618000Y-132228800D01*
%TO.C,C6*%
X163283600Y-97281020D02*
X163283600Y-97562180D01*
X164303600Y-97281020D02*
X164303600Y-97562180D01*
%TO.C,C9*%
X136918400Y-138049780D02*
X136918400Y-137768620D01*
X137938400Y-138049780D02*
X137938400Y-137768620D01*
%TO.C,J6*%
X192486400Y-103994800D02*
X192486400Y-101394800D01*
X195146400Y-101394800D02*
X192486400Y-101394800D01*
X195146400Y-103994800D02*
X192486400Y-103994800D01*
X195146400Y-103994800D02*
X195146400Y-101394800D01*
X195146400Y-105264800D02*
X195146400Y-106594800D01*
X195146400Y-106594800D02*
X193816400Y-106594800D01*
%TO.C,J7*%
X192435600Y-124208200D02*
X192435600Y-116528200D01*
X195095600Y-116528200D02*
X192435600Y-116528200D01*
X195095600Y-124208200D02*
X192435600Y-124208200D01*
X195095600Y-124208200D02*
X195095600Y-116528200D01*
X195095600Y-125478200D02*
X195095600Y-126808200D01*
X195095600Y-126808200D02*
X193765600Y-126808200D01*
%TO.C,LS1*%
X106080800Y-69101800D02*
X106080800Y-64951800D01*
X107780800Y-62901800D02*
X116580800Y-62901800D01*
X118280800Y-64951800D02*
X118280800Y-69101800D01*
X118280800Y-69101800D02*
X106080800Y-69101800D01*
X118630800Y-62401800D02*
X117630800Y-62401800D01*
X118630800Y-63401800D02*
X118630800Y-62401800D01*
%TO.C,R5*%
X151198742Y-123785000D02*
X151673258Y-123785000D01*
X151198742Y-124830000D02*
X151673258Y-124830000D01*
%TO.C,R6*%
X151180700Y-64977142D02*
X151180700Y-65451658D01*
X152225700Y-64977142D02*
X152225700Y-65451658D01*
%TO.C,C10*%
X148287780Y-64348800D02*
X148006620Y-64348800D01*
X148287780Y-65368800D02*
X148006620Y-65368800D01*
%TO.C,J4*%
X104958000Y-93837600D02*
X106288000Y-93837600D01*
X104958000Y-95167600D02*
X104958000Y-93837600D01*
X104958000Y-96437600D02*
X104958000Y-101577600D01*
X104958000Y-96437600D02*
X107618000Y-96437600D01*
X104958000Y-101577600D02*
X107618000Y-101577600D01*
X107618000Y-96437600D02*
X107618000Y-101577600D01*
D12*
%TO.C,U2*%
X139973200Y-67454400D02*
X165973200Y-67454400D01*
X139973200Y-93454400D02*
X139973200Y-67454400D01*
X145973200Y-91454400D02*
X145973200Y-93454400D01*
X145973200Y-93454400D02*
X139973200Y-93454400D01*
X159973200Y-91454400D02*
X145973200Y-91454400D01*
X159973200Y-93454400D02*
X159973200Y-91454400D01*
X165973200Y-67454400D02*
X165973200Y-93454400D01*
X165973200Y-93454400D02*
X159973200Y-93454400D01*
D13*
X149073200Y-66954400D02*
G75*
G02*
X148873200Y-66954400I-100000J0D01*
G01*
X148873200Y-66954400D02*
G75*
G02*
X149073200Y-66954400I100000J0D01*
G01*
D11*
%TO.C,R8*%
X179518858Y-84084700D02*
X179044342Y-84084700D01*
X179518858Y-85129700D02*
X179044342Y-85129700D01*
%TO.C,U7*%
X186666600Y-71928000D02*
X187926600Y-71928000D01*
X186666600Y-75688000D02*
X186666600Y-71928000D01*
X193486600Y-71928000D02*
X192226600Y-71928000D01*
X193486600Y-75688000D02*
X193486600Y-71928000D01*
X186766600Y-76968000D02*
X186436600Y-77208000D01*
X186436600Y-76728000D01*
X186766600Y-76968000D01*
G36*
X186766600Y-76968000D02*
G01*
X186436600Y-77208000D01*
X186436600Y-76728000D01*
X186766600Y-76968000D01*
G37*
%TO.C,R1*%
X133743700Y-101212658D02*
X133743700Y-100738142D01*
X134788700Y-101212658D02*
X134788700Y-100738142D01*
%TO.C,J1*%
X169372400Y-120983600D02*
X169372400Y-123643600D01*
X179592400Y-120983600D02*
X169372400Y-120983600D01*
X179592400Y-120983600D02*
X179592400Y-123643600D01*
X179592400Y-123643600D02*
X169372400Y-123643600D01*
X180862400Y-120983600D02*
X182192400Y-120983600D01*
X182192400Y-120983600D02*
X182192400Y-122313600D01*
%TO.C,C5*%
X166331600Y-97281020D02*
X166331600Y-97562180D01*
X167351600Y-97281020D02*
X167351600Y-97562180D01*
%TO.C,J2*%
X192486400Y-112814000D02*
X192486400Y-107674000D01*
X195146400Y-107674000D02*
X192486400Y-107674000D01*
X195146400Y-112814000D02*
X192486400Y-112814000D01*
X195146400Y-112814000D02*
X195146400Y-107674000D01*
X195146400Y-114084000D02*
X195146400Y-115414000D01*
X195146400Y-115414000D02*
X193816400Y-115414000D01*
%TO.C,J5*%
X192486400Y-97828000D02*
X192486400Y-92688000D01*
X195146400Y-92688000D02*
X192486400Y-92688000D01*
X195146400Y-97828000D02*
X192486400Y-97828000D01*
X195146400Y-97828000D02*
X195146400Y-92688000D01*
X195146400Y-99098000D02*
X195146400Y-100428000D01*
X195146400Y-100428000D02*
X193816400Y-100428000D01*
%TO.C,U5*%
X176641200Y-66555800D02*
X178591200Y-66555800D01*
X176641200Y-66555800D02*
X174691200Y-66555800D01*
X176641200Y-61435800D02*
X178591200Y-61435800D01*
X176641200Y-61435800D02*
X174691200Y-61435800D01*
X179581200Y-66790800D02*
X179101200Y-66790800D01*
X179341200Y-66460800D01*
X179581200Y-66790800D01*
G36*
X179581200Y-66790800D02*
G01*
X179101200Y-66790800D01*
X179341200Y-66460800D01*
X179581200Y-66790800D01*
G37*
%TO.C,R7*%
X156260700Y-64977142D02*
X156260700Y-65451658D01*
X157305700Y-64977142D02*
X157305700Y-65451658D01*
%TO.C,C8*%
X179436220Y-70152600D02*
X179717380Y-70152600D01*
X179436220Y-71172600D02*
X179717380Y-71172600D01*
%TO.C,C1*%
X142087400Y-100784020D02*
X142087400Y-101065180D01*
X143107400Y-100784020D02*
X143107400Y-101065180D01*
%TO.C,C2*%
X176333820Y-68069400D02*
X176614980Y-68069400D01*
X176333820Y-69089400D02*
X176614980Y-69089400D01*
D10*
%TO.C,U1*%
X149612600Y-98965000D02*
X149612600Y-99580000D01*
X149612600Y-98965000D02*
X150287600Y-98965000D01*
X149612600Y-109315000D02*
X149612600Y-108640000D01*
X149612600Y-109315000D02*
X150287600Y-109315000D01*
X159962600Y-98965000D02*
X159287600Y-98965000D01*
X159962600Y-98965000D02*
X159962600Y-99640000D01*
X159962600Y-109315000D02*
X159287600Y-109315000D01*
X159962600Y-109315000D02*
X159962600Y-108640000D01*
D11*
X148927600Y-99600000D02*
X148587600Y-99130000D01*
X149267600Y-99130000D01*
X148927600Y-99600000D01*
G36*
X148927600Y-99600000D02*
G01*
X148587600Y-99130000D01*
X149267600Y-99130000D01*
X148927600Y-99600000D01*
G37*
%TD*%
M02*
