%TF.GenerationSoftware,KiCad,Pcbnew,9.0.0*%
%TF.CreationDate,2026-02-17T11:48:13+02:00*%
%TF.ProjectId,space invaders,73706163-6520-4696-9e76-61646572732e,rev?*%
%TF.SameCoordinates,Original*%
%TF.FileFunction,Soldermask,Top*%
%TF.FilePolarity,Negative*%
%FSLAX46Y46*%
G04 Gerber Fmt 4.6, Leading zero omitted, Abs format (unit mm)*
G04 Created by KiCad (PCBNEW 9.0.0) date 2026-02-17 11:48:13*
%MOMM*%
%LPD*%
G01*
G04 APERTURE LIST*
G04 Aperture macros list*
%AMRoundRect*
0 Rectangle with rounded corners*
0 $1 Rounding radius*
0 $2 $3 $4 $5 $6 $7 $8 $9 X,Y pos of 4 corners*
0 Add a 4 corners polygon primitive as box body*
4,1,4,$2,$3,$4,$5,$6,$7,$8,$9,$2,$3,0*
0 Add four circle primitives for the rounded corners*
1,1,$1+$1,$2,$3*
1,1,$1+$1,$4,$5*
1,1,$1+$1,$6,$7*
1,1,$1+$1,$8,$9*
0 Add four rect primitives between the rounded corners*
20,1,$1+$1,$2,$3,$4,$5,0*
20,1,$1+$1,$4,$5,$6,$7,0*
20,1,$1+$1,$6,$7,$8,$9,0*
20,1,$1+$1,$8,$9,$2,$3,0*%
G04 Aperture macros list end*
%ADD10RoundRect,0.225000X-0.225000X-0.250000X0.225000X-0.250000X0.225000X0.250000X-0.225000X0.250000X0*%
%ADD11RoundRect,0.200000X-0.275000X0.200000X-0.275000X-0.200000X0.275000X-0.200000X0.275000X0.200000X0*%
%ADD12R,1.700000X1.700000*%
%ADD13O,1.700000X1.700000*%
%ADD14RoundRect,0.200000X0.200000X0.275000X-0.200000X0.275000X-0.200000X-0.275000X0.200000X-0.275000X0*%
%ADD15RoundRect,0.225000X-0.250000X0.225000X-0.250000X-0.225000X0.250000X-0.225000X0.250000X0.225000X0*%
%ADD16C,2.000000*%
%ADD17C,1.982000*%
%ADD18C,2.490000*%
%ADD19C,0.650000*%
%ADD20O,0.650000X0.950000*%
%ADD21R,0.700000X0.300000*%
%ADD22O,1.400000X0.800000*%
%ADD23RoundRect,0.102000X-0.654000X0.654000X-0.654000X-0.654000X0.654000X-0.654000X0.654000X0.654000X0*%
%ADD24C,1.512000*%
%ADD25RoundRect,0.225000X0.225000X0.250000X-0.225000X0.250000X-0.225000X-0.250000X0.225000X-0.250000X0*%
%ADD26RoundRect,0.225000X0.250000X-0.225000X0.250000X0.225000X-0.250000X0.225000X-0.250000X-0.225000X0*%
%ADD27RoundRect,0.200000X-0.200000X-0.275000X0.200000X-0.275000X0.200000X0.275000X-0.200000X0.275000X0*%
%ADD28RoundRect,0.102000X-0.754000X-0.754000X0.754000X-0.754000X0.754000X0.754000X-0.754000X0.754000X0*%
%ADD29C,1.712000*%
%ADD30C,3.204000*%
%ADD31RoundRect,0.375000X0.375000X-0.625000X0.375000X0.625000X-0.375000X0.625000X-0.375000X-0.625000X0*%
%ADD32RoundRect,0.500000X1.400000X-0.500000X1.400000X0.500000X-1.400000X0.500000X-1.400000X-0.500000X0*%
%ADD33RoundRect,0.200000X0.275000X-0.200000X0.275000X0.200000X-0.275000X0.200000X-0.275000X-0.200000X0*%
%ADD34C,4.000000*%
%ADD35R,1.600000X1.600000*%
%ADD36C,1.600000*%
%ADD37RoundRect,0.150000X0.825000X0.150000X-0.825000X0.150000X-0.825000X-0.150000X0.825000X-0.150000X0*%
%ADD38R,2.410000X3.300000*%
%ADD39R,1.500000X0.550000*%
%ADD40R,0.550000X1.500000*%
G04 APERTURE END LIST*
D10*
%TO.C,C7*%
X183869800Y-39543800D03*
X185419800Y-39543800D03*
%TD*%
D11*
%TO.C,R2*%
X138359400Y-62681600D03*
X138359400Y-64331600D03*
%TD*%
D12*
%TO.C,J3*%
X106571200Y-66825600D03*
D13*
X106571200Y-69365600D03*
X106571200Y-71905600D03*
X106571200Y-74445600D03*
X106571200Y-76985600D03*
X106571200Y-79525600D03*
%TD*%
D14*
%TO.C,R9*%
X180389800Y-50770600D03*
X178739800Y-50770600D03*
%TD*%
D15*
%TO.C,C4*%
X165600800Y-59177800D03*
X165600800Y-60727800D03*
%TD*%
D14*
%TO.C,R10*%
X116475000Y-106142800D03*
X114825000Y-106142800D03*
%TD*%
%TO.C,R4*%
X123688600Y-29993600D03*
X122038600Y-29993600D03*
%TD*%
D16*
%TO.C,SW1*%
X142870000Y-66479600D03*
X142870000Y-72979600D03*
X138370000Y-66479600D03*
X138370000Y-72979600D03*
%TD*%
D17*
%TO.C,U3*%
X150792600Y-91080500D03*
X157142600Y-91080500D03*
X150792600Y-96160500D03*
X157142600Y-96160500D03*
X151427600Y-113940500D03*
X153967600Y-113940500D03*
X156507600Y-113940500D03*
D18*
X146347600Y-97113000D03*
X146347600Y-110448000D03*
X161587600Y-110448000D03*
X161587600Y-97113000D03*
D17*
X143807600Y-101240500D03*
X143807600Y-103780500D03*
X143807600Y-106320500D03*
%TD*%
D19*
%TO.C,J9*%
X185624800Y-51843400D03*
D20*
X185624800Y-44643400D03*
D21*
X184964800Y-50993400D03*
X184964800Y-50493400D03*
X184964800Y-49993400D03*
X184964800Y-49493400D03*
X184964800Y-48993400D03*
X184964800Y-48493400D03*
X184964800Y-47993400D03*
X184964800Y-47493400D03*
X184964800Y-46993400D03*
X184964800Y-46493400D03*
X184964800Y-45993400D03*
X184964800Y-45493400D03*
X186664800Y-45743400D03*
X186664800Y-46243400D03*
X186664800Y-46743400D03*
X186664800Y-47243400D03*
X186664800Y-47743400D03*
X186664800Y-48243400D03*
X186664800Y-48743400D03*
X186664800Y-49243400D03*
X186664800Y-49743400D03*
X186664800Y-50243400D03*
X186664800Y-50743400D03*
X186664800Y-51243400D03*
D22*
X192824800Y-52733400D03*
X186874800Y-52373400D03*
X186874800Y-44113400D03*
X192824800Y-43753400D03*
%TD*%
D15*
%TO.C,C3*%
X162552800Y-59177800D03*
X162552800Y-60727800D03*
%TD*%
D23*
%TO.C,U4*%
X125265600Y-33613000D03*
D24*
X122725600Y-33613000D03*
X120185600Y-33613000D03*
X117645600Y-33613000D03*
X115105600Y-33613000D03*
X112565600Y-33613000D03*
X110025600Y-33613000D03*
X107485600Y-33613000D03*
X107485600Y-51647000D03*
X110025600Y-51647000D03*
X112565600Y-51647000D03*
X115105600Y-51647000D03*
X117645600Y-51647000D03*
X120185600Y-51647000D03*
X122725600Y-51647000D03*
X125265600Y-51647000D03*
%TD*%
D25*
%TO.C,C13*%
X116526600Y-112848400D03*
X114976600Y-112848400D03*
%TD*%
D11*
%TO.C,R3*%
X130585200Y-35683200D03*
X130585200Y-37333200D03*
%TD*%
D12*
%TO.C,RB1/2/3/4/5*%
X106571200Y-83270000D03*
D13*
X106571200Y-85810000D03*
X106571200Y-88350000D03*
X106571200Y-90890000D03*
X106571200Y-93430000D03*
%TD*%
D15*
%TO.C,C6*%
X164076800Y-59177800D03*
X164076800Y-60727800D03*
%TD*%
D12*
%TO.C,Speaker*%
X109220000Y-26009600D03*
D13*
X111760000Y-26009600D03*
%TD*%
D26*
%TO.C,C9*%
X137711600Y-101215400D03*
X137711600Y-99665400D03*
%TD*%
D12*
%TO.C,RA6/7*%
X194099600Y-67796000D03*
D13*
X194099600Y-65256000D03*
%TD*%
D12*
%TO.C,RA2/3/4/5*%
X194048800Y-88009400D03*
D13*
X194048800Y-85469400D03*
X194048800Y-82929400D03*
X194048800Y-80389400D03*
%TD*%
D27*
%TO.C,R5*%
X150894200Y-86838700D03*
X152544200Y-86838700D03*
%TD*%
D11*
%TO.C,R6*%
X151986400Y-26920600D03*
X151986400Y-28570600D03*
%TD*%
D25*
%TO.C,C10*%
X149205400Y-27390000D03*
X147655400Y-27390000D03*
%TD*%
D26*
%TO.C,C11*%
X129213600Y-111997800D03*
X129213600Y-110447800D03*
%TD*%
D12*
%TO.C,RC5/6/7*%
X106571200Y-57698800D03*
D13*
X106571200Y-60238800D03*
X106571200Y-62778800D03*
%TD*%
D28*
%TO.C,U2*%
X149446400Y-31485600D03*
D29*
X151986400Y-31485600D03*
X154526400Y-31485600D03*
X157066400Y-31485600D03*
D30*
X142256400Y-31985600D03*
X164256400Y-31985600D03*
X164256400Y-53985600D03*
X142256400Y-53985600D03*
%TD*%
D14*
%TO.C,R8*%
X180389800Y-47138400D03*
X178739800Y-47138400D03*
%TD*%
D31*
%TO.C,U7*%
X188059800Y-39519200D03*
X190359800Y-39519200D03*
D32*
X190359800Y-33219200D03*
D31*
X192659800Y-39519200D03*
%TD*%
D33*
%TO.C,R1*%
X134549400Y-64331600D03*
X134549400Y-62681600D03*
%TD*%
D12*
%TO.C,ICSP*%
X181145600Y-84844800D03*
D13*
X178605600Y-84844800D03*
X176065600Y-84844800D03*
X173525600Y-84844800D03*
X170985600Y-84844800D03*
%TD*%
D15*
%TO.C,C5*%
X167124800Y-59177800D03*
X167124800Y-60727800D03*
%TD*%
%TO.C,C14*%
X129315200Y-104199400D03*
X129315200Y-105749400D03*
%TD*%
D34*
%TO.C,J10*%
X108484000Y-119439869D03*
X133484000Y-119439869D03*
D35*
X115444000Y-118019869D03*
D36*
X118214000Y-118019869D03*
X120984000Y-118019869D03*
X123754000Y-118019869D03*
X126524000Y-118019869D03*
X116829000Y-120859869D03*
X119599000Y-120859869D03*
X122369000Y-120859869D03*
X125139000Y-120859869D03*
%TD*%
D12*
%TO.C,J2/RE*%
X194099600Y-76615200D03*
D13*
X194099600Y-74075200D03*
X194099600Y-71535200D03*
%TD*%
D12*
%TO.C,RC0/1/2*%
X194099600Y-61629200D03*
D13*
X194099600Y-59089200D03*
X194099600Y-56549200D03*
%TD*%
D26*
%TO.C,C12*%
X129315200Y-108848200D03*
X129315200Y-107298200D03*
%TD*%
D37*
%TO.C,U5*%
X179399400Y-28432000D03*
X179399400Y-27162000D03*
X179399400Y-25892000D03*
X179399400Y-24622000D03*
X174449400Y-24622000D03*
X174449400Y-25892000D03*
X174449400Y-27162000D03*
X174449400Y-28432000D03*
D38*
X176924400Y-26527000D03*
%TD*%
D11*
%TO.C,R7*%
X157066400Y-26920600D03*
X157066400Y-28570600D03*
%TD*%
D10*
%TO.C,C8*%
X179085000Y-33193800D03*
X180635000Y-33193800D03*
%TD*%
D15*
%TO.C,C1*%
X142880600Y-62680800D03*
X142880600Y-64230800D03*
%TD*%
D10*
%TO.C,C2*%
X175982600Y-31110600D03*
X177532600Y-31110600D03*
%TD*%
D39*
%TO.C,U1*%
X149370800Y-62671200D03*
X149370800Y-63471200D03*
X149370800Y-64271200D03*
X149370800Y-65071200D03*
X149370800Y-65871200D03*
X149370800Y-66671200D03*
X149370800Y-67471200D03*
X149370800Y-68271200D03*
X149370800Y-69071200D03*
X149370800Y-69871200D03*
X149370800Y-70671200D03*
D40*
X151070800Y-72371200D03*
X151870800Y-72371200D03*
X152670800Y-72371200D03*
X153470800Y-72371200D03*
X154270800Y-72371200D03*
X155070800Y-72371200D03*
X155870800Y-72371200D03*
X156670800Y-72371200D03*
X157470800Y-72371200D03*
X158270800Y-72371200D03*
X159070800Y-72371200D03*
D39*
X160770800Y-70671200D03*
X160770800Y-69871200D03*
X160770800Y-69071200D03*
X160770800Y-68271200D03*
X160770800Y-67471200D03*
X160770800Y-66671200D03*
X160770800Y-65871200D03*
X160770800Y-65071200D03*
X160770800Y-64271200D03*
X160770800Y-63471200D03*
X160770800Y-62671200D03*
D40*
X159070800Y-60971200D03*
X158270800Y-60971200D03*
X157470800Y-60971200D03*
X156670800Y-60971200D03*
X155870800Y-60971200D03*
X155070800Y-60971200D03*
X154270800Y-60971200D03*
X153470800Y-60971200D03*
X152670800Y-60971200D03*
X151870800Y-60971200D03*
X151070800Y-60971200D03*
%TD*%
D37*
%TO.C,U8*%
X124475000Y-112484000D03*
X124475000Y-111214000D03*
X124475000Y-109944000D03*
X124475000Y-108674000D03*
X124475000Y-107404000D03*
X124475000Y-106134000D03*
X124475000Y-104864000D03*
X124475000Y-103594000D03*
X119525000Y-103594000D03*
X119525000Y-104864000D03*
X119525000Y-106134000D03*
X119525000Y-107404000D03*
X119525000Y-108674000D03*
X119525000Y-109944000D03*
X119525000Y-111214000D03*
X119525000Y-112484000D03*
%TD*%
M02*
