%TF.GenerationSoftware,KiCad,Pcbnew,9.0.0*%
%TF.CreationDate,2025-12-09T22:57:50+02:00*%
%TF.ProjectId,space invaders,73706163-6520-4696-9e76-61646572732e,rev?*%
%TF.SameCoordinates,Original*%
%TF.FileFunction,Copper,L1,Top*%
%TF.FilePolarity,Positive*%
%FSLAX46Y46*%
G04 Gerber Fmt 4.6, Leading zero omitted, Abs format (unit mm)*
G04 Created by KiCad (PCBNEW 9.0.0) date 2025-12-09 22:57:50*
%MOMM*%
%LPD*%
G01*
G04 APERTURE LIST*
G04 Aperture macros list*
%AMRoundRect*
0 Rectangle with rounded corners*
0 $1 Rounding radius*
0 $2 $3 $4 $5 $6 $7 $8 $9 X,Y pos of 4 corners*
0 Add a 4 corners polygon primitive as box body*
4,1,4,$2,$3,$4,$5,$6,$7,$8,$9,$2,$3,0*
0 Add four circle primitives for the rounded corners*
1,1,$1+$1,$2,$3*
1,1,$1+$1,$4,$5*
1,1,$1+$1,$6,$7*
1,1,$1+$1,$8,$9*
0 Add four rect primitives between the rounded corners*
20,1,$1+$1,$2,$3,$4,$5,0*
20,1,$1+$1,$4,$5,$6,$7,0*
20,1,$1+$1,$6,$7,$8,$9,0*
20,1,$1+$1,$8,$9,$2,$3,0*%
G04 Aperture macros list end*
%TA.AperFunction,SMDPad,CuDef*%
%ADD10RoundRect,0.225000X-0.225000X-0.250000X0.225000X-0.250000X0.225000X0.250000X-0.225000X0.250000X0*%
%TD*%
%TA.AperFunction,SMDPad,CuDef*%
%ADD11RoundRect,0.200000X-0.275000X0.200000X-0.275000X-0.200000X0.275000X-0.200000X0.275000X0.200000X0*%
%TD*%
%TA.AperFunction,ComponentPad*%
%ADD12R,1.700000X1.700000*%
%TD*%
%TA.AperFunction,ComponentPad*%
%ADD13O,1.700000X1.700000*%
%TD*%
%TA.AperFunction,SMDPad,CuDef*%
%ADD14RoundRect,0.200000X0.200000X0.275000X-0.200000X0.275000X-0.200000X-0.275000X0.200000X-0.275000X0*%
%TD*%
%TA.AperFunction,SMDPad,CuDef*%
%ADD15RoundRect,0.225000X-0.250000X0.225000X-0.250000X-0.225000X0.250000X-0.225000X0.250000X0.225000X0*%
%TD*%
%TA.AperFunction,ComponentPad*%
%ADD16C,2.000000*%
%TD*%
%TA.AperFunction,ComponentPad*%
%ADD17C,1.778000*%
%TD*%
%TA.AperFunction,ComponentPad*%
%ADD18C,2.286000*%
%TD*%
%TA.AperFunction,SMDPad,CuDef*%
%ADD19R,0.700000X0.300000*%
%TD*%
%TA.AperFunction,HeatsinkPad*%
%ADD20O,1.400000X0.800000*%
%TD*%
%TA.AperFunction,ComponentPad*%
%ADD21R,1.308000X1.308000*%
%TD*%
%TA.AperFunction,ComponentPad*%
%ADD22C,1.308000*%
%TD*%
%TA.AperFunction,SMDPad,CuDef*%
%ADD23RoundRect,0.225000X0.250000X-0.225000X0.250000X0.225000X-0.250000X0.225000X-0.250000X-0.225000X0*%
%TD*%
%TA.AperFunction,SMDPad,CuDef*%
%ADD24R,1.500000X2.000000*%
%TD*%
%TA.AperFunction,SMDPad,CuDef*%
%ADD25RoundRect,0.200000X-0.200000X-0.275000X0.200000X-0.275000X0.200000X0.275000X-0.200000X0.275000X0*%
%TD*%
%TA.AperFunction,SMDPad,CuDef*%
%ADD26RoundRect,0.225000X0.225000X0.250000X-0.225000X0.250000X-0.225000X-0.250000X0.225000X-0.250000X0*%
%TD*%
%TA.AperFunction,ComponentPad*%
%ADD27R,1.508000X1.508000*%
%TD*%
%TA.AperFunction,ComponentPad*%
%ADD28C,1.508000*%
%TD*%
%TA.AperFunction,ComponentPad*%
%ADD29C,3.000000*%
%TD*%
%TA.AperFunction,SMDPad,CuDef*%
%ADD30RoundRect,0.375000X0.375000X-0.625000X0.375000X0.625000X-0.375000X0.625000X-0.375000X-0.625000X0*%
%TD*%
%TA.AperFunction,SMDPad,CuDef*%
%ADD31RoundRect,0.500000X1.400000X-0.500000X1.400000X0.500000X-1.400000X0.500000X-1.400000X-0.500000X0*%
%TD*%
%TA.AperFunction,SMDPad,CuDef*%
%ADD32RoundRect,0.200000X0.275000X-0.200000X0.275000X0.200000X-0.275000X0.200000X-0.275000X-0.200000X0*%
%TD*%
%TA.AperFunction,SMDPad,CuDef*%
%ADD33RoundRect,0.150000X0.825000X0.150000X-0.825000X0.150000X-0.825000X-0.150000X0.825000X-0.150000X0*%
%TD*%
%TA.AperFunction,HeatsinkPad*%
%ADD34R,2.410000X3.300000*%
%TD*%
%TA.AperFunction,SMDPad,CuDef*%
%ADD35R,1.500000X0.550000*%
%TD*%
%TA.AperFunction,SMDPad,CuDef*%
%ADD36R,0.550000X1.500000*%
%TD*%
%TA.AperFunction,ViaPad*%
%ADD37C,0.600000*%
%TD*%
%TA.AperFunction,Conductor*%
%ADD38C,0.550000*%
%TD*%
%TA.AperFunction,Conductor*%
%ADD39C,0.200000*%
%TD*%
%TA.AperFunction,Conductor*%
%ADD40C,0.300000*%
%TD*%
%TA.AperFunction,Conductor*%
%ADD41C,0.500000*%
%TD*%
%TA.AperFunction,Conductor*%
%ADD42C,0.350000*%
%TD*%
G04 APERTURE END LIST*
D10*
%TO.P,C7,1*%
%TO.N,GND*%
X183586600Y-77012600D03*
%TO.P,C7,2*%
%TO.N,Net-(U7-VI)*%
X185136600Y-77012600D03*
%TD*%
D11*
%TO.P,R2,1*%
%TO.N,Net-(C1-Pad1)*%
X138076200Y-100150400D03*
%TO.P,R2,2*%
%TO.N,VDD*%
X138076200Y-101800400D03*
%TD*%
D12*
%TO.P,J3,1,Pin_1*%
%TO.N,Net-(J3-Pin_1)*%
X106288000Y-104294400D03*
D13*
%TO.P,J3,2,Pin_2*%
%TO.N,Net-(J3-Pin_2)*%
X106288000Y-106834400D03*
%TO.P,J3,3,Pin_3*%
%TO.N,Net-(J3-Pin_3)*%
X106288000Y-109374400D03*
%TO.P,J3,4,Pin_4*%
%TO.N,Net-(J3-Pin_4)*%
X106288000Y-111914400D03*
%TO.P,J3,5,Pin_5*%
%TO.N,Net-(J3-Pin_5)*%
X106288000Y-114454400D03*
%TO.P,J3,6,Pin_6*%
%TO.N,Net-(J3-Pin_6)*%
X106288000Y-116994400D03*
%TD*%
D14*
%TO.P,R9,1*%
%TO.N,Net-(J9-CC2)*%
X180106600Y-88239400D03*
%TO.P,R9,2*%
%TO.N,GND*%
X178456600Y-88239400D03*
%TD*%
D15*
%TO.P,C4,1*%
%TO.N,VDD*%
X165317600Y-96646600D03*
%TO.P,C4,2*%
%TO.N,GND*%
X165317600Y-98196600D03*
%TD*%
D14*
%TO.P,R4,1*%
%TO.N,VDD*%
X123405400Y-67462400D03*
%TO.P,R4,2*%
%TO.N,uC RX2*%
X121755400Y-67462400D03*
%TD*%
D16*
%TO.P,SW1,1,1*%
%TO.N,GND*%
X142586800Y-103948400D03*
X142586800Y-110448400D03*
%TO.P,SW1,2,2*%
%TO.N,icsp2*%
X138086800Y-103948400D03*
X138086800Y-110448400D03*
%TD*%
D17*
%TO.P,U3,B1A,SEL+*%
%TO.N,SW Control*%
X150509400Y-128549300D03*
%TO.P,U3,B1B*%
%TO.N,N/C*%
X156859400Y-128549300D03*
%TO.P,U3,B2A,SEL-*%
%TO.N,GND*%
X150509400Y-133629300D03*
%TO.P,U3,B2B*%
%TO.N,N/C*%
X156859400Y-133629300D03*
%TO.P,U3,H1,H+*%
%TO.N,VDD*%
X151144400Y-151409300D03*
%TO.P,U3,H2,H*%
%TO.N,Horz Control*%
X153684400Y-151409300D03*
%TO.P,U3,H3,H-*%
%TO.N,GND*%
X156224400Y-151409300D03*
D18*
%TO.P,U3,S1,SHIELD*%
X146064400Y-134581800D03*
%TO.P,U3,S2,SHIELD*%
X146064400Y-147916800D03*
%TO.P,U3,S3,SHIELD*%
X161304400Y-147916800D03*
%TO.P,U3,S4,SHIELD*%
X161304400Y-134581800D03*
D17*
%TO.P,U3,V1,V+*%
%TO.N,VDD*%
X143524400Y-138709300D03*
%TO.P,U3,V2,V*%
%TO.N,Vert Control*%
X143524400Y-141249300D03*
%TO.P,U3,V3,V-*%
%TO.N,GND*%
X143524400Y-143789300D03*
%TD*%
D19*
%TO.P,J9,A1*%
%TO.N,N/C*%
X184681600Y-88462200D03*
%TO.P,J9,A2*%
X184681600Y-87962200D03*
%TO.P,J9,A3*%
X184681600Y-87462200D03*
%TO.P,J9,A4*%
X184681600Y-86962200D03*
%TO.P,J9,A5,CC1*%
%TO.N,Net-(J9-CC1)*%
X184681600Y-86462200D03*
%TO.P,J9,A6*%
%TO.N,N/C*%
X184681600Y-85962200D03*
%TO.P,J9,A7*%
X184681600Y-85462200D03*
%TO.P,J9,A8*%
X184681600Y-84962200D03*
%TO.P,J9,A9,VBUS*%
%TO.N,Net-(U7-VI)*%
X184681600Y-84462200D03*
%TO.P,J9,A10*%
%TO.N,N/C*%
X184681600Y-83962200D03*
%TO.P,J9,A11*%
X184681600Y-83462200D03*
%TO.P,J9,A12,GND*%
%TO.N,GND*%
X184681600Y-82962200D03*
%TO.P,J9,B1*%
%TO.N,N/C*%
X186381600Y-83212200D03*
%TO.P,J9,B2*%
X186381600Y-83712200D03*
%TO.P,J9,B3*%
X186381600Y-84212200D03*
%TO.P,J9,B4*%
X186381600Y-84712200D03*
%TO.P,J9,B5,CC2*%
%TO.N,Net-(J9-CC2)*%
X186381600Y-85212200D03*
%TO.P,J9,B6*%
%TO.N,N/C*%
X186381600Y-85712200D03*
%TO.P,J9,B7*%
X186381600Y-86212200D03*
%TO.P,J9,B8*%
X186381600Y-86712200D03*
%TO.P,J9,B9,VBUS*%
%TO.N,Net-(U7-VI)*%
X186381600Y-87212200D03*
%TO.P,J9,B10*%
%TO.N,N/C*%
X186381600Y-87712200D03*
%TO.P,J9,B11*%
X186381600Y-88212200D03*
%TO.P,J9,B12,GND*%
%TO.N,GND*%
X186381600Y-88712200D03*
D20*
%TO.P,J9,S1,SHIELD*%
X192541600Y-90202200D03*
X186591600Y-89842200D03*
X186591600Y-81582200D03*
X192541600Y-81222200D03*
%TD*%
D15*
%TO.P,C3,1*%
%TO.N,VDD*%
X162269600Y-96646600D03*
%TO.P,C3,2*%
%TO.N,GND*%
X162269600Y-98196600D03*
%TD*%
D21*
%TO.P,U4,1,VCC*%
%TO.N,VDD*%
X124982400Y-71081800D03*
D22*
%TO.P,U4,2,RX*%
%TO.N,uC TX2*%
X122442400Y-71081800D03*
%TO.P,U4,3,TX*%
%TO.N,uC RX2*%
X119902400Y-71081800D03*
%TO.P,U4,4,DAC_R*%
%TO.N,unconnected-(U4-DAC_R-Pad4)*%
X117362400Y-71081800D03*
%TO.P,U4,5,DAC_L*%
%TO.N,unconnected-(U4-DAC_L-Pad5)*%
X114822400Y-71081800D03*
%TO.P,U4,6,SPK1*%
%TO.N,Net-(U4-SPK1)*%
X112282400Y-71081800D03*
%TO.P,U4,7,GND*%
%TO.N,GND*%
X109742400Y-71081800D03*
%TO.P,U4,8,SPK2*%
%TO.N,Net-(U4-SPK2)*%
X107202400Y-71081800D03*
%TO.P,U4,9,IO1*%
%TO.N,unconnected-(U4-IO1-Pad9)*%
X107202400Y-89115800D03*
%TO.P,U4,10,GND*%
%TO.N,GND*%
X109742400Y-89115800D03*
%TO.P,U4,11,IO2*%
%TO.N,unconnected-(U4-IO2-Pad11)*%
X112282400Y-89115800D03*
%TO.P,U4,12,ADKEY1*%
%TO.N,unconnected-(U4-ADKEY1-Pad12)*%
X114822400Y-89115800D03*
%TO.P,U4,13,ADKEY2*%
%TO.N,unconnected-(U4-ADKEY2-Pad13)*%
X117362400Y-89115800D03*
%TO.P,U4,14,USB+*%
%TO.N,unconnected-(U4-USB+-Pad14)*%
X119902400Y-89115800D03*
%TO.P,U4,15,USB-*%
%TO.N,unconnected-(U4-USB--Pad15)*%
X122442400Y-89115800D03*
%TO.P,U4,16,BUSY*%
%TO.N,unconnected-(U4-BUSY-Pad16)*%
X124982400Y-89115800D03*
%TD*%
D11*
%TO.P,R3,1*%
%TO.N,VDD*%
X130302000Y-73152000D03*
%TO.P,R3,2*%
%TO.N,uC TX2*%
X130302000Y-74802000D03*
%TD*%
D12*
%TO.P,J8,1,Pin_1*%
%TO.N,Net-(J8-Pin_1)*%
X106288000Y-120738800D03*
D13*
%TO.P,J8,2,Pin_2*%
%TO.N,Net-(J8-Pin_2)*%
X106288000Y-123278800D03*
%TO.P,J8,3,Pin_3*%
%TO.N,Net-(J8-Pin_3)*%
X106288000Y-125818800D03*
%TO.P,J8,4,Pin_4*%
%TO.N,Net-(J8-Pin_4)*%
X106288000Y-128358800D03*
%TO.P,J8,5,Pin_5*%
%TO.N,Net-(J8-Pin_5)*%
X106288000Y-130898800D03*
%TD*%
D15*
%TO.P,C6,1*%
%TO.N,VDD*%
X163793600Y-96646600D03*
%TO.P,C6,2*%
%TO.N,GND*%
X163793600Y-98196600D03*
%TD*%
D23*
%TO.P,C9,1*%
%TO.N,VDD*%
X137428400Y-138684200D03*
%TO.P,C9,2*%
%TO.N,GND*%
X137428400Y-137134200D03*
%TD*%
D12*
%TO.P,J6,1,Pin_1*%
%TO.N,Net-(J6-Pin_1)*%
X193816400Y-105264800D03*
D13*
%TO.P,J6,2,Pin_2*%
%TO.N,Net-(J6-Pin_2)*%
X193816400Y-102724800D03*
%TD*%
D12*
%TO.P,J7,1,Pin_1*%
%TO.N,Net-(J7-Pin_1)*%
X193765600Y-125478200D03*
D13*
%TO.P,J7,2,Pin_2*%
%TO.N,Net-(J7-Pin_2)*%
X193765600Y-122938200D03*
%TO.P,J7,3,Pin_3*%
%TO.N,Net-(J7-Pin_3)*%
X193765600Y-120398200D03*
%TO.P,J7,4,Pin_4*%
%TO.N,Net-(J7-Pin_4)*%
X193765600Y-117858200D03*
%TD*%
D24*
%TO.P,LS1,1,1*%
%TO.N,Net-(U4-SPK1)*%
X117580800Y-63701800D03*
%TO.P,LS1,2,2*%
%TO.N,Net-(U4-SPK2)*%
X106780800Y-63701800D03*
%TD*%
D25*
%TO.P,R5,1*%
%TO.N,SW Control*%
X150611000Y-124307500D03*
%TO.P,R5,2*%
%TO.N,VDD*%
X152261000Y-124307500D03*
%TD*%
D11*
%TO.P,R6,1*%
%TO.N,SCL1*%
X151703200Y-64389400D03*
%TO.P,R6,2*%
%TO.N,VDD*%
X151703200Y-66039400D03*
%TD*%
D26*
%TO.P,C10,1*%
%TO.N,VDD*%
X148922200Y-64858800D03*
%TO.P,C10,2*%
%TO.N,GND*%
X147372200Y-64858800D03*
%TD*%
D12*
%TO.P,J4,1,Pin_1*%
%TO.N,Net-(J4-Pin_1)*%
X106288000Y-95167600D03*
D13*
%TO.P,J4,2,Pin_2*%
%TO.N,Net-(J4-Pin_2)*%
X106288000Y-97707600D03*
%TO.P,J4,3,Pin_3*%
%TO.N,Net-(J4-Pin_3)*%
X106288000Y-100247600D03*
%TD*%
D27*
%TO.P,U2,1,GND*%
%TO.N,GND*%
X149163200Y-68954400D03*
D28*
%TO.P,U2,2,VCC_IN*%
%TO.N,VDD*%
X151703200Y-68954400D03*
%TO.P,U2,3,SCL*%
%TO.N,SCL1*%
X154243200Y-68954400D03*
%TO.P,U2,4,SDA*%
%TO.N,SDA1*%
X156783200Y-68954400D03*
D29*
%TO.P,U2,S1*%
%TO.N,N/C*%
X141973200Y-69454400D03*
%TO.P,U2,S2*%
X163973200Y-69454400D03*
%TO.P,U2,S3*%
X163973200Y-91454400D03*
%TO.P,U2,S4*%
X141973200Y-91454400D03*
%TD*%
D14*
%TO.P,R8,1*%
%TO.N,Net-(J9-CC1)*%
X180106600Y-84607200D03*
%TO.P,R8,2*%
%TO.N,GND*%
X178456600Y-84607200D03*
%TD*%
D30*
%TO.P,U7,1,GND*%
%TO.N,GND*%
X187776600Y-76988000D03*
%TO.P,U7,2,VO*%
%TO.N,VDD*%
X190076600Y-76988000D03*
D31*
X190076600Y-70688000D03*
D30*
%TO.P,U7,3,VI*%
%TO.N,Net-(U7-VI)*%
X192376600Y-76988000D03*
%TD*%
D32*
%TO.P,R1,1*%
%TO.N,icsp2*%
X134266200Y-101800400D03*
%TO.P,R1,2*%
%TO.N,Net-(C1-Pad1)*%
X134266200Y-100150400D03*
%TD*%
D12*
%TO.P,J1,1,Pin_1*%
%TO.N,VPP*%
X180862400Y-122313600D03*
D13*
%TO.P,J1,2,Pin_2*%
%TO.N,icsp2*%
X178322400Y-122313600D03*
%TO.P,J1,3,Pin_3*%
%TO.N,GND*%
X175782400Y-122313600D03*
%TO.P,J1,4,Pin_4*%
%TO.N,icsp4*%
X173242400Y-122313600D03*
%TO.P,J1,5,Pin_5*%
%TO.N,icsp5*%
X170702400Y-122313600D03*
%TD*%
D15*
%TO.P,C5,1*%
%TO.N,VDD*%
X166841600Y-96646600D03*
%TO.P,C5,2*%
%TO.N,GND*%
X166841600Y-98196600D03*
%TD*%
D12*
%TO.P,J2,1,Pin_1*%
%TO.N,Net-(J2-Pin_1)*%
X193816400Y-114084000D03*
D13*
%TO.P,J2,2,Pin_2*%
%TO.N,Net-(J2-Pin_2)*%
X193816400Y-111544000D03*
%TO.P,J2,3,Pin_3*%
%TO.N,Net-(J2-Pin_3)*%
X193816400Y-109004000D03*
%TD*%
D12*
%TO.P,J5,1,Pin_1*%
%TO.N,Net-(J5-Pin_1)*%
X193816400Y-99098000D03*
D13*
%TO.P,J5,2,Pin_2*%
%TO.N,Net-(J5-Pin_2)*%
X193816400Y-96558000D03*
%TO.P,J5,3,Pin_3*%
%TO.N,Net-(J5-Pin_3)*%
X193816400Y-94018000D03*
%TD*%
D33*
%TO.P,U5,1,A0*%
%TO.N,GND*%
X179116200Y-65900800D03*
%TO.P,U5,2,A1*%
X179116200Y-64630800D03*
%TO.P,U5,3,A2*%
X179116200Y-63360800D03*
%TO.P,U5,4,GND*%
X179116200Y-62090800D03*
%TO.P,U5,5,SDA*%
%TO.N,SDA1*%
X174166200Y-62090800D03*
%TO.P,U5,6,SCL*%
%TO.N,SCL1*%
X174166200Y-63360800D03*
%TO.P,U5,7,WP*%
%TO.N,GND*%
X174166200Y-64630800D03*
%TO.P,U5,8,VCC*%
%TO.N,VDD*%
X174166200Y-65900800D03*
D34*
%TO.P,U5,9*%
%TO.N,N/C*%
X176641200Y-63995800D03*
%TD*%
D11*
%TO.P,R7,1*%
%TO.N,SDA1*%
X156783200Y-64389400D03*
%TO.P,R7,2*%
%TO.N,VDD*%
X156783200Y-66039400D03*
%TD*%
D10*
%TO.P,C8,1*%
%TO.N,VDD*%
X178801800Y-70662600D03*
%TO.P,C8,2*%
%TO.N,GND*%
X180351800Y-70662600D03*
%TD*%
D15*
%TO.P,C1,1*%
%TO.N,Net-(C1-Pad1)*%
X142597400Y-100149600D03*
%TO.P,C1,2*%
%TO.N,GND*%
X142597400Y-101699600D03*
%TD*%
D10*
%TO.P,C2,1*%
%TO.N,VDD*%
X175699400Y-68579400D03*
%TO.P,C2,2*%
%TO.N,GND*%
X177249400Y-68579400D03*
%TD*%
D35*
%TO.P,U1,1,RC7/RX1/DT1/AN19*%
%TO.N,Net-(J4-Pin_3)*%
X149087600Y-100140000D03*
%TO.P,U1,2,RD4/P2D/SDO2/AN24*%
%TO.N,Net-(J3-Pin_5)*%
X149087600Y-100940000D03*
%TO.P,U1,3,RD5/P1B/AN25*%
%TO.N,Net-(J3-Pin_6)*%
X149087600Y-101740000D03*
%TO.P,U1,4,RD6/TX2/CK2/P1C/AN26*%
%TO.N,uC TX2*%
X149087600Y-102540000D03*
%TO.P,U1,5,RD7/RX2/DT2/P1D/AN27*%
%TO.N,uC RX2*%
X149087600Y-103340000D03*
%TO.P,U1,6,VSS*%
%TO.N,GND*%
X149087600Y-104140000D03*
%TO.P,U1,7,VDD*%
%TO.N,VDD*%
X149087600Y-104940000D03*
%TO.P,U1,8,AN12/FLT0/INT0/RB0*%
%TO.N,SW Control*%
X149087600Y-105740000D03*
%TO.P,U1,9,AN10/C12IN3-/CTDIN/INT1/RB1*%
%TO.N,Net-(J8-Pin_1)*%
X149087600Y-106540000D03*
%TO.P,U1,10,AN8/CTED1/INT2/RB2*%
%TO.N,Net-(J8-Pin_2)*%
X149087600Y-107340000D03*
%TO.P,U1,11,AN9/C12IN2-/CTED2/RB3*%
%TO.N,Net-(J8-Pin_3)*%
X149087600Y-108140000D03*
D36*
%TO.P,U1,12,NC*%
%TO.N,unconnected-(U1-NC-Pad12)*%
X150787600Y-109840000D03*
%TO.P,U1,13,NC*%
%TO.N,unconnected-(U1-NC-Pad13)*%
X151587600Y-109840000D03*
%TO.P,U1,14,AN11/T5G/IOC/RB4*%
%TO.N,Net-(J8-Pin_4)*%
X152387600Y-109840000D03*
%TO.P,U1,15,AN13/CCP3/IOC/RB5*%
%TO.N,Net-(J8-Pin_5)*%
X153187600Y-109840000D03*
%TO.P,U1,16,PGC/IOC/RB6*%
%TO.N,icsp5*%
X153987600Y-109840000D03*
%TO.P,U1,17,PGD/IOC/RB7*%
%TO.N,icsp4*%
X154787600Y-109840000D03*
%TO.P,U1,18,~{MCLR}/VPP/RE3*%
%TO.N,icsp2*%
X155587600Y-109840000D03*
%TO.P,U1,19,AN0/C12IN0-/RA0*%
%TO.N,Vert Control*%
X156387600Y-109840000D03*
%TO.P,U1,20,AN1/C12INC1-/RA1*%
%TO.N,Horz Control*%
X157187600Y-109840000D03*
%TO.P,U1,21,VREF-/AN2/C2IN+/RA2*%
%TO.N,Net-(J7-Pin_1)*%
X157987600Y-109840000D03*
%TO.P,U1,22,VREF+/AN3/C1IN+/RA3*%
%TO.N,Net-(J7-Pin_2)*%
X158787600Y-109840000D03*
D35*
%TO.P,U1,23,C1OUT/SRQ/T0CKI/RA4*%
%TO.N,Net-(J7-Pin_3)*%
X160487600Y-108140000D03*
%TO.P,U1,24,AN4/C2OUT/SRQN/~{SS1}/RA5*%
%TO.N,Net-(J7-Pin_4)*%
X160487600Y-107340000D03*
%TO.P,U1,25,RE0/P3A/AN5*%
%TO.N,Net-(J2-Pin_1)*%
X160487600Y-106540000D03*
%TO.P,U1,26,RE1/P3B/AN6*%
%TO.N,Net-(J2-Pin_2)*%
X160487600Y-105740000D03*
%TO.P,U1,27,RE2/CCP5/AN7*%
%TO.N,Net-(J2-Pin_3)*%
X160487600Y-104940000D03*
%TO.P,U1,28,VDD*%
%TO.N,VDD*%
X160487600Y-104140000D03*
%TO.P,U1,29,VSS*%
%TO.N,GND*%
X160487600Y-103340000D03*
%TO.P,U1,30,OSC1/CLKIN/RA7*%
%TO.N,Net-(J6-Pin_1)*%
X160487600Y-102540000D03*
%TO.P,U1,31,OSC2/CLKOUT/RA6*%
%TO.N,Net-(J6-Pin_2)*%
X160487600Y-101740000D03*
%TO.P,U1,32,RC0/P2B/SOSCO/SCLKI*%
%TO.N,Net-(J5-Pin_1)*%
X160487600Y-100940000D03*
%TO.P,U1,33,NC*%
%TO.N,unconnected-(U1-NC-Pad33)*%
X160487600Y-100140000D03*
D36*
%TO.P,U1,34,NC*%
%TO.N,unconnected-(U1-NC-Pad34)*%
X158787600Y-98440000D03*
%TO.P,U1,35,RC1/SOSCI/P2A*%
%TO.N,Net-(J5-Pin_2)*%
X157987600Y-98440000D03*
%TO.P,U1,36,RC2/T1G/CCP2/AN14*%
%TO.N,Net-(J5-Pin_3)*%
X157187600Y-98440000D03*
%TO.P,U1,37,RC3/REFO/SCL1/SCK1/AN15*%
%TO.N,SCL1*%
X156387600Y-98440000D03*
%TO.P,U1,38,RD0/SCL2/SCK2/AN20*%
%TO.N,Net-(J3-Pin_1)*%
X155587600Y-98440000D03*
%TO.P,U1,39,RD1/SDI1/SDA2/AN21*%
%TO.N,Net-(J3-Pin_2)*%
X154787600Y-98440000D03*
%TO.P,U1,40,RD2/P2B/AN22*%
%TO.N,Net-(J3-Pin_3)*%
X153987600Y-98440000D03*
%TO.P,U1,41,RD3/P2C/~{SS2}/AN23*%
%TO.N,Net-(J3-Pin_4)*%
X153187600Y-98440000D03*
%TO.P,U1,42,RC4/SDA1/SDI1/AN16*%
%TO.N,SDA1*%
X152387600Y-98440000D03*
%TO.P,U1,43,RC5/SDO1/AN17*%
%TO.N,Net-(J4-Pin_1)*%
X151587600Y-98440000D03*
%TO.P,U1,44,RC6/TX1/CK1/AN18*%
%TO.N,Net-(J4-Pin_2)*%
X150787600Y-98440000D03*
%TD*%
D37*
%TO.N,VDD*%
X167792400Y-104140000D03*
X168452800Y-110845600D03*
X160629600Y-109677200D03*
X159562800Y-115214400D03*
X158191200Y-66040000D03*
%TO.N,SDA1*%
X154025600Y-66751200D03*
%TO.N,GND*%
X172618400Y-64617600D03*
X146064400Y-64858800D03*
X178104200Y-68579400D03*
X164555600Y-99199600D03*
X161685200Y-103340000D03*
X178456600Y-86309000D03*
X182626000Y-77012800D03*
X187776600Y-78553574D03*
X137428400Y-135890200D03*
X161304400Y-140957200D03*
X147778800Y-104140000D03*
%TO.N,icsp2*%
X157022800Y-108204000D03*
%TO.N,icsp4*%
X154787600Y-113423600D03*
X157189600Y-117690800D03*
%TO.N,icsp5*%
X152566800Y-113626800D03*
X156529200Y-119011600D03*
%TO.N,Net-(J3-Pin_4)*%
X145123200Y-98154400D03*
%TO.N,Net-(J3-Pin_2)*%
X149163200Y-93154400D03*
X121274000Y-93459200D03*
%TO.N,Net-(J3-Pin_5)*%
X146194215Y-99929399D03*
%TO.N,Net-(J3-Pin_1)*%
X118048200Y-94424400D03*
X141543200Y-94424400D03*
%TO.N,Net-(J3-Pin_3)*%
X149123200Y-97054400D03*
X132623200Y-99154400D03*
%TO.N,Net-(J3-Pin_6)*%
X147975212Y-101710396D03*
%TO.N,Net-(J4-Pin_2)*%
X150738000Y-96253200D03*
%TO.N,Net-(J4-Pin_1)*%
X151550800Y-95694400D03*
%TO.N,Net-(J4-Pin_3)*%
X147436000Y-98031200D03*
%TO.N,Net-(J5-Pin_3)*%
X161914000Y-94170400D03*
X157494400Y-94119600D03*
%TO.N,Net-(J5-Pin_2)*%
X158205600Y-95389600D03*
X162828400Y-95338800D03*
%TO.N,Net-(J8-Pin_1)*%
X139841600Y-106540000D03*
%TO.N,Net-(J8-Pin_3)*%
X146902600Y-109740600D03*
X147207400Y-108267400D03*
%TO.N,Net-(J8-Pin_2)*%
X139866800Y-107340000D03*
%TO.N,SDA1*%
X152387600Y-97194400D03*
%TO.N,SCL1*%
X156387600Y-97229200D03*
X152973200Y-65239264D03*
%TO.N,SDA1*%
X153938400Y-64401600D03*
%TO.N,SCL1*%
X169524400Y-65620800D03*
%TO.N,VDD*%
X158205600Y-63080800D03*
X139015900Y-138709300D03*
%TO.N,SW Control*%
X150623200Y-122654400D03*
X146708800Y-105740000D03*
%TO.N,Horz Control*%
X157189600Y-111137600D03*
%TD*%
D38*
%TO.N,VDD*%
X160487600Y-104140000D02*
X167792400Y-104140000D01*
X162458400Y-110845600D02*
X168452800Y-110845600D01*
X161290000Y-109677200D02*
X162458400Y-110845600D01*
X160629600Y-109677200D02*
X161290000Y-109677200D01*
X158639280Y-115214400D02*
X159562800Y-115214400D01*
X152261000Y-121592680D02*
X158639280Y-115214400D01*
X152261000Y-124307500D02*
X152261000Y-121592680D01*
X147182200Y-66598800D02*
X148922200Y-64858800D01*
X136855200Y-66598800D02*
X147182200Y-66598800D01*
X130302000Y-73152000D02*
X136855200Y-66598800D01*
X159374000Y-67222800D02*
X158191200Y-66040000D01*
X159374000Y-93751000D02*
X159374000Y-67222800D01*
X155534547Y-103466053D02*
X156455200Y-102545400D01*
X155534547Y-104201200D02*
X155534547Y-103466053D01*
X158049800Y-104140000D02*
X160487600Y-104140000D01*
X156455200Y-102545400D02*
X158049800Y-104140000D01*
X154795747Y-104940000D02*
X155534547Y-104201200D01*
X149087600Y-104940000D02*
X154795747Y-104940000D01*
X168208400Y-65948000D02*
X169926000Y-67665600D01*
X169926000Y-67665600D02*
X174139200Y-67665600D01*
X174139200Y-67665600D02*
X174166200Y-67638600D01*
X158283200Y-65948000D02*
X168208400Y-65948000D01*
X158191200Y-66040000D02*
X158283200Y-65948000D01*
X174166200Y-67638600D02*
X174166200Y-65900800D01*
X175107000Y-68579400D02*
X174166200Y-67638600D01*
X175699400Y-68579400D02*
X175107000Y-68579400D01*
X158190600Y-66039400D02*
X158191200Y-66040000D01*
X156783200Y-66039400D02*
X158190600Y-66039400D01*
%TO.N,SDA1*%
X156988518Y-68749082D02*
X156783200Y-68954400D01*
X156988518Y-68168354D02*
X156988518Y-68749082D01*
X155571364Y-66751200D02*
X156988518Y-68168354D01*
X154025600Y-66751200D02*
X155571364Y-66751200D01*
X156771000Y-64401600D02*
X156783200Y-64389400D01*
X153938400Y-64401600D02*
X156771000Y-64401600D01*
X169621200Y-62077600D02*
X169634400Y-62090800D01*
X167309400Y-64389400D02*
X169621200Y-62077600D01*
X169634400Y-62090800D02*
X174166200Y-62090800D01*
X156783200Y-64389400D02*
X167309400Y-64389400D01*
%TO.N,SCL1*%
X171784400Y-63360800D02*
X169524400Y-65620800D01*
X174166200Y-63360800D02*
X171784400Y-63360800D01*
%TO.N,GND*%
X174153000Y-64617600D02*
X172618400Y-64617600D01*
X174166200Y-64630800D02*
X174153000Y-64617600D01*
X178104200Y-66912800D02*
X179116200Y-65900800D01*
X178104200Y-68579400D02*
X178104200Y-66912800D01*
X179116200Y-65900800D02*
X179116200Y-64630800D01*
X179116200Y-64630800D02*
X179116200Y-63360800D01*
X179116200Y-62090800D02*
X179116200Y-63360800D01*
%TO.N,VDD*%
X179776400Y-69688000D02*
X178801800Y-70662600D01*
X189076600Y-69688000D02*
X179776400Y-69688000D01*
X190076600Y-70688000D02*
X189076600Y-69688000D01*
X148960000Y-133489600D02*
X148960000Y-132880000D01*
X152261000Y-129580722D02*
X152261000Y-124307500D01*
X151703200Y-66039400D02*
X151703200Y-68954400D01*
X151144400Y-146329300D02*
X143524400Y-138709300D01*
X140910400Y-105471200D02*
X139843600Y-104404400D01*
X138977800Y-138671200D02*
X139015900Y-138709300D01*
X148655200Y-134835735D02*
X148655200Y-133794400D01*
X139843600Y-104404400D02*
X139843600Y-102524800D01*
X166841600Y-96646600D02*
X165317600Y-96646600D01*
X151645960Y-63080800D02*
X158205600Y-63080800D01*
X148655200Y-133794400D02*
X148960000Y-133489600D01*
X162269600Y-96646600D02*
X159374000Y-93751000D01*
X149317678Y-132522322D02*
X149319400Y-132522322D01*
X150522600Y-64204160D02*
X151645960Y-63080800D01*
X150522600Y-64858800D02*
X151703200Y-66039400D01*
X165317600Y-96646600D02*
X163793600Y-96646600D01*
X139843600Y-102524800D02*
X139119200Y-101800400D01*
X162269600Y-96646600D02*
X163793600Y-96646600D01*
X139119200Y-101800400D02*
X138076200Y-101800400D01*
X148960000Y-132880000D02*
X149317678Y-132522322D01*
X156455200Y-102545400D02*
X162269600Y-96731000D01*
X162269600Y-96731000D02*
X162269600Y-96646600D01*
X151144400Y-151409300D02*
X151144400Y-146329300D01*
X144781635Y-138709300D02*
X148655200Y-134835735D01*
X144314000Y-105471200D02*
X140910400Y-105471200D01*
X143524400Y-138709300D02*
X144781635Y-138709300D01*
X150522600Y-64858800D02*
X150522600Y-64204160D01*
X149319400Y-132522322D02*
X152261000Y-129580722D01*
X148922200Y-64858800D02*
X150522600Y-64858800D01*
X137631600Y-138671200D02*
X138977800Y-138671200D01*
X149087600Y-104940000D02*
X144845200Y-104940000D01*
X144845200Y-104940000D02*
X144314000Y-105471200D01*
D39*
%TO.N,GND*%
X183605600Y-81140200D02*
X184164400Y-80581400D01*
D38*
X186591600Y-88892200D02*
X186487600Y-88788200D01*
X156224400Y-151409300D02*
X156287900Y-151472800D01*
D39*
X184681600Y-82962200D02*
X183954400Y-82962200D01*
D38*
X156287900Y-151472800D02*
X157748400Y-151472800D01*
X157748400Y-151472800D02*
X161304400Y-147916800D01*
X156224400Y-152387200D02*
X156224400Y-151409300D01*
X162269600Y-98196600D02*
X163793600Y-98196600D01*
X155513200Y-153098400D02*
X156224400Y-152387200D01*
X137428400Y-137134200D02*
X137428400Y-135890200D01*
X186591600Y-89842200D02*
X186591600Y-88892200D01*
X152604900Y-135724800D02*
X160161400Y-135724800D01*
X183586600Y-77012600D02*
X182626200Y-77012600D01*
X186487600Y-88788200D02*
X186381600Y-88788200D01*
X160487600Y-103340000D02*
X161685200Y-103340000D01*
X146064400Y-149533246D02*
X149629554Y-153098400D01*
X146064400Y-147916800D02*
X146064400Y-149533246D01*
X165317600Y-98196600D02*
X164555600Y-98196600D01*
X161304400Y-140957200D02*
X161304400Y-147916800D01*
X182626000Y-77012800D02*
X182626200Y-77012600D01*
X150509400Y-133629300D02*
X152604900Y-135724800D01*
X178456600Y-86309000D02*
X178456600Y-88239400D01*
X149087600Y-104140000D02*
X147778800Y-104140000D01*
X161304400Y-134581800D02*
X161304400Y-140957200D01*
X142597400Y-103937800D02*
X142586800Y-103948400D01*
D39*
X184697800Y-80581400D02*
X184926400Y-80352800D01*
X186591600Y-80646400D02*
X186591600Y-81582200D01*
X183954400Y-82962200D02*
X183605600Y-82613400D01*
D38*
X181451200Y-70662600D02*
X187776600Y-76988000D01*
X165317600Y-98196600D02*
X166841600Y-98196600D01*
X178104800Y-68580000D02*
X178104200Y-68579400D01*
D39*
X184164400Y-80581400D02*
X184697800Y-80581400D01*
D38*
X177249400Y-68579400D02*
X178104200Y-68579400D01*
X178456600Y-84607200D02*
X178456600Y-86309000D01*
D39*
X184926400Y-80352800D02*
X186298000Y-80352800D01*
X183605600Y-82613400D02*
X183605600Y-81140200D01*
D38*
X147372200Y-64858800D02*
X146064400Y-64858800D01*
X187776600Y-76988000D02*
X187776600Y-78553574D01*
X180351800Y-70662600D02*
X181451200Y-70662600D01*
X147743200Y-104104400D02*
X147778800Y-104140000D01*
X164555600Y-98196600D02*
X164555600Y-99199600D01*
D39*
X186298000Y-80352800D02*
X186591600Y-80646400D01*
D38*
X149629554Y-153098400D02*
X155513200Y-153098400D01*
X143524400Y-143789300D02*
X143524400Y-145376800D01*
X142742800Y-104104400D02*
X147743200Y-104104400D01*
X160161400Y-135724800D02*
X161304400Y-134581800D01*
X143524400Y-145376800D02*
X146064400Y-147916800D01*
X142597400Y-101699600D02*
X142597400Y-103937800D01*
X142586800Y-103948400D02*
X142742800Y-104104400D01*
X164555600Y-98196600D02*
X163793600Y-98196600D01*
%TO.N,Net-(C1-Pad1)*%
X142596600Y-100150400D02*
X142597400Y-100149600D01*
X138076200Y-100150400D02*
X142596600Y-100150400D01*
X134266200Y-100150400D02*
X138076200Y-100150400D01*
D39*
%TO.N,icsp2*%
X146653657Y-109139600D02*
X147151543Y-109139600D01*
D38*
X135938800Y-101800400D02*
X138086800Y-103948400D01*
D39*
X150211600Y-108858200D02*
X150280800Y-108789000D01*
D40*
X155587600Y-109840000D02*
X155587600Y-109013000D01*
D39*
X150211600Y-109022400D02*
X150211600Y-108858200D01*
X140113600Y-109156400D02*
X142038908Y-109156400D01*
X150280800Y-108789000D02*
X155363600Y-108789000D01*
X147168343Y-109156400D02*
X150077600Y-109156400D01*
D38*
X134266200Y-101800400D02*
X135938800Y-101800400D01*
D39*
X143134692Y-109156400D02*
X146636857Y-109156400D01*
X147151543Y-109139600D02*
X147168343Y-109156400D01*
X142038908Y-109156400D02*
X142047908Y-109147400D01*
D40*
X155587600Y-109013000D02*
X156396600Y-108204000D01*
X156396600Y-108204000D02*
X157022800Y-108204000D01*
D38*
X138086800Y-103948400D02*
X138086800Y-110448400D01*
D40*
X155486600Y-108789000D02*
X155486600Y-109739000D01*
D39*
X150077600Y-109156400D02*
X150211600Y-109022400D01*
X142047908Y-109147400D02*
X143125692Y-109147400D01*
X146636857Y-109156400D02*
X146653657Y-109139600D01*
X139746200Y-108789000D02*
X140113600Y-109156400D01*
X143125692Y-109147400D02*
X143134692Y-109156400D01*
D38*
X138086800Y-110448400D02*
X139746200Y-108789000D01*
D40*
X155486600Y-109739000D02*
X155587600Y-109840000D01*
D38*
%TO.N,icsp4*%
X154787600Y-113423600D02*
X154787600Y-109840000D01*
X157189600Y-117690800D02*
X168619600Y-117690800D01*
X168619600Y-117690800D02*
X173242400Y-122313600D01*
%TO.N,icsp5*%
X158408800Y-122313600D02*
X170702400Y-122313600D01*
X153987600Y-112404474D02*
X153987600Y-109840000D01*
X156884800Y-119367200D02*
X156884800Y-120789600D01*
X152566800Y-113626800D02*
X152765274Y-113626800D01*
X152765274Y-113626800D02*
X153987600Y-112404474D01*
X156884800Y-120789600D02*
X158408800Y-122313600D01*
X156529200Y-119011600D02*
X156884800Y-119367200D01*
%TO.N,Net-(J2-Pin_3)*%
X160487600Y-104940000D02*
X189752400Y-104940000D01*
X160487600Y-104940000D02*
X160538400Y-104990800D01*
X189752400Y-104940000D02*
X193816400Y-109004000D01*
%TO.N,Net-(J2-Pin_1)*%
X186272400Y-106540000D02*
X193816400Y-114084000D01*
X160487600Y-106540000D02*
X186272400Y-106540000D01*
%TO.N,Net-(J2-Pin_2)*%
X193816400Y-111340800D02*
X193816400Y-111544000D01*
X188012400Y-105740000D02*
X193816400Y-111544000D01*
X160487600Y-105740000D02*
X188012400Y-105740000D01*
%TO.N,Net-(J3-Pin_4)*%
X146323200Y-96954400D02*
X147623200Y-96954400D01*
X152523200Y-100054400D02*
X153187600Y-99390000D01*
X145123200Y-98154400D02*
X146323200Y-96954400D01*
D41*
X147623200Y-96954400D02*
X150723200Y-100054400D01*
D38*
X150723200Y-100054400D02*
X152523200Y-100054400D01*
X153187600Y-99390000D02*
X153187600Y-98440000D01*
%TO.N,Net-(J3-Pin_2)*%
X108943200Y-106874400D02*
X119953200Y-95864400D01*
X154787600Y-98440000D02*
X154787600Y-93698800D01*
X106288000Y-106834400D02*
X108903200Y-106834400D01*
X154787600Y-93698800D02*
X154243200Y-93154400D01*
X119953200Y-93611600D02*
X120105600Y-93459200D01*
X154243200Y-93154400D02*
X149163200Y-93154400D01*
X119953200Y-95864400D02*
X119953200Y-93611600D01*
X120105600Y-93459200D02*
X121274000Y-93459200D01*
X108903200Y-106834400D02*
X108943200Y-106874400D01*
%TO.N,Net-(J3-Pin_5)*%
X148414400Y-100940000D02*
X149087600Y-100940000D01*
X146843200Y-100274400D02*
X146498199Y-99929399D01*
X149081996Y-100934396D02*
X147523196Y-100934396D01*
X147523196Y-100934396D02*
X146863200Y-100274400D01*
X146498199Y-99929399D02*
X146194215Y-99929399D01*
X146863200Y-100274400D02*
X146843200Y-100274400D01*
X149087600Y-100940000D02*
X149081996Y-100934396D01*
%TO.N,Net-(J3-Pin_1)*%
X154446400Y-92087600D02*
X155587600Y-93228800D01*
X108178200Y-104294400D02*
X106288000Y-104294400D01*
X142813200Y-94424400D02*
X145150000Y-92087600D01*
X155587600Y-93228800D02*
X155587600Y-98440000D01*
X141543200Y-94424400D02*
X142813200Y-94424400D01*
X145150000Y-92087600D02*
X154446400Y-92087600D01*
X118048200Y-94424400D02*
X108178200Y-104294400D01*
%TO.N,Net-(J3-Pin_3)*%
X152856800Y-94968400D02*
X153987600Y-96099200D01*
X114473200Y-109374400D02*
X124713200Y-99134400D01*
X150809200Y-94968400D02*
X152856800Y-94968400D01*
X106288000Y-109374400D02*
X114473200Y-109374400D01*
X153987600Y-96099200D02*
X153987600Y-97281257D01*
X153987600Y-97281257D02*
X153987600Y-98440000D01*
X149123200Y-97054400D02*
X149123200Y-96654400D01*
X149123200Y-96654400D02*
X150809200Y-94968400D01*
X124733200Y-99154400D02*
X132623200Y-99154400D01*
X124713200Y-99134400D02*
X124733200Y-99154400D01*
%TO.N,Net-(J3-Pin_6)*%
X148107996Y-101710396D02*
X148137600Y-101740000D01*
X148137600Y-101740000D02*
X149087600Y-101740000D01*
X147975212Y-101710396D02*
X148107996Y-101710396D01*
%TO.N,Net-(J4-Pin_2)*%
X150787600Y-96302800D02*
X150787600Y-98440000D01*
X150738000Y-96253200D02*
X150787600Y-96302800D01*
%TO.N,Net-(J4-Pin_1)*%
X151587600Y-98440000D02*
X151587600Y-95731200D01*
X151587600Y-95731200D02*
X151550800Y-95694400D01*
%TO.N,Net-(J4-Pin_3)*%
X149087600Y-99682800D02*
X149087600Y-100140000D01*
X147436000Y-98031200D02*
X149087600Y-99682800D01*
%TO.N,Net-(J5-Pin_3)*%
X157187600Y-94426400D02*
X157494400Y-94119600D01*
X161914000Y-94170400D02*
X162066400Y-94018000D01*
X162066400Y-94018000D02*
X193816400Y-94018000D01*
X157187600Y-98440000D02*
X157187600Y-94426400D01*
%TO.N,Net-(J5-Pin_1)*%
X167539600Y-100940000D02*
X169381600Y-99098000D01*
X169381600Y-99098000D02*
X193816400Y-99098000D01*
X160487600Y-100940000D02*
X167539600Y-100940000D01*
%TO.N,Net-(J5-Pin_2)*%
X192597200Y-95338800D02*
X193816400Y-96558000D01*
X157987600Y-95607600D02*
X158205600Y-95389600D01*
X157987600Y-98440000D02*
X157987600Y-95607600D01*
X162828400Y-95338800D02*
X192597200Y-95338800D01*
%TO.N,Net-(J6-Pin_1)*%
X192515600Y-105264800D02*
X193816400Y-105264800D01*
X169420000Y-102540000D02*
X170120800Y-103240800D01*
X170120800Y-103240800D02*
X190491600Y-103240800D01*
X160487600Y-102540000D02*
X169420000Y-102540000D01*
X190491600Y-103240800D02*
X192515600Y-105264800D01*
%TO.N,Net-(J6-Pin_2)*%
X160487600Y-101740000D02*
X193016600Y-101740000D01*
X193016600Y-101740000D02*
X193816400Y-102539800D01*
%TO.N,Net-(J7-Pin_2)*%
X161214284Y-111227400D02*
X161784884Y-111798000D01*
X158787600Y-110856000D02*
X159159000Y-111227400D01*
X161784884Y-111798000D02*
X182625400Y-111798000D01*
X159159000Y-111227400D02*
X161214284Y-111227400D01*
X182625400Y-111798000D02*
X193765600Y-122938200D01*
X158787600Y-109840000D02*
X158787600Y-110856000D01*
%TO.N,Net-(J7-Pin_3)*%
X161507200Y-108140000D02*
X163184000Y-109816800D01*
X191124000Y-117030400D02*
X191124000Y-117538400D01*
X191124000Y-117756600D02*
X191124000Y-117538400D01*
X160487600Y-108140000D02*
X161507200Y-108140000D01*
X193765600Y-120398200D02*
X191124000Y-117756600D01*
X183910400Y-109816800D02*
X191124000Y-117030400D01*
X163184000Y-109816800D02*
X183910400Y-109816800D01*
%TO.N,Net-(J7-Pin_4)*%
X164771200Y-107340000D02*
X165927200Y-108496000D01*
X184403400Y-108496000D02*
X193765600Y-117858200D01*
X160487600Y-107340000D02*
X164771200Y-107340000D01*
X165927200Y-108496000D02*
X184403400Y-108496000D01*
%TO.N,Net-(J7-Pin_1)*%
X160923920Y-111928400D02*
X162063520Y-113068000D01*
X158561200Y-112102800D02*
X160148080Y-112102800D01*
X181355400Y-113068000D02*
X193765600Y-125478200D01*
X160322480Y-111928400D02*
X160923920Y-111928400D01*
X193664000Y-125071800D02*
X193765600Y-125071800D01*
X157987600Y-111529200D02*
X157987600Y-109840000D01*
X162063520Y-113068000D02*
X181355400Y-113068000D01*
X160148080Y-112102800D02*
X160322480Y-111928400D01*
X157987600Y-111529200D02*
X158561200Y-112102800D01*
%TO.N,Net-(J8-Pin_1)*%
X149087600Y-106540000D02*
X139841600Y-106540000D01*
%TO.N,Net-(J8-Pin_4)*%
X124931600Y-128358800D02*
X133821600Y-119468800D01*
X152387600Y-111140000D02*
X152387600Y-109840000D01*
X133821600Y-119468800D02*
X141035200Y-119468800D01*
X147182000Y-111493200D02*
X152034400Y-111493200D01*
X152034400Y-111493200D02*
X152387600Y-111140000D01*
X146928000Y-111747200D02*
X147182000Y-111493200D01*
X141035200Y-119468800D02*
X146928000Y-113576000D01*
X146928000Y-113576000D02*
X146928000Y-111747200D01*
X106288000Y-128358800D02*
X124931600Y-128358800D01*
%TO.N,Net-(J8-Pin_3)*%
X147385200Y-108089600D02*
X149037200Y-108089600D01*
X107304000Y-124802800D02*
X106288000Y-125818800D01*
X131078400Y-118148000D02*
X124423600Y-124802800D01*
X138495200Y-118148000D02*
X131078400Y-118148000D01*
X147207400Y-108267400D02*
X147385200Y-108089600D01*
X146902600Y-109740600D02*
X138495200Y-118148000D01*
X124423600Y-124802800D02*
X107304000Y-124802800D01*
X149037200Y-108089600D02*
X149087600Y-108140000D01*
%TO.N,Net-(J8-Pin_2)*%
X139866800Y-107340000D02*
X139828400Y-107340000D01*
X149087600Y-107340000D02*
X139866800Y-107340000D01*
%TO.N,Net-(J8-Pin_5)*%
X132043600Y-130898800D02*
X150534800Y-112407600D01*
X150534800Y-112407600D02*
X152922400Y-112407600D01*
X106288000Y-130898800D02*
X132043600Y-130898800D01*
X152922400Y-112407600D02*
X153187600Y-112142400D01*
X153187600Y-112142400D02*
X153187600Y-109840000D01*
%TO.N,Net-(U4-SPK1)*%
X112282400Y-66611400D02*
X115192000Y-63701800D01*
X115192000Y-63701800D02*
X117580800Y-63701800D01*
X112282400Y-71081800D02*
X112282400Y-66611400D01*
%TO.N,Net-(U4-SPK2)*%
X107202400Y-71081800D02*
X107202400Y-64123400D01*
X107202400Y-64123400D02*
X106780800Y-63701800D01*
%TO.N,SCL1*%
X156387600Y-98440000D02*
X156387600Y-97229200D01*
%TO.N,VDD*%
X123405400Y-69504800D02*
X124486718Y-70586118D01*
X127052600Y-73152000D02*
X125478082Y-71577482D01*
X175699400Y-68579400D02*
X177782600Y-70662600D01*
%TO.N,SDA1*%
X153938400Y-64401600D02*
X153950600Y-64389400D01*
%TO.N,SCL1*%
X152973200Y-65239264D02*
X152973200Y-67684400D01*
X152973200Y-67684400D02*
X154243200Y-68954400D01*
X151703200Y-64389400D02*
X152553064Y-65239264D01*
%TO.N,VDD*%
X177782600Y-70662600D02*
X178801800Y-70662600D01*
%TO.N,SDA1*%
X152387600Y-98440000D02*
X152387600Y-97194400D01*
%TO.N,VDD*%
X123405400Y-67462400D02*
X123405400Y-69504800D01*
%TO.N,SCL1*%
X152553064Y-65239264D02*
X152973200Y-65239264D01*
%TO.N,VDD*%
X190076600Y-76988000D02*
X190076600Y-71389000D01*
X130302000Y-73152000D02*
X127052600Y-73152000D01*
%TO.N,SW Control*%
X150623200Y-122654400D02*
X150611000Y-122666600D01*
X150611000Y-128447700D02*
X150509400Y-128549300D01*
X150611000Y-124307500D02*
X150611000Y-122666600D01*
X146708800Y-105740000D02*
X149087600Y-105740000D01*
X150611000Y-124307500D02*
X150611000Y-128447700D01*
D42*
%TO.N,Net-(U7-VI)*%
X184681600Y-84462200D02*
X184029600Y-84462200D01*
X182930800Y-79218400D02*
X185136600Y-77012600D01*
X185816800Y-87212200D02*
X186381600Y-87212200D01*
D38*
X192376600Y-76988000D02*
X192376600Y-78141600D01*
X190749600Y-79768600D02*
X187892600Y-79768600D01*
X192426600Y-77038000D02*
X192376600Y-76988000D01*
X187892600Y-79768600D02*
X185136600Y-77012600D01*
D42*
X185536000Y-84664600D02*
X185536000Y-86931400D01*
D38*
X192376600Y-78141600D02*
X190749600Y-79768600D01*
D42*
X184681600Y-84462200D02*
X185333600Y-84462200D01*
X185536000Y-86931400D02*
X185816800Y-87212200D01*
X185333600Y-84462200D02*
X185536000Y-84664600D01*
X182930800Y-83363400D02*
X182930800Y-79218400D01*
X184029600Y-84462200D02*
X182930800Y-83363400D01*
%TO.N,Net-(J9-CC2)*%
X186381600Y-85212200D02*
X188033200Y-85212200D01*
X188033200Y-85212200D02*
X188939600Y-86118600D01*
D38*
X188025200Y-91249400D02*
X188939600Y-90335000D01*
X188939600Y-90335000D02*
X188939600Y-86118600D01*
X183116600Y-91249400D02*
X188025200Y-91249400D01*
X180106600Y-88239400D02*
X183116600Y-91249400D01*
D42*
%TO.N,Net-(J9-CC1)*%
X181961600Y-86462200D02*
X184681600Y-86462200D01*
X180106600Y-84607200D02*
X181961600Y-86462200D01*
D38*
%TO.N,uC RX2*%
X147308800Y-103340000D02*
X149087600Y-103340000D01*
X121755400Y-69228800D02*
X119902400Y-71081800D01*
X119902400Y-71081800D02*
X119902400Y-75933600D01*
X121755400Y-67462400D02*
X121755400Y-69228800D01*
X119902400Y-75933600D02*
X147308800Y-103340000D01*
%TO.N,Horz Control*%
X157187600Y-109840000D02*
X157187600Y-111135600D01*
X157187600Y-111135600D02*
X157189600Y-111137600D01*
%TO.N,Vert Control*%
X150563600Y-121878400D02*
X156387600Y-116054400D01*
X141746400Y-139471300D02*
X141746400Y-130695600D01*
X156387600Y-116054400D02*
X156387600Y-109840000D01*
X141746400Y-130695600D02*
X149847200Y-122594800D01*
X150301770Y-121878400D02*
X150563600Y-121878400D01*
X149847200Y-122594800D02*
X149847200Y-122332970D01*
X143524400Y-141249300D02*
X141746400Y-139471300D01*
X149847200Y-122332970D02*
X150301770Y-121878400D01*
%TO.N,uC TX2*%
X122442400Y-77273600D02*
X147708800Y-102540000D01*
X124914000Y-74802000D02*
X122442400Y-77273600D01*
X130302000Y-74802000D02*
X124914000Y-74802000D01*
X147708800Y-102540000D02*
X149087600Y-102540000D01*
X122442400Y-71081800D02*
X122442400Y-77273600D01*
%TD*%
M02*
