M48
; DRILL file {KiCad 9.0.0} date 2026-02-17T11:48:11+0200
; FORMAT={-:-/ absolute / metric / decimal}
; #@! TF.CreationDate,2026-02-17T11:48:11+02:00
; #@! TF.GenerationSoftware,Kicad,Pcbnew,9.0.0
; #@! TF.FileFunction,Plated,1,2,PTH
FMAT,2
METRIC
; #@! TA.AperFunction,Plated,PTH,ViaDrill
T1C0.300
; #@! TA.AperFunction,Plated,PTH,ComponentDrill
T2C0.500
; #@! TA.AperFunction,Plated,PTH,ComponentDrill
T3C0.800
; #@! TA.AperFunction,Plated,PTH,ComponentDrill
T4C0.889
; #@! TA.AperFunction,Plated,PTH,ComponentDrill
T5C0.900
; #@! TA.AperFunction,Plated,PTH,ComponentDrill
T6C1.000
; #@! TA.AperFunction,Plated,PTH,ComponentDrill
T7C1.100
; #@! TA.AperFunction,Plated,PTH,ComponentDrill
T8C1.397
; #@! TA.AperFunction,Plated,PTH,ComponentDrill
T9C2.000
; #@! TA.AperFunction,Plated,PTH,ComponentDrill
T10C3.200
%
G90
G05
T1
X113.77Y-110.969
X117.631Y-108.378
X117.682Y-114.626
X117.704Y-111.201
X118.331Y-56.956
X121.557Y-55.99
X123.626Y-116.1
X126.623Y-111.731
X129.286Y-102.921
X132.906Y-61.686
X137.712Y-98.421
X139.299Y-101.24
X140.125Y-69.071
X140.15Y-69.871
X141.826Y-56.956
X145.406Y-60.686
X146.348Y-27.39
X146.477Y-62.461
X146.992Y-68.271
X147.186Y-72.272
X147.491Y-70.799
X147.719Y-60.562
X148.062Y-66.671
X148.258Y-64.242
X149.406Y-59.586
X149.446Y-55.686
X150.906Y-85.186
X151.021Y-58.784
X151.834Y-58.226
X152.671Y-59.726
X152.85Y-76.158
X153.256Y-27.77
X154.222Y-26.933
X154.309Y-29.282
X155.071Y-75.955
X156.671Y-59.76
X156.812Y-81.543
X157.306Y-70.735
X157.473Y-73.669
X157.473Y-80.222
X157.778Y-56.651
X158.474Y-28.571
X158.489Y-25.612
X158.489Y-57.921
X159.846Y-77.746
X160.913Y-72.208
X161.588Y-103.488
X161.968Y-65.871
X162.197Y-56.702
X163.112Y-57.87
X164.839Y-61.731
X168.076Y-66.671
X168.736Y-73.377
X169.808Y-28.152
X172.902Y-27.149
X178.387Y-31.111
X178.74Y-48.84
X182.909Y-39.544
X188.06Y-41.085
T3
X107.486Y-33.613
X107.486Y-51.647
X110.026Y-33.613
X110.026Y-51.647
X112.566Y-33.613
X112.566Y-51.647
X115.106Y-33.613
X115.106Y-51.647
X117.646Y-33.613
X117.646Y-51.647
X120.186Y-33.613
X120.186Y-51.647
X122.726Y-33.613
X122.726Y-51.647
X125.266Y-33.613
X125.266Y-51.647
T4
X143.808Y-101.24
X143.808Y-103.78
X143.808Y-106.32
X151.428Y-113.941
X153.968Y-113.941
X156.508Y-113.941
T5
X150.793Y-91.081
X150.793Y-96.16
X157.143Y-91.081
X157.143Y-96.16
T6
X106.571Y-57.699
X106.571Y-60.239
X106.571Y-62.779
X106.571Y-66.826
X106.571Y-69.366
X106.571Y-71.906
X106.571Y-74.446
X106.571Y-76.986
X106.571Y-79.526
X106.571Y-83.27
X106.571Y-85.81
X106.571Y-88.35
X106.571Y-90.89
X106.571Y-93.43
X109.22Y-26.01
X111.76Y-26.01
X115.444Y-118.02
X116.829Y-120.86
X118.214Y-118.02
X119.599Y-120.86
X120.984Y-118.02
X122.369Y-120.86
X123.754Y-118.02
X125.139Y-120.86
X126.524Y-118.02
X149.446Y-31.486
X151.986Y-31.486
X154.526Y-31.486
X157.066Y-31.486
X170.986Y-84.845
X173.526Y-84.845
X176.066Y-84.845
X178.606Y-84.845
X181.146Y-84.845
X194.049Y-80.389
X194.049Y-82.929
X194.049Y-85.469
X194.049Y-88.009
X194.1Y-56.549
X194.1Y-59.089
X194.1Y-61.629
X194.1Y-65.256
X194.1Y-67.796
X194.1Y-71.535
X194.1Y-74.075
X194.1Y-76.615
T7
X138.37Y-66.48
X138.37Y-72.98
X142.87Y-66.48
X142.87Y-72.98
T8
X146.348Y-97.113
X146.348Y-110.448
X161.588Y-97.113
X161.588Y-110.448
T9
X142.256Y-31.986
X142.256Y-53.986
X164.256Y-31.986
X164.256Y-53.986
T10
X108.484Y-119.44
X133.484Y-119.44
T2
G00X186.575Y-44.113
M15
G01X187.175Y-44.113
M16
G05
G00X186.575Y-52.373
M15
G01X187.175Y-52.373
M16
G05
G00X192.525Y-43.753
M15
G01X193.125Y-43.753
M16
G05
G00X192.525Y-52.733
M15
G01X193.125Y-52.733
M16
G05
M30
