%TF.GenerationSoftware,KiCad,Pcbnew,9.0.0*%
%TF.CreationDate,2026-02-16T23:45:47+02:00*%
%TF.ProjectId,space invaders,73706163-6520-4696-9e76-61646572732e,rev?*%
%TF.SameCoordinates,Original*%
%TF.FileFunction,Legend,Top*%
%TF.FilePolarity,Positive*%
%FSLAX46Y46*%
G04 Gerber Fmt 4.6, Leading zero omitted, Abs format (unit mm)*
G04 Created by KiCad (PCBNEW 9.0.0) date 2026-02-16 23:45:47*
%MOMM*%
%LPD*%
G01*
G04 APERTURE LIST*
%ADD10C,0.150000*%
%ADD11C,0.120000*%
%ADD12C,0.127000*%
%ADD13C,0.200000*%
G04 APERTURE END LIST*
D10*
X184478133Y-38473380D02*
X184430514Y-38521000D01*
X184430514Y-38521000D02*
X184287657Y-38568619D01*
X184287657Y-38568619D02*
X184192419Y-38568619D01*
X184192419Y-38568619D02*
X184049562Y-38521000D01*
X184049562Y-38521000D02*
X183954324Y-38425761D01*
X183954324Y-38425761D02*
X183906705Y-38330523D01*
X183906705Y-38330523D02*
X183859086Y-38140047D01*
X183859086Y-38140047D02*
X183859086Y-37997190D01*
X183859086Y-37997190D02*
X183906705Y-37806714D01*
X183906705Y-37806714D02*
X183954324Y-37711476D01*
X183954324Y-37711476D02*
X184049562Y-37616238D01*
X184049562Y-37616238D02*
X184192419Y-37568619D01*
X184192419Y-37568619D02*
X184287657Y-37568619D01*
X184287657Y-37568619D02*
X184430514Y-37616238D01*
X184430514Y-37616238D02*
X184478133Y-37663857D01*
X184811467Y-37568619D02*
X185478133Y-37568619D01*
X185478133Y-37568619D02*
X185049562Y-38568619D01*
X140244219Y-63673266D02*
X139768028Y-64006599D01*
X140244219Y-64244694D02*
X139244219Y-64244694D01*
X139244219Y-64244694D02*
X139244219Y-63863742D01*
X139244219Y-63863742D02*
X139291838Y-63768504D01*
X139291838Y-63768504D02*
X139339457Y-63720885D01*
X139339457Y-63720885D02*
X139434695Y-63673266D01*
X139434695Y-63673266D02*
X139577552Y-63673266D01*
X139577552Y-63673266D02*
X139672790Y-63720885D01*
X139672790Y-63720885D02*
X139720409Y-63768504D01*
X139720409Y-63768504D02*
X139768028Y-63863742D01*
X139768028Y-63863742D02*
X139768028Y-64244694D01*
X139339457Y-63292313D02*
X139291838Y-63244694D01*
X139291838Y-63244694D02*
X139244219Y-63149456D01*
X139244219Y-63149456D02*
X139244219Y-62911361D01*
X139244219Y-62911361D02*
X139291838Y-62816123D01*
X139291838Y-62816123D02*
X139339457Y-62768504D01*
X139339457Y-62768504D02*
X139434695Y-62720885D01*
X139434695Y-62720885D02*
X139529933Y-62720885D01*
X139529933Y-62720885D02*
X139672790Y-62768504D01*
X139672790Y-62768504D02*
X140244219Y-63339932D01*
X140244219Y-63339932D02*
X140244219Y-62720885D01*
X106237866Y-63950419D02*
X106237866Y-64664704D01*
X106237866Y-64664704D02*
X106190247Y-64807561D01*
X106190247Y-64807561D02*
X106095009Y-64902800D01*
X106095009Y-64902800D02*
X105952152Y-64950419D01*
X105952152Y-64950419D02*
X105856914Y-64950419D01*
X106618819Y-63950419D02*
X107237866Y-63950419D01*
X107237866Y-63950419D02*
X106904533Y-64331371D01*
X106904533Y-64331371D02*
X107047390Y-64331371D01*
X107047390Y-64331371D02*
X107142628Y-64378990D01*
X107142628Y-64378990D02*
X107190247Y-64426609D01*
X107190247Y-64426609D02*
X107237866Y-64521847D01*
X107237866Y-64521847D02*
X107237866Y-64759942D01*
X107237866Y-64759942D02*
X107190247Y-64855180D01*
X107190247Y-64855180D02*
X107142628Y-64902800D01*
X107142628Y-64902800D02*
X107047390Y-64950419D01*
X107047390Y-64950419D02*
X106761676Y-64950419D01*
X106761676Y-64950419D02*
X106666438Y-64902800D01*
X106666438Y-64902800D02*
X106618819Y-64855180D01*
X179398133Y-52655419D02*
X179064800Y-52179228D01*
X178826705Y-52655419D02*
X178826705Y-51655419D01*
X178826705Y-51655419D02*
X179207657Y-51655419D01*
X179207657Y-51655419D02*
X179302895Y-51703038D01*
X179302895Y-51703038D02*
X179350514Y-51750657D01*
X179350514Y-51750657D02*
X179398133Y-51845895D01*
X179398133Y-51845895D02*
X179398133Y-51988752D01*
X179398133Y-51988752D02*
X179350514Y-52083990D01*
X179350514Y-52083990D02*
X179302895Y-52131609D01*
X179302895Y-52131609D02*
X179207657Y-52179228D01*
X179207657Y-52179228D02*
X178826705Y-52179228D01*
X179874324Y-52655419D02*
X180064800Y-52655419D01*
X180064800Y-52655419D02*
X180160038Y-52607800D01*
X180160038Y-52607800D02*
X180207657Y-52560180D01*
X180207657Y-52560180D02*
X180302895Y-52417323D01*
X180302895Y-52417323D02*
X180350514Y-52226847D01*
X180350514Y-52226847D02*
X180350514Y-51845895D01*
X180350514Y-51845895D02*
X180302895Y-51750657D01*
X180302895Y-51750657D02*
X180255276Y-51703038D01*
X180255276Y-51703038D02*
X180160038Y-51655419D01*
X180160038Y-51655419D02*
X179969562Y-51655419D01*
X179969562Y-51655419D02*
X179874324Y-51703038D01*
X179874324Y-51703038D02*
X179826705Y-51750657D01*
X179826705Y-51750657D02*
X179779086Y-51845895D01*
X179779086Y-51845895D02*
X179779086Y-52083990D01*
X179779086Y-52083990D02*
X179826705Y-52179228D01*
X179826705Y-52179228D02*
X179874324Y-52226847D01*
X179874324Y-52226847D02*
X179969562Y-52274466D01*
X179969562Y-52274466D02*
X180160038Y-52274466D01*
X180160038Y-52274466D02*
X180255276Y-52226847D01*
X180255276Y-52226847D02*
X180302895Y-52179228D01*
X180302895Y-52179228D02*
X180350514Y-52083990D01*
X165820533Y-55245380D02*
X165772914Y-55293000D01*
X165772914Y-55293000D02*
X165630057Y-55340619D01*
X165630057Y-55340619D02*
X165534819Y-55340619D01*
X165534819Y-55340619D02*
X165391962Y-55293000D01*
X165391962Y-55293000D02*
X165296724Y-55197761D01*
X165296724Y-55197761D02*
X165249105Y-55102523D01*
X165249105Y-55102523D02*
X165201486Y-54912047D01*
X165201486Y-54912047D02*
X165201486Y-54769190D01*
X165201486Y-54769190D02*
X165249105Y-54578714D01*
X165249105Y-54578714D02*
X165296724Y-54483476D01*
X165296724Y-54483476D02*
X165391962Y-54388238D01*
X165391962Y-54388238D02*
X165534819Y-54340619D01*
X165534819Y-54340619D02*
X165630057Y-54340619D01*
X165630057Y-54340619D02*
X165772914Y-54388238D01*
X165772914Y-54388238D02*
X165820533Y-54435857D01*
X166677676Y-54673952D02*
X166677676Y-55340619D01*
X166439581Y-54293000D02*
X166201486Y-55007285D01*
X166201486Y-55007285D02*
X166820533Y-55007285D01*
X115007142Y-108027619D02*
X114673809Y-107551428D01*
X114435714Y-108027619D02*
X114435714Y-107027619D01*
X114435714Y-107027619D02*
X114816666Y-107027619D01*
X114816666Y-107027619D02*
X114911904Y-107075238D01*
X114911904Y-107075238D02*
X114959523Y-107122857D01*
X114959523Y-107122857D02*
X115007142Y-107218095D01*
X115007142Y-107218095D02*
X115007142Y-107360952D01*
X115007142Y-107360952D02*
X114959523Y-107456190D01*
X114959523Y-107456190D02*
X114911904Y-107503809D01*
X114911904Y-107503809D02*
X114816666Y-107551428D01*
X114816666Y-107551428D02*
X114435714Y-107551428D01*
X115959523Y-108027619D02*
X115388095Y-108027619D01*
X115673809Y-108027619D02*
X115673809Y-107027619D01*
X115673809Y-107027619D02*
X115578571Y-107170476D01*
X115578571Y-107170476D02*
X115483333Y-107265714D01*
X115483333Y-107265714D02*
X115388095Y-107313333D01*
X116578571Y-107027619D02*
X116673809Y-107027619D01*
X116673809Y-107027619D02*
X116769047Y-107075238D01*
X116769047Y-107075238D02*
X116816666Y-107122857D01*
X116816666Y-107122857D02*
X116864285Y-107218095D01*
X116864285Y-107218095D02*
X116911904Y-107408571D01*
X116911904Y-107408571D02*
X116911904Y-107646666D01*
X116911904Y-107646666D02*
X116864285Y-107837142D01*
X116864285Y-107837142D02*
X116816666Y-107932380D01*
X116816666Y-107932380D02*
X116769047Y-107980000D01*
X116769047Y-107980000D02*
X116673809Y-108027619D01*
X116673809Y-108027619D02*
X116578571Y-108027619D01*
X116578571Y-108027619D02*
X116483333Y-107980000D01*
X116483333Y-107980000D02*
X116435714Y-107932380D01*
X116435714Y-107932380D02*
X116388095Y-107837142D01*
X116388095Y-107837142D02*
X116340476Y-107646666D01*
X116340476Y-107646666D02*
X116340476Y-107408571D01*
X116340476Y-107408571D02*
X116388095Y-107218095D01*
X116388095Y-107218095D02*
X116435714Y-107122857D01*
X116435714Y-107122857D02*
X116483333Y-107075238D01*
X116483333Y-107075238D02*
X116578571Y-107027619D01*
X122696933Y-31878419D02*
X122363600Y-31402228D01*
X122125505Y-31878419D02*
X122125505Y-30878419D01*
X122125505Y-30878419D02*
X122506457Y-30878419D01*
X122506457Y-30878419D02*
X122601695Y-30926038D01*
X122601695Y-30926038D02*
X122649314Y-30973657D01*
X122649314Y-30973657D02*
X122696933Y-31068895D01*
X122696933Y-31068895D02*
X122696933Y-31211752D01*
X122696933Y-31211752D02*
X122649314Y-31306990D01*
X122649314Y-31306990D02*
X122601695Y-31354609D01*
X122601695Y-31354609D02*
X122506457Y-31402228D01*
X122506457Y-31402228D02*
X122125505Y-31402228D01*
X123554076Y-31211752D02*
X123554076Y-31878419D01*
X123315981Y-30830800D02*
X123077886Y-31545085D01*
X123077886Y-31545085D02*
X123696933Y-31545085D01*
X145277200Y-71062932D02*
X145324819Y-70920075D01*
X145324819Y-70920075D02*
X145324819Y-70681980D01*
X145324819Y-70681980D02*
X145277200Y-70586742D01*
X145277200Y-70586742D02*
X145229580Y-70539123D01*
X145229580Y-70539123D02*
X145134342Y-70491504D01*
X145134342Y-70491504D02*
X145039104Y-70491504D01*
X145039104Y-70491504D02*
X144943866Y-70539123D01*
X144943866Y-70539123D02*
X144896247Y-70586742D01*
X144896247Y-70586742D02*
X144848628Y-70681980D01*
X144848628Y-70681980D02*
X144801009Y-70872456D01*
X144801009Y-70872456D02*
X144753390Y-70967694D01*
X144753390Y-70967694D02*
X144705771Y-71015313D01*
X144705771Y-71015313D02*
X144610533Y-71062932D01*
X144610533Y-71062932D02*
X144515295Y-71062932D01*
X144515295Y-71062932D02*
X144420057Y-71015313D01*
X144420057Y-71015313D02*
X144372438Y-70967694D01*
X144372438Y-70967694D02*
X144324819Y-70872456D01*
X144324819Y-70872456D02*
X144324819Y-70634361D01*
X144324819Y-70634361D02*
X144372438Y-70491504D01*
X144324819Y-70158170D02*
X145324819Y-69920075D01*
X145324819Y-69920075D02*
X144610533Y-69729599D01*
X144610533Y-69729599D02*
X145324819Y-69539123D01*
X145324819Y-69539123D02*
X144324819Y-69301028D01*
X145324819Y-68396266D02*
X145324819Y-68967694D01*
X145324819Y-68681980D02*
X144324819Y-68681980D01*
X144324819Y-68681980D02*
X144467676Y-68777218D01*
X144467676Y-68777218D02*
X144562914Y-68872456D01*
X144562914Y-68872456D02*
X144610533Y-68967694D01*
X150580695Y-88000319D02*
X150580695Y-88809842D01*
X150580695Y-88809842D02*
X150628314Y-88905080D01*
X150628314Y-88905080D02*
X150675933Y-88952700D01*
X150675933Y-88952700D02*
X150771171Y-89000319D01*
X150771171Y-89000319D02*
X150961647Y-89000319D01*
X150961647Y-89000319D02*
X151056885Y-88952700D01*
X151056885Y-88952700D02*
X151104504Y-88905080D01*
X151104504Y-88905080D02*
X151152123Y-88809842D01*
X151152123Y-88809842D02*
X151152123Y-88000319D01*
X151533076Y-88000319D02*
X152152123Y-88000319D01*
X152152123Y-88000319D02*
X151818790Y-88381271D01*
X151818790Y-88381271D02*
X151961647Y-88381271D01*
X151961647Y-88381271D02*
X152056885Y-88428890D01*
X152056885Y-88428890D02*
X152104504Y-88476509D01*
X152104504Y-88476509D02*
X152152123Y-88571747D01*
X152152123Y-88571747D02*
X152152123Y-88809842D01*
X152152123Y-88809842D02*
X152104504Y-88905080D01*
X152104504Y-88905080D02*
X152056885Y-88952700D01*
X152056885Y-88952700D02*
X151961647Y-89000319D01*
X151961647Y-89000319D02*
X151675933Y-89000319D01*
X151675933Y-89000319D02*
X151580695Y-88952700D01*
X151580695Y-88952700D02*
X151533076Y-88905080D01*
X183079619Y-48576733D02*
X183793904Y-48576733D01*
X183793904Y-48576733D02*
X183936761Y-48624352D01*
X183936761Y-48624352D02*
X184032000Y-48719590D01*
X184032000Y-48719590D02*
X184079619Y-48862447D01*
X184079619Y-48862447D02*
X184079619Y-48957685D01*
X184079619Y-48052923D02*
X184079619Y-47862447D01*
X184079619Y-47862447D02*
X184032000Y-47767209D01*
X184032000Y-47767209D02*
X183984380Y-47719590D01*
X183984380Y-47719590D02*
X183841523Y-47624352D01*
X183841523Y-47624352D02*
X183651047Y-47576733D01*
X183651047Y-47576733D02*
X183270095Y-47576733D01*
X183270095Y-47576733D02*
X183174857Y-47624352D01*
X183174857Y-47624352D02*
X183127238Y-47671971D01*
X183127238Y-47671971D02*
X183079619Y-47767209D01*
X183079619Y-47767209D02*
X183079619Y-47957685D01*
X183079619Y-47957685D02*
X183127238Y-48052923D01*
X183127238Y-48052923D02*
X183174857Y-48100542D01*
X183174857Y-48100542D02*
X183270095Y-48148161D01*
X183270095Y-48148161D02*
X183508190Y-48148161D01*
X183508190Y-48148161D02*
X183603428Y-48100542D01*
X183603428Y-48100542D02*
X183651047Y-48052923D01*
X183651047Y-48052923D02*
X183698666Y-47957685D01*
X183698666Y-47957685D02*
X183698666Y-47767209D01*
X183698666Y-47767209D02*
X183651047Y-47671971D01*
X183651047Y-47671971D02*
X183603428Y-47624352D01*
X183603428Y-47624352D02*
X183508190Y-47576733D01*
X164342380Y-60119466D02*
X164390000Y-60167085D01*
X164390000Y-60167085D02*
X164437619Y-60309942D01*
X164437619Y-60309942D02*
X164437619Y-60405180D01*
X164437619Y-60405180D02*
X164390000Y-60548037D01*
X164390000Y-60548037D02*
X164294761Y-60643275D01*
X164294761Y-60643275D02*
X164199523Y-60690894D01*
X164199523Y-60690894D02*
X164009047Y-60738513D01*
X164009047Y-60738513D02*
X163866190Y-60738513D01*
X163866190Y-60738513D02*
X163675714Y-60690894D01*
X163675714Y-60690894D02*
X163580476Y-60643275D01*
X163580476Y-60643275D02*
X163485238Y-60548037D01*
X163485238Y-60548037D02*
X163437619Y-60405180D01*
X163437619Y-60405180D02*
X163437619Y-60309942D01*
X163437619Y-60309942D02*
X163485238Y-60167085D01*
X163485238Y-60167085D02*
X163532857Y-60119466D01*
X163437619Y-59786132D02*
X163437619Y-59167085D01*
X163437619Y-59167085D02*
X163818571Y-59500418D01*
X163818571Y-59500418D02*
X163818571Y-59357561D01*
X163818571Y-59357561D02*
X163866190Y-59262323D01*
X163866190Y-59262323D02*
X163913809Y-59214704D01*
X163913809Y-59214704D02*
X164009047Y-59167085D01*
X164009047Y-59167085D02*
X164247142Y-59167085D01*
X164247142Y-59167085D02*
X164342380Y-59214704D01*
X164342380Y-59214704D02*
X164390000Y-59262323D01*
X164390000Y-59262323D02*
X164437619Y-59357561D01*
X164437619Y-59357561D02*
X164437619Y-59643275D01*
X164437619Y-59643275D02*
X164390000Y-59738513D01*
X164390000Y-59738513D02*
X164342380Y-59786132D01*
X127065419Y-36166904D02*
X127874942Y-36166904D01*
X127874942Y-36166904D02*
X127970180Y-36119285D01*
X127970180Y-36119285D02*
X128017800Y-36071666D01*
X128017800Y-36071666D02*
X128065419Y-35976428D01*
X128065419Y-35976428D02*
X128065419Y-35785952D01*
X128065419Y-35785952D02*
X128017800Y-35690714D01*
X128017800Y-35690714D02*
X127970180Y-35643095D01*
X127970180Y-35643095D02*
X127874942Y-35595476D01*
X127874942Y-35595476D02*
X127065419Y-35595476D01*
X127398752Y-34690714D02*
X128065419Y-34690714D01*
X127017800Y-34928809D02*
X127732085Y-35166904D01*
X127732085Y-35166904D02*
X127732085Y-34547857D01*
X115108742Y-114637980D02*
X115061123Y-114685600D01*
X115061123Y-114685600D02*
X114918266Y-114733219D01*
X114918266Y-114733219D02*
X114823028Y-114733219D01*
X114823028Y-114733219D02*
X114680171Y-114685600D01*
X114680171Y-114685600D02*
X114584933Y-114590361D01*
X114584933Y-114590361D02*
X114537314Y-114495123D01*
X114537314Y-114495123D02*
X114489695Y-114304647D01*
X114489695Y-114304647D02*
X114489695Y-114161790D01*
X114489695Y-114161790D02*
X114537314Y-113971314D01*
X114537314Y-113971314D02*
X114584933Y-113876076D01*
X114584933Y-113876076D02*
X114680171Y-113780838D01*
X114680171Y-113780838D02*
X114823028Y-113733219D01*
X114823028Y-113733219D02*
X114918266Y-113733219D01*
X114918266Y-113733219D02*
X115061123Y-113780838D01*
X115061123Y-113780838D02*
X115108742Y-113828457D01*
X116061123Y-114733219D02*
X115489695Y-114733219D01*
X115775409Y-114733219D02*
X115775409Y-113733219D01*
X115775409Y-113733219D02*
X115680171Y-113876076D01*
X115680171Y-113876076D02*
X115584933Y-113971314D01*
X115584933Y-113971314D02*
X115489695Y-114018933D01*
X116394457Y-113733219D02*
X117013504Y-113733219D01*
X117013504Y-113733219D02*
X116680171Y-114114171D01*
X116680171Y-114114171D02*
X116823028Y-114114171D01*
X116823028Y-114114171D02*
X116918266Y-114161790D01*
X116918266Y-114161790D02*
X116965885Y-114209409D01*
X116965885Y-114209409D02*
X117013504Y-114304647D01*
X117013504Y-114304647D02*
X117013504Y-114542742D01*
X117013504Y-114542742D02*
X116965885Y-114637980D01*
X116965885Y-114637980D02*
X116918266Y-114685600D01*
X116918266Y-114685600D02*
X116823028Y-114733219D01*
X116823028Y-114733219D02*
X116537314Y-114733219D01*
X116537314Y-114733219D02*
X116442076Y-114685600D01*
X116442076Y-114685600D02*
X116394457Y-114637980D01*
X132470019Y-36674866D02*
X131993828Y-37008199D01*
X132470019Y-37246294D02*
X131470019Y-37246294D01*
X131470019Y-37246294D02*
X131470019Y-36865342D01*
X131470019Y-36865342D02*
X131517638Y-36770104D01*
X131517638Y-36770104D02*
X131565257Y-36722485D01*
X131565257Y-36722485D02*
X131660495Y-36674866D01*
X131660495Y-36674866D02*
X131803352Y-36674866D01*
X131803352Y-36674866D02*
X131898590Y-36722485D01*
X131898590Y-36722485D02*
X131946209Y-36770104D01*
X131946209Y-36770104D02*
X131993828Y-36865342D01*
X131993828Y-36865342D02*
X131993828Y-37246294D01*
X131470019Y-36341532D02*
X131470019Y-35722485D01*
X131470019Y-35722485D02*
X131850971Y-36055818D01*
X131850971Y-36055818D02*
X131850971Y-35912961D01*
X131850971Y-35912961D02*
X131898590Y-35817723D01*
X131898590Y-35817723D02*
X131946209Y-35770104D01*
X131946209Y-35770104D02*
X132041447Y-35722485D01*
X132041447Y-35722485D02*
X132279542Y-35722485D01*
X132279542Y-35722485D02*
X132374780Y-35770104D01*
X132374780Y-35770104D02*
X132422400Y-35817723D01*
X132422400Y-35817723D02*
X132470019Y-35912961D01*
X132470019Y-35912961D02*
X132470019Y-36198675D01*
X132470019Y-36198675D02*
X132422400Y-36293913D01*
X132422400Y-36293913D02*
X132374780Y-36341532D01*
X106237866Y-80394819D02*
X106237866Y-81109104D01*
X106237866Y-81109104D02*
X106190247Y-81251961D01*
X106190247Y-81251961D02*
X106095009Y-81347200D01*
X106095009Y-81347200D02*
X105952152Y-81394819D01*
X105952152Y-81394819D02*
X105856914Y-81394819D01*
X106856914Y-80823390D02*
X106761676Y-80775771D01*
X106761676Y-80775771D02*
X106714057Y-80728152D01*
X106714057Y-80728152D02*
X106666438Y-80632914D01*
X106666438Y-80632914D02*
X106666438Y-80585295D01*
X106666438Y-80585295D02*
X106714057Y-80490057D01*
X106714057Y-80490057D02*
X106761676Y-80442438D01*
X106761676Y-80442438D02*
X106856914Y-80394819D01*
X106856914Y-80394819D02*
X107047390Y-80394819D01*
X107047390Y-80394819D02*
X107142628Y-80442438D01*
X107142628Y-80442438D02*
X107190247Y-80490057D01*
X107190247Y-80490057D02*
X107237866Y-80585295D01*
X107237866Y-80585295D02*
X107237866Y-80632914D01*
X107237866Y-80632914D02*
X107190247Y-80728152D01*
X107190247Y-80728152D02*
X107142628Y-80775771D01*
X107142628Y-80775771D02*
X107047390Y-80823390D01*
X107047390Y-80823390D02*
X106856914Y-80823390D01*
X106856914Y-80823390D02*
X106761676Y-80871009D01*
X106761676Y-80871009D02*
X106714057Y-80918628D01*
X106714057Y-80918628D02*
X106666438Y-81013866D01*
X106666438Y-81013866D02*
X106666438Y-81204342D01*
X106666438Y-81204342D02*
X106714057Y-81299580D01*
X106714057Y-81299580D02*
X106761676Y-81347200D01*
X106761676Y-81347200D02*
X106856914Y-81394819D01*
X106856914Y-81394819D02*
X107047390Y-81394819D01*
X107047390Y-81394819D02*
X107142628Y-81347200D01*
X107142628Y-81347200D02*
X107190247Y-81299580D01*
X107190247Y-81299580D02*
X107237866Y-81204342D01*
X107237866Y-81204342D02*
X107237866Y-81013866D01*
X107237866Y-81013866D02*
X107190247Y-80918628D01*
X107190247Y-80918628D02*
X107142628Y-80871009D01*
X107142628Y-80871009D02*
X107047390Y-80823390D01*
X165866380Y-60119466D02*
X165914000Y-60167085D01*
X165914000Y-60167085D02*
X165961619Y-60309942D01*
X165961619Y-60309942D02*
X165961619Y-60405180D01*
X165961619Y-60405180D02*
X165914000Y-60548037D01*
X165914000Y-60548037D02*
X165818761Y-60643275D01*
X165818761Y-60643275D02*
X165723523Y-60690894D01*
X165723523Y-60690894D02*
X165533047Y-60738513D01*
X165533047Y-60738513D02*
X165390190Y-60738513D01*
X165390190Y-60738513D02*
X165199714Y-60690894D01*
X165199714Y-60690894D02*
X165104476Y-60643275D01*
X165104476Y-60643275D02*
X165009238Y-60548037D01*
X165009238Y-60548037D02*
X164961619Y-60405180D01*
X164961619Y-60405180D02*
X164961619Y-60309942D01*
X164961619Y-60309942D02*
X165009238Y-60167085D01*
X165009238Y-60167085D02*
X165056857Y-60119466D01*
X164961619Y-59262323D02*
X164961619Y-59452799D01*
X164961619Y-59452799D02*
X165009238Y-59548037D01*
X165009238Y-59548037D02*
X165056857Y-59595656D01*
X165056857Y-59595656D02*
X165199714Y-59690894D01*
X165199714Y-59690894D02*
X165390190Y-59738513D01*
X165390190Y-59738513D02*
X165771142Y-59738513D01*
X165771142Y-59738513D02*
X165866380Y-59690894D01*
X165866380Y-59690894D02*
X165914000Y-59643275D01*
X165914000Y-59643275D02*
X165961619Y-59548037D01*
X165961619Y-59548037D02*
X165961619Y-59357561D01*
X165961619Y-59357561D02*
X165914000Y-59262323D01*
X165914000Y-59262323D02*
X165866380Y-59214704D01*
X165866380Y-59214704D02*
X165771142Y-59167085D01*
X165771142Y-59167085D02*
X165533047Y-59167085D01*
X165533047Y-59167085D02*
X165437809Y-59214704D01*
X165437809Y-59214704D02*
X165390190Y-59262323D01*
X165390190Y-59262323D02*
X165342571Y-59357561D01*
X165342571Y-59357561D02*
X165342571Y-59548037D01*
X165342571Y-59548037D02*
X165390190Y-59643275D01*
X165390190Y-59643275D02*
X165437809Y-59690894D01*
X165437809Y-59690894D02*
X165533047Y-59738513D01*
X105904819Y-26819123D02*
X106619104Y-26819123D01*
X106619104Y-26819123D02*
X106761961Y-26866742D01*
X106761961Y-26866742D02*
X106857200Y-26961980D01*
X106857200Y-26961980D02*
X106904819Y-27104837D01*
X106904819Y-27104837D02*
X106904819Y-27200075D01*
X106904819Y-25819123D02*
X106904819Y-26390551D01*
X106904819Y-26104837D02*
X105904819Y-26104837D01*
X105904819Y-26104837D02*
X106047676Y-26200075D01*
X106047676Y-26200075D02*
X106142914Y-26295313D01*
X106142914Y-26295313D02*
X106190533Y-26390551D01*
X106904819Y-24866742D02*
X106904819Y-25438170D01*
X106904819Y-25152456D02*
X105904819Y-25152456D01*
X105904819Y-25152456D02*
X106047676Y-25247694D01*
X106047676Y-25247694D02*
X106142914Y-25342932D01*
X106142914Y-25342932D02*
X106190533Y-25438170D01*
X136641180Y-100607066D02*
X136688800Y-100654685D01*
X136688800Y-100654685D02*
X136736419Y-100797542D01*
X136736419Y-100797542D02*
X136736419Y-100892780D01*
X136736419Y-100892780D02*
X136688800Y-101035637D01*
X136688800Y-101035637D02*
X136593561Y-101130875D01*
X136593561Y-101130875D02*
X136498323Y-101178494D01*
X136498323Y-101178494D02*
X136307847Y-101226113D01*
X136307847Y-101226113D02*
X136164990Y-101226113D01*
X136164990Y-101226113D02*
X135974514Y-101178494D01*
X135974514Y-101178494D02*
X135879276Y-101130875D01*
X135879276Y-101130875D02*
X135784038Y-101035637D01*
X135784038Y-101035637D02*
X135736419Y-100892780D01*
X135736419Y-100892780D02*
X135736419Y-100797542D01*
X135736419Y-100797542D02*
X135784038Y-100654685D01*
X135784038Y-100654685D02*
X135831657Y-100607066D01*
X136736419Y-100130875D02*
X136736419Y-99940399D01*
X136736419Y-99940399D02*
X136688800Y-99845161D01*
X136688800Y-99845161D02*
X136641180Y-99797542D01*
X136641180Y-99797542D02*
X136498323Y-99702304D01*
X136498323Y-99702304D02*
X136307847Y-99654685D01*
X136307847Y-99654685D02*
X135926895Y-99654685D01*
X135926895Y-99654685D02*
X135831657Y-99702304D01*
X135831657Y-99702304D02*
X135784038Y-99749923D01*
X135784038Y-99749923D02*
X135736419Y-99845161D01*
X135736419Y-99845161D02*
X135736419Y-100035637D01*
X135736419Y-100035637D02*
X135784038Y-100130875D01*
X135784038Y-100130875D02*
X135831657Y-100178494D01*
X135831657Y-100178494D02*
X135926895Y-100226113D01*
X135926895Y-100226113D02*
X136164990Y-100226113D01*
X136164990Y-100226113D02*
X136260228Y-100178494D01*
X136260228Y-100178494D02*
X136307847Y-100130875D01*
X136307847Y-100130875D02*
X136355466Y-100035637D01*
X136355466Y-100035637D02*
X136355466Y-99845161D01*
X136355466Y-99845161D02*
X136307847Y-99749923D01*
X136307847Y-99749923D02*
X136260228Y-99702304D01*
X136260228Y-99702304D02*
X136164990Y-99654685D01*
X196241066Y-66024419D02*
X196241066Y-66738704D01*
X196241066Y-66738704D02*
X196193447Y-66881561D01*
X196193447Y-66881561D02*
X196098209Y-66976800D01*
X196098209Y-66976800D02*
X195955352Y-67024419D01*
X195955352Y-67024419D02*
X195860114Y-67024419D01*
X197145828Y-66024419D02*
X196955352Y-66024419D01*
X196955352Y-66024419D02*
X196860114Y-66072038D01*
X196860114Y-66072038D02*
X196812495Y-66119657D01*
X196812495Y-66119657D02*
X196717257Y-66262514D01*
X196717257Y-66262514D02*
X196669638Y-66452990D01*
X196669638Y-66452990D02*
X196669638Y-66833942D01*
X196669638Y-66833942D02*
X196717257Y-66929180D01*
X196717257Y-66929180D02*
X196764876Y-66976800D01*
X196764876Y-66976800D02*
X196860114Y-67024419D01*
X196860114Y-67024419D02*
X197050590Y-67024419D01*
X197050590Y-67024419D02*
X197145828Y-66976800D01*
X197145828Y-66976800D02*
X197193447Y-66929180D01*
X197193447Y-66929180D02*
X197241066Y-66833942D01*
X197241066Y-66833942D02*
X197241066Y-66595847D01*
X197241066Y-66595847D02*
X197193447Y-66500609D01*
X197193447Y-66500609D02*
X197145828Y-66452990D01*
X197145828Y-66452990D02*
X197050590Y-66405371D01*
X197050590Y-66405371D02*
X196860114Y-66405371D01*
X196860114Y-66405371D02*
X196764876Y-66452990D01*
X196764876Y-66452990D02*
X196717257Y-66500609D01*
X196717257Y-66500609D02*
X196669638Y-66595847D01*
X196241066Y-83804419D02*
X196241066Y-84518704D01*
X196241066Y-84518704D02*
X196193447Y-84661561D01*
X196193447Y-84661561D02*
X196098209Y-84756800D01*
X196098209Y-84756800D02*
X195955352Y-84804419D01*
X195955352Y-84804419D02*
X195860114Y-84804419D01*
X196622019Y-83804419D02*
X197288685Y-83804419D01*
X197288685Y-83804419D02*
X196860114Y-84804419D01*
X151552533Y-85863519D02*
X151219200Y-85387328D01*
X150981105Y-85863519D02*
X150981105Y-84863519D01*
X150981105Y-84863519D02*
X151362057Y-84863519D01*
X151362057Y-84863519D02*
X151457295Y-84911138D01*
X151457295Y-84911138D02*
X151504914Y-84958757D01*
X151504914Y-84958757D02*
X151552533Y-85053995D01*
X151552533Y-85053995D02*
X151552533Y-85196852D01*
X151552533Y-85196852D02*
X151504914Y-85292090D01*
X151504914Y-85292090D02*
X151457295Y-85339709D01*
X151457295Y-85339709D02*
X151362057Y-85387328D01*
X151362057Y-85387328D02*
X150981105Y-85387328D01*
X152457295Y-84863519D02*
X151981105Y-84863519D01*
X151981105Y-84863519D02*
X151933486Y-85339709D01*
X151933486Y-85339709D02*
X151981105Y-85292090D01*
X151981105Y-85292090D02*
X152076343Y-85244471D01*
X152076343Y-85244471D02*
X152314438Y-85244471D01*
X152314438Y-85244471D02*
X152409676Y-85292090D01*
X152409676Y-85292090D02*
X152457295Y-85339709D01*
X152457295Y-85339709D02*
X152504914Y-85434947D01*
X152504914Y-85434947D02*
X152504914Y-85673042D01*
X152504914Y-85673042D02*
X152457295Y-85768280D01*
X152457295Y-85768280D02*
X152409676Y-85815900D01*
X152409676Y-85815900D02*
X152314438Y-85863519D01*
X152314438Y-85863519D02*
X152076343Y-85863519D01*
X152076343Y-85863519D02*
X151981105Y-85815900D01*
X151981105Y-85815900D02*
X151933486Y-85768280D01*
X153871219Y-27912266D02*
X153395028Y-28245599D01*
X153871219Y-28483694D02*
X152871219Y-28483694D01*
X152871219Y-28483694D02*
X152871219Y-28102742D01*
X152871219Y-28102742D02*
X152918838Y-28007504D01*
X152918838Y-28007504D02*
X152966457Y-27959885D01*
X152966457Y-27959885D02*
X153061695Y-27912266D01*
X153061695Y-27912266D02*
X153204552Y-27912266D01*
X153204552Y-27912266D02*
X153299790Y-27959885D01*
X153299790Y-27959885D02*
X153347409Y-28007504D01*
X153347409Y-28007504D02*
X153395028Y-28102742D01*
X153395028Y-28102742D02*
X153395028Y-28483694D01*
X152871219Y-27055123D02*
X152871219Y-27245599D01*
X152871219Y-27245599D02*
X152918838Y-27340837D01*
X152918838Y-27340837D02*
X152966457Y-27388456D01*
X152966457Y-27388456D02*
X153109314Y-27483694D01*
X153109314Y-27483694D02*
X153299790Y-27531313D01*
X153299790Y-27531313D02*
X153680742Y-27531313D01*
X153680742Y-27531313D02*
X153775980Y-27483694D01*
X153775980Y-27483694D02*
X153823600Y-27436075D01*
X153823600Y-27436075D02*
X153871219Y-27340837D01*
X153871219Y-27340837D02*
X153871219Y-27150361D01*
X153871219Y-27150361D02*
X153823600Y-27055123D01*
X153823600Y-27055123D02*
X153775980Y-27007504D01*
X153775980Y-27007504D02*
X153680742Y-26959885D01*
X153680742Y-26959885D02*
X153442647Y-26959885D01*
X153442647Y-26959885D02*
X153347409Y-27007504D01*
X153347409Y-27007504D02*
X153299790Y-27055123D01*
X153299790Y-27055123D02*
X153252171Y-27150361D01*
X153252171Y-27150361D02*
X153252171Y-27340837D01*
X153252171Y-27340837D02*
X153299790Y-27436075D01*
X153299790Y-27436075D02*
X153347409Y-27483694D01*
X153347409Y-27483694D02*
X153442647Y-27531313D01*
X147787542Y-29179580D02*
X147739923Y-29227200D01*
X147739923Y-29227200D02*
X147597066Y-29274819D01*
X147597066Y-29274819D02*
X147501828Y-29274819D01*
X147501828Y-29274819D02*
X147358971Y-29227200D01*
X147358971Y-29227200D02*
X147263733Y-29131961D01*
X147263733Y-29131961D02*
X147216114Y-29036723D01*
X147216114Y-29036723D02*
X147168495Y-28846247D01*
X147168495Y-28846247D02*
X147168495Y-28703390D01*
X147168495Y-28703390D02*
X147216114Y-28512914D01*
X147216114Y-28512914D02*
X147263733Y-28417676D01*
X147263733Y-28417676D02*
X147358971Y-28322438D01*
X147358971Y-28322438D02*
X147501828Y-28274819D01*
X147501828Y-28274819D02*
X147597066Y-28274819D01*
X147597066Y-28274819D02*
X147739923Y-28322438D01*
X147739923Y-28322438D02*
X147787542Y-28370057D01*
X148739923Y-29274819D02*
X148168495Y-29274819D01*
X148454209Y-29274819D02*
X148454209Y-28274819D01*
X148454209Y-28274819D02*
X148358971Y-28417676D01*
X148358971Y-28417676D02*
X148263733Y-28512914D01*
X148263733Y-28512914D02*
X148168495Y-28560533D01*
X149358971Y-28274819D02*
X149454209Y-28274819D01*
X149454209Y-28274819D02*
X149549447Y-28322438D01*
X149549447Y-28322438D02*
X149597066Y-28370057D01*
X149597066Y-28370057D02*
X149644685Y-28465295D01*
X149644685Y-28465295D02*
X149692304Y-28655771D01*
X149692304Y-28655771D02*
X149692304Y-28893866D01*
X149692304Y-28893866D02*
X149644685Y-29084342D01*
X149644685Y-29084342D02*
X149597066Y-29179580D01*
X149597066Y-29179580D02*
X149549447Y-29227200D01*
X149549447Y-29227200D02*
X149454209Y-29274819D01*
X149454209Y-29274819D02*
X149358971Y-29274819D01*
X149358971Y-29274819D02*
X149263733Y-29227200D01*
X149263733Y-29227200D02*
X149216114Y-29179580D01*
X149216114Y-29179580D02*
X149168495Y-29084342D01*
X149168495Y-29084342D02*
X149120876Y-28893866D01*
X149120876Y-28893866D02*
X149120876Y-28655771D01*
X149120876Y-28655771D02*
X149168495Y-28465295D01*
X149168495Y-28465295D02*
X149216114Y-28370057D01*
X149216114Y-28370057D02*
X149263733Y-28322438D01*
X149263733Y-28322438D02*
X149358971Y-28274819D01*
X128143180Y-111865657D02*
X128190800Y-111913276D01*
X128190800Y-111913276D02*
X128238419Y-112056133D01*
X128238419Y-112056133D02*
X128238419Y-112151371D01*
X128238419Y-112151371D02*
X128190800Y-112294228D01*
X128190800Y-112294228D02*
X128095561Y-112389466D01*
X128095561Y-112389466D02*
X128000323Y-112437085D01*
X128000323Y-112437085D02*
X127809847Y-112484704D01*
X127809847Y-112484704D02*
X127666990Y-112484704D01*
X127666990Y-112484704D02*
X127476514Y-112437085D01*
X127476514Y-112437085D02*
X127381276Y-112389466D01*
X127381276Y-112389466D02*
X127286038Y-112294228D01*
X127286038Y-112294228D02*
X127238419Y-112151371D01*
X127238419Y-112151371D02*
X127238419Y-112056133D01*
X127238419Y-112056133D02*
X127286038Y-111913276D01*
X127286038Y-111913276D02*
X127333657Y-111865657D01*
X128238419Y-110913276D02*
X128238419Y-111484704D01*
X128238419Y-111198990D02*
X127238419Y-111198990D01*
X127238419Y-111198990D02*
X127381276Y-111294228D01*
X127381276Y-111294228D02*
X127476514Y-111389466D01*
X127476514Y-111389466D02*
X127524133Y-111484704D01*
X128238419Y-109960895D02*
X128238419Y-110532323D01*
X128238419Y-110246609D02*
X127238419Y-110246609D01*
X127238419Y-110246609D02*
X127381276Y-110341847D01*
X127381276Y-110341847D02*
X127476514Y-110437085D01*
X127476514Y-110437085D02*
X127524133Y-110532323D01*
X106237866Y-54823619D02*
X106237866Y-55537904D01*
X106237866Y-55537904D02*
X106190247Y-55680761D01*
X106190247Y-55680761D02*
X106095009Y-55776000D01*
X106095009Y-55776000D02*
X105952152Y-55823619D01*
X105952152Y-55823619D02*
X105856914Y-55823619D01*
X107142628Y-55156952D02*
X107142628Y-55823619D01*
X106904533Y-54776000D02*
X106666438Y-55490285D01*
X106666438Y-55490285D02*
X107285485Y-55490285D01*
X142969495Y-28470419D02*
X142969495Y-29279942D01*
X142969495Y-29279942D02*
X143017114Y-29375180D01*
X143017114Y-29375180D02*
X143064733Y-29422800D01*
X143064733Y-29422800D02*
X143159971Y-29470419D01*
X143159971Y-29470419D02*
X143350447Y-29470419D01*
X143350447Y-29470419D02*
X143445685Y-29422800D01*
X143445685Y-29422800D02*
X143493304Y-29375180D01*
X143493304Y-29375180D02*
X143540923Y-29279942D01*
X143540923Y-29279942D02*
X143540923Y-28470419D01*
X143969495Y-28565657D02*
X144017114Y-28518038D01*
X144017114Y-28518038D02*
X144112352Y-28470419D01*
X144112352Y-28470419D02*
X144350447Y-28470419D01*
X144350447Y-28470419D02*
X144445685Y-28518038D01*
X144445685Y-28518038D02*
X144493304Y-28565657D01*
X144493304Y-28565657D02*
X144540923Y-28660895D01*
X144540923Y-28660895D02*
X144540923Y-28756133D01*
X144540923Y-28756133D02*
X144493304Y-28898990D01*
X144493304Y-28898990D02*
X143921876Y-29470419D01*
X143921876Y-29470419D02*
X144540923Y-29470419D01*
X179398133Y-49023219D02*
X179064800Y-48547028D01*
X178826705Y-49023219D02*
X178826705Y-48023219D01*
X178826705Y-48023219D02*
X179207657Y-48023219D01*
X179207657Y-48023219D02*
X179302895Y-48070838D01*
X179302895Y-48070838D02*
X179350514Y-48118457D01*
X179350514Y-48118457D02*
X179398133Y-48213695D01*
X179398133Y-48213695D02*
X179398133Y-48356552D01*
X179398133Y-48356552D02*
X179350514Y-48451790D01*
X179350514Y-48451790D02*
X179302895Y-48499409D01*
X179302895Y-48499409D02*
X179207657Y-48547028D01*
X179207657Y-48547028D02*
X178826705Y-48547028D01*
X179969562Y-48451790D02*
X179874324Y-48404171D01*
X179874324Y-48404171D02*
X179826705Y-48356552D01*
X179826705Y-48356552D02*
X179779086Y-48261314D01*
X179779086Y-48261314D02*
X179779086Y-48213695D01*
X179779086Y-48213695D02*
X179826705Y-48118457D01*
X179826705Y-48118457D02*
X179874324Y-48070838D01*
X179874324Y-48070838D02*
X179969562Y-48023219D01*
X179969562Y-48023219D02*
X180160038Y-48023219D01*
X180160038Y-48023219D02*
X180255276Y-48070838D01*
X180255276Y-48070838D02*
X180302895Y-48118457D01*
X180302895Y-48118457D02*
X180350514Y-48213695D01*
X180350514Y-48213695D02*
X180350514Y-48261314D01*
X180350514Y-48261314D02*
X180302895Y-48356552D01*
X180302895Y-48356552D02*
X180255276Y-48404171D01*
X180255276Y-48404171D02*
X180160038Y-48451790D01*
X180160038Y-48451790D02*
X179969562Y-48451790D01*
X179969562Y-48451790D02*
X179874324Y-48499409D01*
X179874324Y-48499409D02*
X179826705Y-48547028D01*
X179826705Y-48547028D02*
X179779086Y-48642266D01*
X179779086Y-48642266D02*
X179779086Y-48832742D01*
X179779086Y-48832742D02*
X179826705Y-48927980D01*
X179826705Y-48927980D02*
X179874324Y-48975600D01*
X179874324Y-48975600D02*
X179969562Y-49023219D01*
X179969562Y-49023219D02*
X180160038Y-49023219D01*
X180160038Y-49023219D02*
X180255276Y-48975600D01*
X180255276Y-48975600D02*
X180302895Y-48927980D01*
X180302895Y-48927980D02*
X180350514Y-48832742D01*
X180350514Y-48832742D02*
X180350514Y-48642266D01*
X180350514Y-48642266D02*
X180302895Y-48547028D01*
X180302895Y-48547028D02*
X180255276Y-48499409D01*
X180255276Y-48499409D02*
X180160038Y-48451790D01*
X185314619Y-37131104D02*
X186124142Y-37131104D01*
X186124142Y-37131104D02*
X186219380Y-37083485D01*
X186219380Y-37083485D02*
X186267000Y-37035866D01*
X186267000Y-37035866D02*
X186314619Y-36940628D01*
X186314619Y-36940628D02*
X186314619Y-36750152D01*
X186314619Y-36750152D02*
X186267000Y-36654914D01*
X186267000Y-36654914D02*
X186219380Y-36607295D01*
X186219380Y-36607295D02*
X186124142Y-36559676D01*
X186124142Y-36559676D02*
X185314619Y-36559676D01*
X185314619Y-36178723D02*
X185314619Y-35512057D01*
X185314619Y-35512057D02*
X186314619Y-35940628D01*
X133574219Y-63673266D02*
X133098028Y-64006599D01*
X133574219Y-64244694D02*
X132574219Y-64244694D01*
X132574219Y-64244694D02*
X132574219Y-63863742D01*
X132574219Y-63863742D02*
X132621838Y-63768504D01*
X132621838Y-63768504D02*
X132669457Y-63720885D01*
X132669457Y-63720885D02*
X132764695Y-63673266D01*
X132764695Y-63673266D02*
X132907552Y-63673266D01*
X132907552Y-63673266D02*
X133002790Y-63720885D01*
X133002790Y-63720885D02*
X133050409Y-63768504D01*
X133050409Y-63768504D02*
X133098028Y-63863742D01*
X133098028Y-63863742D02*
X133098028Y-64244694D01*
X133574219Y-62720885D02*
X133574219Y-63292313D01*
X133574219Y-63006599D02*
X132574219Y-63006599D01*
X132574219Y-63006599D02*
X132717076Y-63101837D01*
X132717076Y-63101837D02*
X132812314Y-63197075D01*
X132812314Y-63197075D02*
X132859933Y-63292313D01*
X182930419Y-85178133D02*
X183644704Y-85178133D01*
X183644704Y-85178133D02*
X183787561Y-85225752D01*
X183787561Y-85225752D02*
X183882800Y-85320990D01*
X183882800Y-85320990D02*
X183930419Y-85463847D01*
X183930419Y-85463847D02*
X183930419Y-85559085D01*
X183930419Y-84178133D02*
X183930419Y-84749561D01*
X183930419Y-84463847D02*
X182930419Y-84463847D01*
X182930419Y-84463847D02*
X183073276Y-84559085D01*
X183073276Y-84559085D02*
X183168514Y-84654323D01*
X183168514Y-84654323D02*
X183216133Y-84749561D01*
X168914380Y-60119466D02*
X168962000Y-60167085D01*
X168962000Y-60167085D02*
X169009619Y-60309942D01*
X169009619Y-60309942D02*
X169009619Y-60405180D01*
X169009619Y-60405180D02*
X168962000Y-60548037D01*
X168962000Y-60548037D02*
X168866761Y-60643275D01*
X168866761Y-60643275D02*
X168771523Y-60690894D01*
X168771523Y-60690894D02*
X168581047Y-60738513D01*
X168581047Y-60738513D02*
X168438190Y-60738513D01*
X168438190Y-60738513D02*
X168247714Y-60690894D01*
X168247714Y-60690894D02*
X168152476Y-60643275D01*
X168152476Y-60643275D02*
X168057238Y-60548037D01*
X168057238Y-60548037D02*
X168009619Y-60405180D01*
X168009619Y-60405180D02*
X168009619Y-60309942D01*
X168009619Y-60309942D02*
X168057238Y-60167085D01*
X168057238Y-60167085D02*
X168104857Y-60119466D01*
X168009619Y-59214704D02*
X168009619Y-59690894D01*
X168009619Y-59690894D02*
X168485809Y-59738513D01*
X168485809Y-59738513D02*
X168438190Y-59690894D01*
X168438190Y-59690894D02*
X168390571Y-59595656D01*
X168390571Y-59595656D02*
X168390571Y-59357561D01*
X168390571Y-59357561D02*
X168438190Y-59262323D01*
X168438190Y-59262323D02*
X168485809Y-59214704D01*
X168485809Y-59214704D02*
X168581047Y-59167085D01*
X168581047Y-59167085D02*
X168819142Y-59167085D01*
X168819142Y-59167085D02*
X168914380Y-59214704D01*
X168914380Y-59214704D02*
X168962000Y-59262323D01*
X168962000Y-59262323D02*
X169009619Y-59357561D01*
X169009619Y-59357561D02*
X169009619Y-59595656D01*
X169009619Y-59595656D02*
X168962000Y-59690894D01*
X168962000Y-59690894D02*
X168914380Y-59738513D01*
X131104780Y-105617257D02*
X131152400Y-105664876D01*
X131152400Y-105664876D02*
X131200019Y-105807733D01*
X131200019Y-105807733D02*
X131200019Y-105902971D01*
X131200019Y-105902971D02*
X131152400Y-106045828D01*
X131152400Y-106045828D02*
X131057161Y-106141066D01*
X131057161Y-106141066D02*
X130961923Y-106188685D01*
X130961923Y-106188685D02*
X130771447Y-106236304D01*
X130771447Y-106236304D02*
X130628590Y-106236304D01*
X130628590Y-106236304D02*
X130438114Y-106188685D01*
X130438114Y-106188685D02*
X130342876Y-106141066D01*
X130342876Y-106141066D02*
X130247638Y-106045828D01*
X130247638Y-106045828D02*
X130200019Y-105902971D01*
X130200019Y-105902971D02*
X130200019Y-105807733D01*
X130200019Y-105807733D02*
X130247638Y-105664876D01*
X130247638Y-105664876D02*
X130295257Y-105617257D01*
X131200019Y-104664876D02*
X131200019Y-105236304D01*
X131200019Y-104950590D02*
X130200019Y-104950590D01*
X130200019Y-104950590D02*
X130342876Y-105045828D01*
X130342876Y-105045828D02*
X130438114Y-105141066D01*
X130438114Y-105141066D02*
X130485733Y-105236304D01*
X130533352Y-103807733D02*
X131200019Y-103807733D01*
X130152400Y-104045828D02*
X130866685Y-104283923D01*
X130866685Y-104283923D02*
X130866685Y-103664876D01*
X120174476Y-114674688D02*
X120174476Y-115388973D01*
X120174476Y-115388973D02*
X120126857Y-115531830D01*
X120126857Y-115531830D02*
X120031619Y-115627069D01*
X120031619Y-115627069D02*
X119888762Y-115674688D01*
X119888762Y-115674688D02*
X119793524Y-115674688D01*
X121174476Y-115674688D02*
X120603048Y-115674688D01*
X120888762Y-115674688D02*
X120888762Y-114674688D01*
X120888762Y-114674688D02*
X120793524Y-114817545D01*
X120793524Y-114817545D02*
X120698286Y-114912783D01*
X120698286Y-114912783D02*
X120603048Y-114960402D01*
X121793524Y-114674688D02*
X121888762Y-114674688D01*
X121888762Y-114674688D02*
X121984000Y-114722307D01*
X121984000Y-114722307D02*
X122031619Y-114769926D01*
X122031619Y-114769926D02*
X122079238Y-114865164D01*
X122079238Y-114865164D02*
X122126857Y-115055640D01*
X122126857Y-115055640D02*
X122126857Y-115293735D01*
X122126857Y-115293735D02*
X122079238Y-115484211D01*
X122079238Y-115484211D02*
X122031619Y-115579449D01*
X122031619Y-115579449D02*
X121984000Y-115627069D01*
X121984000Y-115627069D02*
X121888762Y-115674688D01*
X121888762Y-115674688D02*
X121793524Y-115674688D01*
X121793524Y-115674688D02*
X121698286Y-115627069D01*
X121698286Y-115627069D02*
X121650667Y-115579449D01*
X121650667Y-115579449D02*
X121603048Y-115484211D01*
X121603048Y-115484211D02*
X121555429Y-115293735D01*
X121555429Y-115293735D02*
X121555429Y-115055640D01*
X121555429Y-115055640D02*
X121603048Y-114865164D01*
X121603048Y-114865164D02*
X121650667Y-114769926D01*
X121650667Y-114769926D02*
X121698286Y-114722307D01*
X121698286Y-114722307D02*
X121793524Y-114674688D01*
X196241066Y-73593619D02*
X196241066Y-74307904D01*
X196241066Y-74307904D02*
X196193447Y-74450761D01*
X196193447Y-74450761D02*
X196098209Y-74546000D01*
X196098209Y-74546000D02*
X195955352Y-74593619D01*
X195955352Y-74593619D02*
X195860114Y-74593619D01*
X196669638Y-73688857D02*
X196717257Y-73641238D01*
X196717257Y-73641238D02*
X196812495Y-73593619D01*
X196812495Y-73593619D02*
X197050590Y-73593619D01*
X197050590Y-73593619D02*
X197145828Y-73641238D01*
X197145828Y-73641238D02*
X197193447Y-73688857D01*
X197193447Y-73688857D02*
X197241066Y-73784095D01*
X197241066Y-73784095D02*
X197241066Y-73879333D01*
X197241066Y-73879333D02*
X197193447Y-74022190D01*
X197193447Y-74022190D02*
X196622019Y-74593619D01*
X196622019Y-74593619D02*
X197241066Y-74593619D01*
X196291866Y-58556819D02*
X196291866Y-59271104D01*
X196291866Y-59271104D02*
X196244247Y-59413961D01*
X196244247Y-59413961D02*
X196149009Y-59509200D01*
X196149009Y-59509200D02*
X196006152Y-59556819D01*
X196006152Y-59556819D02*
X195910914Y-59556819D01*
X197244247Y-58556819D02*
X196768057Y-58556819D01*
X196768057Y-58556819D02*
X196720438Y-59033009D01*
X196720438Y-59033009D02*
X196768057Y-58985390D01*
X196768057Y-58985390D02*
X196863295Y-58937771D01*
X196863295Y-58937771D02*
X197101390Y-58937771D01*
X197101390Y-58937771D02*
X197196628Y-58985390D01*
X197196628Y-58985390D02*
X197244247Y-59033009D01*
X197244247Y-59033009D02*
X197291866Y-59128247D01*
X197291866Y-59128247D02*
X197291866Y-59366342D01*
X197291866Y-59366342D02*
X197244247Y-59461580D01*
X197244247Y-59461580D02*
X197196628Y-59509200D01*
X197196628Y-59509200D02*
X197101390Y-59556819D01*
X197101390Y-59556819D02*
X196863295Y-59556819D01*
X196863295Y-59556819D02*
X196768057Y-59509200D01*
X196768057Y-59509200D02*
X196720438Y-59461580D01*
X128244780Y-108716057D02*
X128292400Y-108763676D01*
X128292400Y-108763676D02*
X128340019Y-108906533D01*
X128340019Y-108906533D02*
X128340019Y-109001771D01*
X128340019Y-109001771D02*
X128292400Y-109144628D01*
X128292400Y-109144628D02*
X128197161Y-109239866D01*
X128197161Y-109239866D02*
X128101923Y-109287485D01*
X128101923Y-109287485D02*
X127911447Y-109335104D01*
X127911447Y-109335104D02*
X127768590Y-109335104D01*
X127768590Y-109335104D02*
X127578114Y-109287485D01*
X127578114Y-109287485D02*
X127482876Y-109239866D01*
X127482876Y-109239866D02*
X127387638Y-109144628D01*
X127387638Y-109144628D02*
X127340019Y-109001771D01*
X127340019Y-109001771D02*
X127340019Y-108906533D01*
X127340019Y-108906533D02*
X127387638Y-108763676D01*
X127387638Y-108763676D02*
X127435257Y-108716057D01*
X128340019Y-107763676D02*
X128340019Y-108335104D01*
X128340019Y-108049390D02*
X127340019Y-108049390D01*
X127340019Y-108049390D02*
X127482876Y-108144628D01*
X127482876Y-108144628D02*
X127578114Y-108239866D01*
X127578114Y-108239866D02*
X127625733Y-108335104D01*
X127435257Y-107382723D02*
X127387638Y-107335104D01*
X127387638Y-107335104D02*
X127340019Y-107239866D01*
X127340019Y-107239866D02*
X127340019Y-107001771D01*
X127340019Y-107001771D02*
X127387638Y-106906533D01*
X127387638Y-106906533D02*
X127435257Y-106858914D01*
X127435257Y-106858914D02*
X127530495Y-106811295D01*
X127530495Y-106811295D02*
X127625733Y-106811295D01*
X127625733Y-106811295D02*
X127768590Y-106858914D01*
X127768590Y-106858914D02*
X128340019Y-107430342D01*
X128340019Y-107430342D02*
X128340019Y-106811295D01*
X176162495Y-29381819D02*
X176162495Y-30191342D01*
X176162495Y-30191342D02*
X176210114Y-30286580D01*
X176210114Y-30286580D02*
X176257733Y-30334200D01*
X176257733Y-30334200D02*
X176352971Y-30381819D01*
X176352971Y-30381819D02*
X176543447Y-30381819D01*
X176543447Y-30381819D02*
X176638685Y-30334200D01*
X176638685Y-30334200D02*
X176686304Y-30286580D01*
X176686304Y-30286580D02*
X176733923Y-30191342D01*
X176733923Y-30191342D02*
X176733923Y-29381819D01*
X177686304Y-29381819D02*
X177210114Y-29381819D01*
X177210114Y-29381819D02*
X177162495Y-29858009D01*
X177162495Y-29858009D02*
X177210114Y-29810390D01*
X177210114Y-29810390D02*
X177305352Y-29762771D01*
X177305352Y-29762771D02*
X177543447Y-29762771D01*
X177543447Y-29762771D02*
X177638685Y-29810390D01*
X177638685Y-29810390D02*
X177686304Y-29858009D01*
X177686304Y-29858009D02*
X177733923Y-29953247D01*
X177733923Y-29953247D02*
X177733923Y-30191342D01*
X177733923Y-30191342D02*
X177686304Y-30286580D01*
X177686304Y-30286580D02*
X177638685Y-30334200D01*
X177638685Y-30334200D02*
X177543447Y-30381819D01*
X177543447Y-30381819D02*
X177305352Y-30381819D01*
X177305352Y-30381819D02*
X177210114Y-30334200D01*
X177210114Y-30334200D02*
X177162495Y-30286580D01*
X158951219Y-27912266D02*
X158475028Y-28245599D01*
X158951219Y-28483694D02*
X157951219Y-28483694D01*
X157951219Y-28483694D02*
X157951219Y-28102742D01*
X157951219Y-28102742D02*
X157998838Y-28007504D01*
X157998838Y-28007504D02*
X158046457Y-27959885D01*
X158046457Y-27959885D02*
X158141695Y-27912266D01*
X158141695Y-27912266D02*
X158284552Y-27912266D01*
X158284552Y-27912266D02*
X158379790Y-27959885D01*
X158379790Y-27959885D02*
X158427409Y-28007504D01*
X158427409Y-28007504D02*
X158475028Y-28102742D01*
X158475028Y-28102742D02*
X158475028Y-28483694D01*
X157951219Y-27578932D02*
X157951219Y-26912266D01*
X157951219Y-26912266D02*
X158951219Y-27340837D01*
X179693333Y-32123380D02*
X179645714Y-32171000D01*
X179645714Y-32171000D02*
X179502857Y-32218619D01*
X179502857Y-32218619D02*
X179407619Y-32218619D01*
X179407619Y-32218619D02*
X179264762Y-32171000D01*
X179264762Y-32171000D02*
X179169524Y-32075761D01*
X179169524Y-32075761D02*
X179121905Y-31980523D01*
X179121905Y-31980523D02*
X179074286Y-31790047D01*
X179074286Y-31790047D02*
X179074286Y-31647190D01*
X179074286Y-31647190D02*
X179121905Y-31456714D01*
X179121905Y-31456714D02*
X179169524Y-31361476D01*
X179169524Y-31361476D02*
X179264762Y-31266238D01*
X179264762Y-31266238D02*
X179407619Y-31218619D01*
X179407619Y-31218619D02*
X179502857Y-31218619D01*
X179502857Y-31218619D02*
X179645714Y-31266238D01*
X179645714Y-31266238D02*
X179693333Y-31313857D01*
X180264762Y-31647190D02*
X180169524Y-31599571D01*
X180169524Y-31599571D02*
X180121905Y-31551952D01*
X180121905Y-31551952D02*
X180074286Y-31456714D01*
X180074286Y-31456714D02*
X180074286Y-31409095D01*
X180074286Y-31409095D02*
X180121905Y-31313857D01*
X180121905Y-31313857D02*
X180169524Y-31266238D01*
X180169524Y-31266238D02*
X180264762Y-31218619D01*
X180264762Y-31218619D02*
X180455238Y-31218619D01*
X180455238Y-31218619D02*
X180550476Y-31266238D01*
X180550476Y-31266238D02*
X180598095Y-31313857D01*
X180598095Y-31313857D02*
X180645714Y-31409095D01*
X180645714Y-31409095D02*
X180645714Y-31456714D01*
X180645714Y-31456714D02*
X180598095Y-31551952D01*
X180598095Y-31551952D02*
X180550476Y-31599571D01*
X180550476Y-31599571D02*
X180455238Y-31647190D01*
X180455238Y-31647190D02*
X180264762Y-31647190D01*
X180264762Y-31647190D02*
X180169524Y-31694809D01*
X180169524Y-31694809D02*
X180121905Y-31742428D01*
X180121905Y-31742428D02*
X180074286Y-31837666D01*
X180074286Y-31837666D02*
X180074286Y-32028142D01*
X180074286Y-32028142D02*
X180121905Y-32123380D01*
X180121905Y-32123380D02*
X180169524Y-32171000D01*
X180169524Y-32171000D02*
X180264762Y-32218619D01*
X180264762Y-32218619D02*
X180455238Y-32218619D01*
X180455238Y-32218619D02*
X180550476Y-32171000D01*
X180550476Y-32171000D02*
X180598095Y-32123380D01*
X180598095Y-32123380D02*
X180645714Y-32028142D01*
X180645714Y-32028142D02*
X180645714Y-31837666D01*
X180645714Y-31837666D02*
X180598095Y-31742428D01*
X180598095Y-31742428D02*
X180550476Y-31694809D01*
X180550476Y-31694809D02*
X180455238Y-31647190D01*
X144670180Y-63622466D02*
X144717800Y-63670085D01*
X144717800Y-63670085D02*
X144765419Y-63812942D01*
X144765419Y-63812942D02*
X144765419Y-63908180D01*
X144765419Y-63908180D02*
X144717800Y-64051037D01*
X144717800Y-64051037D02*
X144622561Y-64146275D01*
X144622561Y-64146275D02*
X144527323Y-64193894D01*
X144527323Y-64193894D02*
X144336847Y-64241513D01*
X144336847Y-64241513D02*
X144193990Y-64241513D01*
X144193990Y-64241513D02*
X144003514Y-64193894D01*
X144003514Y-64193894D02*
X143908276Y-64146275D01*
X143908276Y-64146275D02*
X143813038Y-64051037D01*
X143813038Y-64051037D02*
X143765419Y-63908180D01*
X143765419Y-63908180D02*
X143765419Y-63812942D01*
X143765419Y-63812942D02*
X143813038Y-63670085D01*
X143813038Y-63670085D02*
X143860657Y-63622466D01*
X144765419Y-62670085D02*
X144765419Y-63241513D01*
X144765419Y-62955799D02*
X143765419Y-62955799D01*
X143765419Y-62955799D02*
X143908276Y-63051037D01*
X143908276Y-63051037D02*
X144003514Y-63146275D01*
X144003514Y-63146275D02*
X144051133Y-63241513D01*
X176590933Y-30040180D02*
X176543314Y-30087800D01*
X176543314Y-30087800D02*
X176400457Y-30135419D01*
X176400457Y-30135419D02*
X176305219Y-30135419D01*
X176305219Y-30135419D02*
X176162362Y-30087800D01*
X176162362Y-30087800D02*
X176067124Y-29992561D01*
X176067124Y-29992561D02*
X176019505Y-29897323D01*
X176019505Y-29897323D02*
X175971886Y-29706847D01*
X175971886Y-29706847D02*
X175971886Y-29563990D01*
X175971886Y-29563990D02*
X176019505Y-29373514D01*
X176019505Y-29373514D02*
X176067124Y-29278276D01*
X176067124Y-29278276D02*
X176162362Y-29183038D01*
X176162362Y-29183038D02*
X176305219Y-29135419D01*
X176305219Y-29135419D02*
X176400457Y-29135419D01*
X176400457Y-29135419D02*
X176543314Y-29183038D01*
X176543314Y-29183038D02*
X176590933Y-29230657D01*
X176971886Y-29230657D02*
X177019505Y-29183038D01*
X177019505Y-29183038D02*
X177114743Y-29135419D01*
X177114743Y-29135419D02*
X177352838Y-29135419D01*
X177352838Y-29135419D02*
X177448076Y-29183038D01*
X177448076Y-29183038D02*
X177495695Y-29230657D01*
X177495695Y-29230657D02*
X177543314Y-29325895D01*
X177543314Y-29325895D02*
X177543314Y-29421133D01*
X177543314Y-29421133D02*
X177495695Y-29563990D01*
X177495695Y-29563990D02*
X176924267Y-30135419D01*
X176924267Y-30135419D02*
X177543314Y-30135419D01*
X154308895Y-58676019D02*
X154308895Y-59485542D01*
X154308895Y-59485542D02*
X154356514Y-59580780D01*
X154356514Y-59580780D02*
X154404133Y-59628400D01*
X154404133Y-59628400D02*
X154499371Y-59676019D01*
X154499371Y-59676019D02*
X154689847Y-59676019D01*
X154689847Y-59676019D02*
X154785085Y-59628400D01*
X154785085Y-59628400D02*
X154832704Y-59580780D01*
X154832704Y-59580780D02*
X154880323Y-59485542D01*
X154880323Y-59485542D02*
X154880323Y-58676019D01*
X155880323Y-59676019D02*
X155308895Y-59676019D01*
X155594609Y-59676019D02*
X155594609Y-58676019D01*
X155594609Y-58676019D02*
X155499371Y-58818876D01*
X155499371Y-58818876D02*
X155404133Y-58914114D01*
X155404133Y-58914114D02*
X155308895Y-58961733D01*
X121238095Y-113393819D02*
X121238095Y-114203342D01*
X121238095Y-114203342D02*
X121285714Y-114298580D01*
X121285714Y-114298580D02*
X121333333Y-114346200D01*
X121333333Y-114346200D02*
X121428571Y-114393819D01*
X121428571Y-114393819D02*
X121619047Y-114393819D01*
X121619047Y-114393819D02*
X121714285Y-114346200D01*
X121714285Y-114346200D02*
X121761904Y-114298580D01*
X121761904Y-114298580D02*
X121809523Y-114203342D01*
X121809523Y-114203342D02*
X121809523Y-113393819D01*
X122428571Y-113822390D02*
X122333333Y-113774771D01*
X122333333Y-113774771D02*
X122285714Y-113727152D01*
X122285714Y-113727152D02*
X122238095Y-113631914D01*
X122238095Y-113631914D02*
X122238095Y-113584295D01*
X122238095Y-113584295D02*
X122285714Y-113489057D01*
X122285714Y-113489057D02*
X122333333Y-113441438D01*
X122333333Y-113441438D02*
X122428571Y-113393819D01*
X122428571Y-113393819D02*
X122619047Y-113393819D01*
X122619047Y-113393819D02*
X122714285Y-113441438D01*
X122714285Y-113441438D02*
X122761904Y-113489057D01*
X122761904Y-113489057D02*
X122809523Y-113584295D01*
X122809523Y-113584295D02*
X122809523Y-113631914D01*
X122809523Y-113631914D02*
X122761904Y-113727152D01*
X122761904Y-113727152D02*
X122714285Y-113774771D01*
X122714285Y-113774771D02*
X122619047Y-113822390D01*
X122619047Y-113822390D02*
X122428571Y-113822390D01*
X122428571Y-113822390D02*
X122333333Y-113870009D01*
X122333333Y-113870009D02*
X122285714Y-113917628D01*
X122285714Y-113917628D02*
X122238095Y-114012866D01*
X122238095Y-114012866D02*
X122238095Y-114203342D01*
X122238095Y-114203342D02*
X122285714Y-114298580D01*
X122285714Y-114298580D02*
X122333333Y-114346200D01*
X122333333Y-114346200D02*
X122428571Y-114393819D01*
X122428571Y-114393819D02*
X122619047Y-114393819D01*
X122619047Y-114393819D02*
X122714285Y-114346200D01*
X122714285Y-114346200D02*
X122761904Y-114298580D01*
X122761904Y-114298580D02*
X122809523Y-114203342D01*
X122809523Y-114203342D02*
X122809523Y-114012866D01*
X122809523Y-114012866D02*
X122761904Y-113917628D01*
X122761904Y-113917628D02*
X122714285Y-113870009D01*
X122714285Y-113870009D02*
X122619047Y-113822390D01*
D11*
%TO.C,C7*%
X184504220Y-39033800D02*
X184785380Y-39033800D01*
X184504220Y-40053800D02*
X184785380Y-40053800D01*
%TO.C,R2*%
X137836900Y-63269342D02*
X137836900Y-63743858D01*
X138881900Y-63269342D02*
X138881900Y-63743858D01*
%TO.C,J3*%
X105241200Y-65495600D02*
X106571200Y-65495600D01*
X105241200Y-66825600D02*
X105241200Y-65495600D01*
X105241200Y-68095600D02*
X105241200Y-80855600D01*
X105241200Y-68095600D02*
X107901200Y-68095600D01*
X105241200Y-80855600D02*
X107901200Y-80855600D01*
X107901200Y-68095600D02*
X107901200Y-80855600D01*
%TO.C,R9*%
X179802058Y-50248100D02*
X179327542Y-50248100D01*
X179802058Y-51293100D02*
X179327542Y-51293100D01*
%TO.C,C4*%
X165090800Y-59812220D02*
X165090800Y-60093380D01*
X166110800Y-59812220D02*
X166110800Y-60093380D01*
%TO.C,R10*%
X115887258Y-105620300D02*
X115412742Y-105620300D01*
X115887258Y-106665300D02*
X115412742Y-106665300D01*
%TO.C,R4*%
X123100858Y-29471100D02*
X122626342Y-29471100D01*
X123100858Y-30516100D02*
X122626342Y-30516100D01*
%TO.C,SW1*%
X137370000Y-67479600D02*
X137370000Y-71979600D01*
X139870000Y-73229600D02*
X141370000Y-73229600D01*
X141370000Y-66229600D02*
X139870000Y-66229600D01*
X143870000Y-71979600D02*
X143870000Y-67479600D01*
D12*
%TO.C,U3*%
X142867600Y-98880500D02*
X146017600Y-98880500D01*
X142867600Y-108680500D02*
X142867600Y-98880500D01*
X146017600Y-108680500D02*
X142867600Y-108680500D01*
X146017600Y-108950500D02*
X146017600Y-108680500D01*
X147897600Y-95780500D02*
X148517600Y-95780500D01*
X148517600Y-89480500D02*
X159417600Y-89480500D01*
X148517600Y-95780500D02*
X148517600Y-89480500D01*
X149117600Y-111680500D02*
X147897600Y-111680500D01*
X149117600Y-114880500D02*
X149117600Y-111680500D01*
X158817600Y-111680500D02*
X158817600Y-114880500D01*
X159417600Y-89480500D02*
X159417600Y-95780500D01*
X159417600Y-95780500D02*
X160047600Y-95780500D01*
X160047600Y-111680500D02*
X158817600Y-111680500D01*
X161917600Y-99680500D02*
X163467600Y-99680500D01*
X161917600Y-107780500D02*
X161917600Y-108900500D01*
X163467600Y-99680500D02*
X163467600Y-107780500D01*
X163467600Y-107780500D02*
X161917600Y-107780500D01*
D13*
X148017600Y-90430500D02*
G75*
G02*
X147817600Y-90430500I-100000J0D01*
G01*
X147817600Y-90430500D02*
G75*
G02*
X148017600Y-90430500I100000J0D01*
G01*
D11*
%TO.C,J9*%
X184614800Y-43493400D02*
X191874800Y-43493400D01*
X184614800Y-44993400D02*
X184614800Y-43493400D01*
X184614800Y-52993400D02*
X184614800Y-51493400D01*
X184614800Y-52993400D02*
X191874800Y-52993400D01*
%TO.C,C3*%
X162042800Y-59812220D02*
X162042800Y-60093380D01*
X163062800Y-59812220D02*
X163062800Y-60093380D01*
D12*
%TO.C,U4*%
X106215600Y-32470000D02*
X126535600Y-32470000D01*
X106215600Y-52790000D02*
X106215600Y-32470000D01*
X126535600Y-32470000D02*
X126535600Y-52790000D01*
X126535600Y-52790000D02*
X106215600Y-52790000D01*
D13*
X125365600Y-31830000D02*
G75*
G02*
X125165600Y-31830000I-100000J0D01*
G01*
X125165600Y-31830000D02*
G75*
G02*
X125365600Y-31830000I100000J0D01*
G01*
D11*
%TO.C,C13*%
X115892180Y-112338400D02*
X115611020Y-112338400D01*
X115892180Y-113358400D02*
X115611020Y-113358400D01*
%TO.C,R3*%
X130062700Y-36270942D02*
X130062700Y-36745458D01*
X131107700Y-36270942D02*
X131107700Y-36745458D01*
%TO.C,J8*%
X105241200Y-81940000D02*
X106571200Y-81940000D01*
X105241200Y-83270000D02*
X105241200Y-81940000D01*
X105241200Y-84540000D02*
X105241200Y-94760000D01*
X105241200Y-84540000D02*
X107901200Y-84540000D01*
X105241200Y-94760000D02*
X107901200Y-94760000D01*
X107901200Y-84540000D02*
X107901200Y-94760000D01*
%TO.C,C6*%
X163566800Y-59812220D02*
X163566800Y-60093380D01*
X164586800Y-59812220D02*
X164586800Y-60093380D01*
%TO.C,J11*%
X107890000Y-24679600D02*
X109220000Y-24679600D01*
X107890000Y-26009600D02*
X107890000Y-24679600D01*
X110490000Y-24679600D02*
X113090000Y-24679600D01*
X110490000Y-27339600D02*
X110490000Y-24679600D01*
X110490000Y-27339600D02*
X113090000Y-27339600D01*
X113090000Y-27339600D02*
X113090000Y-24679600D01*
%TO.C,C9*%
X137201600Y-100580980D02*
X137201600Y-100299820D01*
X138221600Y-100580980D02*
X138221600Y-100299820D01*
%TO.C,J6*%
X192769600Y-66526000D02*
X192769600Y-63926000D01*
X195429600Y-63926000D02*
X192769600Y-63926000D01*
X195429600Y-66526000D02*
X192769600Y-66526000D01*
X195429600Y-66526000D02*
X195429600Y-63926000D01*
X195429600Y-67796000D02*
X195429600Y-69126000D01*
X195429600Y-69126000D02*
X194099600Y-69126000D01*
%TO.C,J7*%
X192718800Y-86739400D02*
X192718800Y-79059400D01*
X195378800Y-79059400D02*
X192718800Y-79059400D01*
X195378800Y-86739400D02*
X192718800Y-86739400D01*
X195378800Y-86739400D02*
X195378800Y-79059400D01*
X195378800Y-88009400D02*
X195378800Y-89339400D01*
X195378800Y-89339400D02*
X194048800Y-89339400D01*
%TO.C,R5*%
X151481942Y-86316200D02*
X151956458Y-86316200D01*
X151481942Y-87361200D02*
X151956458Y-87361200D01*
%TO.C,R6*%
X151463900Y-27508342D02*
X151463900Y-27982858D01*
X152508900Y-27508342D02*
X152508900Y-27982858D01*
%TO.C,C10*%
X148570980Y-26880000D02*
X148289820Y-26880000D01*
X148570980Y-27900000D02*
X148289820Y-27900000D01*
%TO.C,C11*%
X128703600Y-111363380D02*
X128703600Y-111082220D01*
X129723600Y-111363380D02*
X129723600Y-111082220D01*
%TO.C,J4*%
X105241200Y-56368800D02*
X106571200Y-56368800D01*
X105241200Y-57698800D02*
X105241200Y-56368800D01*
X105241200Y-58968800D02*
X105241200Y-64108800D01*
X105241200Y-58968800D02*
X107901200Y-58968800D01*
X105241200Y-64108800D02*
X107901200Y-64108800D01*
X107901200Y-58968800D02*
X107901200Y-64108800D01*
D12*
%TO.C,U2*%
X140256400Y-29985600D02*
X166256400Y-29985600D01*
X140256400Y-55985600D02*
X140256400Y-29985600D01*
X146256400Y-53985600D02*
X146256400Y-55985600D01*
X146256400Y-55985600D02*
X140256400Y-55985600D01*
X160256400Y-53985600D02*
X146256400Y-53985600D01*
X160256400Y-55985600D02*
X160256400Y-53985600D01*
X166256400Y-29985600D02*
X166256400Y-55985600D01*
X166256400Y-55985600D02*
X160256400Y-55985600D01*
D13*
X149356400Y-29485600D02*
G75*
G02*
X149156400Y-29485600I-100000J0D01*
G01*
X149156400Y-29485600D02*
G75*
G02*
X149356400Y-29485600I100000J0D01*
G01*
D11*
%TO.C,R8*%
X179802058Y-46615900D02*
X179327542Y-46615900D01*
X179802058Y-47660900D02*
X179327542Y-47660900D01*
%TO.C,U7*%
X186949800Y-34459200D02*
X188209800Y-34459200D01*
X186949800Y-38219200D02*
X186949800Y-34459200D01*
X193769800Y-34459200D02*
X192509800Y-34459200D01*
X193769800Y-38219200D02*
X193769800Y-34459200D01*
X187049800Y-39499200D02*
X186719800Y-39739200D01*
X186719800Y-39259200D01*
X187049800Y-39499200D01*
G36*
X187049800Y-39499200D02*
G01*
X186719800Y-39739200D01*
X186719800Y-39259200D01*
X187049800Y-39499200D01*
G37*
%TO.C,R1*%
X134026900Y-63743858D02*
X134026900Y-63269342D01*
X135071900Y-63743858D02*
X135071900Y-63269342D01*
%TO.C,J1*%
X169655600Y-83514800D02*
X169655600Y-86174800D01*
X179875600Y-83514800D02*
X169655600Y-83514800D01*
X179875600Y-83514800D02*
X179875600Y-86174800D01*
X179875600Y-86174800D02*
X169655600Y-86174800D01*
X181145600Y-83514800D02*
X182475600Y-83514800D01*
X182475600Y-83514800D02*
X182475600Y-84844800D01*
%TO.C,C5*%
X166614800Y-59812220D02*
X166614800Y-60093380D01*
X167634800Y-59812220D02*
X167634800Y-60093380D01*
%TO.C,C14*%
X128805200Y-104833820D02*
X128805200Y-105114980D01*
X129825200Y-104833820D02*
X129825200Y-105114980D01*
%TO.C,J10*%
X105499000Y-116159869D02*
X136469000Y-116159869D01*
X105499000Y-128499869D02*
X105499000Y-116159869D01*
X115194000Y-115265531D02*
X115694000Y-115265531D01*
X115444000Y-115698544D02*
X115194000Y-115265531D01*
X115694000Y-115265531D02*
X115444000Y-115698544D01*
X136469000Y-116159869D02*
X136469000Y-128499869D01*
%TO.C,J2*%
X192769600Y-75345200D02*
X192769600Y-70205200D01*
X195429600Y-70205200D02*
X192769600Y-70205200D01*
X195429600Y-75345200D02*
X192769600Y-75345200D01*
X195429600Y-75345200D02*
X195429600Y-70205200D01*
X195429600Y-76615200D02*
X195429600Y-77945200D01*
X195429600Y-77945200D02*
X194099600Y-77945200D01*
%TO.C,J5*%
X192769600Y-60359200D02*
X192769600Y-55219200D01*
X195429600Y-55219200D02*
X192769600Y-55219200D01*
X195429600Y-60359200D02*
X192769600Y-60359200D01*
X195429600Y-60359200D02*
X195429600Y-55219200D01*
X195429600Y-61629200D02*
X195429600Y-62959200D01*
X195429600Y-62959200D02*
X194099600Y-62959200D01*
%TO.C,C12*%
X128805200Y-108213780D02*
X128805200Y-107932620D01*
X129825200Y-108213780D02*
X129825200Y-107932620D01*
%TO.C,U5*%
X176924400Y-23967000D02*
X174974400Y-23967000D01*
X176924400Y-23967000D02*
X178874400Y-23967000D01*
X176924400Y-29087000D02*
X174974400Y-29087000D01*
X176924400Y-29087000D02*
X178874400Y-29087000D01*
X179864400Y-29322000D02*
X179384400Y-29322000D01*
X179624400Y-28992000D01*
X179864400Y-29322000D01*
G36*
X179864400Y-29322000D02*
G01*
X179384400Y-29322000D01*
X179624400Y-28992000D01*
X179864400Y-29322000D01*
G37*
%TO.C,R7*%
X156543900Y-27508342D02*
X156543900Y-27982858D01*
X157588900Y-27508342D02*
X157588900Y-27982858D01*
%TO.C,C8*%
X179719420Y-32683800D02*
X180000580Y-32683800D01*
X179719420Y-33703800D02*
X180000580Y-33703800D01*
%TO.C,C1*%
X142370600Y-63315220D02*
X142370600Y-63596380D01*
X143390600Y-63315220D02*
X143390600Y-63596380D01*
%TO.C,C2*%
X176617020Y-30600600D02*
X176898180Y-30600600D01*
X176617020Y-31620600D02*
X176898180Y-31620600D01*
D10*
%TO.C,U1*%
X149895800Y-61496200D02*
X149895800Y-62111200D01*
X149895800Y-61496200D02*
X150570800Y-61496200D01*
X149895800Y-71846200D02*
X149895800Y-71171200D01*
X149895800Y-71846200D02*
X150570800Y-71846200D01*
X160245800Y-61496200D02*
X159570800Y-61496200D01*
X160245800Y-61496200D02*
X160245800Y-62171200D01*
X160245800Y-71846200D02*
X159570800Y-71846200D01*
X160245800Y-71846200D02*
X160245800Y-71171200D01*
D11*
X149210800Y-62131200D02*
X148870800Y-61661200D01*
X149550800Y-61661200D01*
X149210800Y-62131200D01*
G36*
X149210800Y-62131200D02*
G01*
X148870800Y-61661200D01*
X149550800Y-61661200D01*
X149210800Y-62131200D01*
G37*
%TO.C,U8*%
X122000000Y-102979000D02*
X120050000Y-102979000D01*
X122000000Y-102979000D02*
X123950000Y-102979000D01*
X122000000Y-113099000D02*
X120050000Y-113099000D01*
X122000000Y-113099000D02*
X123950000Y-113099000D01*
X124940000Y-113374000D02*
X124460000Y-113374000D01*
X124700000Y-113044000D01*
X124940000Y-113374000D01*
G36*
X124940000Y-113374000D02*
G01*
X124460000Y-113374000D01*
X124700000Y-113044000D01*
X124940000Y-113374000D01*
G37*
%TD*%
M02*
