%TF.GenerationSoftware,KiCad,Pcbnew,9.0.0*%
%TF.CreationDate,2025-12-09T22:57:50+02:00*%
%TF.ProjectId,space invaders,73706163-6520-4696-9e76-61646572732e,rev?*%
%TF.SameCoordinates,Original*%
%TF.FileFunction,Soldermask,Top*%
%TF.FilePolarity,Negative*%
%FSLAX46Y46*%
G04 Gerber Fmt 4.6, Leading zero omitted, Abs format (unit mm)*
G04 Created by KiCad (PCBNEW 9.0.0) date 2025-12-09 22:57:50*
%MOMM*%
%LPD*%
G01*
G04 APERTURE LIST*
G04 Aperture macros list*
%AMRoundRect*
0 Rectangle with rounded corners*
0 $1 Rounding radius*
0 $2 $3 $4 $5 $6 $7 $8 $9 X,Y pos of 4 corners*
0 Add a 4 corners polygon primitive as box body*
4,1,4,$2,$3,$4,$5,$6,$7,$8,$9,$2,$3,0*
0 Add four circle primitives for the rounded corners*
1,1,$1+$1,$2,$3*
1,1,$1+$1,$4,$5*
1,1,$1+$1,$6,$7*
1,1,$1+$1,$8,$9*
0 Add four rect primitives between the rounded corners*
20,1,$1+$1,$2,$3,$4,$5,0*
20,1,$1+$1,$4,$5,$6,$7,0*
20,1,$1+$1,$6,$7,$8,$9,0*
20,1,$1+$1,$8,$9,$2,$3,0*%
G04 Aperture macros list end*
%ADD10RoundRect,0.225000X-0.225000X-0.250000X0.225000X-0.250000X0.225000X0.250000X-0.225000X0.250000X0*%
%ADD11RoundRect,0.200000X-0.275000X0.200000X-0.275000X-0.200000X0.275000X-0.200000X0.275000X0.200000X0*%
%ADD12R,1.700000X1.700000*%
%ADD13O,1.700000X1.700000*%
%ADD14RoundRect,0.200000X0.200000X0.275000X-0.200000X0.275000X-0.200000X-0.275000X0.200000X-0.275000X0*%
%ADD15RoundRect,0.225000X-0.250000X0.225000X-0.250000X-0.225000X0.250000X-0.225000X0.250000X0.225000X0*%
%ADD16C,2.000000*%
%ADD17C,1.982000*%
%ADD18C,2.490000*%
%ADD19C,0.650000*%
%ADD20O,0.650000X0.950000*%
%ADD21R,0.700000X0.300000*%
%ADD22O,1.400000X0.800000*%
%ADD23RoundRect,0.102000X-0.654000X0.654000X-0.654000X-0.654000X0.654000X-0.654000X0.654000X0.654000X0*%
%ADD24C,1.512000*%
%ADD25RoundRect,0.225000X0.250000X-0.225000X0.250000X0.225000X-0.250000X0.225000X-0.250000X-0.225000X0*%
%ADD26R,1.500000X2.000000*%
%ADD27RoundRect,0.200000X-0.200000X-0.275000X0.200000X-0.275000X0.200000X0.275000X-0.200000X0.275000X0*%
%ADD28RoundRect,0.225000X0.225000X0.250000X-0.225000X0.250000X-0.225000X-0.250000X0.225000X-0.250000X0*%
%ADD29RoundRect,0.102000X-0.754000X-0.754000X0.754000X-0.754000X0.754000X0.754000X-0.754000X0.754000X0*%
%ADD30C,1.712000*%
%ADD31C,3.204000*%
%ADD32RoundRect,0.375000X0.375000X-0.625000X0.375000X0.625000X-0.375000X0.625000X-0.375000X-0.625000X0*%
%ADD33RoundRect,0.500000X1.400000X-0.500000X1.400000X0.500000X-1.400000X0.500000X-1.400000X-0.500000X0*%
%ADD34RoundRect,0.200000X0.275000X-0.200000X0.275000X0.200000X-0.275000X0.200000X-0.275000X-0.200000X0*%
%ADD35RoundRect,0.150000X0.825000X0.150000X-0.825000X0.150000X-0.825000X-0.150000X0.825000X-0.150000X0*%
%ADD36R,2.410000X3.300000*%
%ADD37R,1.500000X0.550000*%
%ADD38R,0.550000X1.500000*%
G04 APERTURE END LIST*
D10*
%TO.C,C7*%
X183586600Y-77012600D03*
X185136600Y-77012600D03*
%TD*%
D11*
%TO.C,R2*%
X138076200Y-100150400D03*
X138076200Y-101800400D03*
%TD*%
D12*
%TO.C,J3*%
X106288000Y-104294400D03*
D13*
X106288000Y-106834400D03*
X106288000Y-109374400D03*
X106288000Y-111914400D03*
X106288000Y-114454400D03*
X106288000Y-116994400D03*
%TD*%
D14*
%TO.C,R9*%
X180106600Y-88239400D03*
X178456600Y-88239400D03*
%TD*%
D15*
%TO.C,C4*%
X165317600Y-96646600D03*
X165317600Y-98196600D03*
%TD*%
D14*
%TO.C,R4*%
X123405400Y-67462400D03*
X121755400Y-67462400D03*
%TD*%
D16*
%TO.C,SW1*%
X142586800Y-103948400D03*
X142586800Y-110448400D03*
X138086800Y-103948400D03*
X138086800Y-110448400D03*
%TD*%
D17*
%TO.C,U3*%
X150509400Y-128549300D03*
X156859400Y-128549300D03*
X150509400Y-133629300D03*
X156859400Y-133629300D03*
X151144400Y-151409300D03*
X153684400Y-151409300D03*
X156224400Y-151409300D03*
D18*
X146064400Y-134581800D03*
X146064400Y-147916800D03*
X161304400Y-147916800D03*
X161304400Y-134581800D03*
D17*
X143524400Y-138709300D03*
X143524400Y-141249300D03*
X143524400Y-143789300D03*
%TD*%
D19*
%TO.C,J9*%
X185341600Y-89312200D03*
D20*
X185341600Y-82112200D03*
D21*
X184681600Y-88462200D03*
X184681600Y-87962200D03*
X184681600Y-87462200D03*
X184681600Y-86962200D03*
X184681600Y-86462200D03*
X184681600Y-85962200D03*
X184681600Y-85462200D03*
X184681600Y-84962200D03*
X184681600Y-84462200D03*
X184681600Y-83962200D03*
X184681600Y-83462200D03*
X184681600Y-82962200D03*
X186381600Y-83212200D03*
X186381600Y-83712200D03*
X186381600Y-84212200D03*
X186381600Y-84712200D03*
X186381600Y-85212200D03*
X186381600Y-85712200D03*
X186381600Y-86212200D03*
X186381600Y-86712200D03*
X186381600Y-87212200D03*
X186381600Y-87712200D03*
X186381600Y-88212200D03*
X186381600Y-88712200D03*
D22*
X192541600Y-90202200D03*
X186591600Y-89842200D03*
X186591600Y-81582200D03*
X192541600Y-81222200D03*
%TD*%
D15*
%TO.C,C3*%
X162269600Y-96646600D03*
X162269600Y-98196600D03*
%TD*%
D23*
%TO.C,U4*%
X124982400Y-71081800D03*
D24*
X122442400Y-71081800D03*
X119902400Y-71081800D03*
X117362400Y-71081800D03*
X114822400Y-71081800D03*
X112282400Y-71081800D03*
X109742400Y-71081800D03*
X107202400Y-71081800D03*
X107202400Y-89115800D03*
X109742400Y-89115800D03*
X112282400Y-89115800D03*
X114822400Y-89115800D03*
X117362400Y-89115800D03*
X119902400Y-89115800D03*
X122442400Y-89115800D03*
X124982400Y-89115800D03*
%TD*%
D11*
%TO.C,R3*%
X130302000Y-73152000D03*
X130302000Y-74802000D03*
%TD*%
D12*
%TO.C,J8*%
X106288000Y-120738800D03*
D13*
X106288000Y-123278800D03*
X106288000Y-125818800D03*
X106288000Y-128358800D03*
X106288000Y-130898800D03*
%TD*%
D15*
%TO.C,C6*%
X163793600Y-96646600D03*
X163793600Y-98196600D03*
%TD*%
D25*
%TO.C,C9*%
X137428400Y-138684200D03*
X137428400Y-137134200D03*
%TD*%
D12*
%TO.C,J6*%
X193816400Y-105264800D03*
D13*
X193816400Y-102724800D03*
%TD*%
D12*
%TO.C,J7*%
X193765600Y-125478200D03*
D13*
X193765600Y-122938200D03*
X193765600Y-120398200D03*
X193765600Y-117858200D03*
%TD*%
D26*
%TO.C,LS1*%
X117580800Y-63701800D03*
X106780800Y-63701800D03*
%TD*%
D27*
%TO.C,R5*%
X150611000Y-124307500D03*
X152261000Y-124307500D03*
%TD*%
D11*
%TO.C,R6*%
X151703200Y-64389400D03*
X151703200Y-66039400D03*
%TD*%
D28*
%TO.C,C10*%
X148922200Y-64858800D03*
X147372200Y-64858800D03*
%TD*%
D12*
%TO.C,J4*%
X106288000Y-95167600D03*
D13*
X106288000Y-97707600D03*
X106288000Y-100247600D03*
%TD*%
D29*
%TO.C,U2*%
X149163200Y-68954400D03*
D30*
X151703200Y-68954400D03*
X154243200Y-68954400D03*
X156783200Y-68954400D03*
D31*
X141973200Y-69454400D03*
X163973200Y-69454400D03*
X163973200Y-91454400D03*
X141973200Y-91454400D03*
%TD*%
D14*
%TO.C,R8*%
X180106600Y-84607200D03*
X178456600Y-84607200D03*
%TD*%
D32*
%TO.C,U7*%
X187776600Y-76988000D03*
X190076600Y-76988000D03*
D33*
X190076600Y-70688000D03*
D32*
X192376600Y-76988000D03*
%TD*%
D34*
%TO.C,R1*%
X134266200Y-101800400D03*
X134266200Y-100150400D03*
%TD*%
D12*
%TO.C,J1*%
X180862400Y-122313600D03*
D13*
X178322400Y-122313600D03*
X175782400Y-122313600D03*
X173242400Y-122313600D03*
X170702400Y-122313600D03*
%TD*%
D15*
%TO.C,C5*%
X166841600Y-96646600D03*
X166841600Y-98196600D03*
%TD*%
D12*
%TO.C,J2*%
X193816400Y-114084000D03*
D13*
X193816400Y-111544000D03*
X193816400Y-109004000D03*
%TD*%
D12*
%TO.C,J5*%
X193816400Y-99098000D03*
D13*
X193816400Y-96558000D03*
X193816400Y-94018000D03*
%TD*%
D35*
%TO.C,U5*%
X179116200Y-65900800D03*
X179116200Y-64630800D03*
X179116200Y-63360800D03*
X179116200Y-62090800D03*
X174166200Y-62090800D03*
X174166200Y-63360800D03*
X174166200Y-64630800D03*
X174166200Y-65900800D03*
D36*
X176641200Y-63995800D03*
%TD*%
D11*
%TO.C,R7*%
X156783200Y-64389400D03*
X156783200Y-66039400D03*
%TD*%
D10*
%TO.C,C8*%
X178801800Y-70662600D03*
X180351800Y-70662600D03*
%TD*%
D15*
%TO.C,C1*%
X142597400Y-100149600D03*
X142597400Y-101699600D03*
%TD*%
D10*
%TO.C,C2*%
X175699400Y-68579400D03*
X177249400Y-68579400D03*
%TD*%
D37*
%TO.C,U1*%
X149087600Y-100140000D03*
X149087600Y-100940000D03*
X149087600Y-101740000D03*
X149087600Y-102540000D03*
X149087600Y-103340000D03*
X149087600Y-104140000D03*
X149087600Y-104940000D03*
X149087600Y-105740000D03*
X149087600Y-106540000D03*
X149087600Y-107340000D03*
X149087600Y-108140000D03*
D38*
X150787600Y-109840000D03*
X151587600Y-109840000D03*
X152387600Y-109840000D03*
X153187600Y-109840000D03*
X153987600Y-109840000D03*
X154787600Y-109840000D03*
X155587600Y-109840000D03*
X156387600Y-109840000D03*
X157187600Y-109840000D03*
X157987600Y-109840000D03*
X158787600Y-109840000D03*
D37*
X160487600Y-108140000D03*
X160487600Y-107340000D03*
X160487600Y-106540000D03*
X160487600Y-105740000D03*
X160487600Y-104940000D03*
X160487600Y-104140000D03*
X160487600Y-103340000D03*
X160487600Y-102540000D03*
X160487600Y-101740000D03*
X160487600Y-100940000D03*
X160487600Y-100140000D03*
D38*
X158787600Y-98440000D03*
X157987600Y-98440000D03*
X157187600Y-98440000D03*
X156387600Y-98440000D03*
X155587600Y-98440000D03*
X154787600Y-98440000D03*
X153987600Y-98440000D03*
X153187600Y-98440000D03*
X152387600Y-98440000D03*
X151587600Y-98440000D03*
X150787600Y-98440000D03*
%TD*%
M02*
