M48
; DRILL file {KiCad 9.0.0} date 2025-12-09T22:58:07+0200
; FORMAT={-:-/ absolute / metric / decimal}
; #@! TF.CreationDate,2025-12-09T22:58:07+02:00
; #@! TF.GenerationSoftware,Kicad,Pcbnew,9.0.0
; #@! TF.FileFunction,Plated,1,2,PTH
FMAT,2
METRIC
; #@! TA.AperFunction,Plated,PTH,ViaDrill
T1C0.300
; #@! TA.AperFunction,Plated,PTH,ComponentDrill
T2C0.500
; #@! TA.AperFunction,Plated,PTH,ComponentDrill
T3C0.800
; #@! TA.AperFunction,Plated,PTH,ComponentDrill
T4C0.889
; #@! TA.AperFunction,Plated,PTH,ComponentDrill
T5C0.900
; #@! TA.AperFunction,Plated,PTH,ComponentDrill
T6C1.000
; #@! TA.AperFunction,Plated,PTH,ComponentDrill
T7C1.100
; #@! TA.AperFunction,Plated,PTH,ComponentDrill
T8C1.397
; #@! TA.AperFunction,Plated,PTH,ComponentDrill
T9C2.000
%
G90
G05
T1
X118.048Y-94.424
X121.274Y-93.459
X132.623Y-99.154
X137.428Y-135.89
X139.016Y-138.709
X139.842Y-106.54
X139.867Y-107.34
X141.543Y-94.424
X145.123Y-98.154
X146.064Y-64.859
X146.194Y-99.929
X146.709Y-105.74
X146.903Y-109.741
X147.207Y-108.267
X147.436Y-98.031
X147.779Y-104.14
X147.975Y-101.71
X149.123Y-97.054
X149.163Y-93.154
X150.623Y-122.654
X150.738Y-96.253
X151.551Y-95.694
X152.388Y-97.194
X152.567Y-113.627
X152.973Y-65.239
X153.938Y-64.402
X154.026Y-66.751
X154.788Y-113.424
X156.388Y-97.229
X156.529Y-119.012
X157.023Y-108.204
X157.19Y-111.138
X157.19Y-117.691
X157.494Y-94.12
X158.191Y-66.04
X158.206Y-63.081
X158.206Y-95.39
X159.563Y-115.214
X160.63Y-109.677
X161.304Y-140.957
X161.685Y-103.34
X161.914Y-94.17
X162.828Y-95.339
X164.556Y-99.2
X167.792Y-104.14
X168.453Y-110.846
X169.524Y-65.621
X172.618Y-64.618
X178.104Y-68.579
X178.457Y-86.309
X182.626Y-77.013
X187.777Y-78.554
T3
X107.202Y-71.082
X107.202Y-89.116
X109.742Y-71.082
X109.742Y-89.116
X112.282Y-71.082
X112.282Y-89.116
X114.822Y-71.082
X114.822Y-89.116
X117.362Y-71.082
X117.362Y-89.116
X119.902Y-71.082
X119.902Y-89.116
X122.442Y-71.082
X122.442Y-89.116
X124.982Y-71.082
X124.982Y-89.116
T4
X143.524Y-138.709
X143.524Y-141.249
X143.524Y-143.789
X151.144Y-151.409
X153.684Y-151.409
X156.224Y-151.409
T5
X150.509Y-128.549
X150.509Y-133.629
X156.859Y-128.549
X156.859Y-133.629
T6
X106.288Y-95.168
X106.288Y-97.708
X106.288Y-100.248
X106.288Y-104.294
X106.288Y-106.834
X106.288Y-109.374
X106.288Y-111.914
X106.288Y-114.454
X106.288Y-116.994
X106.288Y-120.739
X106.288Y-123.279
X106.288Y-125.819
X106.288Y-128.359
X106.288Y-130.899
X149.163Y-68.954
X151.703Y-68.954
X154.243Y-68.954
X156.783Y-68.954
X170.702Y-122.314
X173.242Y-122.314
X175.782Y-122.314
X178.322Y-122.314
X180.862Y-122.314
X193.766Y-117.858
X193.766Y-120.398
X193.766Y-122.938
X193.766Y-125.478
X193.816Y-94.018
X193.816Y-96.558
X193.816Y-99.098
X193.816Y-102.725
X193.816Y-105.265
X193.816Y-109.004
X193.816Y-111.544
X193.816Y-114.084
T7
X138.087Y-103.948
X138.087Y-110.448
X142.587Y-103.948
X142.587Y-110.448
T8
X146.064Y-134.582
X146.064Y-147.917
X161.304Y-134.582
X161.304Y-147.917
T9
X141.973Y-69.454
X141.973Y-91.454
X163.973Y-69.454
X163.973Y-91.454
T2
G00X186.292Y-81.582
M15
G01X186.892Y-81.582
M16
G05
G00X186.292Y-89.842
M15
G01X186.892Y-89.842
M16
G05
G00X192.242Y-81.222
M15
G01X192.842Y-81.222
M16
G05
G00X192.242Y-90.202
M15
G01X192.842Y-90.202
M16
G05
M30
