M48
; DRILL file {KiCad 9.0.0} date 2026-02-17T16:35:13+0200
; FORMAT={-:-/ absolute / metric / decimal}
; #@! TF.CreationDate,2026-02-17T16:35:13+02:00
; #@! TF.GenerationSoftware,Kicad,Pcbnew,9.0.0
; #@! TF.FileFunction,Plated,1,2,PTH
FMAT,2
METRIC
; #@! TA.AperFunction,Plated,PTH,ViaDrill
T1C0.500
; #@! TA.AperFunction,Plated,PTH,ComponentDrill
T2C0.800
; #@! TA.AperFunction,Plated,PTH,ComponentDrill
T3C0.889
; #@! TA.AperFunction,Plated,PTH,ComponentDrill
T4C0.900
; #@! TA.AperFunction,Plated,PTH,ComponentDrill
T5C1.000
; #@! TA.AperFunction,Plated,PTH,ComponentDrill
T6C1.100
; #@! TA.AperFunction,Plated,PTH,ComponentDrill
T7C1.397
; #@! TA.AperFunction,Plated,PTH,ComponentDrill
T8C2.000
; #@! TA.AperFunction,Plated,PTH,ComponentDrill
T9C3.200
%
G90
G05
T1
X113.77Y-110.969
X117.631Y-108.378
X117.682Y-114.626
X117.704Y-111.201
X118.331Y-56.956
X121.557Y-55.99
X123.626Y-116.1
X126.254Y-111.362
X129.286Y-102.921
X132.906Y-61.686
X137.712Y-98.421
X139.299Y-101.24
X140.125Y-69.071
X140.462Y-70.358
X141.826Y-56.956
X145.406Y-60.686
X146.348Y-27.39
X147.066Y-66.636
X147.193Y-70.7
X147.193Y-73.152
X147.701Y-62.738
X147.719Y-60.562
X149.406Y-59.817
X149.446Y-55.686
X150.749Y-64.262
X151.021Y-58.784
X151.257Y-68.326
X151.511Y-85.344
X151.834Y-58.226
X152.85Y-76.158
X153.125Y-59.272
X153.256Y-28.448
X154.222Y-26.933
X154.309Y-29.282
X155.071Y-75.955
X156.718Y-55.499
X156.812Y-81.543
X157.306Y-70.735
X157.778Y-56.651
X157.861Y-80.222
X158.242Y-75.565
X158.474Y-28.571
X158.489Y-25.612
X158.489Y-57.921
X159.004Y-65.786
X159.846Y-77.746
X160.913Y-72.208
X161.588Y-103.488
X162.197Y-56.702
X163.112Y-57.87
X164.839Y-61.731
X167.005Y-66.167
X168.736Y-73.377
X169.808Y-28.152
X172.902Y-27.149
X178.387Y-31.111
X182.909Y-39.544
X188.06Y-41.085
T2
X107.486Y-33.613
X107.486Y-51.647
X110.026Y-33.613
X110.026Y-51.647
X112.566Y-33.613
X112.566Y-51.647
X115.106Y-33.613
X115.106Y-51.647
X117.646Y-33.613
X117.646Y-51.647
X120.186Y-33.613
X120.186Y-51.647
X122.726Y-33.613
X122.726Y-51.647
X125.266Y-33.613
X125.266Y-51.647
T3
X143.808Y-101.24
X143.808Y-103.78
X143.808Y-106.32
X151.428Y-113.941
X153.968Y-113.941
X156.508Y-113.941
T4
X150.793Y-91.081
X150.793Y-96.16
X157.143Y-91.081
X157.143Y-96.16
T5
X106.571Y-66.826
X106.571Y-69.366
X106.571Y-71.906
X106.571Y-74.446
X106.571Y-76.986
X106.571Y-79.526
X106.629Y-57.607
X106.629Y-60.147
X106.629Y-62.687
X106.832Y-83.261
X106.832Y-85.801
X106.832Y-88.341
X106.832Y-90.881
X106.832Y-93.421
X108.935Y-25.883
X111.475Y-25.883
X115.444Y-118.02
X116.829Y-120.86
X118.214Y-118.02
X119.599Y-120.86
X120.984Y-118.02
X122.369Y-120.86
X123.754Y-118.02
X125.139Y-120.86
X126.524Y-118.02
X149.446Y-31.486
X151.986Y-31.486
X154.526Y-31.486
X157.066Y-31.486
X170.891Y-84.938
X173.431Y-84.938
X175.971Y-84.938
X178.511Y-84.938
X181.051Y-84.938
X194.158Y-56.475
X194.158Y-59.015
X194.158Y-61.555
X194.158Y-80.406
X194.158Y-82.946
X194.158Y-85.486
X194.158Y-88.026
X194.208Y-65.435
X194.208Y-67.975
X194.259Y-71.664
X194.259Y-74.204
X194.259Y-76.744
T6
X138.37Y-66.48
X138.37Y-72.98
X142.87Y-66.48
X142.87Y-72.98
T7
X146.348Y-97.113
X146.348Y-110.448
X161.588Y-97.113
X161.588Y-110.448
T8
X142.256Y-31.986
X142.256Y-53.986
X164.256Y-31.986
X164.256Y-53.986
T9
X108.484Y-119.44
X133.484Y-119.44
T5
G00X182.468Y-50.225
M15
G01X182.468Y-48.225
M16
G05
G00X186.468Y-44.525
M15
G01X184.468Y-44.525
M16
G05
G00X188.468Y-50.225
M15
G01X188.468Y-48.225
M16
G05
M30
