  0
SECTION
  2
HEADER
  9
$ANGBASE
  50
0.0
  9
$ANGDIR
  70
1
  9
$MEASUREMENT
  70
0
  0
ENDSEC
  0
SECTION
  2
TABLES
  0
TABLE
  2
LTYPE
  70
4
  0
LTYPE
  5
40F
  2
CONTINUOUS
  70
0
  3
Solid line
  72
65
  73
0
  40
0.0
  0
LTYPE
  5
410
  2
DASHDOT
 70
0
  3
Dash Dot ____ _ ____ _
 72
65
 73
4
 40
2.0
 49
1.25
 49
-0.25
 49
0.25
 49
-0.25
  0
LTYPE
  5
411
  2
DASHED
 70
0
  3
Dashed __ __ __ __ __
 72
65
 73
2
 40
0.75
 49
0.5
 49
-0.25
  0
LTYPE
  5
43B
  2
DOTTED
 70
0
  3
Dotted .  .  .  .
 72
65
 73
2
 40
0.2
 49
0.0
 49
-0.2
  0
ENDTAB
  0
TABLE
  2
STYLE
  70
4
  0
STYLE
  2
KICAD
  70
0
  40
0
  41
1
  42
1
  50
0
  71
0
  3
isocp.shx
  0
STYLE
  2
KICADB
  70
0
  40
0
  41
1
  42
1
  50
0
  71
0
  3
isocp.shx
  0
STYLE
  2
KICADI
  70
0
  40
0
  41
1
  42
1
  50
15
  71
0
  3
isocp.shx
  0
STYLE
  2
KICADBI
  70
0
  40
0
  41
1
  42
1
  50
15
  71
0
  3
isocp.shx
  0
ENDTAB
  0
TABLE
  2
LAYER
  70
1
  0
LAYER
  2
BLACK
  70
0
  62
7
  6
CONTINUOUS
  0
ENDTAB
  0
ENDSEC
  0
SECTION
  2
ENTITIES
0
LINE
8
BLACK
6
CONTINUOUS
10
7.8003766535433066
20
-0.8530906692913386
11
7.8009093307086612
21
-0.8536233464566929
0
LINE
8
BLACK
6
CONTINUOUS
10
7.8009093307086612
20
-0.8536233464566929
11
7.8009842519685035
21
-0.854
0
LINE
8
BLACK
6
CONTINUOUS
10
7.8009842519685035
20
-0.854
11
7.8009842519685035
21
-5.3879999999999999
0
LINE
8
BLACK
6
CONTINUOUS
10
7.8009842519685035
20
-5.3879999999999999
11
7.8009093307086612
21
-5.3883766535433066
0
LINE
8
BLACK
6
CONTINUOUS
10
7.8009093307086612
20
-5.3883766535433066
11
7.8003766535433066
21
-5.3889093307086613
0
LINE
8
BLACK
6
CONTINUOUS
10
7.8003766535433066
20
-5.3889093307086613
11
7.7999999999999998
21
-5.3889842519685036
0
LINE
8
BLACK
6
CONTINUOUS
10
7.7999999999999998
20
-5.3889842519685036
11
4.016
21
-5.3889842519685036
0
LINE
8
BLACK
6
CONTINUOUS
10
4.016
20
-5.3889842519685036
11
4.0156233464566924
21
-5.3889093307086613
0
LINE
8
BLACK
6
CONTINUOUS
10
4.0156233464566924
20
-5.3889093307086613
11
4.0150906692913386
21
-5.3883766535433066
0
LINE
8
BLACK
6
CONTINUOUS
10
4.0150906692913386
20
-5.3883766535433066
11
4.0150157480314963
21
-5.3879999999999999
0
LINE
8
BLACK
6
CONTINUOUS
10
4.0150157480314963
20
-5.3879999999999999
11
4.0150157480314963
21
-0.854
0
LINE
8
BLACK
6
CONTINUOUS
10
4.0150157480314963
20
-0.854
11
4.0150906692913386
21
-0.8536233464566929
0
LINE
8
BLACK
6
CONTINUOUS
10
4.0150906692913386
20
-0.8536233464566929
11
4.0156233464566924
21
-0.8530906692913386
0
LINE
8
BLACK
6
CONTINUOUS
10
4.0156233464566924
20
-0.8530906692913386
11
4.016
21
-0.853015748031496
0
LINE
8
BLACK
6
CONTINUOUS
10
4.016
20
-0.853015748031496
11
7.7999999999999998
21
-0.853015748031496
0
LINE
8
BLACK
6
CONTINUOUS
10
7.7999999999999998
20
-0.853015748031496
11
7.8003766535433066
21
-0.8530906692913386
0
LINE
8
BLACK
6
CONTINUOUS
10
4.0169842519685037
20
-0.8549842519685039
11
4.0169842519685037
21
-5.3870157480314962
0
LINE
8
BLACK
6
CONTINUOUS
10
4.0169842519685037
20
-5.3870157480314962
11
7.7990157480314961
21
-5.3870157480314962
0
LINE
8
BLACK
6
CONTINUOUS
10
7.7990157480314961
20
-5.3870157480314962
11
7.7990157480314961
21
-0.8549842519685039
0
LINE
8
BLACK
6
CONTINUOUS
10
7.7990157480314961
20
-0.8549842519685039
11
4.0169842519685037
21
-0.8549842519685039
  0
ENDSEC
  0
EOF
