  0
SECTION
  2
HEADER
  9
$ANGBASE
  50
0.0
  9
$ANGDIR
  70
1
  9
$MEASUREMENT
  70
0
  0
ENDSEC
  0
SECTION
  2
TABLES
  0
TABLE
  2
LTYPE
  70
4
  0
LTYPE
  5
40F
  2
CONTINUOUS
  70
0
  3
Solid line
  72
65
  73
0
  40
0.0
  0
LTYPE
  5
410
  2
DASHDOT
 70
0
  3
Dash Dot ____ _ ____ _
 72
65
 73
4
 40
2.0
 49
1.25
 49
-0.25
 49
0.25
 49
-0.25
  0
LTYPE
  5
411
  2
DASHED
 70
0
  3
Dashed __ __ __ __ __
 72
65
 73
2
 40
0.75
 49
0.5
 49
-0.25
  0
LTYPE
  5
43B
  2
DOTTED
 70
0
  3
Dotted .  .  .  .
 72
65
 73
2
 40
0.2
 49
0.0
 49
-0.2
  0
ENDTAB
  0
TABLE
  2
STYLE
  70
4
  0
STYLE
  2
KICAD
  70
0
  40
0
  41
1
  42
1
  50
0
  71
0
  3
isocp.shx
  0
STYLE
  2
KICADB
  70
0
  40
0
  41
1
  42
1
  50
0
  71
0
  3
isocp.shx
  0
STYLE
  2
KICADI
  70
0
  40
0
  41
1
  42
1
  50
15
  71
0
  3
isocp.shx
  0
STYLE
  2
KICADBI
  70
0
  40
0
  41
1
  42
1
  50
15
  71
0
  3
isocp.shx
  0
ENDTAB
  0
TABLE
  2
LAYER
  70
1
  0
LAYER
  2
BLACK
  70
0
  62
7
  6
CONTINUOUS
  0
ENDTAB
  0
ENDSEC
  0
SECTION
  2
ENTITIES
0
LINE
8
BLACK
6
CONTINUOUS
10
5.4237993700787399
20
-5.4429656299212601
11
5.4266731889763777
21
-5.4448858661417319
0
LINE
8
BLACK
6
CONTINUOUS
10
5.4266731889763777
20
-5.4448858661417319
11
5.4285934251968504
21
-5.4477596850393697
0
LINE
8
BLACK
6
CONTINUOUS
10
5.4285934251968504
20
-5.4477596850393697
11
5.4292677165354331
21
-5.4511496062992126
0
LINE
8
BLACK
6
CONTINUOUS
10
5.4292677165354331
20
-5.4511496062992126
11
5.4292677165354331
21
-5.468866141732283
0
LINE
8
BLACK
6
CONTINUOUS
10
5.4292677165354331
20
-5.468866141732283
11
5.4285934251968504
21
-5.472256062992126
0
LINE
8
BLACK
6
CONTINUOUS
10
5.4285934251968504
20
-5.472256062992126
11
5.4266731889763777
21
-5.4751298818897638
0
LINE
8
BLACK
6
CONTINUOUS
10
5.4266731889763777
20
-5.4751298818897638
11
5.4237993700787399
21
-5.4770501181102365
0
LINE
8
BLACK
6
CONTINUOUS
10
5.4237993700787399
20
-5.4770501181102365
11
5.4204094488188979
21
-5.4777244094488191
0
LINE
8
BLACK
6
CONTINUOUS
10
5.4204094488188979
20
-5.4777244094488191
11
5.4007244094488192
21
-5.4777244094488191
0
LINE
8
BLACK
6
CONTINUOUS
10
5.4007244094488192
20
-5.4777244094488191
11
5.3973344881889762
21
-5.4770501181102365
0
LINE
8
BLACK
6
CONTINUOUS
10
5.3973344881889762
20
-5.4770501181102365
11
5.3944606692913384
21
-5.4751298818897638
0
LINE
8
BLACK
6
CONTINUOUS
10
5.3944606692913384
20
-5.4751298818897638
11
5.3925404330708657
21
-5.472256062992126
0
LINE
8
BLACK
6
CONTINUOUS
10
5.3925404330708657
20
-5.472256062992126
11
5.3918661417322831
21
-5.468866141732283
0
LINE
8
BLACK
6
CONTINUOUS
10
5.3918661417322831
20
-5.468866141732283
11
5.3918661417322831
21
-5.4511496062992126
0
LINE
8
BLACK
6
CONTINUOUS
10
5.3918661417322831
20
-5.4511496062992126
11
5.3925404330708657
21
-5.4477596850393697
0
LINE
8
BLACK
6
CONTINUOUS
10
5.3925404330708657
20
-5.4477596850393697
11
5.3944606692913384
21
-5.4448858661417319
0
LINE
8
BLACK
6
CONTINUOUS
10
5.3944606692913384
20
-5.4448858661417319
11
5.3973344881889762
21
-5.4429656299212601
0
LINE
8
BLACK
6
CONTINUOUS
10
5.3973344881889762
20
-5.4429656299212601
11
5.4007244094488192
21
-5.4422913385826774
0
LINE
8
BLACK
6
CONTINUOUS
10
5.4007244094488192
20
-5.4422913385826774
11
5.4204094488188979
21
-5.4422913385826774
0
LINE
8
BLACK
6
CONTINUOUS
10
5.4204094488188979
20
-5.4422913385826774
11
5.4237993700787399
21
-5.4429656299212601
0
LINE
8
BLACK
6
CONTINUOUS
10
5.4237993700787399
20
-5.3819420078740157
11
5.4266731889763777
21
-5.3838622440944883
0
LINE
8
BLACK
6
CONTINUOUS
10
5.4266731889763777
20
-5.3838622440944883
11
5.4285934251968504
21
-5.3867360629921262
0
LINE
8
BLACK
6
CONTINUOUS
10
5.4285934251968504
20
-5.3867360629921262
11
5.4292677165354331
21
-5.3901259842519682
0
LINE
8
BLACK
6
CONTINUOUS
10
5.4292677165354331
20
-5.3901259842519682
11
5.4292677165354331
21
-5.4078425196850395
0
LINE
8
BLACK
6
CONTINUOUS
10
5.4292677165354331
20
-5.4078425196850395
11
5.4285934251968504
21
-5.4112324409448815
0
LINE
8
BLACK
6
CONTINUOUS
10
5.4285934251968504
20
-5.4112324409448815
11
5.4266731889763777
21
-5.4141062598425194
0
LINE
8
BLACK
6
CONTINUOUS
10
5.4266731889763777
20
-5.4141062598425194
11
5.4237993700787399
21
-5.416026496062992
0
LINE
8
BLACK
6
CONTINUOUS
10
5.4237993700787399
20
-5.416026496062992
11
5.4204094488188979
21
-5.4167007874015747
0
LINE
8
BLACK
6
CONTINUOUS
10
5.4204094488188979
20
-5.4167007874015747
11
5.4007244094488192
21
-5.4167007874015747
0
LINE
8
BLACK
6
CONTINUOUS
10
5.4007244094488192
20
-5.4167007874015747
11
5.3973344881889762
21
-5.416026496062992
0
LINE
8
BLACK
6
CONTINUOUS
10
5.3973344881889762
20
-5.416026496062992
11
5.3944606692913384
21
-5.4141062598425194
0
LINE
8
BLACK
6
CONTINUOUS
10
5.3944606692913384
20
-5.4141062598425194
11
5.3925404330708657
21
-5.4112324409448815
0
LINE
8
BLACK
6
CONTINUOUS
10
5.3925404330708657
20
-5.4112324409448815
11
5.3918661417322831
21
-5.4078425196850395
0
LINE
8
BLACK
6
CONTINUOUS
10
5.3918661417322831
20
-5.4078425196850395
11
5.3918661417322831
21
-5.3901259842519682
0
LINE
8
BLACK
6
CONTINUOUS
10
5.3918661417322831
20
-5.3901259842519682
11
5.3925404330708657
21
-5.3867360629921262
0
LINE
8
BLACK
6
CONTINUOUS
10
5.3925404330708657
20
-5.3867360629921262
11
5.3944606692913384
21
-5.3838622440944883
0
LINE
8
BLACK
6
CONTINUOUS
10
5.3944606692913384
20
-5.3838622440944883
11
5.3973344881889762
21
-5.3819420078740157
0
LINE
8
BLACK
6
CONTINUOUS
10
5.3973344881889762
20
-5.3819420078740157
11
5.4007244094488192
21
-5.381267716535433
0
LINE
8
BLACK
6
CONTINUOUS
10
5.4007244094488192
20
-5.381267716535433
11
5.4204094488188979
21
-5.381267716535433
0
LINE
8
BLACK
6
CONTINUOUS
10
5.4204094488188979
20
-5.381267716535433
11
5.4237993700787399
21
-5.3819420078740157
0
LINE
8
BLACK
6
CONTINUOUS
10
5.940454212598425
20
-4.8758946456692911
11
5.9430087007874013
21
-4.8776015354330706
0
LINE
8
BLACK
6
CONTINUOUS
10
5.9430087007874013
20
-4.8776015354330706
11
5.9447155905511808
21
-4.8801560236220469
0
LINE
8
BLACK
6
CONTINUOUS
10
5.9447155905511808
20
-4.8801560236220469
11
5.9453149606299212
21
-4.8831692913385822
0
LINE
8
BLACK
6
CONTINUOUS
10
5.9453149606299212
20
-4.8831692913385822
11
5.9453149606299212
21
-4.9048228346456693
0
LINE
8
BLACK
6
CONTINUOUS
10
5.9453149606299212
20
-4.9048228346456693
11
5.9447155905511808
21
-4.9078361023622046
0
LINE
8
BLACK
6
CONTINUOUS
10
5.9447155905511808
20
-4.9078361023622046
11
5.9430087007874013
21
-4.9103905905511809
0
LINE
8
BLACK
6
CONTINUOUS
10
5.9430087007874013
20
-4.9103905905511809
11
5.940454212598425
21
-4.9120974803149604
0
LINE
8
BLACK
6
CONTINUOUS
10
5.940454212598425
20
-4.9120974803149604
11
5.9374409448818897
21
-4.9126968503937007
0
LINE
8
BLACK
6
CONTINUOUS
10
5.9374409448818897
20
-4.9126968503937007
11
5.9216929133858267
21
-4.9126968503937007
0
LINE
8
BLACK
6
CONTINUOUS
10
5.9216929133858267
20
-4.9126968503937007
11
5.9186796456692914
21
-4.9120974803149604
0
LINE
8
BLACK
6
CONTINUOUS
10
5.9186796456692914
20
-4.9120974803149604
11
5.9161251574803151
21
-4.9103905905511809
0
LINE
8
BLACK
6
CONTINUOUS
10
5.9161251574803151
20
-4.9103905905511809
11
5.9144182677165356
21
-4.9078361023622046
0
LINE
8
BLACK
6
CONTINUOUS
10
5.9144182677165356
20
-4.9078361023622046
11
5.9138188976377952
21
-4.9048228346456693
0
LINE
8
BLACK
6
CONTINUOUS
10
5.9138188976377952
20
-4.9048228346456693
11
5.9138188976377952
21
-4.8831692913385822
0
LINE
8
BLACK
6
CONTINUOUS
10
5.9138188976377952
20
-4.8831692913385822
11
5.9144182677165356
21
-4.8801560236220469
0
LINE
8
BLACK
6
CONTINUOUS
10
5.9144182677165356
20
-4.8801560236220469
11
5.9161251574803151
21
-4.8776015354330706
0
LINE
8
BLACK
6
CONTINUOUS
10
5.9161251574803151
20
-4.8776015354330706
11
5.9186796456692914
21
-4.8758946456692911
0
LINE
8
BLACK
6
CONTINUOUS
10
5.9186796456692914
20
-4.8758946456692911
11
5.9216929133858267
21
-4.8752952755905508
0
LINE
8
BLACK
6
CONTINUOUS
10
5.9216929133858267
20
-4.8752952755905508
11
5.9374409448818897
21
-4.8752952755905508
0
LINE
8
BLACK
6
CONTINUOUS
10
5.9374409448818897
20
-4.8752952755905508
11
5.940454212598425
21
-4.8758946456692911
0
LINE
8
BLACK
6
CONTINUOUS
10
6.0054148425196852
20
-4.8758946456692911
11
6.0079693307086615
21
-4.8776015354330706
0
LINE
8
BLACK
6
CONTINUOUS
10
6.0079693307086615
20
-4.8776015354330706
11
6.009676220472441
21
-4.8801560236220469
0
LINE
8
BLACK
6
CONTINUOUS
10
6.009676220472441
20
-4.8801560236220469
11
6.0102755905511813
21
-4.8831692913385822
0
LINE
8
BLACK
6
CONTINUOUS
10
6.0102755905511813
20
-4.8831692913385822
11
6.0102755905511813
21
-4.9048228346456693
0
LINE
8
BLACK
6
CONTINUOUS
10
6.0102755905511813
20
-4.9048228346456693
11
6.009676220472441
21
-4.9078361023622046
0
LINE
8
BLACK
6
CONTINUOUS
10
6.009676220472441
20
-4.9078361023622046
11
6.0079693307086615
21
-4.9103905905511809
0
LINE
8
BLACK
6
CONTINUOUS
10
6.0079693307086615
20
-4.9103905905511809
11
6.0054148425196852
21
-4.9120974803149604
0
LINE
8
BLACK
6
CONTINUOUS
10
6.0054148425196852
20
-4.9120974803149604
11
6.0024015748031498
21
-4.9126968503937007
0
LINE
8
BLACK
6
CONTINUOUS
10
6.0024015748031498
20
-4.9126968503937007
11
5.9866535433070869
21
-4.9126968503937007
0
LINE
8
BLACK
6
CONTINUOUS
10
5.9866535433070869
20
-4.9126968503937007
11
5.9836402755905507
21
-4.9120974803149604
0
LINE
8
BLACK
6
CONTINUOUS
10
5.9836402755905507
20
-4.9120974803149604
11
5.9810857874015744
21
-4.9103905905511809
0
LINE
8
BLACK
6
CONTINUOUS
10
5.9810857874015744
20
-4.9103905905511809
11
5.9793788976377948
21
-4.9078361023622046
0
LINE
8
BLACK
6
CONTINUOUS
10
5.9793788976377948
20
-4.9078361023622046
11
5.9787795275590554
21
-4.9048228346456693
0
LINE
8
BLACK
6
CONTINUOUS
10
5.9787795275590554
20
-4.9048228346456693
11
5.9787795275590554
21
-4.8831692913385822
0
LINE
8
BLACK
6
CONTINUOUS
10
5.9787795275590554
20
-4.8831692913385822
11
5.9793788976377948
21
-4.8801560236220469
0
LINE
8
BLACK
6
CONTINUOUS
10
5.9793788976377948
20
-4.8801560236220469
11
5.9810857874015744
21
-4.8776015354330706
0
LINE
8
BLACK
6
CONTINUOUS
10
5.9810857874015744
20
-4.8776015354330706
11
5.9836402755905507
21
-4.8758946456692911
0
LINE
8
BLACK
6
CONTINUOUS
10
5.9836402755905507
20
-4.8758946456692911
11
5.9866535433070869
21
-4.8752952755905508
0
LINE
8
BLACK
6
CONTINUOUS
10
5.9866535433070869
20
-4.8752952755905508
11
6.0024015748031498
21
-4.8752952755905508
0
LINE
8
BLACK
6
CONTINUOUS
10
6.0024015748031498
20
-4.8752952755905508
11
6.0054148425196852
21
-4.8758946456692911
0
LINE
8
BLACK
6
CONTINUOUS
10
5.9473464566929133
20
-4.3539370078740154
11
5.9256929133858263
21
-4.3539370078740154
0
LINE
8
BLACK
6
CONTINUOUS
10
5.9256929133858263
20
-4.3539370078740154
11
5.9256929133858263
21
-4.2948818897637793
0
LINE
8
BLACK
6
CONTINUOUS
10
5.9256929133858263
20
-4.2948818897637793
11
5.9473464566929133
21
-4.2948818897637793
0
LINE
8
BLACK
6
CONTINUOUS
10
5.9473464566929133
20
-4.2948818897637793
11
5.9473464566929133
21
-4.3539370078740154
0
LINE
8
BLACK
6
CONTINUOUS
10
5.9788425196850392
20
-4.3539370078740154
11
5.9571889763779522
21
-4.3539370078740154
0
LINE
8
BLACK
6
CONTINUOUS
10
5.9571889763779522
20
-4.3539370078740154
11
5.9571889763779522
21
-4.2948818897637793
0
LINE
8
BLACK
6
CONTINUOUS
10
5.9571889763779522
20
-4.2948818897637793
11
5.9788425196850392
21
-4.2948818897637793
0
LINE
8
BLACK
6
CONTINUOUS
10
5.9788425196850392
20
-4.2948818897637793
11
5.9788425196850392
21
-4.3539370078740154
0
LINE
8
BLACK
6
CONTINUOUS
10
6.0103385826771651
20
-4.3539370078740154
11
5.988685039370079
21
-4.3539370078740154
0
LINE
8
BLACK
6
CONTINUOUS
10
5.988685039370079
20
-4.3539370078740154
11
5.988685039370079
21
-4.2948818897637793
0
LINE
8
BLACK
6
CONTINUOUS
10
5.988685039370079
20
-4.2948818897637793
11
6.0103385826771651
21
-4.2948818897637793
0
LINE
8
BLACK
6
CONTINUOUS
10
6.0103385826771651
20
-4.2948818897637793
11
6.0103385826771651
21
-4.3539370078740154
0
LINE
8
BLACK
6
CONTINUOUS
10
6.0418346456692911
20
-4.3539370078740154
11
6.0201811023622049
21
-4.3539370078740154
0
LINE
8
BLACK
6
CONTINUOUS
10
6.0201811023622049
20
-4.3539370078740154
11
6.0201811023622049
21
-4.2948818897637793
0
LINE
8
BLACK
6
CONTINUOUS
10
6.0201811023622049
20
-4.2948818897637793
11
6.0418346456692911
21
-4.2948818897637793
0
LINE
8
BLACK
6
CONTINUOUS
10
6.0418346456692911
20
-4.2948818897637793
11
6.0418346456692911
21
-4.3539370078740154
0
LINE
8
BLACK
6
CONTINUOUS
10
6.073330708661417
20
-4.3539370078740154
11
6.0516771653543309
21
-4.3539370078740154
0
LINE
8
BLACK
6
CONTINUOUS
10
6.0516771653543309
20
-4.3539370078740154
11
6.0516771653543309
21
-4.2948818897637793
0
LINE
8
BLACK
6
CONTINUOUS
10
6.0516771653543309
20
-4.2948818897637793
11
6.073330708661417
21
-4.2948818897637793
0
LINE
8
BLACK
6
CONTINUOUS
10
6.073330708661417
20
-4.2948818897637793
11
6.073330708661417
21
-4.3539370078740154
0
LINE
8
BLACK
6
CONTINUOUS
10
6.1048267716535429
20
-4.3539370078740154
11
6.0831732283464568
21
-4.3539370078740154
0
LINE
8
BLACK
6
CONTINUOUS
10
6.0831732283464568
20
-4.3539370078740154
11
6.0831732283464568
21
-4.2948818897637793
0
LINE
8
BLACK
6
CONTINUOUS
10
6.0831732283464568
20
-4.2948818897637793
11
6.1048267716535429
21
-4.2948818897637793
0
LINE
8
BLACK
6
CONTINUOUS
10
6.1048267716535429
20
-4.2948818897637793
11
6.1048267716535429
21
-4.3539370078740154
0
LINE
8
BLACK
6
CONTINUOUS
10
6.1363228346456689
20
-4.3539370078740154
11
6.1146692913385827
21
-4.3539370078740154
0
LINE
8
BLACK
6
CONTINUOUS
10
6.1146692913385827
20
-4.3539370078740154
11
6.1146692913385827
21
-4.2948818897637793
0
LINE
8
BLACK
6
CONTINUOUS
10
6.1146692913385827
20
-4.2948818897637793
11
6.1363228346456689
21
-4.2948818897637793
0
LINE
8
BLACK
6
CONTINUOUS
10
6.1363228346456689
20
-4.2948818897637793
11
6.1363228346456689
21
-4.3539370078740154
0
LINE
8
BLACK
6
CONTINUOUS
10
6.1678188976377948
20
-4.3539370078740154
11
6.1461653543307087
21
-4.3539370078740154
0
LINE
8
BLACK
6
CONTINUOUS
10
6.1461653543307087
20
-4.3539370078740154
11
6.1461653543307087
21
-4.2948818897637793
0
LINE
8
BLACK
6
CONTINUOUS
10
6.1461653543307087
20
-4.2948818897637793
11
6.1678188976377948
21
-4.2948818897637793
0
LINE
8
BLACK
6
CONTINUOUS
10
6.1678188976377948
20
-4.2948818897637793
11
6.1678188976377948
21
-4.3539370078740154
0
LINE
8
BLACK
6
CONTINUOUS
10
6.1993149606299207
20
-4.3539370078740154
11
6.1776614173228346
21
-4.3539370078740154
0
LINE
8
BLACK
6
CONTINUOUS
10
6.1776614173228346
20
-4.3539370078740154
11
6.1776614173228346
21
-4.2948818897637793
0
LINE
8
BLACK
6
CONTINUOUS
10
6.1776614173228346
20
-4.2948818897637793
11
6.1993149606299207
21
-4.2948818897637793
0
LINE
8
BLACK
6
CONTINUOUS
10
6.1993149606299207
20
-4.2948818897637793
11
6.1993149606299207
21
-4.3539370078740154
0
LINE
8
BLACK
6
CONTINUOUS
10
6.2308110236220475
20
-4.3539370078740154
11
6.2091574803149605
21
-4.3539370078740154
0
LINE
8
BLACK
6
CONTINUOUS
10
6.2091574803149605
20
-4.3539370078740154
11
6.2091574803149605
21
-4.2948818897637793
0
LINE
8
BLACK
6
CONTINUOUS
10
6.2091574803149605
20
-4.2948818897637793
11
6.2308110236220475
21
-4.2948818897637793
0
LINE
8
BLACK
6
CONTINUOUS
10
6.2308110236220475
20
-4.2948818897637793
11
6.2308110236220475
21
-4.3539370078740154
0
LINE
8
BLACK
6
CONTINUOUS
10
6.2623070866141735
20
-4.3539370078740154
11
6.2406535433070864
21
-4.3539370078740154
0
LINE
8
BLACK
6
CONTINUOUS
10
6.2406535433070864
20
-4.3539370078740154
11
6.2406535433070864
21
-4.2948818897637793
0
LINE
8
BLACK
6
CONTINUOUS
10
6.2406535433070864
20
-4.2948818897637793
11
6.2623070866141735
21
-4.2948818897637793
0
LINE
8
BLACK
6
CONTINUOUS
10
6.2623070866141735
20
-4.2948818897637793
11
6.2623070866141735
21
-4.3539370078740154
0
LINE
8
BLACK
6
CONTINUOUS
10
5.8991181102362207
20
-4.2683070866141728
11
5.8400629921259837
21
-4.2683070866141728
0
LINE
8
BLACK
6
CONTINUOUS
10
5.8400629921259837
20
-4.2683070866141728
11
5.8400629921259837
21
-4.2466535433070867
0
LINE
8
BLACK
6
CONTINUOUS
10
5.8400629921259837
20
-4.2466535433070867
11
5.8991181102362207
21
-4.2466535433070867
0
LINE
8
BLACK
6
CONTINUOUS
10
5.8991181102362207
20
-4.2466535433070867
11
5.8991181102362207
21
-4.2683070866141728
0
LINE
8
BLACK
6
CONTINUOUS
10
6.347937007874016
20
-4.2683070866141728
11
6.288881889763779
21
-4.2683070866141728
0
LINE
8
BLACK
6
CONTINUOUS
10
6.288881889763779
20
-4.2683070866141728
11
6.288881889763779
21
-4.2466535433070867
0
LINE
8
BLACK
6
CONTINUOUS
10
6.288881889763779
20
-4.2466535433070867
11
6.347937007874016
21
-4.2466535433070867
0
LINE
8
BLACK
6
CONTINUOUS
10
6.347937007874016
20
-4.2466535433070867
11
6.347937007874016
21
-4.2683070866141728
0
LINE
8
BLACK
6
CONTINUOUS
10
5.8991181102362207
20
-4.2368110236220469
11
5.8400629921259837
21
-4.2368110236220469
0
LINE
8
BLACK
6
CONTINUOUS
10
5.8400629921259837
20
-4.2368110236220469
11
5.8400629921259837
21
-4.2151574803149607
0
LINE
8
BLACK
6
CONTINUOUS
10
5.8400629921259837
20
-4.2151574803149607
11
5.8991181102362207
21
-4.2151574803149607
0
LINE
8
BLACK
6
CONTINUOUS
10
5.8991181102362207
20
-4.2151574803149607
11
5.8991181102362207
21
-4.2368110236220469
0
LINE
8
BLACK
6
CONTINUOUS
10
6.347937007874016
20
-4.2368110236220469
11
6.288881889763779
21
-4.2368110236220469
0
LINE
8
BLACK
6
CONTINUOUS
10
6.288881889763779
20
-4.2368110236220469
11
6.288881889763779
21
-4.2151574803149607
0
LINE
8
BLACK
6
CONTINUOUS
10
6.288881889763779
20
-4.2151574803149607
11
6.347937007874016
21
-4.2151574803149607
0
LINE
8
BLACK
6
CONTINUOUS
10
6.347937007874016
20
-4.2151574803149607
11
6.347937007874016
21
-4.2368110236220469
0
LINE
8
BLACK
6
CONTINUOUS
10
5.8991181102362207
20
-4.2053149606299209
11
5.8400629921259837
21
-4.2053149606299209
0
LINE
8
BLACK
6
CONTINUOUS
10
5.8400629921259837
20
-4.2053149606299209
11
5.8400629921259837
21
-4.1836614173228348
0
LINE
8
BLACK
6
CONTINUOUS
10
5.8400629921259837
20
-4.1836614173228348
11
5.8991181102362207
21
-4.1836614173228348
0
LINE
8
BLACK
6
CONTINUOUS
10
5.8991181102362207
20
-4.1836614173228348
11
5.8991181102362207
21
-4.2053149606299209
0
LINE
8
BLACK
6
CONTINUOUS
10
6.347937007874016
20
-4.2053149606299209
11
6.288881889763779
21
-4.2053149606299209
0
LINE
8
BLACK
6
CONTINUOUS
10
6.288881889763779
20
-4.2053149606299209
11
6.288881889763779
21
-4.1836614173228348
0
LINE
8
BLACK
6
CONTINUOUS
10
6.288881889763779
20
-4.1836614173228348
11
6.347937007874016
21
-4.1836614173228348
0
LINE
8
BLACK
6
CONTINUOUS
10
6.347937007874016
20
-4.1836614173228348
11
6.347937007874016
21
-4.2053149606299209
0
LINE
8
BLACK
6
CONTINUOUS
10
5.8991181102362207
20
-4.173818897637795
11
5.8400629921259837
21
-4.173818897637795
0
LINE
8
BLACK
6
CONTINUOUS
10
5.8400629921259837
20
-4.173818897637795
11
5.8400629921259837
21
-4.1521653543307089
0
LINE
8
BLACK
6
CONTINUOUS
10
5.8400629921259837
20
-4.1521653543307089
11
5.8991181102362207
21
-4.1521653543307089
0
LINE
8
BLACK
6
CONTINUOUS
10
5.8991181102362207
20
-4.1521653543307089
11
5.8991181102362207
21
-4.173818897637795
0
LINE
8
BLACK
6
CONTINUOUS
10
6.347937007874016
20
-4.173818897637795
11
6.288881889763779
21
-4.173818897637795
0
LINE
8
BLACK
6
CONTINUOUS
10
6.288881889763779
20
-4.173818897637795
11
6.288881889763779
21
-4.1521653543307089
0
LINE
8
BLACK
6
CONTINUOUS
10
6.288881889763779
20
-4.1521653543307089
11
6.347937007874016
21
-4.1521653543307089
0
LINE
8
BLACK
6
CONTINUOUS
10
6.347937007874016
20
-4.1521653543307089
11
6.347937007874016
21
-4.173818897637795
0
LINE
8
BLACK
6
CONTINUOUS
10
5.8991181102362207
20
-4.1423228346456691
11
5.8400629921259837
21
-4.1423228346456691
0
LINE
8
BLACK
6
CONTINUOUS
10
5.8400629921259837
20
-4.1423228346456691
11
5.8400629921259837
21
-4.120669291338583
0
LINE
8
BLACK
6
CONTINUOUS
10
5.8400629921259837
20
-4.120669291338583
11
5.8991181102362207
21
-4.120669291338583
0
LINE
8
BLACK
6
CONTINUOUS
10
5.8991181102362207
20
-4.120669291338583
11
5.8991181102362207
21
-4.1423228346456691
0
LINE
8
BLACK
6
CONTINUOUS
10
6.347937007874016
20
-4.1423228346456691
11
6.288881889763779
21
-4.1423228346456691
0
LINE
8
BLACK
6
CONTINUOUS
10
6.288881889763779
20
-4.1423228346456691
11
6.288881889763779
21
-4.120669291338583
0
LINE
8
BLACK
6
CONTINUOUS
10
6.288881889763779
20
-4.120669291338583
11
6.347937007874016
21
-4.120669291338583
0
LINE
8
BLACK
6
CONTINUOUS
10
6.347937007874016
20
-4.120669291338583
11
6.347937007874016
21
-4.1423228346456691
0
LINE
8
BLACK
6
CONTINUOUS
10
5.8991181102362207
20
-4.1108267716535432
11
5.8400629921259837
21
-4.1108267716535432
0
LINE
8
BLACK
6
CONTINUOUS
10
5.8400629921259837
20
-4.1108267716535432
11
5.8400629921259837
21
-4.089173228346457
0
LINE
8
BLACK
6
CONTINUOUS
10
5.8400629921259837
20
-4.089173228346457
11
5.8991181102362207
21
-4.089173228346457
0
LINE
8
BLACK
6
CONTINUOUS
10
5.8991181102362207
20
-4.089173228346457
11
5.8991181102362207
21
-4.1108267716535432
0
LINE
8
BLACK
6
CONTINUOUS
10
6.347937007874016
20
-4.1108267716535432
11
6.288881889763779
21
-4.1108267716535432
0
LINE
8
BLACK
6
CONTINUOUS
10
6.288881889763779
20
-4.1108267716535432
11
6.288881889763779
21
-4.089173228346457
0
LINE
8
BLACK
6
CONTINUOUS
10
6.288881889763779
20
-4.089173228346457
11
6.347937007874016
21
-4.089173228346457
0
LINE
8
BLACK
6
CONTINUOUS
10
6.347937007874016
20
-4.089173228346457
11
6.347937007874016
21
-4.1108267716535432
0
LINE
8
BLACK
6
CONTINUOUS
10
5.8991181102362207
20
-4.0793307086614172
11
5.8400629921259837
21
-4.0793307086614172
0
LINE
8
BLACK
6
CONTINUOUS
10
5.8400629921259837
20
-4.0793307086614172
11
5.8400629921259837
21
-4.0576771653543302
0
LINE
8
BLACK
6
CONTINUOUS
10
5.8400629921259837
20
-4.0576771653543302
11
5.8991181102362207
21
-4.0576771653543302
0
LINE
8
BLACK
6
CONTINUOUS
10
5.8991181102362207
20
-4.0576771653543302
11
5.8991181102362207
21
-4.0793307086614172
0
LINE
8
BLACK
6
CONTINUOUS
10
6.347937007874016
20
-4.0793307086614172
11
6.288881889763779
21
-4.0793307086614172
0
LINE
8
BLACK
6
CONTINUOUS
10
6.288881889763779
20
-4.0793307086614172
11
6.288881889763779
21
-4.0576771653543302
0
LINE
8
BLACK
6
CONTINUOUS
10
6.288881889763779
20
-4.0576771653543302
11
6.347937007874016
21
-4.0576771653543302
0
LINE
8
BLACK
6
CONTINUOUS
10
6.347937007874016
20
-4.0576771653543302
11
6.347937007874016
21
-4.0793307086614172
0
LINE
8
BLACK
6
CONTINUOUS
10
5.8991181102362207
20
-4.0478346456692913
11
5.8400629921259837
21
-4.0478346456692913
0
LINE
8
BLACK
6
CONTINUOUS
10
5.8400629921259837
20
-4.0478346456692913
11
5.8400629921259837
21
-4.0261811023622043
0
LINE
8
BLACK
6
CONTINUOUS
10
5.8400629921259837
20
-4.0261811023622043
11
5.8991181102362207
21
-4.0261811023622043
0
LINE
8
BLACK
6
CONTINUOUS
10
5.8991181102362207
20
-4.0261811023622043
11
5.8991181102362207
21
-4.0478346456692913
0
LINE
8
BLACK
6
CONTINUOUS
10
6.347937007874016
20
-4.0478346456692913
11
6.288881889763779
21
-4.0478346456692913
0
LINE
8
BLACK
6
CONTINUOUS
10
6.288881889763779
20
-4.0478346456692913
11
6.288881889763779
21
-4.0261811023622043
0
LINE
8
BLACK
6
CONTINUOUS
10
6.288881889763779
20
-4.0261811023622043
11
6.347937007874016
21
-4.0261811023622043
0
LINE
8
BLACK
6
CONTINUOUS
10
6.347937007874016
20
-4.0261811023622043
11
6.347937007874016
21
-4.0478346456692913
0
LINE
8
BLACK
6
CONTINUOUS
10
5.299910905511811
20
-3.9927411023622046
11
5.3024653937007873
21
-3.9944479921259841
0
LINE
8
BLACK
6
CONTINUOUS
10
5.3024653937007873
20
-3.9944479921259841
11
5.3041722834645668
21
-3.9970024803149604
0
LINE
8
BLACK
6
CONTINUOUS
10
5.3041722834645668
20
-3.9970024803149604
11
5.3047716535433072
21
-4.0000157480314957
0
LINE
8
BLACK
6
CONTINUOUS
10
5.3047716535433072
20
-4.0000157480314957
11
5.3047716535433072
21
-4.0157637795275587
0
LINE
8
BLACK
6
CONTINUOUS
10
5.3047716535433072
20
-4.0157637795275587
11
5.3041722834645668
21
-4.018777047244094
0
LINE
8
BLACK
6
CONTINUOUS
10
5.3041722834645668
20
-4.018777047244094
11
5.3024653937007873
21
-4.0213315354330712
0
LINE
8
BLACK
6
CONTINUOUS
10
5.3024653937007873
20
-4.0213315354330712
11
5.299910905511811
21
-4.0230384251968507
0
LINE
8
BLACK
6
CONTINUOUS
10
5.299910905511811
20
-4.0230384251968507
11
5.2968976377952757
21
-4.0236377952755902
0
LINE
8
BLACK
6
CONTINUOUS
10
5.2968976377952757
20
-4.0236377952755902
11
5.2752440944881887
21
-4.0236377952755902
0
LINE
8
BLACK
6
CONTINUOUS
10
5.2752440944881887
20
-4.0236377952755902
11
5.2722308267716533
21
-4.0230384251968507
0
LINE
8
BLACK
6
CONTINUOUS
10
5.2722308267716533
20
-4.0230384251968507
11
5.269676338582677
21
-4.0213315354330712
0
LINE
8
BLACK
6
CONTINUOUS
10
5.269676338582677
20
-4.0213315354330712
11
5.2679694488188975
21
-4.018777047244094
0
LINE
8
BLACK
6
CONTINUOUS
10
5.2679694488188975
20
-4.018777047244094
11
5.2673700787401572
21
-4.0157637795275587
0
LINE
8
BLACK
6
CONTINUOUS
10
5.2673700787401572
20
-4.0157637795275587
11
5.2673700787401572
21
-4.0000157480314957
0
LINE
8
BLACK
6
CONTINUOUS
10
5.2673700787401572
20
-4.0000157480314957
11
5.2679694488188975
21
-3.9970024803149604
0
LINE
8
BLACK
6
CONTINUOUS
10
5.2679694488188975
20
-3.9970024803149604
11
5.269676338582677
21
-3.9944479921259841
0
LINE
8
BLACK
6
CONTINUOUS
10
5.269676338582677
20
-3.9944479921259841
11
5.2722308267716533
21
-3.9927411023622046
0
LINE
8
BLACK
6
CONTINUOUS
10
5.2722308267716533
20
-3.9927411023622046
11
5.2752440944881887
21
-3.9921417322834647
0
LINE
8
BLACK
6
CONTINUOUS
10
5.2752440944881887
20
-3.9921417322834647
11
5.2968976377952757
21
-3.9921417322834647
0
LINE
8
BLACK
6
CONTINUOUS
10
5.2968976377952757
20
-3.9921417322834647
11
5.299910905511811
21
-3.9927411023622046
0
LINE
8
BLACK
6
CONTINUOUS
10
5.4499109055118113
20
-3.9927411023622046
11
5.4524653937007876
21
-3.9944479921259841
0
LINE
8
BLACK
6
CONTINUOUS
10
5.4524653937007876
20
-3.9944479921259841
11
5.4541722834645672
21
-3.9970024803149604
0
LINE
8
BLACK
6
CONTINUOUS
10
5.4541722834645672
20
-3.9970024803149604
11
5.4547716535433066
21
-4.0000157480314957
0
LINE
8
BLACK
6
CONTINUOUS
10
5.4547716535433066
20
-4.0000157480314957
11
5.4547716535433066
21
-4.0157637795275587
0
LINE
8
BLACK
6
CONTINUOUS
10
5.4547716535433066
20
-4.0157637795275587
11
5.4541722834645672
21
-4.018777047244094
0
LINE
8
BLACK
6
CONTINUOUS
10
5.4541722834645672
20
-4.018777047244094
11
5.4524653937007876
21
-4.0213315354330712
0
LINE
8
BLACK
6
CONTINUOUS
10
5.4524653937007876
20
-4.0213315354330712
11
5.4499109055118113
21
-4.0230384251968507
0
LINE
8
BLACK
6
CONTINUOUS
10
5.4499109055118113
20
-4.0230384251968507
11
5.4468976377952751
21
-4.0236377952755902
0
LINE
8
BLACK
6
CONTINUOUS
10
5.4468976377952751
20
-4.0236377952755902
11
5.425244094488189
21
-4.0236377952755902
0
LINE
8
BLACK
6
CONTINUOUS
10
5.425244094488189
20
-4.0236377952755902
11
5.4222308267716537
21
-4.0230384251968507
0
LINE
8
BLACK
6
CONTINUOUS
10
5.4222308267716537
20
-4.0230384251968507
11
5.4196763385826774
21
-4.0213315354330712
0
LINE
8
BLACK
6
CONTINUOUS
10
5.4196763385826774
20
-4.0213315354330712
11
5.4179694488188979
21
-4.018777047244094
0
LINE
8
BLACK
6
CONTINUOUS
10
5.4179694488188979
20
-4.018777047244094
11
5.4173700787401575
21
-4.0157637795275587
0
LINE
8
BLACK
6
CONTINUOUS
10
5.4173700787401575
20
-4.0157637795275587
11
5.4173700787401575
21
-4.0000157480314957
0
LINE
8
BLACK
6
CONTINUOUS
10
5.4173700787401575
20
-4.0000157480314957
11
5.4179694488188979
21
-3.9970024803149604
0
LINE
8
BLACK
6
CONTINUOUS
10
5.4179694488188979
20
-3.9970024803149604
11
5.4196763385826774
21
-3.9944479921259841
0
LINE
8
BLACK
6
CONTINUOUS
10
5.4196763385826774
20
-3.9944479921259841
11
5.4222308267716537
21
-3.9927411023622046
0
LINE
8
BLACK
6
CONTINUOUS
10
5.4222308267716537
20
-3.9927411023622046
11
5.425244094488189
21
-3.9921417322834647
0
LINE
8
BLACK
6
CONTINUOUS
10
5.425244094488189
20
-3.9921417322834647
11
5.4468976377952751
21
-3.9921417322834647
0
LINE
8
BLACK
6
CONTINUOUS
10
5.4468976377952751
20
-3.9921417322834647
11
5.4499109055118113
21
-3.9927411023622046
0
LINE
8
BLACK
6
CONTINUOUS
10
5.6273033070866143
20
-3.9868790157480314
11
5.6301771259842521
21
-3.988799251968504
0
LINE
8
BLACK
6
CONTINUOUS
10
5.6301771259842521
20
-3.988799251968504
11
5.6320973622047239
21
-3.9916730708661414
0
LINE
8
BLACK
6
CONTINUOUS
10
5.6320973622047239
20
-3.9916730708661414
11
5.6327716535433066
21
-3.9950629921259844
0
LINE
8
BLACK
6
CONTINUOUS
10
5.6327716535433066
20
-3.9950629921259844
11
5.6327716535433066
21
-4.0127795275590552
0
LINE
8
BLACK
6
CONTINUOUS
10
5.6327716535433066
20
-4.0127795275590552
11
5.6320973622047239
21
-4.0161694488188973
0
LINE
8
BLACK
6
CONTINUOUS
10
5.6320973622047239
20
-4.0161694488188973
11
5.6301771259842521
21
-4.0190432677165351
0
LINE
8
BLACK
6
CONTINUOUS
10
5.6301771259842521
20
-4.0190432677165351
11
5.6273033070866143
21
-4.0209635039370077
0
LINE
8
BLACK
6
CONTINUOUS
10
5.6273033070866143
20
-4.0209635039370077
11
5.6239133858267714
21
-4.0216377952755904
0
LINE
8
BLACK
6
CONTINUOUS
10
5.6239133858267714
20
-4.0216377952755904
11
5.6042283464566927
21
-4.0216377952755904
0
LINE
8
BLACK
6
CONTINUOUS
10
5.6042283464566927
20
-4.0216377952755904
11
5.6008384251968506
21
-4.0209635039370077
0
LINE
8
BLACK
6
CONTINUOUS
10
5.6008384251968506
20
-4.0209635039370077
11
5.5979646062992128
21
-4.0190432677165351
0
LINE
8
BLACK
6
CONTINUOUS
10
5.5979646062992128
20
-4.0190432677165351
11
5.5960443700787401
21
-4.0161694488188973
0
LINE
8
BLACK
6
CONTINUOUS
10
5.5960443700787401
20
-4.0161694488188973
11
5.5953700787401575
21
-4.0127795275590552
0
LINE
8
BLACK
6
CONTINUOUS
10
5.5953700787401575
20
-4.0127795275590552
11
5.5953700787401575
21
-3.9950629921259844
0
LINE
8
BLACK
6
CONTINUOUS
10
5.5953700787401575
20
-3.9950629921259844
11
5.5960443700787401
21
-3.9916730708661414
0
LINE
8
BLACK
6
CONTINUOUS
10
5.5960443700787401
20
-3.9916730708661414
11
5.5979646062992128
21
-3.988799251968504
0
LINE
8
BLACK
6
CONTINUOUS
10
5.5979646062992128
20
-3.988799251968504
11
5.6008384251968506
21
-3.9868790157480314
0
LINE
8
BLACK
6
CONTINUOUS
10
5.6008384251968506
20
-3.9868790157480314
11
5.6042283464566927
21
-3.9862047244094487
0
LINE
8
BLACK
6
CONTINUOUS
10
5.6042283464566927
20
-3.9862047244094487
11
5.6239133858267714
21
-3.9862047244094487
0
LINE
8
BLACK
6
CONTINUOUS
10
5.6239133858267714
20
-3.9862047244094487
11
5.6273033070866143
21
-3.9868790157480314
0
LINE
8
BLACK
6
CONTINUOUS
10
5.8991181102362207
20
-4.0163385826771654
11
5.8400629921259837
21
-4.0163385826771654
0
LINE
8
BLACK
6
CONTINUOUS
10
5.8400629921259837
20
-4.0163385826771654
11
5.8400629921259837
21
-3.9946850393700788
0
LINE
8
BLACK
6
CONTINUOUS
10
5.8400629921259837
20
-3.9946850393700788
11
5.8991181102362207
21
-3.9946850393700788
0
LINE
8
BLACK
6
CONTINUOUS
10
5.8991181102362207
20
-3.9946850393700788
11
5.8991181102362207
21
-4.0163385826771654
0
LINE
8
BLACK
6
CONTINUOUS
10
6.347937007874016
20
-4.0163385826771654
11
6.288881889763779
21
-4.0163385826771654
0
LINE
8
BLACK
6
CONTINUOUS
10
6.288881889763779
20
-4.0163385826771654
11
6.288881889763779
21
-3.9946850393700788
0
LINE
8
BLACK
6
CONTINUOUS
10
6.288881889763779
20
-3.9946850393700788
11
6.347937007874016
21
-3.9946850393700788
0
LINE
8
BLACK
6
CONTINUOUS
10
6.347937007874016
20
-3.9946850393700788
11
6.347937007874016
21
-4.0163385826771654
0
LINE
8
BLACK
6
CONTINUOUS
10
5.8991181102362207
20
-3.9848425196850394
11
5.8400629921259837
21
-3.9848425196850394
0
LINE
8
BLACK
6
CONTINUOUS
10
5.8400629921259837
20
-3.9848425196850394
11
5.8400629921259837
21
-3.9631889763779529
0
LINE
8
BLACK
6
CONTINUOUS
10
5.8400629921259837
20
-3.9631889763779529
11
5.8991181102362207
21
-3.9631889763779529
0
LINE
8
BLACK
6
CONTINUOUS
10
5.8991181102362207
20
-3.9631889763779529
11
5.8991181102362207
21
-3.9848425196850394
0
LINE
8
BLACK
6
CONTINUOUS
10
6.347937007874016
20
-3.9848425196850394
11
6.288881889763779
21
-3.9848425196850394
0
LINE
8
BLACK
6
CONTINUOUS
10
6.288881889763779
20
-3.9848425196850394
11
6.288881889763779
21
-3.9631889763779529
0
LINE
8
BLACK
6
CONTINUOUS
10
6.288881889763779
20
-3.9631889763779529
11
6.347937007874016
21
-3.9631889763779529
0
LINE
8
BLACK
6
CONTINUOUS
10
6.347937007874016
20
-3.9631889763779529
11
6.347937007874016
21
-3.9848425196850394
0
LINE
8
BLACK
6
CONTINUOUS
10
5.6273033070866143
20
-3.9258553937007874
11
5.6301771259842521
21
-3.9277756299212596
0
LINE
8
BLACK
6
CONTINUOUS
10
5.6301771259842521
20
-3.9277756299212596
11
5.6320973622047239
21
-3.9306494488188974
0
LINE
8
BLACK
6
CONTINUOUS
10
5.6320973622047239
20
-3.9306494488188974
11
5.6327716535433066
21
-3.9340393700787399
0
LINE
8
BLACK
6
CONTINUOUS
10
5.6327716535433066
20
-3.9340393700787399
11
5.6327716535433066
21
-3.9517559055118108
0
LINE
8
BLACK
6
CONTINUOUS
10
5.6327716535433066
20
-3.9517559055118108
11
5.6320973622047239
21
-3.9551458267716533
0
LINE
8
BLACK
6
CONTINUOUS
10
5.6320973622047239
20
-3.9551458267716533
11
5.6301771259842521
21
-3.9580196456692911
0
LINE
8
BLACK
6
CONTINUOUS
10
5.6301771259842521
20
-3.9580196456692911
11
5.6273033070866143
21
-3.9599398818897638
0
LINE
8
BLACK
6
CONTINUOUS
10
5.6273033070866143
20
-3.9599398818897638
11
5.6239133858267714
21
-3.9606141732283464
0
LINE
8
BLACK
6
CONTINUOUS
10
5.6239133858267714
20
-3.9606141732283464
11
5.6042283464566927
21
-3.9606141732283464
0
LINE
8
BLACK
6
CONTINUOUS
10
5.6042283464566927
20
-3.9606141732283464
11
5.6008384251968506
21
-3.9599398818897638
0
LINE
8
BLACK
6
CONTINUOUS
10
5.6008384251968506
20
-3.9599398818897638
11
5.5979646062992128
21
-3.9580196456692911
0
LINE
8
BLACK
6
CONTINUOUS
10
5.5979646062992128
20
-3.9580196456692911
11
5.5960443700787401
21
-3.9551458267716533
0
LINE
8
BLACK
6
CONTINUOUS
10
5.5960443700787401
20
-3.9551458267716533
11
5.5953700787401575
21
-3.9517559055118108
0
LINE
8
BLACK
6
CONTINUOUS
10
5.5953700787401575
20
-3.9517559055118108
11
5.5953700787401575
21
-3.9340393700787399
0
LINE
8
BLACK
6
CONTINUOUS
10
5.5953700787401575
20
-3.9340393700787399
11
5.5960443700787401
21
-3.9306494488188974
0
LINE
8
BLACK
6
CONTINUOUS
10
5.5960443700787401
20
-3.9306494488188974
11
5.5979646062992128
21
-3.9277756299212596
0
LINE
8
BLACK
6
CONTINUOUS
10
5.5979646062992128
20
-3.9277756299212596
11
5.6008384251968506
21
-3.9258553937007874
0
LINE
8
BLACK
6
CONTINUOUS
10
5.6008384251968506
20
-3.9258553937007874
11
5.6042283464566927
21
-3.9251811023622047
0
LINE
8
BLACK
6
CONTINUOUS
10
5.6042283464566927
20
-3.9251811023622047
11
5.6239133858267714
21
-3.9251811023622047
0
LINE
8
BLACK
6
CONTINUOUS
10
5.6239133858267714
20
-3.9251811023622047
11
5.6273033070866143
21
-3.9258553937007874
0
LINE
8
BLACK
6
CONTINUOUS
10
5.299910905511811
20
-3.9277804724409449
11
5.3024653937007873
21
-3.9294873622047244
0
LINE
8
BLACK
6
CONTINUOUS
10
5.3024653937007873
20
-3.9294873622047244
11
5.3041722834645668
21
-3.9320418503937007
0
LINE
8
BLACK
6
CONTINUOUS
10
5.3041722834645668
20
-3.9320418503937007
11
5.3047716535433072
21
-3.935055118110236
0
LINE
8
BLACK
6
CONTINUOUS
10
5.3047716535433072
20
-3.935055118110236
11
5.3047716535433072
21
-3.950803149606299
0
LINE
8
BLACK
6
CONTINUOUS
10
5.3047716535433072
20
-3.950803149606299
11
5.3041722834645668
21
-3.9538164173228347
0
LINE
8
BLACK
6
CONTINUOUS
10
5.3041722834645668
20
-3.9538164173228347
11
5.3024653937007873
21
-3.956370905511811
0
LINE
8
BLACK
6
CONTINUOUS
10
5.3024653937007873
20
-3.956370905511811
11
5.299910905511811
21
-3.9580777952755906
0
LINE
8
BLACK
6
CONTINUOUS
10
5.299910905511811
20
-3.9580777952755906
11
5.2968976377952757
21
-3.9586771653543305
0
LINE
8
BLACK
6
CONTINUOUS
10
5.2968976377952757
20
-3.9586771653543305
11
5.2752440944881887
21
-3.9586771653543305
0
LINE
8
BLACK
6
CONTINUOUS
10
5.2752440944881887
20
-3.9586771653543305
11
5.2722308267716533
21
-3.9580777952755906
0
LINE
8
BLACK
6
CONTINUOUS
10
5.2722308267716533
20
-3.9580777952755906
11
5.269676338582677
21
-3.956370905511811
0
LINE
8
BLACK
6
CONTINUOUS
10
5.269676338582677
20
-3.956370905511811
11
5.2679694488188975
21
-3.9538164173228347
0
LINE
8
BLACK
6
CONTINUOUS
10
5.2679694488188975
20
-3.9538164173228347
11
5.2673700787401572
21
-3.950803149606299
0
LINE
8
BLACK
6
CONTINUOUS
10
5.2673700787401572
20
-3.950803149606299
11
5.2673700787401572
21
-3.935055118110236
0
LINE
8
BLACK
6
CONTINUOUS
10
5.2673700787401572
20
-3.935055118110236
11
5.2679694488188975
21
-3.9320418503937007
0
LINE
8
BLACK
6
CONTINUOUS
10
5.2679694488188975
20
-3.9320418503937007
11
5.269676338582677
21
-3.9294873622047244
0
LINE
8
BLACK
6
CONTINUOUS
10
5.269676338582677
20
-3.9294873622047244
11
5.2722308267716533
21
-3.9277804724409449
0
LINE
8
BLACK
6
CONTINUOUS
10
5.2722308267716533
20
-3.9277804724409449
11
5.2752440944881887
21
-3.9271811023622045
0
LINE
8
BLACK
6
CONTINUOUS
10
5.2752440944881887
20
-3.9271811023622045
11
5.2968976377952757
21
-3.9271811023622045
0
LINE
8
BLACK
6
CONTINUOUS
10
5.2968976377952757
20
-3.9271811023622045
11
5.299910905511811
21
-3.9277804724409449
0
LINE
8
BLACK
6
CONTINUOUS
10
5.4499109055118113
20
-3.9277804724409449
11
5.4524653937007876
21
-3.9294873622047244
0
LINE
8
BLACK
6
CONTINUOUS
10
5.4524653937007876
20
-3.9294873622047244
11
5.4541722834645672
21
-3.9320418503937007
0
LINE
8
BLACK
6
CONTINUOUS
10
5.4541722834645672
20
-3.9320418503937007
11
5.4547716535433066
21
-3.935055118110236
0
LINE
8
BLACK
6
CONTINUOUS
10
5.4547716535433066
20
-3.935055118110236
11
5.4547716535433066
21
-3.950803149606299
0
LINE
8
BLACK
6
CONTINUOUS
10
5.4547716535433066
20
-3.950803149606299
11
5.4541722834645672
21
-3.9538164173228347
0
LINE
8
BLACK
6
CONTINUOUS
10
5.4541722834645672
20
-3.9538164173228347
11
5.4524653937007876
21
-3.956370905511811
0
LINE
8
BLACK
6
CONTINUOUS
10
5.4524653937007876
20
-3.956370905511811
11
5.4499109055118113
21
-3.9580777952755906
0
LINE
8
BLACK
6
CONTINUOUS
10
5.4499109055118113
20
-3.9580777952755906
11
5.4468976377952751
21
-3.9586771653543305
0
LINE
8
BLACK
6
CONTINUOUS
10
5.4468976377952751
20
-3.9586771653543305
11
5.425244094488189
21
-3.9586771653543305
0
LINE
8
BLACK
6
CONTINUOUS
10
5.425244094488189
20
-3.9586771653543305
11
5.4222308267716537
21
-3.9580777952755906
0
LINE
8
BLACK
6
CONTINUOUS
10
5.4222308267716537
20
-3.9580777952755906
11
5.4196763385826774
21
-3.956370905511811
0
LINE
8
BLACK
6
CONTINUOUS
10
5.4196763385826774
20
-3.956370905511811
11
5.4179694488188979
21
-3.9538164173228347
0
LINE
8
BLACK
6
CONTINUOUS
10
5.4179694488188979
20
-3.9538164173228347
11
5.4173700787401575
21
-3.950803149606299
0
LINE
8
BLACK
6
CONTINUOUS
10
5.4173700787401575
20
-3.950803149606299
11
5.4173700787401575
21
-3.935055118110236
0
LINE
8
BLACK
6
CONTINUOUS
10
5.4173700787401575
20
-3.935055118110236
11
5.4179694488188979
21
-3.9320418503937007
0
LINE
8
BLACK
6
CONTINUOUS
10
5.4179694488188979
20
-3.9320418503937007
11
5.4196763385826774
21
-3.9294873622047244
0
LINE
8
BLACK
6
CONTINUOUS
10
5.4196763385826774
20
-3.9294873622047244
11
5.4222308267716537
21
-3.9277804724409449
0
LINE
8
BLACK
6
CONTINUOUS
10
5.4222308267716537
20
-3.9277804724409449
11
5.425244094488189
21
-3.9271811023622045
0
LINE
8
BLACK
6
CONTINUOUS
10
5.425244094488189
20
-3.9271811023622045
11
5.4468976377952751
21
-3.9271811023622045
0
LINE
8
BLACK
6
CONTINUOUS
10
5.4468976377952751
20
-3.9271811023622045
11
5.4499109055118113
21
-3.9277804724409449
0
LINE
8
BLACK
6
CONTINUOUS
10
5.8991181102362207
20
-3.9533464566929135
11
5.8400629921259837
21
-3.9533464566929135
0
LINE
8
BLACK
6
CONTINUOUS
10
5.8400629921259837
20
-3.9533464566929135
11
5.8400629921259837
21
-3.9316929133858265
0
LINE
8
BLACK
6
CONTINUOUS
10
5.8400629921259837
20
-3.9316929133858265
11
5.8991181102362207
21
-3.9316929133858265
0
LINE
8
BLACK
6
CONTINUOUS
10
5.8991181102362207
20
-3.9316929133858265
11
5.8991181102362207
21
-3.9533464566929135
0
LINE
8
BLACK
6
CONTINUOUS
10
6.347937007874016
20
-3.9533464566929135
11
6.288881889763779
21
-3.9533464566929135
0
LINE
8
BLACK
6
CONTINUOUS
10
6.288881889763779
20
-3.9533464566929135
11
6.288881889763779
21
-3.9316929133858265
0
LINE
8
BLACK
6
CONTINUOUS
10
6.288881889763779
20
-3.9316929133858265
11
6.347937007874016
21
-3.9316929133858265
0
LINE
8
BLACK
6
CONTINUOUS
10
6.347937007874016
20
-3.9316929133858265
11
6.347937007874016
21
-3.9533464566929135
0
LINE
8
BLACK
6
CONTINUOUS
10
5.9473464566929133
20
-3.9051181102362205
11
5.9256929133858263
21
-3.9051181102362205
0
LINE
8
BLACK
6
CONTINUOUS
10
5.9256929133858263
20
-3.9051181102362205
11
5.9256929133858263
21
-3.8460629921259843
0
LINE
8
BLACK
6
CONTINUOUS
10
5.9256929133858263
20
-3.8460629921259843
11
5.9473464566929133
21
-3.8460629921259843
0
LINE
8
BLACK
6
CONTINUOUS
10
5.9473464566929133
20
-3.8460629921259843
11
5.9473464566929133
21
-3.9051181102362205
0
LINE
8
BLACK
6
CONTINUOUS
10
5.9788425196850392
20
-3.9051181102362205
11
5.9571889763779522
21
-3.9051181102362205
0
LINE
8
BLACK
6
CONTINUOUS
10
5.9571889763779522
20
-3.9051181102362205
11
5.9571889763779522
21
-3.8460629921259843
0
LINE
8
BLACK
6
CONTINUOUS
10
5.9571889763779522
20
-3.8460629921259843
11
5.9788425196850392
21
-3.8460629921259843
0
LINE
8
BLACK
6
CONTINUOUS
10
5.9788425196850392
20
-3.8460629921259843
11
5.9788425196850392
21
-3.9051181102362205
0
LINE
8
BLACK
6
CONTINUOUS
10
6.0103385826771651
20
-3.9051181102362205
11
5.988685039370079
21
-3.9051181102362205
0
LINE
8
BLACK
6
CONTINUOUS
10
5.988685039370079
20
-3.9051181102362205
11
5.988685039370079
21
-3.8460629921259843
0
LINE
8
BLACK
6
CONTINUOUS
10
5.988685039370079
20
-3.8460629921259843
11
6.0103385826771651
21
-3.8460629921259843
0
LINE
8
BLACK
6
CONTINUOUS
10
6.0103385826771651
20
-3.8460629921259843
11
6.0103385826771651
21
-3.9051181102362205
0
LINE
8
BLACK
6
CONTINUOUS
10
6.0418346456692911
20
-3.9051181102362205
11
6.0201811023622049
21
-3.9051181102362205
0
LINE
8
BLACK
6
CONTINUOUS
10
6.0201811023622049
20
-3.9051181102362205
11
6.0201811023622049
21
-3.8460629921259843
0
LINE
8
BLACK
6
CONTINUOUS
10
6.0201811023622049
20
-3.8460629921259843
11
6.0418346456692911
21
-3.8460629921259843
0
LINE
8
BLACK
6
CONTINUOUS
10
6.0418346456692911
20
-3.8460629921259843
11
6.0418346456692911
21
-3.9051181102362205
0
LINE
8
BLACK
6
CONTINUOUS
10
6.073330708661417
20
-3.9051181102362205
11
6.0516771653543309
21
-3.9051181102362205
0
LINE
8
BLACK
6
CONTINUOUS
10
6.0516771653543309
20
-3.9051181102362205
11
6.0516771653543309
21
-3.8460629921259843
0
LINE
8
BLACK
6
CONTINUOUS
10
6.0516771653543309
20
-3.8460629921259843
11
6.073330708661417
21
-3.8460629921259843
0
LINE
8
BLACK
6
CONTINUOUS
10
6.073330708661417
20
-3.8460629921259843
11
6.073330708661417
21
-3.9051181102362205
0
LINE
8
BLACK
6
CONTINUOUS
10
6.1048267716535429
20
-3.9051181102362205
11
6.0831732283464568
21
-3.9051181102362205
0
LINE
8
BLACK
6
CONTINUOUS
10
6.0831732283464568
20
-3.9051181102362205
11
6.0831732283464568
21
-3.8460629921259843
0
LINE
8
BLACK
6
CONTINUOUS
10
6.0831732283464568
20
-3.8460629921259843
11
6.1048267716535429
21
-3.8460629921259843
0
LINE
8
BLACK
6
CONTINUOUS
10
6.1048267716535429
20
-3.8460629921259843
11
6.1048267716535429
21
-3.9051181102362205
0
LINE
8
BLACK
6
CONTINUOUS
10
6.1363228346456689
20
-3.9051181102362205
11
6.1146692913385827
21
-3.9051181102362205
0
LINE
8
BLACK
6
CONTINUOUS
10
6.1146692913385827
20
-3.9051181102362205
11
6.1146692913385827
21
-3.8460629921259843
0
LINE
8
BLACK
6
CONTINUOUS
10
6.1146692913385827
20
-3.8460629921259843
11
6.1363228346456689
21
-3.8460629921259843
0
LINE
8
BLACK
6
CONTINUOUS
10
6.1363228346456689
20
-3.8460629921259843
11
6.1363228346456689
21
-3.9051181102362205
0
LINE
8
BLACK
6
CONTINUOUS
10
6.1678188976377948
20
-3.9051181102362205
11
6.1461653543307087
21
-3.9051181102362205
0
LINE
8
BLACK
6
CONTINUOUS
10
6.1461653543307087
20
-3.9051181102362205
11
6.1461653543307087
21
-3.8460629921259843
0
LINE
8
BLACK
6
CONTINUOUS
10
6.1461653543307087
20
-3.8460629921259843
11
6.1678188976377948
21
-3.8460629921259843
0
LINE
8
BLACK
6
CONTINUOUS
10
6.1678188976377948
20
-3.8460629921259843
11
6.1678188976377948
21
-3.9051181102362205
0
LINE
8
BLACK
6
CONTINUOUS
10
6.1993149606299207
20
-3.9051181102362205
11
6.1776614173228346
21
-3.9051181102362205
0
LINE
8
BLACK
6
CONTINUOUS
10
6.1776614173228346
20
-3.9051181102362205
11
6.1776614173228346
21
-3.8460629921259843
0
LINE
8
BLACK
6
CONTINUOUS
10
6.1776614173228346
20
-3.8460629921259843
11
6.1993149606299207
21
-3.8460629921259843
0
LINE
8
BLACK
6
CONTINUOUS
10
6.1993149606299207
20
-3.8460629921259843
11
6.1993149606299207
21
-3.9051181102362205
0
LINE
8
BLACK
6
CONTINUOUS
10
6.2308110236220475
20
-3.9051181102362205
11
6.2091574803149605
21
-3.9051181102362205
0
LINE
8
BLACK
6
CONTINUOUS
10
6.2091574803149605
20
-3.9051181102362205
11
6.2091574803149605
21
-3.8460629921259843
0
LINE
8
BLACK
6
CONTINUOUS
10
6.2091574803149605
20
-3.8460629921259843
11
6.2308110236220475
21
-3.8460629921259843
0
LINE
8
BLACK
6
CONTINUOUS
10
6.2308110236220475
20
-3.8460629921259843
11
6.2308110236220475
21
-3.9051181102362205
0
LINE
8
BLACK
6
CONTINUOUS
10
6.2623070866141735
20
-3.9051181102362205
11
6.2406535433070864
21
-3.9051181102362205
0
LINE
8
BLACK
6
CONTINUOUS
10
6.2406535433070864
20
-3.9051181102362205
11
6.2406535433070864
21
-3.8460629921259843
0
LINE
8
BLACK
6
CONTINUOUS
10
6.2406535433070864
20
-3.8460629921259843
11
6.2623070866141735
21
-3.8460629921259843
0
LINE
8
BLACK
6
CONTINUOUS
10
6.2623070866141735
20
-3.8460629921259843
11
6.2623070866141735
21
-3.9051181102362205
0
LINE
8
BLACK
6
CONTINUOUS
10
6.4017993700787397
20
-3.8489656299212598
11
6.4046731889763775
21
-3.850885866141732
0
LINE
8
BLACK
6
CONTINUOUS
10
6.4046731889763775
20
-3.850885866141732
11
6.4065934251968502
21
-3.8537596850393698
0
LINE
8
BLACK
6
CONTINUOUS
10
6.4065934251968502
20
-3.8537596850393698
11
6.4072677165354328
21
-3.8571496062992123
0
LINE
8
BLACK
6
CONTINUOUS
10
6.4072677165354328
20
-3.8571496062992123
11
6.4072677165354328
21
-3.8748661417322832
0
LINE
8
BLACK
6
CONTINUOUS
10
6.4072677165354328
20
-3.8748661417322832
11
6.4065934251968502
21
-3.8782560629921261
0
LINE
8
BLACK
6
CONTINUOUS
10
6.4065934251968502
20
-3.8782560629921261
11
6.4046731889763775
21
-3.8811298818897635
0
LINE
8
BLACK
6
CONTINUOUS
10
6.4046731889763775
20
-3.8811298818897635
11
6.4017993700787397
21
-3.8830501181102361
0
LINE
8
BLACK
6
CONTINUOUS
10
6.4017993700787397
20
-3.8830501181102361
11
6.3984094488188976
21
-3.8837244094488188
0
LINE
8
BLACK
6
CONTINUOUS
10
6.3984094488188976
20
-3.8837244094488188
11
6.3787244094488189
21
-3.8837244094488188
0
LINE
8
BLACK
6
CONTINUOUS
10
6.3787244094488189
20
-3.8837244094488188
11
6.375334488188976
21
-3.8830501181102361
0
LINE
8
BLACK
6
CONTINUOUS
10
6.375334488188976
20
-3.8830501181102361
11
6.3724606692913381
21
-3.8811298818897635
0
LINE
8
BLACK
6
CONTINUOUS
10
6.3724606692913381
20
-3.8811298818897635
11
6.3705404330708664
21
-3.8782560629921261
0
LINE
8
BLACK
6
CONTINUOUS
10
6.3705404330708664
20
-3.8782560629921261
11
6.3698661417322837
21
-3.8748661417322832
0
LINE
8
BLACK
6
CONTINUOUS
10
6.3698661417322837
20
-3.8748661417322832
11
6.3698661417322837
21
-3.8571496062992123
0
LINE
8
BLACK
6
CONTINUOUS
10
6.3698661417322837
20
-3.8571496062992123
11
6.3705404330708664
21
-3.8537596850393698
0
LINE
8
BLACK
6
CONTINUOUS
10
6.3705404330708664
20
-3.8537596850393698
11
6.3724606692913381
21
-3.850885866141732
0
LINE
8
BLACK
6
CONTINUOUS
10
6.3724606692913381
20
-3.850885866141732
11
6.375334488188976
21
-3.8489656299212598
0
LINE
8
BLACK
6
CONTINUOUS
10
6.375334488188976
20
-3.8489656299212598
11
6.3787244094488189
21
-3.8482913385826771
0
LINE
8
BLACK
6
CONTINUOUS
10
6.3787244094488189
20
-3.8482913385826771
11
6.3984094488188976
21
-3.8482913385826771
0
LINE
8
BLACK
6
CONTINUOUS
10
6.3984094488188976
20
-3.8482913385826771
11
6.4017993700787397
21
-3.8489656299212598
0
LINE
8
BLACK
6
CONTINUOUS
10
6.4617993700787402
20
-3.8489656299212598
11
6.464673188976378
21
-3.850885866141732
0
LINE
8
BLACK
6
CONTINUOUS
10
6.464673188976378
20
-3.850885866141732
11
6.4665934251968507
21
-3.8537596850393698
0
LINE
8
BLACK
6
CONTINUOUS
10
6.4665934251968507
20
-3.8537596850393698
11
6.4672677165354333
21
-3.8571496062992123
0
LINE
8
BLACK
6
CONTINUOUS
10
6.4672677165354333
20
-3.8571496062992123
11
6.4672677165354333
21
-3.8748661417322832
0
LINE
8
BLACK
6
CONTINUOUS
10
6.4672677165354333
20
-3.8748661417322832
11
6.4665934251968507
21
-3.8782560629921261
0
LINE
8
BLACK
6
CONTINUOUS
10
6.4665934251968507
20
-3.8782560629921261
11
6.464673188976378
21
-3.8811298818897635
0
LINE
8
BLACK
6
CONTINUOUS
10
6.464673188976378
20
-3.8811298818897635
11
6.4617993700787402
21
-3.8830501181102361
0
LINE
8
BLACK
6
CONTINUOUS
10
6.4617993700787402
20
-3.8830501181102361
11
6.4584094488188972
21
-3.8837244094488188
0
LINE
8
BLACK
6
CONTINUOUS
10
6.4584094488188972
20
-3.8837244094488188
11
6.4387244094488185
21
-3.8837244094488188
0
LINE
8
BLACK
6
CONTINUOUS
10
6.4387244094488185
20
-3.8837244094488188
11
6.4353344881889765
21
-3.8830501181102361
0
LINE
8
BLACK
6
CONTINUOUS
10
6.4353344881889765
20
-3.8830501181102361
11
6.4324606692913386
21
-3.8811298818897635
0
LINE
8
BLACK
6
CONTINUOUS
10
6.4324606692913386
20
-3.8811298818897635
11
6.430540433070866
21
-3.8782560629921261
0
LINE
8
BLACK
6
CONTINUOUS
10
6.430540433070866
20
-3.8782560629921261
11
6.4298661417322833
21
-3.8748661417322832
0
LINE
8
BLACK
6
CONTINUOUS
10
6.4298661417322833
20
-3.8748661417322832
11
6.4298661417322833
21
-3.8571496062992123
0
LINE
8
BLACK
6
CONTINUOUS
10
6.4298661417322833
20
-3.8571496062992123
11
6.430540433070866
21
-3.8537596850393698
0
LINE
8
BLACK
6
CONTINUOUS
10
6.430540433070866
20
-3.8537596850393698
11
6.4324606692913386
21
-3.850885866141732
0
LINE
8
BLACK
6
CONTINUOUS
10
6.4324606692913386
20
-3.850885866141732
11
6.4353344881889765
21
-3.8489656299212598
0
LINE
8
BLACK
6
CONTINUOUS
10
6.4353344881889765
20
-3.8489656299212598
11
6.4387244094488185
21
-3.8482913385826771
0
LINE
8
BLACK
6
CONTINUOUS
10
6.4387244094488185
20
-3.8482913385826771
11
6.4584094488188972
21
-3.8482913385826771
0
LINE
8
BLACK
6
CONTINUOUS
10
6.4584094488188972
20
-3.8482913385826771
11
6.4617993700787402
21
-3.8489656299212598
0
LINE
8
BLACK
6
CONTINUOUS
10
6.5217993700787398
20
-3.8489656299212598
11
6.5246731889763776
21
-3.850885866141732
0
LINE
8
BLACK
6
CONTINUOUS
10
6.5246731889763776
20
-3.850885866141732
11
6.5265934251968503
21
-3.8537596850393698
0
LINE
8
BLACK
6
CONTINUOUS
10
6.5265934251968503
20
-3.8537596850393698
11
6.5272677165354329
21
-3.8571496062992123
0
LINE
8
BLACK
6
CONTINUOUS
10
6.5272677165354329
20
-3.8571496062992123
11
6.5272677165354329
21
-3.8748661417322832
0
LINE
8
BLACK
6
CONTINUOUS
10
6.5272677165354329
20
-3.8748661417322832
11
6.5265934251968503
21
-3.8782560629921261
0
LINE
8
BLACK
6
CONTINUOUS
10
6.5265934251968503
20
-3.8782560629921261
11
6.5246731889763776
21
-3.8811298818897635
0
LINE
8
BLACK
6
CONTINUOUS
10
6.5246731889763776
20
-3.8811298818897635
11
6.5217993700787398
21
-3.8830501181102361
0
LINE
8
BLACK
6
CONTINUOUS
10
6.5217993700787398
20
-3.8830501181102361
11
6.5184094488188977
21
-3.8837244094488188
0
LINE
8
BLACK
6
CONTINUOUS
10
6.5184094488188977
20
-3.8837244094488188
11
6.498724409448819
21
-3.8837244094488188
0
LINE
8
BLACK
6
CONTINUOUS
10
6.498724409448819
20
-3.8837244094488188
11
6.4953344881889761
21
-3.8830501181102361
0
LINE
8
BLACK
6
CONTINUOUS
10
6.4953344881889761
20
-3.8830501181102361
11
6.4924606692913382
21
-3.8811298818897635
0
LINE
8
BLACK
6
CONTINUOUS
10
6.4924606692913382
20
-3.8811298818897635
11
6.4905404330708656
21
-3.8782560629921261
0
LINE
8
BLACK
6
CONTINUOUS
10
6.4905404330708656
20
-3.8782560629921261
11
6.4898661417322829
21
-3.8748661417322832
0
LINE
8
BLACK
6
CONTINUOUS
10
6.4898661417322829
20
-3.8748661417322832
11
6.4898661417322829
21
-3.8571496062992123
0
LINE
8
BLACK
6
CONTINUOUS
10
6.4898661417322829
20
-3.8571496062992123
11
6.4905404330708656
21
-3.8537596850393698
0
LINE
8
BLACK
6
CONTINUOUS
10
6.4905404330708656
20
-3.8537596850393698
11
6.4924606692913382
21
-3.850885866141732
0
LINE
8
BLACK
6
CONTINUOUS
10
6.4924606692913382
20
-3.850885866141732
11
6.4953344881889761
21
-3.8489656299212598
0
LINE
8
BLACK
6
CONTINUOUS
10
6.4953344881889761
20
-3.8489656299212598
11
6.498724409448819
21
-3.8482913385826771
0
LINE
8
BLACK
6
CONTINUOUS
10
6.498724409448819
20
-3.8482913385826771
11
6.5184094488188977
21
-3.8482913385826771
0
LINE
8
BLACK
6
CONTINUOUS
10
6.5184094488188977
20
-3.8482913385826771
11
6.5217993700787398
21
-3.8489656299212598
0
LINE
8
BLACK
6
CONTINUOUS
10
6.5817993700787403
20
-3.8489656299212598
11
6.5846731889763781
21
-3.850885866141732
0
LINE
8
BLACK
6
CONTINUOUS
10
6.5846731889763781
20
-3.850885866141732
11
6.5865934251968499
21
-3.8537596850393698
0
LINE
8
BLACK
6
CONTINUOUS
10
6.5865934251968499
20
-3.8537596850393698
11
6.5872677165354325
21
-3.8571496062992123
0
LINE
8
BLACK
6
CONTINUOUS
10
6.5872677165354325
20
-3.8571496062992123
11
6.5872677165354325
21
-3.8748661417322832
0
LINE
8
BLACK
6
CONTINUOUS
10
6.5872677165354325
20
-3.8748661417322832
11
6.5865934251968499
21
-3.8782560629921261
0
LINE
8
BLACK
6
CONTINUOUS
10
6.5865934251968499
20
-3.8782560629921261
11
6.5846731889763781
21
-3.8811298818897635
0
LINE
8
BLACK
6
CONTINUOUS
10
6.5846731889763781
20
-3.8811298818897635
11
6.5817993700787403
21
-3.8830501181102361
0
LINE
8
BLACK
6
CONTINUOUS
10
6.5817993700787403
20
-3.8830501181102361
11
6.5784094488188973
21
-3.8837244094488188
0
LINE
8
BLACK
6
CONTINUOUS
10
6.5784094488188973
20
-3.8837244094488188
11
6.5587244094488186
21
-3.8837244094488188
0
LINE
8
BLACK
6
CONTINUOUS
10
6.5587244094488186
20
-3.8837244094488188
11
6.5553344881889766
21
-3.8830501181102361
0
LINE
8
BLACK
6
CONTINUOUS
10
6.5553344881889766
20
-3.8830501181102361
11
6.5524606692913387
21
-3.8811298818897635
0
LINE
8
BLACK
6
CONTINUOUS
10
6.5524606692913387
20
-3.8811298818897635
11
6.5505404330708661
21
-3.8782560629921261
0
LINE
8
BLACK
6
CONTINUOUS
10
6.5505404330708661
20
-3.8782560629921261
11
6.5498661417322834
21
-3.8748661417322832
0
LINE
8
BLACK
6
CONTINUOUS
10
6.5498661417322834
20
-3.8748661417322832
11
6.5498661417322834
21
-3.8571496062992123
0
LINE
8
BLACK
6
CONTINUOUS
10
6.5498661417322834
20
-3.8571496062992123
11
6.5505404330708661
21
-3.8537596850393698
0
LINE
8
BLACK
6
CONTINUOUS
10
6.5505404330708661
20
-3.8537596850393698
11
6.5524606692913387
21
-3.850885866141732
0
LINE
8
BLACK
6
CONTINUOUS
10
6.5524606692913387
20
-3.850885866141732
11
6.5553344881889766
21
-3.8489656299212598
0
LINE
8
BLACK
6
CONTINUOUS
10
6.5553344881889766
20
-3.8489656299212598
11
6.5587244094488186
21
-3.8482913385826771
0
LINE
8
BLACK
6
CONTINUOUS
10
6.5587244094488186
20
-3.8482913385826771
11
6.5784094488188973
21
-3.8482913385826771
0
LINE
8
BLACK
6
CONTINUOUS
10
6.5784094488188973
20
-3.8482913385826771
11
6.5817993700787403
21
-3.8489656299212598
0
LINE
8
BLACK
6
CONTINUOUS
10
6.4017993700787397
20
-3.7879420078740158
11
6.4046731889763775
21
-3.789862244094488
0
LINE
8
BLACK
6
CONTINUOUS
10
6.4046731889763775
20
-3.789862244094488
11
6.4065934251968502
21
-3.7927360629921258
0
LINE
8
BLACK
6
CONTINUOUS
10
6.4065934251968502
20
-3.7927360629921258
11
6.4072677165354328
21
-3.7961259842519683
0
LINE
8
BLACK
6
CONTINUOUS
10
6.4072677165354328
20
-3.7961259842519683
11
6.4072677165354328
21
-3.8138425196850392
0
LINE
8
BLACK
6
CONTINUOUS
10
6.4072677165354328
20
-3.8138425196850392
11
6.4065934251968502
21
-3.8172324409448817
0
LINE
8
BLACK
6
CONTINUOUS
10
6.4065934251968502
20
-3.8172324409448817
11
6.4046731889763775
21
-3.8201062598425195
0
LINE
8
BLACK
6
CONTINUOUS
10
6.4046731889763775
20
-3.8201062598425195
11
6.4017993700787397
21
-3.8220264960629922
0
LINE
8
BLACK
6
CONTINUOUS
10
6.4017993700787397
20
-3.8220264960629922
11
6.3984094488188976
21
-3.8227007874015748
0
LINE
8
BLACK
6
CONTINUOUS
10
6.3984094488188976
20
-3.8227007874015748
11
6.3787244094488189
21
-3.8227007874015748
0
LINE
8
BLACK
6
CONTINUOUS
10
6.3787244094488189
20
-3.8227007874015748
11
6.375334488188976
21
-3.8220264960629922
0
LINE
8
BLACK
6
CONTINUOUS
10
6.375334488188976
20
-3.8220264960629922
11
6.3724606692913381
21
-3.8201062598425195
0
LINE
8
BLACK
6
CONTINUOUS
10
6.3724606692913381
20
-3.8201062598425195
11
6.3705404330708664
21
-3.8172324409448817
0
LINE
8
BLACK
6
CONTINUOUS
10
6.3705404330708664
20
-3.8172324409448817
11
6.3698661417322837
21
-3.8138425196850392
0
LINE
8
BLACK
6
CONTINUOUS
10
6.3698661417322837
20
-3.8138425196850392
11
6.3698661417322837
21
-3.7961259842519683
0
LINE
8
BLACK
6
CONTINUOUS
10
6.3698661417322837
20
-3.7961259842519683
11
6.3705404330708664
21
-3.7927360629921258
0
LINE
8
BLACK
6
CONTINUOUS
10
6.3705404330708664
20
-3.7927360629921258
11
6.3724606692913381
21
-3.789862244094488
0
LINE
8
BLACK
6
CONTINUOUS
10
6.3724606692913381
20
-3.789862244094488
11
6.375334488188976
21
-3.7879420078740158
0
LINE
8
BLACK
6
CONTINUOUS
10
6.375334488188976
20
-3.7879420078740158
11
6.3787244094488189
21
-3.7872677165354331
0
LINE
8
BLACK
6
CONTINUOUS
10
6.3787244094488189
20
-3.7872677165354331
11
6.3984094488188976
21
-3.7872677165354331
0
LINE
8
BLACK
6
CONTINUOUS
10
6.3984094488188976
20
-3.7872677165354331
11
6.4017993700787397
21
-3.7879420078740158
0
LINE
8
BLACK
6
CONTINUOUS
10
6.4617993700787402
20
-3.7879420078740158
11
6.464673188976378
21
-3.789862244094488
0
LINE
8
BLACK
6
CONTINUOUS
10
6.464673188976378
20
-3.789862244094488
11
6.4665934251968507
21
-3.7927360629921258
0
LINE
8
BLACK
6
CONTINUOUS
10
6.4665934251968507
20
-3.7927360629921258
11
6.4672677165354333
21
-3.7961259842519683
0
LINE
8
BLACK
6
CONTINUOUS
10
6.4672677165354333
20
-3.7961259842519683
11
6.4672677165354333
21
-3.8138425196850392
0
LINE
8
BLACK
6
CONTINUOUS
10
6.4672677165354333
20
-3.8138425196850392
11
6.4665934251968507
21
-3.8172324409448817
0
LINE
8
BLACK
6
CONTINUOUS
10
6.4665934251968507
20
-3.8172324409448817
11
6.464673188976378
21
-3.8201062598425195
0
LINE
8
BLACK
6
CONTINUOUS
10
6.464673188976378
20
-3.8201062598425195
11
6.4617993700787402
21
-3.8220264960629922
0
LINE
8
BLACK
6
CONTINUOUS
10
6.4617993700787402
20
-3.8220264960629922
11
6.4584094488188972
21
-3.8227007874015748
0
LINE
8
BLACK
6
CONTINUOUS
10
6.4584094488188972
20
-3.8227007874015748
11
6.4387244094488185
21
-3.8227007874015748
0
LINE
8
BLACK
6
CONTINUOUS
10
6.4387244094488185
20
-3.8227007874015748
11
6.4353344881889765
21
-3.8220264960629922
0
LINE
8
BLACK
6
CONTINUOUS
10
6.4353344881889765
20
-3.8220264960629922
11
6.4324606692913386
21
-3.8201062598425195
0
LINE
8
BLACK
6
CONTINUOUS
10
6.4324606692913386
20
-3.8201062598425195
11
6.430540433070866
21
-3.8172324409448817
0
LINE
8
BLACK
6
CONTINUOUS
10
6.430540433070866
20
-3.8172324409448817
11
6.4298661417322833
21
-3.8138425196850392
0
LINE
8
BLACK
6
CONTINUOUS
10
6.4298661417322833
20
-3.8138425196850392
11
6.4298661417322833
21
-3.7961259842519683
0
LINE
8
BLACK
6
CONTINUOUS
10
6.4298661417322833
20
-3.7961259842519683
11
6.430540433070866
21
-3.7927360629921258
0
LINE
8
BLACK
6
CONTINUOUS
10
6.430540433070866
20
-3.7927360629921258
11
6.4324606692913386
21
-3.789862244094488
0
LINE
8
BLACK
6
CONTINUOUS
10
6.4324606692913386
20
-3.789862244094488
11
6.4353344881889765
21
-3.7879420078740158
0
LINE
8
BLACK
6
CONTINUOUS
10
6.4353344881889765
20
-3.7879420078740158
11
6.4387244094488185
21
-3.7872677165354331
0
LINE
8
BLACK
6
CONTINUOUS
10
6.4387244094488185
20
-3.7872677165354331
11
6.4584094488188972
21
-3.7872677165354331
0
LINE
8
BLACK
6
CONTINUOUS
10
6.4584094488188972
20
-3.7872677165354331
11
6.4617993700787402
21
-3.7879420078740158
0
LINE
8
BLACK
6
CONTINUOUS
10
6.5217993700787398
20
-3.7879420078740158
11
6.5246731889763776
21
-3.789862244094488
0
LINE
8
BLACK
6
CONTINUOUS
10
6.5246731889763776
20
-3.789862244094488
11
6.5265934251968503
21
-3.7927360629921258
0
LINE
8
BLACK
6
CONTINUOUS
10
6.5265934251968503
20
-3.7927360629921258
11
6.5272677165354329
21
-3.7961259842519683
0
LINE
8
BLACK
6
CONTINUOUS
10
6.5272677165354329
20
-3.7961259842519683
11
6.5272677165354329
21
-3.8138425196850392
0
LINE
8
BLACK
6
CONTINUOUS
10
6.5272677165354329
20
-3.8138425196850392
11
6.5265934251968503
21
-3.8172324409448817
0
LINE
8
BLACK
6
CONTINUOUS
10
6.5265934251968503
20
-3.8172324409448817
11
6.5246731889763776
21
-3.8201062598425195
0
LINE
8
BLACK
6
CONTINUOUS
10
6.5246731889763776
20
-3.8201062598425195
11
6.5217993700787398
21
-3.8220264960629922
0
LINE
8
BLACK
6
CONTINUOUS
10
6.5217993700787398
20
-3.8220264960629922
11
6.5184094488188977
21
-3.8227007874015748
0
LINE
8
BLACK
6
CONTINUOUS
10
6.5184094488188977
20
-3.8227007874015748
11
6.498724409448819
21
-3.8227007874015748
0
LINE
8
BLACK
6
CONTINUOUS
10
6.498724409448819
20
-3.8227007874015748
11
6.4953344881889761
21
-3.8220264960629922
0
LINE
8
BLACK
6
CONTINUOUS
10
6.4953344881889761
20
-3.8220264960629922
11
6.4924606692913382
21
-3.8201062598425195
0
LINE
8
BLACK
6
CONTINUOUS
10
6.4924606692913382
20
-3.8201062598425195
11
6.4905404330708656
21
-3.8172324409448817
0
LINE
8
BLACK
6
CONTINUOUS
10
6.4905404330708656
20
-3.8172324409448817
11
6.4898661417322829
21
-3.8138425196850392
0
LINE
8
BLACK
6
CONTINUOUS
10
6.4898661417322829
20
-3.8138425196850392
11
6.4898661417322829
21
-3.7961259842519683
0
LINE
8
BLACK
6
CONTINUOUS
10
6.4898661417322829
20
-3.7961259842519683
11
6.4905404330708656
21
-3.7927360629921258
0
LINE
8
BLACK
6
CONTINUOUS
10
6.4905404330708656
20
-3.7927360629921258
11
6.4924606692913382
21
-3.789862244094488
0
LINE
8
BLACK
6
CONTINUOUS
10
6.4924606692913382
20
-3.789862244094488
11
6.4953344881889761
21
-3.7879420078740158
0
LINE
8
BLACK
6
CONTINUOUS
10
6.4953344881889761
20
-3.7879420078740158
11
6.498724409448819
21
-3.7872677165354331
0
LINE
8
BLACK
6
CONTINUOUS
10
6.498724409448819
20
-3.7872677165354331
11
6.5184094488188977
21
-3.7872677165354331
0
LINE
8
BLACK
6
CONTINUOUS
10
6.5184094488188977
20
-3.7872677165354331
11
6.5217993700787398
21
-3.7879420078740158
0
LINE
8
BLACK
6
CONTINUOUS
10
6.5817993700787403
20
-3.7879420078740158
11
6.5846731889763781
21
-3.789862244094488
0
LINE
8
BLACK
6
CONTINUOUS
10
6.5846731889763781
20
-3.789862244094488
11
6.5865934251968499
21
-3.7927360629921258
0
LINE
8
BLACK
6
CONTINUOUS
10
6.5865934251968499
20
-3.7927360629921258
11
6.5872677165354325
21
-3.7961259842519683
0
LINE
8
BLACK
6
CONTINUOUS
10
6.5872677165354325
20
-3.7961259842519683
11
6.5872677165354325
21
-3.8138425196850392
0
LINE
8
BLACK
6
CONTINUOUS
10
6.5872677165354325
20
-3.8138425196850392
11
6.5865934251968499
21
-3.8172324409448817
0
LINE
8
BLACK
6
CONTINUOUS
10
6.5865934251968499
20
-3.8172324409448817
11
6.5846731889763781
21
-3.8201062598425195
0
LINE
8
BLACK
6
CONTINUOUS
10
6.5846731889763781
20
-3.8201062598425195
11
6.5817993700787403
21
-3.8220264960629922
0
LINE
8
BLACK
6
CONTINUOUS
10
6.5817993700787403
20
-3.8220264960629922
11
6.5784094488188973
21
-3.8227007874015748
0
LINE
8
BLACK
6
CONTINUOUS
10
6.5784094488188973
20
-3.8227007874015748
11
6.5587244094488186
21
-3.8227007874015748
0
LINE
8
BLACK
6
CONTINUOUS
10
6.5587244094488186
20
-3.8227007874015748
11
6.5553344881889766
21
-3.8220264960629922
0
LINE
8
BLACK
6
CONTINUOUS
10
6.5553344881889766
20
-3.8220264960629922
11
6.5524606692913387
21
-3.8201062598425195
0
LINE
8
BLACK
6
CONTINUOUS
10
6.5524606692913387
20
-3.8201062598425195
11
6.5505404330708661
21
-3.8172324409448817
0
LINE
8
BLACK
6
CONTINUOUS
10
6.5505404330708661
20
-3.8172324409448817
11
6.5498661417322834
21
-3.8138425196850392
0
LINE
8
BLACK
6
CONTINUOUS
10
6.5498661417322834
20
-3.8138425196850392
11
6.5498661417322834
21
-3.7961259842519683
0
LINE
8
BLACK
6
CONTINUOUS
10
6.5498661417322834
20
-3.7961259842519683
11
6.5505404330708661
21
-3.7927360629921258
0
LINE
8
BLACK
6
CONTINUOUS
10
6.5505404330708661
20
-3.7927360629921258
11
6.5524606692913387
21
-3.789862244094488
0
LINE
8
BLACK
6
CONTINUOUS
10
6.5524606692913387
20
-3.789862244094488
11
6.5553344881889766
21
-3.7879420078740158
0
LINE
8
BLACK
6
CONTINUOUS
10
6.5553344881889766
20
-3.7879420078740158
11
6.5587244094488186
21
-3.7872677165354331
0
LINE
8
BLACK
6
CONTINUOUS
10
6.5587244094488186
20
-3.7872677165354331
11
6.5784094488188973
21
-3.7872677165354331
0
LINE
8
BLACK
6
CONTINUOUS
10
6.5784094488188973
20
-3.7872677165354331
11
6.5817993700787403
21
-3.7879420078740158
0
LINE
8
BLACK
6
CONTINUOUS
10
7.3516377952755905
20
-3.4985118110236222
11
7.3240787401574803
21
-3.4985118110236222
0
LINE
8
BLACK
6
CONTINUOUS
10
7.3240787401574803
20
-3.4985118110236222
11
7.3240787401574803
21
-3.4867007874015745
0
LINE
8
BLACK
6
CONTINUOUS
10
7.3240787401574803
20
-3.4867007874015745
11
7.3516377952755905
21
-3.4867007874015745
0
LINE
8
BLACK
6
CONTINUOUS
10
7.3516377952755905
20
-3.4867007874015745
11
7.3516377952755905
21
-3.4985118110236222
0
LINE
8
BLACK
6
CONTINUOUS
10
7.0367376771653545
20
-3.4558907086614172
11
7.0392921653543308
21
-3.4575975984251968
0
LINE
8
BLACK
6
CONTINUOUS
10
7.0392921653543308
20
-3.4575975984251968
11
7.0409990551181103
21
-3.4601520866141731
0
LINE
8
BLACK
6
CONTINUOUS
10
7.0409990551181103
20
-3.4601520866141731
11
7.0415984251968506
21
-3.4631653543307084
0
LINE
8
BLACK
6
CONTINUOUS
10
7.0415984251968506
20
-3.4631653543307084
11
7.0415984251968506
21
-3.4848188976377954
0
LINE
8
BLACK
6
CONTINUOUS
10
7.0415984251968506
20
-3.4848188976377954
11
7.0409990551181103
21
-3.4878321653543307
0
LINE
8
BLACK
6
CONTINUOUS
10
7.0409990551181103
20
-3.4878321653543307
11
7.0392921653543308
21
-3.490386653543307
0
LINE
8
BLACK
6
CONTINUOUS
10
7.0392921653543308
20
-3.490386653543307
11
7.0367376771653545
21
-3.4920935433070865
0
LINE
8
BLACK
6
CONTINUOUS
10
7.0367376771653545
20
-3.4920935433070865
11
7.0337244094488192
21
-3.4926929133858269
0
LINE
8
BLACK
6
CONTINUOUS
10
7.0337244094488192
20
-3.4926929133858269
11
7.0179763779527553
21
-3.4926929133858269
0
LINE
8
BLACK
6
CONTINUOUS
10
7.0179763779527553
20
-3.4926929133858269
11
7.01496311023622
21
-3.4920935433070865
0
LINE
8
BLACK
6
CONTINUOUS
10
7.01496311023622
20
-3.4920935433070865
11
7.0124086220472437
21
-3.490386653543307
0
LINE
8
BLACK
6
CONTINUOUS
10
7.0124086220472437
20
-3.490386653543307
11
7.0107017322834642
21
-3.4878321653543307
0
LINE
8
BLACK
6
CONTINUOUS
10
7.0107017322834642
20
-3.4878321653543307
11
7.0101023622047238
21
-3.4848188976377954
0
LINE
8
BLACK
6
CONTINUOUS
10
7.0101023622047238
20
-3.4848188976377954
11
7.0101023622047238
21
-3.4631653543307084
0
LINE
8
BLACK
6
CONTINUOUS
10
7.0101023622047238
20
-3.4631653543307084
11
7.0107017322834642
21
-3.4601520866141731
0
LINE
8
BLACK
6
CONTINUOUS
10
7.0107017322834642
20
-3.4601520866141731
11
7.0124086220472437
21
-3.4575975984251968
0
LINE
8
BLACK
6
CONTINUOUS
10
7.0124086220472437
20
-3.4575975984251968
11
7.01496311023622
21
-3.4558907086614172
0
LINE
8
BLACK
6
CONTINUOUS
10
7.01496311023622
20
-3.4558907086614172
11
7.0179763779527553
21
-3.4552913385826769
0
LINE
8
BLACK
6
CONTINUOUS
10
7.0179763779527553
20
-3.4552913385826769
11
7.0337244094488192
21
-3.4552913385826769
0
LINE
8
BLACK
6
CONTINUOUS
10
7.0337244094488192
20
-3.4552913385826769
11
7.0367376771653545
21
-3.4558907086614172
0
LINE
8
BLACK
6
CONTINUOUS
10
7.1016983070866138
20
-3.4558907086614172
11
7.1042527952755901
21
-3.4575975984251968
0
LINE
8
BLACK
6
CONTINUOUS
10
7.1042527952755901
20
-3.4575975984251968
11
7.1059596850393696
21
-3.4601520866141731
0
LINE
8
BLACK
6
CONTINUOUS
10
7.1059596850393696
20
-3.4601520866141731
11
7.1065590551181099
21
-3.4631653543307084
0
LINE
8
BLACK
6
CONTINUOUS
10
7.1065590551181099
20
-3.4631653543307084
11
7.1065590551181099
21
-3.4848188976377954
0
LINE
8
BLACK
6
CONTINUOUS
10
7.1065590551181099
20
-3.4848188976377954
11
7.1059596850393696
21
-3.4878321653543307
0
LINE
8
BLACK
6
CONTINUOUS
10
7.1059596850393696
20
-3.4878321653543307
11
7.1042527952755901
21
-3.490386653543307
0
LINE
8
BLACK
6
CONTINUOUS
10
7.1042527952755901
20
-3.490386653543307
11
7.1016983070866138
21
-3.4920935433070865
0
LINE
8
BLACK
6
CONTINUOUS
10
7.1016983070866138
20
-3.4920935433070865
11
7.0986850393700784
21
-3.4926929133858269
0
LINE
8
BLACK
6
CONTINUOUS
10
7.0986850393700784
20
-3.4926929133858269
11
7.0829370078740155
21
-3.4926929133858269
0
LINE
8
BLACK
6
CONTINUOUS
10
7.0829370078740155
20
-3.4926929133858269
11
7.0799237401574802
21
-3.4920935433070865
0
LINE
8
BLACK
6
CONTINUOUS
10
7.0799237401574802
20
-3.4920935433070865
11
7.0773692519685039
21
-3.490386653543307
0
LINE
8
BLACK
6
CONTINUOUS
10
7.0773692519685039
20
-3.490386653543307
11
7.0756623622047243
21
-3.4878321653543307
0
LINE
8
BLACK
6
CONTINUOUS
10
7.0756623622047243
20
-3.4878321653543307
11
7.075062992125984
21
-3.4848188976377954
0
LINE
8
BLACK
6
CONTINUOUS
10
7.075062992125984
20
-3.4848188976377954
11
7.075062992125984
21
-3.4631653543307084
0
LINE
8
BLACK
6
CONTINUOUS
10
7.075062992125984
20
-3.4631653543307084
11
7.0756623622047243
21
-3.4601520866141731
0
LINE
8
BLACK
6
CONTINUOUS
10
7.0756623622047243
20
-3.4601520866141731
11
7.0773692519685039
21
-3.4575975984251968
0
LINE
8
BLACK
6
CONTINUOUS
10
7.0773692519685039
20
-3.4575975984251968
11
7.0799237401574802
21
-3.4558907086614172
0
LINE
8
BLACK
6
CONTINUOUS
10
7.0799237401574802
20
-3.4558907086614172
11
7.0829370078740155
21
-3.4552913385826769
0
LINE
8
BLACK
6
CONTINUOUS
10
7.0829370078740155
20
-3.4552913385826769
11
7.0986850393700784
21
-3.4552913385826769
0
LINE
8
BLACK
6
CONTINUOUS
10
7.0986850393700784
20
-3.4552913385826769
11
7.1016983070866138
21
-3.4558907086614172
0
LINE
8
BLACK
6
CONTINUOUS
10
7.2847086614173229
20
-3.4886692913385824
11
7.2571496062992127
21
-3.4886692913385824
0
LINE
8
BLACK
6
CONTINUOUS
10
7.2571496062992127
20
-3.4886692913385824
11
7.2571496062992127
21
-3.4768582677165352
0
LINE
8
BLACK
6
CONTINUOUS
10
7.2571496062992127
20
-3.4768582677165352
11
7.2847086614173229
21
-3.4768582677165352
0
LINE
8
BLACK
6
CONTINUOUS
10
7.2847086614173229
20
-3.4768582677165352
11
7.2847086614173229
21
-3.4886692913385824
0
LINE
8
BLACK
6
CONTINUOUS
10
7.3516377952755905
20
-3.478826771653543
11
7.3240787401574803
21
-3.478826771653543
0
LINE
8
BLACK
6
CONTINUOUS
10
7.3240787401574803
20
-3.478826771653543
11
7.3240787401574803
21
-3.4670157480314958
0
LINE
8
BLACK
6
CONTINUOUS
10
7.3240787401574803
20
-3.4670157480314958
11
7.3516377952755905
21
-3.4670157480314958
0
LINE
8
BLACK
6
CONTINUOUS
10
7.3516377952755905
20
-3.4670157480314958
11
7.3516377952755905
21
-3.478826771653543
0
LINE
8
BLACK
6
CONTINUOUS
10
7.2847086614173229
20
-3.4689842519685037
11
7.2571496062992127
21
-3.4689842519685037
0
LINE
8
BLACK
6
CONTINUOUS
10
7.2571496062992127
20
-3.4689842519685037
11
7.2571496062992127
21
-3.4571732283464565
0
LINE
8
BLACK
6
CONTINUOUS
10
7.2571496062992127
20
-3.4571732283464565
11
7.2847086614173229
21
-3.4571732283464565
0
LINE
8
BLACK
6
CONTINUOUS
10
7.2847086614173229
20
-3.4571732283464565
11
7.2847086614173229
21
-3.4689842519685037
0
LINE
8
BLACK
6
CONTINUOUS
10
7.3516377952755905
20
-3.4591417322834643
11
7.3240787401574803
21
-3.4591417322834643
0
LINE
8
BLACK
6
CONTINUOUS
10
7.3240787401574803
20
-3.4591417322834643
11
7.3240787401574803
21
-3.4473307086614171
0
LINE
8
BLACK
6
CONTINUOUS
10
7.3240787401574803
20
-3.4473307086614171
11
7.3516377952755905
21
-3.4473307086614171
0
LINE
8
BLACK
6
CONTINUOUS
10
7.3516377952755905
20
-3.4473307086614171
11
7.3516377952755905
21
-3.4591417322834643
0
LINE
8
BLACK
6
CONTINUOUS
10
7.2847086614173229
20
-3.449299212598425
11
7.2571496062992127
21
-3.449299212598425
0
LINE
8
BLACK
6
CONTINUOUS
10
7.2571496062992127
20
-3.449299212598425
11
7.2571496062992127
21
-3.4374881889763778
0
LINE
8
BLACK
6
CONTINUOUS
10
7.2571496062992127
20
-3.4374881889763778
11
7.2847086614173229
21
-3.4374881889763778
0
LINE
8
BLACK
6
CONTINUOUS
10
7.2847086614173229
20
-3.4374881889763778
11
7.2847086614173229
21
-3.449299212598425
0
LINE
8
BLACK
6
CONTINUOUS
10
7.3516377952755905
20
-3.4394566929133856
11
7.3240787401574803
21
-3.4394566929133856
0
LINE
8
BLACK
6
CONTINUOUS
10
7.3240787401574803
20
-3.4394566929133856
11
7.3240787401574803
21
-3.4276456692913384
0
LINE
8
BLACK
6
CONTINUOUS
10
7.3240787401574803
20
-3.4276456692913384
11
7.3516377952755905
21
-3.4276456692913384
0
LINE
8
BLACK
6
CONTINUOUS
10
7.3516377952755905
20
-3.4276456692913384
11
7.3516377952755905
21
-3.4394566929133856
0
LINE
8
BLACK
6
CONTINUOUS
10
7.2847086614173229
20
-3.4296141732283463
11
7.2571496062992127
21
-3.4296141732283463
0
LINE
8
BLACK
6
CONTINUOUS
10
7.2571496062992127
20
-3.4296141732283463
11
7.2571496062992127
21
-3.4178031496062991
0
LINE
8
BLACK
6
CONTINUOUS
10
7.2571496062992127
20
-3.4178031496062991
11
7.2847086614173229
21
-3.4178031496062991
0
LINE
8
BLACK
6
CONTINUOUS
10
7.2847086614173229
20
-3.4178031496062991
11
7.2847086614173229
21
-3.4296141732283463
0
LINE
8
BLACK
6
CONTINUOUS
10
7.3516377952755905
20
-3.4197716535433069
11
7.3240787401574803
21
-3.4197716535433069
0
LINE
8
BLACK
6
CONTINUOUS
10
7.3240787401574803
20
-3.4197716535433069
11
7.3240787401574803
21
-3.4079606299212597
0
LINE
8
BLACK
6
CONTINUOUS
10
7.3240787401574803
20
-3.4079606299212597
11
7.3516377952755905
21
-3.4079606299212597
0
LINE
8
BLACK
6
CONTINUOUS
10
7.3516377952755905
20
-3.4079606299212597
11
7.3516377952755905
21
-3.4197716535433069
0
LINE
8
BLACK
6
CONTINUOUS
10
7.2847086614173229
20
-3.4099291338582676
11
7.2571496062992127
21
-3.4099291338582676
0
LINE
8
BLACK
6
CONTINUOUS
10
7.2571496062992127
20
-3.4099291338582676
11
7.2571496062992127
21
-3.3981181102362203
0
LINE
8
BLACK
6
CONTINUOUS
10
7.2571496062992127
20
-3.3981181102362203
11
7.2847086614173229
21
-3.3981181102362203
0
LINE
8
BLACK
6
CONTINUOUS
10
7.2847086614173229
20
-3.3981181102362203
11
7.2847086614173229
21
-3.4099291338582676
0
LINE
8
BLACK
6
CONTINUOUS
10
7.3516377952755905
20
-3.4000866141732282
11
7.3240787401574803
21
-3.4000866141732282
0
LINE
8
BLACK
6
CONTINUOUS
10
7.3240787401574803
20
-3.4000866141732282
11
7.3240787401574803
21
-3.388275590551181
0
LINE
8
BLACK
6
CONTINUOUS
10
7.3240787401574803
20
-3.388275590551181
11
7.3516377952755905
21
-3.388275590551181
0
LINE
8
BLACK
6
CONTINUOUS
10
7.3516377952755905
20
-3.388275590551181
11
7.3516377952755905
21
-3.4000866141732282
0
LINE
8
BLACK
6
CONTINUOUS
10
7.2847086614173229
20
-3.3902440944881889
11
7.2571496062992127
21
-3.3902440944881889
0
LINE
8
BLACK
6
CONTINUOUS
10
7.2571496062992127
20
-3.3902440944881889
11
7.2571496062992127
21
-3.3784330708661416
0
LINE
8
BLACK
6
CONTINUOUS
10
7.2571496062992127
20
-3.3784330708661416
11
7.2847086614173229
21
-3.3784330708661416
0
LINE
8
BLACK
6
CONTINUOUS
10
7.2847086614173229
20
-3.3784330708661416
11
7.2847086614173229
21
-3.3902440944881889
0
LINE
8
BLACK
6
CONTINUOUS
10
7.3516377952755905
20
-3.3804015748031495
11
7.3240787401574803
21
-3.3804015748031495
0
LINE
8
BLACK
6
CONTINUOUS
10
7.3240787401574803
20
-3.3804015748031495
11
7.3240787401574803
21
-3.3685905511811023
0
LINE
8
BLACK
6
CONTINUOUS
10
7.3240787401574803
20
-3.3685905511811023
11
7.3516377952755905
21
-3.3685905511811023
0
LINE
8
BLACK
6
CONTINUOUS
10
7.3516377952755905
20
-3.3685905511811023
11
7.3516377952755905
21
-3.3804015748031495
0
LINE
8
BLACK
6
CONTINUOUS
10
7.2847086614173229
20
-3.3705590551181102
11
7.2571496062992127
21
-3.3705590551181102
0
LINE
8
BLACK
6
CONTINUOUS
10
7.2571496062992127
20
-3.3705590551181102
11
7.2571496062992127
21
-3.3587480314960629
0
LINE
8
BLACK
6
CONTINUOUS
10
7.2571496062992127
20
-3.3587480314960629
11
7.2847086614173229
21
-3.3587480314960629
0
LINE
8
BLACK
6
CONTINUOUS
10
7.2847086614173229
20
-3.3587480314960629
11
7.2847086614173229
21
-3.3705590551181102
0
LINE
8
BLACK
6
CONTINUOUS
10
7.3516377952755905
20
-3.3607165354330708
11
7.3240787401574803
21
-3.3607165354330708
0
LINE
8
BLACK
6
CONTINUOUS
10
7.3240787401574803
20
-3.3607165354330708
11
7.3240787401574803
21
-3.3489055118110236
0
LINE
8
BLACK
6
CONTINUOUS
10
7.3240787401574803
20
-3.3489055118110236
11
7.3516377952755905
21
-3.3489055118110236
0
LINE
8
BLACK
6
CONTINUOUS
10
7.3516377952755905
20
-3.3489055118110236
11
7.3516377952755905
21
-3.3607165354330708
0
LINE
8
BLACK
6
CONTINUOUS
10
7.2847086614173229
20
-3.3508740157480315
11
7.2571496062992127
21
-3.3508740157480315
0
LINE
8
BLACK
6
CONTINUOUS
10
7.2571496062992127
20
-3.3508740157480315
11
7.2571496062992127
21
-3.3390629921259842
0
LINE
8
BLACK
6
CONTINUOUS
10
7.2571496062992127
20
-3.3390629921259842
11
7.2847086614173229
21
-3.3390629921259842
0
LINE
8
BLACK
6
CONTINUOUS
10
7.2847086614173229
20
-3.3390629921259842
11
7.2847086614173229
21
-3.3508740157480315
0
LINE
8
BLACK
6
CONTINUOUS
10
7.0367376771653545
20
-3.3128907086614174
11
7.0392921653543308
21
-3.314597598425197
0
LINE
8
BLACK
6
CONTINUOUS
10
7.0392921653543308
20
-3.314597598425197
11
7.0409990551181103
21
-3.3171520866141733
0
LINE
8
BLACK
6
CONTINUOUS
10
7.0409990551181103
20
-3.3171520866141733
11
7.0415984251968506
21
-3.3201653543307086
0
LINE
8
BLACK
6
CONTINUOUS
10
7.0415984251968506
20
-3.3201653543307086
11
7.0415984251968506
21
-3.3418188976377952
0
LINE
8
BLACK
6
CONTINUOUS
10
7.0415984251968506
20
-3.3418188976377952
11
7.0409990551181103
21
-3.3448321653543305
0
LINE
8
BLACK
6
CONTINUOUS
10
7.0409990551181103
20
-3.3448321653543305
11
7.0392921653543308
21
-3.3473866535433072
0
LINE
8
BLACK
6
CONTINUOUS
10
7.0392921653543308
20
-3.3473866535433072
11
7.0367376771653545
21
-3.3490935433070868
0
LINE
8
BLACK
6
CONTINUOUS
10
7.0367376771653545
20
-3.3490935433070868
11
7.0337244094488192
21
-3.3496929133858266
0
LINE
8
BLACK
6
CONTINUOUS
10
7.0337244094488192
20
-3.3496929133858266
11
7.0179763779527553
21
-3.3496929133858266
0
LINE
8
BLACK
6
CONTINUOUS
10
7.0179763779527553
20
-3.3496929133858266
11
7.01496311023622
21
-3.3490935433070868
0
LINE
8
BLACK
6
CONTINUOUS
10
7.01496311023622
20
-3.3490935433070868
11
7.0124086220472437
21
-3.3473866535433072
0
LINE
8
BLACK
6
CONTINUOUS
10
7.0124086220472437
20
-3.3473866535433072
11
7.0107017322834642
21
-3.3448321653543305
0
LINE
8
BLACK
6
CONTINUOUS
10
7.0107017322834642
20
-3.3448321653543305
11
7.0101023622047238
21
-3.3418188976377952
0
LINE
8
BLACK
6
CONTINUOUS
10
7.0101023622047238
20
-3.3418188976377952
11
7.0101023622047238
21
-3.3201653543307086
0
LINE
8
BLACK
6
CONTINUOUS
10
7.0101023622047238
20
-3.3201653543307086
11
7.0107017322834642
21
-3.3171520866141733
0
LINE
8
BLACK
6
CONTINUOUS
10
7.0107017322834642
20
-3.3171520866141733
11
7.0124086220472437
21
-3.314597598425197
0
LINE
8
BLACK
6
CONTINUOUS
10
7.0124086220472437
20
-3.314597598425197
11
7.01496311023622
21
-3.3128907086614174
0
LINE
8
BLACK
6
CONTINUOUS
10
7.01496311023622
20
-3.3128907086614174
11
7.0179763779527553
21
-3.3122913385826771
0
LINE
8
BLACK
6
CONTINUOUS
10
7.0179763779527553
20
-3.3122913385826771
11
7.0337244094488192
21
-3.3122913385826771
0
LINE
8
BLACK
6
CONTINUOUS
10
7.0337244094488192
20
-3.3122913385826771
11
7.0367376771653545
21
-3.3128907086614174
0
LINE
8
BLACK
6
CONTINUOUS
10
7.1016983070866138
20
-3.3128907086614174
11
7.1042527952755901
21
-3.314597598425197
0
LINE
8
BLACK
6
CONTINUOUS
10
7.1042527952755901
20
-3.314597598425197
11
7.1059596850393696
21
-3.3171520866141733
0
LINE
8
BLACK
6
CONTINUOUS
10
7.1059596850393696
20
-3.3171520866141733
11
7.1065590551181099
21
-3.3201653543307086
0
LINE
8
BLACK
6
CONTINUOUS
10
7.1065590551181099
20
-3.3201653543307086
11
7.1065590551181099
21
-3.3418188976377952
0
LINE
8
BLACK
6
CONTINUOUS
10
7.1065590551181099
20
-3.3418188976377952
11
7.1059596850393696
21
-3.3448321653543305
0
LINE
8
BLACK
6
CONTINUOUS
10
7.1059596850393696
20
-3.3448321653543305
11
7.1042527952755901
21
-3.3473866535433072
0
LINE
8
BLACK
6
CONTINUOUS
10
7.1042527952755901
20
-3.3473866535433072
11
7.1016983070866138
21
-3.3490935433070868
0
LINE
8
BLACK
6
CONTINUOUS
10
7.1016983070866138
20
-3.3490935433070868
11
7.0986850393700784
21
-3.3496929133858266
0
LINE
8
BLACK
6
CONTINUOUS
10
7.0986850393700784
20
-3.3496929133858266
11
7.0829370078740155
21
-3.3496929133858266
0
LINE
8
BLACK
6
CONTINUOUS
10
7.0829370078740155
20
-3.3496929133858266
11
7.0799237401574802
21
-3.3490935433070868
0
LINE
8
BLACK
6
CONTINUOUS
10
7.0799237401574802
20
-3.3490935433070868
11
7.0773692519685039
21
-3.3473866535433072
0
LINE
8
BLACK
6
CONTINUOUS
10
7.0773692519685039
20
-3.3473866535433072
11
7.0756623622047243
21
-3.3448321653543305
0
LINE
8
BLACK
6
CONTINUOUS
10
7.0756623622047243
20
-3.3448321653543305
11
7.075062992125984
21
-3.3418188976377952
0
LINE
8
BLACK
6
CONTINUOUS
10
7.075062992125984
20
-3.3418188976377952
11
7.075062992125984
21
-3.3201653543307086
0
LINE
8
BLACK
6
CONTINUOUS
10
7.075062992125984
20
-3.3201653543307086
11
7.0756623622047243
21
-3.3171520866141733
0
LINE
8
BLACK
6
CONTINUOUS
10
7.0756623622047243
20
-3.3171520866141733
11
7.0773692519685039
21
-3.314597598425197
0
LINE
8
BLACK
6
CONTINUOUS
10
7.0773692519685039
20
-3.314597598425197
11
7.0799237401574802
21
-3.3128907086614174
0
LINE
8
BLACK
6
CONTINUOUS
10
7.0799237401574802
20
-3.3128907086614174
11
7.0829370078740155
21
-3.3122913385826771
0
LINE
8
BLACK
6
CONTINUOUS
10
7.0829370078740155
20
-3.3122913385826771
11
7.0986850393700784
21
-3.3122913385826771
0
LINE
8
BLACK
6
CONTINUOUS
10
7.0986850393700784
20
-3.3122913385826771
11
7.1016983070866138
21
-3.3128907086614174
0
LINE
8
BLACK
6
CONTINUOUS
10
7.3516377952755905
20
-3.3410314960629921
11
7.3240787401574803
21
-3.3410314960629921
0
LINE
8
BLACK
6
CONTINUOUS
10
7.3240787401574803
20
-3.3410314960629921
11
7.3240787401574803
21
-3.3292204724409449
0
LINE
8
BLACK
6
CONTINUOUS
10
7.3240787401574803
20
-3.3292204724409449
11
7.3516377952755905
21
-3.3292204724409449
0
LINE
8
BLACK
6
CONTINUOUS
10
7.3516377952755905
20
-3.3292204724409449
11
7.3516377952755905
21
-3.3410314960629921
0
LINE
8
BLACK
6
CONTINUOUS
10
7.2847086614173229
20
-3.3311889763779527
11
7.2571496062992127
21
-3.3311889763779527
0
LINE
8
BLACK
6
CONTINUOUS
10
7.2571496062992127
20
-3.3311889763779527
11
7.2571496062992127
21
-3.3193779527559055
0
LINE
8
BLACK
6
CONTINUOUS
10
7.2571496062992127
20
-3.3193779527559055
11
7.2847086614173229
21
-3.3193779527559055
0
LINE
8
BLACK
6
CONTINUOUS
10
7.2847086614173229
20
-3.3193779527559055
11
7.2847086614173229
21
-3.3311889763779527
0
LINE
8
BLACK
6
CONTINUOUS
10
7.3516377952755905
20
-3.3213464566929134
11
7.3240787401574803
21
-3.3213464566929134
0
LINE
8
BLACK
6
CONTINUOUS
10
7.3240787401574803
20
-3.3213464566929134
11
7.3240787401574803
21
-3.3095354330708662
0
LINE
8
BLACK
6
CONTINUOUS
10
7.3240787401574803
20
-3.3095354330708662
11
7.3516377952755905
21
-3.3095354330708662
0
LINE
8
BLACK
6
CONTINUOUS
10
7.3516377952755905
20
-3.3095354330708662
11
7.3516377952755905
21
-3.3213464566929134
0
LINE
8
BLACK
6
CONTINUOUS
10
7.2847086614173229
20
-3.311503937007874
11
7.2571496062992127
21
-3.311503937007874
0
LINE
8
BLACK
6
CONTINUOUS
10
7.2571496062992127
20
-3.311503937007874
11
7.2571496062992127
21
-3.2996929133858268
0
LINE
8
BLACK
6
CONTINUOUS
10
7.2571496062992127
20
-3.2996929133858268
11
7.2847086614173229
21
-3.2996929133858268
0
LINE
8
BLACK
6
CONTINUOUS
10
7.2847086614173229
20
-3.2996929133858268
11
7.2847086614173229
21
-3.311503937007874
0
LINE
8
BLACK
6
CONTINUOUS
10
7.3516377952755905
20
-3.3016614173228347
11
7.3240787401574803
21
-3.3016614173228347
0
LINE
8
BLACK
6
CONTINUOUS
10
7.3240787401574803
20
-3.3016614173228347
11
7.3240787401574803
21
-3.2898503937007875
0
LINE
8
BLACK
6
CONTINUOUS
10
7.3240787401574803
20
-3.2898503937007875
11
7.3516377952755905
21
-3.2898503937007875
0
LINE
8
BLACK
6
CONTINUOUS
10
7.3516377952755905
20
-3.2898503937007875
11
7.3516377952755905
21
-3.3016614173228347
0
LINE
8
BLACK
6
CONTINUOUS
10
7.2847086614173229
20
-3.2918188976377953
11
7.2571496062992127
21
-3.2918188976377953
0
LINE
8
BLACK
6
CONTINUOUS
10
7.2571496062992127
20
-3.2918188976377953
11
7.2571496062992127
21
-3.2800078740157481
0
LINE
8
BLACK
6
CONTINUOUS
10
7.2571496062992127
20
-3.2800078740157481
11
7.2847086614173229
21
-3.2800078740157481
0
LINE
8
BLACK
6
CONTINUOUS
10
7.2847086614173229
20
-3.2800078740157481
11
7.2847086614173229
21
-3.2918188976377953
0
LINE
8
BLACK
6
CONTINUOUS
10
7.3516377952755905
20
-3.281976377952756
11
7.3240787401574803
21
-3.281976377952756
0
LINE
8
BLACK
6
CONTINUOUS
10
7.3240787401574803
20
-3.281976377952756
11
7.3240787401574803
21
-3.2701653543307088
0
LINE
8
BLACK
6
CONTINUOUS
10
7.3240787401574803
20
-3.2701653543307088
11
7.3516377952755905
21
-3.2701653543307088
0
LINE
8
BLACK
6
CONTINUOUS
10
7.3516377952755905
20
-3.2701653543307088
11
7.3516377952755905
21
-3.281976377952756
0
LINE
8
BLACK
6
CONTINUOUS
10
7.2847086614173229
20
-3.2721338582677166
11
7.2571496062992127
21
-3.2721338582677166
0
LINE
8
BLACK
6
CONTINUOUS
10
7.2571496062992127
20
-3.2721338582677166
11
7.2571496062992127
21
-3.2603228346456694
0
LINE
8
BLACK
6
CONTINUOUS
10
7.2571496062992127
20
-3.2603228346456694
11
7.2847086614173229
21
-3.2603228346456694
0
LINE
8
BLACK
6
CONTINUOUS
10
7.2847086614173229
20
-3.2603228346456694
11
7.2847086614173229
21
-3.2721338582677166
0
LINE
8
BLACK
6
CONTINUOUS
10
7.4117559448818895
20
-2.9922673228346457
11
7.4161222047244095
21
-2.9944018503937007
0
LINE
8
BLACK
6
CONTINUOUS
10
7.4161222047244095
20
-2.9944018503937007
11
7.4195587795275593
21
-2.9978384251968504
0
LINE
8
BLACK
6
CONTINUOUS
10
7.4195587795275593
20
-2.9978384251968504
11
7.4216933070866142
21
-3.00220468503937
0
LINE
8
BLACK
6
CONTINUOUS
10
7.4216933070866142
20
-3.00220468503937
11
7.4223070866141727
21
-3.0064173228346456
0
LINE
8
BLACK
6
CONTINUOUS
10
7.4223070866141727
20
-3.0064173228346456
11
7.4223070866141727
21
-3.0556299212598423
0
LINE
8
BLACK
6
CONTINUOUS
10
7.4223070866141727
20
-3.0556299212598423
11
7.4216933070866142
21
-3.0598425590551179
0
LINE
8
BLACK
6
CONTINUOUS
10
7.4216933070866142
20
-3.0598425590551179
11
7.4195587795275593
21
-3.0642088188976375
0
LINE
8
BLACK
6
CONTINUOUS
10
7.4195587795275593
20
-3.0642088188976375
11
7.4161222047244095
21
-3.0676453937007873
0
LINE
8
BLACK
6
CONTINUOUS
10
7.4161222047244095
20
-3.0676453937007873
11
7.4117559448818895
21
-3.0697799212598427
0
LINE
8
BLACK
6
CONTINUOUS
10
7.4117559448818895
20
-3.0697799212598427
11
7.4075433070866143
21
-3.0703937007874016
0
LINE
8
BLACK
6
CONTINUOUS
10
7.4075433070866143
20
-3.0703937007874016
11
7.3780157480314958
21
-3.0703937007874016
0
LINE
8
BLACK
6
CONTINUOUS
10
7.3780157480314958
20
-3.0703937007874016
11
7.3738031102362207
21
-3.0697799212598427
0
LINE
8
BLACK
6
CONTINUOUS
10
7.3738031102362207
20
-3.0697799212598427
11
7.3694368503937007
21
-3.0676453937007873
0
LINE
8
BLACK
6
CONTINUOUS
10
7.3694368503937007
20
-3.0676453937007873
11
7.3660002755905509
21
-3.0642088188976375
0
LINE
8
BLACK
6
CONTINUOUS
10
7.3660002755905509
20
-3.0642088188976375
11
7.363865748031496
21
-3.0598425590551179
0
LINE
8
BLACK
6
CONTINUOUS
10
7.363865748031496
20
-3.0598425590551179
11
7.3632519685039366
21
-3.0556299212598423
0
LINE
8
BLACK
6
CONTINUOUS
10
7.3632519685039366
20
-3.0556299212598423
11
7.3632519685039366
21
-3.0064173228346456
0
LINE
8
BLACK
6
CONTINUOUS
10
7.3632519685039366
20
-3.0064173228346456
11
7.363865748031496
21
-3.00220468503937
0
LINE
8
BLACK
6
CONTINUOUS
10
7.363865748031496
20
-3.00220468503937
11
7.3660002755905509
21
-2.9978384251968504
0
LINE
8
BLACK
6
CONTINUOUS
10
7.3660002755905509
20
-2.9978384251968504
11
7.3694368503937007
21
-2.9944018503937007
0
LINE
8
BLACK
6
CONTINUOUS
10
7.3694368503937007
20
-2.9944018503937007
11
7.3738031102362207
21
-2.9922673228346457
0
LINE
8
BLACK
6
CONTINUOUS
10
7.3738031102362207
20
-2.9922673228346457
11
7.3780157480314958
21
-2.9916535433070863
0
LINE
8
BLACK
6
CONTINUOUS
10
7.3780157480314958
20
-2.9916535433070863
11
7.4075433070866143
21
-2.9916535433070863
0
LINE
8
BLACK
6
CONTINUOUS
10
7.4075433070866143
20
-2.9916535433070863
11
7.4117559448818895
21
-2.9922673228346457
0
LINE
8
BLACK
6
CONTINUOUS
10
7.5023071259842515
20
-2.9922673228346457
11
7.5066733858267716
21
-2.9944018503937007
0
LINE
8
BLACK
6
CONTINUOUS
10
7.5066733858267716
20
-2.9944018503937007
11
7.5101099606299213
21
-2.9978384251968504
0
LINE
8
BLACK
6
CONTINUOUS
10
7.5101099606299213
20
-2.9978384251968504
11
7.5122444881889763
21
-3.00220468503937
0
LINE
8
BLACK
6
CONTINUOUS
10
7.5122444881889763
20
-3.00220468503937
11
7.5128582677165356
21
-3.0064173228346456
0
LINE
8
BLACK
6
CONTINUOUS
10
7.5128582677165356
20
-3.0064173228346456
11
7.5128582677165356
21
-3.0556299212598423
0
LINE
8
BLACK
6
CONTINUOUS
10
7.5128582677165356
20
-3.0556299212598423
11
7.5122444881889763
21
-3.0598425590551179
0
LINE
8
BLACK
6
CONTINUOUS
10
7.5122444881889763
20
-3.0598425590551179
11
7.5101099606299213
21
-3.0642088188976375
0
LINE
8
BLACK
6
CONTINUOUS
10
7.5101099606299213
20
-3.0642088188976375
11
7.5066733858267716
21
-3.0676453937007873
0
LINE
8
BLACK
6
CONTINUOUS
10
7.5066733858267716
20
-3.0676453937007873
11
7.5023071259842515
21
-3.0697799212598427
0
LINE
8
BLACK
6
CONTINUOUS
10
7.5023071259842515
20
-3.0697799212598427
11
7.4980944881889764
21
-3.0703937007874016
0
LINE
8
BLACK
6
CONTINUOUS
10
7.4980944881889764
20
-3.0703937007874016
11
7.4685669291338579
21
-3.0703937007874016
0
LINE
8
BLACK
6
CONTINUOUS
10
7.4685669291338579
20
-3.0703937007874016
11
7.4643542913385827
21
-3.0697799212598427
0
LINE
8
BLACK
6
CONTINUOUS
10
7.4643542913385827
20
-3.0697799212598427
11
7.4599880314960627
21
-3.0676453937007873
0
LINE
8
BLACK
6
CONTINUOUS
10
7.4599880314960627
20
-3.0676453937007873
11
7.456551456692913
21
-3.0642088188976375
0
LINE
8
BLACK
6
CONTINUOUS
10
7.456551456692913
20
-3.0642088188976375
11
7.454416929133858
21
-3.0598425590551179
0
LINE
8
BLACK
6
CONTINUOUS
10
7.454416929133858
20
-3.0598425590551179
11
7.4538031496062986
21
-3.0556299212598423
0
LINE
8
BLACK
6
CONTINUOUS
10
7.4538031496062986
20
-3.0556299212598423
11
7.4538031496062986
21
-3.0064173228346456
0
LINE
8
BLACK
6
CONTINUOUS
10
7.4538031496062986
20
-3.0064173228346456
11
7.454416929133858
21
-3.00220468503937
0
LINE
8
BLACK
6
CONTINUOUS
10
7.454416929133858
20
-3.00220468503937
11
7.456551456692913
21
-2.9978384251968504
0
LINE
8
BLACK
6
CONTINUOUS
10
7.456551456692913
20
-2.9978384251968504
11
7.4599880314960627
21
-2.9944018503937007
0
LINE
8
BLACK
6
CONTINUOUS
10
7.4599880314960627
20
-2.9944018503937007
11
7.4643542913385827
21
-2.9922673228346457
0
LINE
8
BLACK
6
CONTINUOUS
10
7.4643542913385827
20
-2.9922673228346457
11
7.4685669291338579
21
-2.9916535433070863
0
LINE
8
BLACK
6
CONTINUOUS
10
7.4685669291338579
20
-2.9916535433070863
11
7.4980944881889764
21
-2.9916535433070863
0
LINE
8
BLACK
6
CONTINUOUS
10
7.4980944881889764
20
-2.9916535433070863
11
7.5023071259842515
21
-2.9922673228346457
0
LINE
8
BLACK
6
CONTINUOUS
10
7.5928583070866136
20
-2.9922673228346457
11
7.5972245669291336
21
-2.9944018503937007
0
LINE
8
BLACK
6
CONTINUOUS
10
7.5972245669291336
20
-2.9944018503937007
11
7.6006611417322834
21
-2.9978384251968504
0
LINE
8
BLACK
6
CONTINUOUS
10
7.6006611417322834
20
-2.9978384251968504
11
7.6027956692913383
21
-3.00220468503937
0
LINE
8
BLACK
6
CONTINUOUS
10
7.6027956692913383
20
-3.00220468503937
11
7.6034094488188977
21
-3.0064173228346456
0
LINE
8
BLACK
6
CONTINUOUS
10
7.6034094488188977
20
-3.0064173228346456
11
7.6034094488188977
21
-3.0556299212598423
0
LINE
8
BLACK
6
CONTINUOUS
10
7.6034094488188977
20
-3.0556299212598423
11
7.6027956692913383
21
-3.0598425590551179
0
LINE
8
BLACK
6
CONTINUOUS
10
7.6027956692913383
20
-3.0598425590551179
11
7.6006611417322834
21
-3.0642088188976375
0
LINE
8
BLACK
6
CONTINUOUS
10
7.6006611417322834
20
-3.0642088188976375
11
7.5972245669291336
21
-3.0676453937007873
0
LINE
8
BLACK
6
CONTINUOUS
10
7.5972245669291336
20
-3.0676453937007873
11
7.5928583070866136
21
-3.0697799212598427
0
LINE
8
BLACK
6
CONTINUOUS
10
7.5928583070866136
20
-3.0697799212598427
11
7.5886456692913384
21
-3.0703937007874016
0
LINE
8
BLACK
6
CONTINUOUS
10
7.5886456692913384
20
-3.0703937007874016
11
7.5591181102362199
21
-3.0703937007874016
0
LINE
8
BLACK
6
CONTINUOUS
10
7.5591181102362199
20
-3.0703937007874016
11
7.5549054724409448
21
-3.0697799212598427
0
LINE
8
BLACK
6
CONTINUOUS
10
7.5549054724409448
20
-3.0697799212598427
11
7.5505392125984248
21
-3.0676453937007873
0
LINE
8
BLACK
6
CONTINUOUS
10
7.5505392125984248
20
-3.0676453937007873
11
7.547102637795275
21
-3.0642088188976375
0
LINE
8
BLACK
6
CONTINUOUS
10
7.547102637795275
20
-3.0642088188976375
11
7.54496811023622
21
-3.0598425590551179
0
LINE
8
BLACK
6
CONTINUOUS
10
7.54496811023622
20
-3.0598425590551179
11
7.5443543307086616
21
-3.0556299212598423
0
LINE
8
BLACK
6
CONTINUOUS
10
7.5443543307086616
20
-3.0556299212598423
11
7.5443543307086616
21
-3.0064173228346456
0
LINE
8
BLACK
6
CONTINUOUS
10
7.5443543307086616
20
-3.0064173228346456
11
7.54496811023622
21
-3.00220468503937
0
LINE
8
BLACK
6
CONTINUOUS
10
7.54496811023622
20
-3.00220468503937
11
7.547102637795275
21
-2.9978384251968504
0
LINE
8
BLACK
6
CONTINUOUS
10
7.547102637795275
20
-2.9978384251968504
11
7.5505392125984248
21
-2.9944018503937007
0
LINE
8
BLACK
6
CONTINUOUS
10
7.5505392125984248
20
-2.9944018503937007
11
7.5549054724409448
21
-2.9922673228346457
0
LINE
8
BLACK
6
CONTINUOUS
10
7.5549054724409448
20
-2.9922673228346457
11
7.5591181102362199
21
-2.9916535433070863
0
LINE
8
BLACK
6
CONTINUOUS
10
7.5591181102362199
20
-2.9916535433070863
11
7.5886456692913384
21
-2.9916535433070863
0
LINE
8
BLACK
6
CONTINUOUS
10
7.5886456692913384
20
-2.9916535433070863
11
7.5928583070866136
21
-2.9922673228346457
0
LINE
8
BLACK
6
CONTINUOUS
10
7.2400670866141734
20
-3.0139656299212598
11
7.2429409055118112
21
-3.015885866141732
0
LINE
8
BLACK
6
CONTINUOUS
10
7.2429409055118112
20
-3.015885866141732
11
7.244861141732283
21
-3.0187596850393699
0
LINE
8
BLACK
6
CONTINUOUS
10
7.244861141732283
20
-3.0187596850393699
11
7.2455354330708657
21
-3.0221496062992124
0
LINE
8
BLACK
6
CONTINUOUS
10
7.2455354330708657
20
-3.0221496062992124
11
7.2455354330708657
21
-3.0418346456692911
0
LINE
8
BLACK
6
CONTINUOUS
10
7.2455354330708657
20
-3.0418346456692911
11
7.244861141732283
21
-3.0452245669291336
0
LINE
8
BLACK
6
CONTINUOUS
10
7.244861141732283
20
-3.0452245669291336
11
7.2429409055118112
21
-3.0480983858267714
0
LINE
8
BLACK
6
CONTINUOUS
10
7.2429409055118112
20
-3.0480983858267714
11
7.2400670866141734
21
-3.0500186220472441
0
LINE
8
BLACK
6
CONTINUOUS
10
7.2400670866141734
20
-3.0500186220472441
11
7.2366771653543305
21
-3.0506929133858267
0
LINE
8
BLACK
6
CONTINUOUS
10
7.2366771653543305
20
-3.0506929133858267
11
7.2189606299212601
21
-3.0506929133858267
0
LINE
8
BLACK
6
CONTINUOUS
10
7.2189606299212601
20
-3.0506929133858267
11
7.2155707086614171
21
-3.0500186220472441
0
LINE
8
BLACK
6
CONTINUOUS
10
7.2155707086614171
20
-3.0500186220472441
11
7.2126968897637793
21
-3.0480983858267714
0
LINE
8
BLACK
6
CONTINUOUS
10
7.2126968897637793
20
-3.0480983858267714
11
7.2107766535433067
21
-3.0452245669291336
0
LINE
8
BLACK
6
CONTINUOUS
10
7.2107766535433067
20
-3.0452245669291336
11
7.210102362204724
21
-3.0418346456692911
0
LINE
8
BLACK
6
CONTINUOUS
10
7.210102362204724
20
-3.0418346456692911
11
7.210102362204724
21
-3.0221496062992124
0
LINE
8
BLACK
6
CONTINUOUS
10
7.210102362204724
20
-3.0221496062992124
11
7.2107766535433067
21
-3.0187596850393699
0
LINE
8
BLACK
6
CONTINUOUS
10
7.2107766535433067
20
-3.0187596850393699
11
7.2126968897637793
21
-3.015885866141732
0
LINE
8
BLACK
6
CONTINUOUS
10
7.2126968897637793
20
-3.015885866141732
11
7.2155707086614171
21
-3.0139656299212598
0
LINE
8
BLACK
6
CONTINUOUS
10
7.2155707086614171
20
-3.0139656299212598
11
7.2189606299212601
21
-3.0132913385826772
0
LINE
8
BLACK
6
CONTINUOUS
10
7.2189606299212601
20
-3.0132913385826772
11
7.2366771653543305
21
-3.0132913385826772
0
LINE
8
BLACK
6
CONTINUOUS
10
7.2366771653543305
20
-3.0132913385826772
11
7.2400670866141734
21
-3.0139656299212598
0
LINE
8
BLACK
6
CONTINUOUS
10
7.301090708661417
20
-3.0139656299212598
11
7.3039645275590548
21
-3.015885866141732
0
LINE
8
BLACK
6
CONTINUOUS
10
7.3039645275590548
20
-3.015885866141732
11
7.3058847637795274
21
-3.0187596850393699
0
LINE
8
BLACK
6
CONTINUOUS
10
7.3058847637795274
20
-3.0187596850393699
11
7.3065590551181101
21
-3.0221496062992124
0
LINE
8
BLACK
6
CONTINUOUS
10
7.3065590551181101
20
-3.0221496062992124
11
7.3065590551181101
21
-3.0418346456692911
0
LINE
8
BLACK
6
CONTINUOUS
10
7.3065590551181101
20
-3.0418346456692911
11
7.3058847637795274
21
-3.0452245669291336
0
LINE
8
BLACK
6
CONTINUOUS
10
7.3058847637795274
20
-3.0452245669291336
11
7.3039645275590548
21
-3.0480983858267714
0
LINE
8
BLACK
6
CONTINUOUS
10
7.3039645275590548
20
-3.0480983858267714
11
7.301090708661417
21
-3.0500186220472441
0
LINE
8
BLACK
6
CONTINUOUS
10
7.301090708661417
20
-3.0500186220472441
11
7.2977007874015749
21
-3.0506929133858267
0
LINE
8
BLACK
6
CONTINUOUS
10
7.2977007874015749
20
-3.0506929133858267
11
7.2799842519685036
21
-3.0506929133858267
0
LINE
8
BLACK
6
CONTINUOUS
10
7.2799842519685036
20
-3.0506929133858267
11
7.2765943307086616
21
-3.0500186220472441
0
LINE
8
BLACK
6
CONTINUOUS
10
7.2765943307086616
20
-3.0500186220472441
11
7.2737205118110237
21
-3.0480983858267714
0
LINE
8
BLACK
6
CONTINUOUS
10
7.2737205118110237
20
-3.0480983858267714
11
7.2718002755905511
21
-3.0452245669291336
0
LINE
8
BLACK
6
CONTINUOUS
10
7.2718002755905511
20
-3.0452245669291336
11
7.2711259842519684
21
-3.0418346456692911
0
LINE
8
BLACK
6
CONTINUOUS
10
7.2711259842519684
20
-3.0418346456692911
11
7.2711259842519684
21
-3.0221496062992124
0
LINE
8
BLACK
6
CONTINUOUS
10
7.2711259842519684
20
-3.0221496062992124
11
7.2718002755905511
21
-3.0187596850393699
0
LINE
8
BLACK
6
CONTINUOUS
10
7.2718002755905511
20
-3.0187596850393699
11
7.2737205118110237
21
-3.015885866141732
0
LINE
8
BLACK
6
CONTINUOUS
10
7.2737205118110237
20
-3.015885866141732
11
7.2765943307086616
21
-3.0139656299212598
0
LINE
8
BLACK
6
CONTINUOUS
10
7.2765943307086616
20
-3.0139656299212598
11
7.2799842519685036
21
-3.0132913385826772
0
LINE
8
BLACK
6
CONTINUOUS
10
7.2799842519685036
20
-3.0132913385826772
11
7.2977007874015749
21
-3.0132913385826772
0
LINE
8
BLACK
6
CONTINUOUS
10
7.2977007874015749
20
-3.0132913385826772
11
7.301090708661417
21
-3.0139656299212598
0
LINE
8
BLACK
6
CONTINUOUS
10
5.1438400393700787
20
-2.929811968503937
11
5.146394527559055
21
-2.9315188582677165
0
LINE
8
BLACK
6
CONTINUOUS
10
5.146394527559055
20
-2.9315188582677165
11
5.1481014173228345
21
-2.9340733464566928
0
LINE
8
BLACK
6
CONTINUOUS
10
5.1481014173228345
20
-2.9340733464566928
11
5.1487007874015749
21
-2.9370866141732281
0
LINE
8
BLACK
6
CONTINUOUS
10
5.1487007874015749
20
-2.9370866141732281
11
5.1487007874015749
21
-2.9528346456692911
0
LINE
8
BLACK
6
CONTINUOUS
10
5.1487007874015749
20
-2.9528346456692911
11
5.1481014173228345
21
-2.9558479133858269
0
LINE
8
BLACK
6
CONTINUOUS
10
5.1481014173228345
20
-2.9558479133858269
11
5.146394527559055
21
-2.9584024015748032
0
LINE
8
BLACK
6
CONTINUOUS
10
5.146394527559055
20
-2.9584024015748032
11
5.1438400393700787
21
-2.9601092913385827
0
LINE
8
BLACK
6
CONTINUOUS
10
5.1438400393700787
20
-2.9601092913385827
11
5.1408267716535434
21
-2.9607086614173226
0
LINE
8
BLACK
6
CONTINUOUS
10
5.1408267716535434
20
-2.9607086614173226
11
5.1191732283464564
21
-2.9607086614173226
0
LINE
8
BLACK
6
CONTINUOUS
10
5.1191732283464564
20
-2.9607086614173226
11
5.1161599606299211
21
-2.9601092913385827
0
LINE
8
BLACK
6
CONTINUOUS
10
5.1161599606299211
20
-2.9601092913385827
11
5.1136054724409448
21
-2.9584024015748032
0
LINE
8
BLACK
6
CONTINUOUS
10
5.1136054724409448
20
-2.9584024015748032
11
5.1118985826771652
21
-2.9558479133858269
0
LINE
8
BLACK
6
CONTINUOUS
10
5.1118985826771652
20
-2.9558479133858269
11
5.1112992125984249
21
-2.9528346456692911
0
LINE
8
BLACK
6
CONTINUOUS
10
5.1112992125984249
20
-2.9528346456692911
11
5.1112992125984249
21
-2.9370866141732281
0
LINE
8
BLACK
6
CONTINUOUS
10
5.1112992125984249
20
-2.9370866141732281
11
5.1118985826771652
21
-2.9340733464566928
0
LINE
8
BLACK
6
CONTINUOUS
10
5.1118985826771652
20
-2.9340733464566928
11
5.1136054724409448
21
-2.9315188582677165
0
LINE
8
BLACK
6
CONTINUOUS
10
5.1136054724409448
20
-2.9315188582677165
11
5.1161599606299211
21
-2.929811968503937
0
LINE
8
BLACK
6
CONTINUOUS
10
5.1161599606299211
20
-2.929811968503937
11
5.1191732283464564
21
-2.9292125984251967
0
LINE
8
BLACK
6
CONTINUOUS
10
5.1191732283464564
20
-2.9292125984251967
11
5.1408267716535434
21
-2.9292125984251967
0
LINE
8
BLACK
6
CONTINUOUS
10
5.1408267716535434
20
-2.9292125984251967
11
5.1438400393700787
21
-2.929811968503937
0
LINE
8
BLACK
6
CONTINUOUS
10
5.1438400393700787
20
-2.8648513385826773
11
5.146394527559055
21
-2.8665582283464568
0
LINE
8
BLACK
6
CONTINUOUS
10
5.146394527559055
20
-2.8665582283464568
11
5.1481014173228345
21
-2.8691127165354331
0
LINE
8
BLACK
6
CONTINUOUS
10
5.1481014173228345
20
-2.8691127165354331
11
5.1487007874015749
21
-2.8721259842519684
0
LINE
8
BLACK
6
CONTINUOUS
10
5.1487007874015749
20
-2.8721259842519684
11
5.1487007874015749
21
-2.8878740157480314
0
LINE
8
BLACK
6
CONTINUOUS
10
5.1487007874015749
20
-2.8878740157480314
11
5.1481014173228345
21
-2.8908872834645667
0
LINE
8
BLACK
6
CONTINUOUS
10
5.1481014173228345
20
-2.8908872834645667
11
5.146394527559055
21
-2.8934417716535434
0
LINE
8
BLACK
6
CONTINUOUS
10
5.146394527559055
20
-2.8934417716535434
11
5.1438400393700787
21
-2.895148661417323
0
LINE
8
BLACK
6
CONTINUOUS
10
5.1438400393700787
20
-2.895148661417323
11
5.1408267716535434
21
-2.8957480314960629
0
LINE
8
BLACK
6
CONTINUOUS
10
5.1408267716535434
20
-2.8957480314960629
11
5.1191732283464564
21
-2.8957480314960629
0
LINE
8
BLACK
6
CONTINUOUS
10
5.1191732283464564
20
-2.8957480314960629
11
5.1161599606299211
21
-2.895148661417323
0
LINE
8
BLACK
6
CONTINUOUS
10
5.1161599606299211
20
-2.895148661417323
11
5.1136054724409448
21
-2.8934417716535434
0
LINE
8
BLACK
6
CONTINUOUS
10
5.1136054724409448
20
-2.8934417716535434
11
5.1118985826771652
21
-2.8908872834645667
0
LINE
8
BLACK
6
CONTINUOUS
10
5.1118985826771652
20
-2.8908872834645667
11
5.1112992125984249
21
-2.8878740157480314
0
LINE
8
BLACK
6
CONTINUOUS
10
5.1112992125984249
20
-2.8878740157480314
11
5.1112992125984249
21
-2.8721259842519684
0
LINE
8
BLACK
6
CONTINUOUS
10
5.1112992125984249
20
-2.8721259842519684
11
5.1118985826771652
21
-2.8691127165354331
0
LINE
8
BLACK
6
CONTINUOUS
10
5.1118985826771652
20
-2.8691127165354331
11
5.1136054724409448
21
-2.8665582283464568
0
LINE
8
BLACK
6
CONTINUOUS
10
5.1136054724409448
20
-2.8665582283464568
11
5.1161599606299211
21
-2.8648513385826773
0
LINE
8
BLACK
6
CONTINUOUS
10
5.1161599606299211
20
-2.8648513385826773
11
5.1191732283464564
21
-2.8642519685039369
0
LINE
8
BLACK
6
CONTINUOUS
10
5.1191732283464564
20
-2.8642519685039369
11
5.1408267716535434
21
-2.8642519685039369
0
LINE
8
BLACK
6
CONTINUOUS
10
5.1408267716535434
20
-2.8642519685039369
11
5.1438400393700787
21
-2.8648513385826773
0
LINE
8
BLACK
6
CONTINUOUS
10
7.542633188976378
20
-2.7440719291338582
11
7.5478828346456694
21
-2.746029960629921
0
LINE
8
BLACK
6
CONTINUOUS
10
7.5478828346456694
20
-2.746029960629921
11
7.5523682283464568
21
-2.7493876771653545
0
LINE
8
BLACK
6
CONTINUOUS
10
7.5523682283464568
20
-2.7493876771653545
11
7.5557259448818899
21
-2.7538730708661419
0
LINE
8
BLACK
6
CONTINUOUS
10
7.5557259448818899
20
-2.7538730708661419
11
7.5576839763779526
21
-2.7591227165354328
0
LINE
8
BLACK
6
CONTINUOUS
10
7.5576839763779526
20
-2.7591227165354328
11
7.5581338582677162
21
-2.7633070866141733
0
LINE
8
BLACK
6
CONTINUOUS
10
7.5581338582677162
20
-2.7633070866141733
11
7.5581338582677162
21
-2.8026771653543308
0
LINE
8
BLACK
6
CONTINUOUS
10
7.5581338582677162
20
-2.8026771653543308
11
7.5576839763779526
21
-2.8068615354330708
0
LINE
8
BLACK
6
CONTINUOUS
10
7.5576839763779526
20
-2.8068615354330708
11
7.5557259448818899
21
-2.8121111811023622
0
LINE
8
BLACK
6
CONTINUOUS
10
7.5557259448818899
20
-2.8121111811023622
11
7.5523682283464568
21
-2.8165965748031496
0
LINE
8
BLACK
6
CONTINUOUS
10
7.5523682283464568
20
-2.8165965748031496
11
7.5478828346456694
21
-2.8199542913385827
0
LINE
8
BLACK
6
CONTINUOUS
10
7.5478828346456694
20
-2.8199542913385827
11
7.542633188976378
21
-2.8219123228346454
0
LINE
8
BLACK
6
CONTINUOUS
10
7.542633188976378
20
-2.8219123228346454
11
7.5384488188976375
21
-2.8223622047244095
0
LINE
8
BLACK
6
CONTINUOUS
10
7.5384488188976375
20
-2.8223622047244095
11
7.4282125984251968
21
-2.8223622047244095
0
LINE
8
BLACK
6
CONTINUOUS
10
7.4282125984251968
20
-2.8223622047244095
11
7.4240282283464563
21
-2.8219123228346454
0
LINE
8
BLACK
6
CONTINUOUS
10
7.4240282283464563
20
-2.8219123228346454
11
7.4187785826771648
21
-2.8199542913385827
0
LINE
8
BLACK
6
CONTINUOUS
10
7.4187785826771648
20
-2.8199542913385827
11
7.4142931889763775
21
-2.8165965748031496
0
LINE
8
BLACK
6
CONTINUOUS
10
7.4142931889763775
20
-2.8165965748031496
11
7.4109354724409444
21
-2.8121111811023622
0
LINE
8
BLACK
6
CONTINUOUS
10
7.4109354724409444
20
-2.8121111811023622
11
7.4089774409448816
21
-2.8068615354330708
0
LINE
8
BLACK
6
CONTINUOUS
10
7.4089774409448816
20
-2.8068615354330708
11
7.4085275590551181
21
-2.8026771653543308
0
LINE
8
BLACK
6
CONTINUOUS
10
7.4085275590551181
20
-2.8026771653543308
11
7.4085275590551181
21
-2.7633070866141733
0
LINE
8
BLACK
6
CONTINUOUS
10
7.4085275590551181
20
-2.7633070866141733
11
7.4089774409448816
21
-2.7591227165354328
0
LINE
8
BLACK
6
CONTINUOUS
10
7.4089774409448816
20
-2.7591227165354328
11
7.4109354724409444
21
-2.7538730708661419
0
LINE
8
BLACK
6
CONTINUOUS
10
7.4109354724409444
20
-2.7538730708661419
11
7.4142931889763775
21
-2.7493876771653545
0
LINE
8
BLACK
6
CONTINUOUS
10
7.4142931889763775
20
-2.7493876771653545
11
7.4187785826771648
21
-2.746029960629921
0
LINE
8
BLACK
6
CONTINUOUS
10
7.4187785826771648
20
-2.746029960629921
11
7.4240282283464563
21
-2.7440719291338582
0
LINE
8
BLACK
6
CONTINUOUS
10
7.4240282283464563
20
-2.7440719291338582
11
7.4282125984251968
21
-2.7436220472440946
0
LINE
8
BLACK
6
CONTINUOUS
10
7.4282125984251968
20
-2.7436220472440946
11
7.5384488188976375
21
-2.7436220472440946
0
LINE
8
BLACK
6
CONTINUOUS
10
7.5384488188976375
20
-2.7436220472440946
11
7.542633188976378
21
-2.7440719291338582
0
LINE
8
BLACK
6
CONTINUOUS
10
7.0516891338582672
20
-2.7639656299212598
11
7.0545629527559051
21
-2.765885866141732
0
LINE
8
BLACK
6
CONTINUOUS
10
7.0545629527559051
20
-2.765885866141732
11
7.0564831889763777
21
-2.7687596850393699
0
LINE
8
BLACK
6
CONTINUOUS
10
7.0564831889763777
20
-2.7687596850393699
11
7.0571574803149604
21
-2.7721496062992124
0
LINE
8
BLACK
6
CONTINUOUS
10
7.0571574803149604
20
-2.7721496062992124
11
7.0571574803149604
21
-2.7918346456692911
0
LINE
8
BLACK
6
CONTINUOUS
10
7.0571574803149604
20
-2.7918346456692911
11
7.0564831889763777
21
-2.795224566929134
0
LINE
8
BLACK
6
CONTINUOUS
10
7.0564831889763777
20
-2.795224566929134
11
7.0545629527559051
21
-2.7980983858267714
0
LINE
8
BLACK
6
CONTINUOUS
10
7.0545629527559051
20
-2.7980983858267714
11
7.0516891338582672
21
-2.8000186220472441
0
LINE
8
BLACK
6
CONTINUOUS
10
7.0516891338582672
20
-2.8000186220472441
11
7.0482992125984252
21
-2.8006929133858267
0
LINE
8
BLACK
6
CONTINUOUS
10
7.0482992125984252
20
-2.8006929133858267
11
7.0305826771653539
21
-2.8006929133858267
0
LINE
8
BLACK
6
CONTINUOUS
10
7.0305826771653539
20
-2.8006929133858267
11
7.0271927559055118
21
-2.8000186220472441
0
LINE
8
BLACK
6
CONTINUOUS
10
7.0271927559055118
20
-2.8000186220472441
11
7.024318937007874
21
-2.7980983858267714
0
LINE
8
BLACK
6
CONTINUOUS
10
7.024318937007874
20
-2.7980983858267714
11
7.0223987007874014
21
-2.795224566929134
0
LINE
8
BLACK
6
CONTINUOUS
10
7.0223987007874014
20
-2.795224566929134
11
7.0217244094488187
21
-2.7918346456692911
0
LINE
8
BLACK
6
CONTINUOUS
10
7.0217244094488187
20
-2.7918346456692911
11
7.0217244094488187
21
-2.7721496062992124
0
LINE
8
BLACK
6
CONTINUOUS
10
7.0217244094488187
20
-2.7721496062992124
11
7.0223987007874014
21
-2.7687596850393699
0
LINE
8
BLACK
6
CONTINUOUS
10
7.0223987007874014
20
-2.7687596850393699
11
7.024318937007874
21
-2.765885866141732
0
LINE
8
BLACK
6
CONTINUOUS
10
7.024318937007874
20
-2.765885866141732
11
7.0271927559055118
21
-2.7639656299212598
0
LINE
8
BLACK
6
CONTINUOUS
10
7.0271927559055118
20
-2.7639656299212598
11
7.0305826771653539
21
-2.7632913385826772
0
LINE
8
BLACK
6
CONTINUOUS
10
7.0305826771653539
20
-2.7632913385826772
11
7.0482992125984252
21
-2.7632913385826772
0
LINE
8
BLACK
6
CONTINUOUS
10
7.0482992125984252
20
-2.7632913385826772
11
7.0516891338582672
21
-2.7639656299212598
0
LINE
8
BLACK
6
CONTINUOUS
10
7.1127127559055117
20
-2.7639656299212598
11
7.1155865748031495
21
-2.765885866141732
0
LINE
8
BLACK
6
CONTINUOUS
10
7.1155865748031495
20
-2.765885866141732
11
7.1175068110236221
21
-2.7687596850393699
0
LINE
8
BLACK
6
CONTINUOUS
10
7.1175068110236221
20
-2.7687596850393699
11
7.1181811023622048
21
-2.7721496062992124
0
LINE
8
BLACK
6
CONTINUOUS
10
7.1181811023622048
20
-2.7721496062992124
11
7.1181811023622048
21
-2.7918346456692911
0
LINE
8
BLACK
6
CONTINUOUS
10
7.1181811023622048
20
-2.7918346456692911
11
7.1175068110236221
21
-2.795224566929134
0
LINE
8
BLACK
6
CONTINUOUS
10
7.1175068110236221
20
-2.795224566929134
11
7.1155865748031495
21
-2.7980983858267714
0
LINE
8
BLACK
6
CONTINUOUS
10
7.1155865748031495
20
-2.7980983858267714
11
7.1127127559055117
21
-2.8000186220472441
0
LINE
8
BLACK
6
CONTINUOUS
10
7.1127127559055117
20
-2.8000186220472441
11
7.1093228346456687
21
-2.8006929133858267
0
LINE
8
BLACK
6
CONTINUOUS
10
7.1093228346456687
20
-2.8006929133858267
11
7.0916062992125983
21
-2.8006929133858267
0
LINE
8
BLACK
6
CONTINUOUS
10
7.0916062992125983
20
-2.8006929133858267
11
7.0882163779527554
21
-2.8000186220472441
0
LINE
8
BLACK
6
CONTINUOUS
10
7.0882163779527554
20
-2.8000186220472441
11
7.0853425590551176
21
-2.7980983858267714
0
LINE
8
BLACK
6
CONTINUOUS
10
7.0853425590551176
20
-2.7980983858267714
11
7.0834223228346458
21
-2.795224566929134
0
LINE
8
BLACK
6
CONTINUOUS
10
7.0834223228346458
20
-2.795224566929134
11
7.0827480314960631
21
-2.7918346456692911
0
LINE
8
BLACK
6
CONTINUOUS
10
7.0827480314960631
20
-2.7918346456692911
11
7.0827480314960631
21
-2.7721496062992124
0
LINE
8
BLACK
6
CONTINUOUS
10
7.0827480314960631
20
-2.7721496062992124
11
7.0834223228346458
21
-2.7687596850393699
0
LINE
8
BLACK
6
CONTINUOUS
10
7.0834223228346458
20
-2.7687596850393699
11
7.0853425590551176
21
-2.765885866141732
0
LINE
8
BLACK
6
CONTINUOUS
10
7.0853425590551176
20
-2.765885866141732
11
7.0882163779527554
21
-2.7639656299212598
0
LINE
8
BLACK
6
CONTINUOUS
10
7.0882163779527554
20
-2.7639656299212598
11
7.0916062992125983
21
-2.7632913385826772
0
LINE
8
BLACK
6
CONTINUOUS
10
7.0916062992125983
20
-2.7632913385826772
11
7.1093228346456687
21
-2.7632913385826772
0
LINE
8
BLACK
6
CONTINUOUS
10
7.1093228346456687
20
-2.7632913385826772
11
7.1127127559055117
21
-2.7639656299212598
0
LINE
8
BLACK
6
CONTINUOUS
10
6.9295474015748031
20
-2.6819498818897638
11
6.9324212204724409
21
-2.683870118110236
0
LINE
8
BLACK
6
CONTINUOUS
10
6.9324212204724409
20
-2.683870118110236
11
6.9343414566929136
21
-2.6867439370078738
0
LINE
8
BLACK
6
CONTINUOUS
10
6.9343414566929136
20
-2.6867439370078738
11
6.9350157480314962
21
-2.6901338582677163
0
LINE
8
BLACK
6
CONTINUOUS
10
6.9350157480314962
20
-2.6901338582677163
11
6.9350157480314962
21
-2.709818897637795
0
LINE
8
BLACK
6
CONTINUOUS
10
6.9350157480314962
20
-2.709818897637795
11
6.9343414566929136
21
-2.7132088188976375
0
LINE
8
BLACK
6
CONTINUOUS
10
6.9343414566929136
20
-2.7132088188976375
11
6.9324212204724409
21
-2.7160826377952754
0
LINE
8
BLACK
6
CONTINUOUS
10
6.9324212204724409
20
-2.7160826377952754
11
6.9295474015748031
21
-2.718002874015748
0
LINE
8
BLACK
6
CONTINUOUS
10
6.9295474015748031
20
-2.718002874015748
11
6.9261574803149601
21
-2.7186771653543307
0
LINE
8
BLACK
6
CONTINUOUS
10
6.9261574803149601
20
-2.7186771653543307
11
6.9084409448818898
21
-2.7186771653543307
0
LINE
8
BLACK
6
CONTINUOUS
10
6.9084409448818898
20
-2.7186771653543307
11
6.9050510236220468
21
-2.718002874015748
0
LINE
8
BLACK
6
CONTINUOUS
10
6.9050510236220468
20
-2.718002874015748
11
6.902177204724409
21
-2.7160826377952754
0
LINE
8
BLACK
6
CONTINUOUS
10
6.902177204724409
20
-2.7160826377952754
11
6.9002569685039372
21
-2.7132088188976375
0
LINE
8
BLACK
6
CONTINUOUS
10
6.9002569685039372
20
-2.7132088188976375
11
6.8995826771653546
21
-2.709818897637795
0
LINE
8
BLACK
6
CONTINUOUS
10
6.8995826771653546
20
-2.709818897637795
11
6.8995826771653546
21
-2.6901338582677163
0
LINE
8
BLACK
6
CONTINUOUS
10
6.8995826771653546
20
-2.6901338582677163
11
6.9002569685039372
21
-2.6867439370078738
0
LINE
8
BLACK
6
CONTINUOUS
10
6.9002569685039372
20
-2.6867439370078738
11
6.902177204724409
21
-2.683870118110236
0
LINE
8
BLACK
6
CONTINUOUS
10
6.902177204724409
20
-2.683870118110236
11
6.9050510236220468
21
-2.6819498818897638
0
LINE
8
BLACK
6
CONTINUOUS
10
6.9050510236220468
20
-2.6819498818897638
11
6.9084409448818898
21
-2.6812755905511811
0
LINE
8
BLACK
6
CONTINUOUS
10
6.9084409448818898
20
-2.6812755905511811
11
6.9261574803149601
21
-2.6812755905511811
0
LINE
8
BLACK
6
CONTINUOUS
10
6.9261574803149601
20
-2.6812755905511811
11
6.9295474015748031
21
-2.6819498818897638
0
LINE
8
BLACK
6
CONTINUOUS
10
6.9905710236220475
20
-2.6819498818897638
11
6.9934448425196845
21
-2.683870118110236
0
LINE
8
BLACK
6
CONTINUOUS
10
6.9934448425196845
20
-2.683870118110236
11
6.9953650787401571
21
-2.6867439370078738
0
LINE
8
BLACK
6
CONTINUOUS
10
6.9953650787401571
20
-2.6867439370078738
11
6.9960393700787398
21
-2.6901338582677163
0
LINE
8
BLACK
6
CONTINUOUS
10
6.9960393700787398
20
-2.6901338582677163
11
6.9960393700787398
21
-2.709818897637795
0
LINE
8
BLACK
6
CONTINUOUS
10
6.9960393700787398
20
-2.709818897637795
11
6.9953650787401571
21
-2.7132088188976375
0
LINE
8
BLACK
6
CONTINUOUS
10
6.9953650787401571
20
-2.7132088188976375
11
6.9934448425196845
21
-2.7160826377952754
0
LINE
8
BLACK
6
CONTINUOUS
10
6.9934448425196845
20
-2.7160826377952754
11
6.9905710236220475
21
-2.718002874015748
0
LINE
8
BLACK
6
CONTINUOUS
10
6.9905710236220475
20
-2.718002874015748
11
6.9871811023622046
21
-2.7186771653543307
0
LINE
8
BLACK
6
CONTINUOUS
10
6.9871811023622046
20
-2.7186771653543307
11
6.9694645669291333
21
-2.7186771653543307
0
LINE
8
BLACK
6
CONTINUOUS
10
6.9694645669291333
20
-2.7186771653543307
11
6.9660746456692912
21
-2.718002874015748
0
LINE
8
BLACK
6
CONTINUOUS
10
6.9660746456692912
20
-2.718002874015748
11
6.9632008267716534
21
-2.7160826377952754
0
LINE
8
BLACK
6
CONTINUOUS
10
6.9632008267716534
20
-2.7160826377952754
11
6.9612805905511808
21
-2.7132088188976375
0
LINE
8
BLACK
6
CONTINUOUS
10
6.9612805905511808
20
-2.7132088188976375
11
6.9606062992125981
21
-2.709818897637795
0
LINE
8
BLACK
6
CONTINUOUS
10
6.9606062992125981
20
-2.709818897637795
11
6.9606062992125981
21
-2.6901338582677163
0
LINE
8
BLACK
6
CONTINUOUS
10
6.9606062992125981
20
-2.6901338582677163
11
6.9612805905511808
21
-2.6867439370078738
0
LINE
8
BLACK
6
CONTINUOUS
10
6.9612805905511808
20
-2.6867439370078738
11
6.9632008267716534
21
-2.683870118110236
0
LINE
8
BLACK
6
CONTINUOUS
10
6.9632008267716534
20
-2.683870118110236
11
6.9660746456692912
21
-2.6819498818897638
0
LINE
8
BLACK
6
CONTINUOUS
10
6.9660746456692912
20
-2.6819498818897638
11
6.9694645669291333
21
-2.6812755905511811
0
LINE
8
BLACK
6
CONTINUOUS
10
6.9694645669291333
20
-2.6812755905511811
11
6.9871811023622046
21
-2.6812755905511811
0
LINE
8
BLACK
6
CONTINUOUS
10
6.9871811023622046
20
-2.6812755905511811
11
6.9905710236220475
21
-2.6819498818897638
0
LINE
8
BLACK
6
CONTINUOUS
10
4.8044069685039368
20
-2.6378985826771655
11
4.8069614566929131
21
-2.639605472440945
0
LINE
8
BLACK
6
CONTINUOUS
10
4.8069614566929131
20
-2.639605472440945
11
4.8086683464566926
21
-2.6421599606299213
0
LINE
8
BLACK
6
CONTINUOUS
10
4.8086683464566926
20
-2.6421599606299213
11
4.8092677165354329
21
-2.6451732283464566
0
LINE
8
BLACK
6
CONTINUOUS
10
4.8092677165354329
20
-2.6451732283464566
11
4.8092677165354329
21
-2.6668267716535432
0
LINE
8
BLACK
6
CONTINUOUS
10
4.8092677165354329
20
-2.6668267716535432
11
4.8086683464566926
21
-2.6698400393700785
0
LINE
8
BLACK
6
CONTINUOUS
10
4.8086683464566926
20
-2.6698400393700785
11
4.8069614566929131
21
-2.6723945275590553
0
LINE
8
BLACK
6
CONTINUOUS
10
4.8069614566929131
20
-2.6723945275590553
11
4.8044069685039368
21
-2.6741014173228348
0
LINE
8
BLACK
6
CONTINUOUS
10
4.8044069685039368
20
-2.6741014173228348
11
4.8013937007874015
21
-2.6747007874015747
0
LINE
8
BLACK
6
CONTINUOUS
10
4.8013937007874015
20
-2.6747007874015747
11
4.7856456692913385
21
-2.6747007874015747
0
LINE
8
BLACK
6
CONTINUOUS
10
4.7856456692913385
20
-2.6747007874015747
11
4.7826324015748032
21
-2.6741014173228348
0
LINE
8
BLACK
6
CONTINUOUS
10
4.7826324015748032
20
-2.6741014173228348
11
4.7800779133858269
21
-2.6723945275590553
0
LINE
8
BLACK
6
CONTINUOUS
10
4.7800779133858269
20
-2.6723945275590553
11
4.7783710236220474
21
-2.6698400393700785
0
LINE
8
BLACK
6
CONTINUOUS
10
4.7783710236220474
20
-2.6698400393700785
11
4.777771653543307
21
-2.6668267716535432
0
LINE
8
BLACK
6
CONTINUOUS
10
4.777771653543307
20
-2.6668267716535432
11
4.777771653543307
21
-2.6451732283464566
0
LINE
8
BLACK
6
CONTINUOUS
10
4.777771653543307
20
-2.6451732283464566
11
4.7783710236220474
21
-2.6421599606299213
0
LINE
8
BLACK
6
CONTINUOUS
10
4.7783710236220474
20
-2.6421599606299213
11
4.7800779133858269
21
-2.639605472440945
0
LINE
8
BLACK
6
CONTINUOUS
10
4.7800779133858269
20
-2.639605472440945
11
4.7826324015748032
21
-2.6378985826771655
0
LINE
8
BLACK
6
CONTINUOUS
10
4.7826324015748032
20
-2.6378985826771655
11
4.7856456692913385
21
-2.6372992125984251
0
LINE
8
BLACK
6
CONTINUOUS
10
4.7856456692913385
20
-2.6372992125984251
11
4.8013937007874015
21
-2.6372992125984251
0
LINE
8
BLACK
6
CONTINUOUS
10
4.8013937007874015
20
-2.6372992125984251
11
4.8044069685039368
21
-2.6378985826771655
0
LINE
8
BLACK
6
CONTINUOUS
10
4.869367598425197
20
-2.6378985826771655
11
4.8719220866141733
21
-2.639605472440945
0
LINE
8
BLACK
6
CONTINUOUS
10
4.8719220866141733
20
-2.639605472440945
11
4.8736289763779528
21
-2.6421599606299213
0
LINE
8
BLACK
6
CONTINUOUS
10
4.8736289763779528
20
-2.6421599606299213
11
4.8742283464566931
21
-2.6451732283464566
0
LINE
8
BLACK
6
CONTINUOUS
10
4.8742283464566931
20
-2.6451732283464566
11
4.8742283464566931
21
-2.6668267716535432
0
LINE
8
BLACK
6
CONTINUOUS
10
4.8742283464566931
20
-2.6668267716535432
11
4.8736289763779528
21
-2.6698400393700785
0
LINE
8
BLACK
6
CONTINUOUS
10
4.8736289763779528
20
-2.6698400393700785
11
4.8719220866141733
21
-2.6723945275590553
0
LINE
8
BLACK
6
CONTINUOUS
10
4.8719220866141733
20
-2.6723945275590553
11
4.869367598425197
21
-2.6741014173228348
0
LINE
8
BLACK
6
CONTINUOUS
10
4.869367598425197
20
-2.6741014173228348
11
4.8663543307086616
21
-2.6747007874015747
0
LINE
8
BLACK
6
CONTINUOUS
10
4.8663543307086616
20
-2.6747007874015747
11
4.8506062992125987
21
-2.6747007874015747
0
LINE
8
BLACK
6
CONTINUOUS
10
4.8506062992125987
20
-2.6747007874015747
11
4.8475930314960625
21
-2.6741014173228348
0
LINE
8
BLACK
6
CONTINUOUS
10
4.8475930314960625
20
-2.6741014173228348
11
4.8450385433070862
21
-2.6723945275590553
0
LINE
8
BLACK
6
CONTINUOUS
10
4.8450385433070862
20
-2.6723945275590553
11
4.8433316535433066
21
-2.6698400393700785
0
LINE
8
BLACK
6
CONTINUOUS
10
4.8433316535433066
20
-2.6698400393700785
11
4.8427322834645672
21
-2.6668267716535432
0
LINE
8
BLACK
6
CONTINUOUS
10
4.8427322834645672
20
-2.6668267716535432
11
4.8427322834645672
21
-2.6451732283464566
0
LINE
8
BLACK
6
CONTINUOUS
10
4.8427322834645672
20
-2.6451732283464566
11
4.8433316535433066
21
-2.6421599606299213
0
LINE
8
BLACK
6
CONTINUOUS
10
4.8433316535433066
20
-2.6421599606299213
11
4.8450385433070862
21
-2.639605472440945
0
LINE
8
BLACK
6
CONTINUOUS
10
4.8450385433070862
20
-2.639605472440945
11
4.8475930314960625
21
-2.6378985826771655
0
LINE
8
BLACK
6
CONTINUOUS
10
4.8475930314960625
20
-2.6378985826771655
11
4.8506062992125987
21
-2.6372992125984251
0
LINE
8
BLACK
6
CONTINUOUS
10
4.8506062992125987
20
-2.6372992125984251
11
4.8663543307086616
21
-2.6372992125984251
0
LINE
8
BLACK
6
CONTINUOUS
10
4.8663543307086616
20
-2.6372992125984251
11
4.869367598425197
21
-2.6378985826771655
0
LINE
8
BLACK
6
CONTINUOUS
10
5.9864069685039372
20
-2.584827716535433
11
5.9889614566929135
21
-2.5865346062992125
0
LINE
8
BLACK
6
CONTINUOUS
10
5.9889614566929135
20
-2.5865346062992125
11
5.990668346456693
21
-2.5890890944881888
0
LINE
8
BLACK
6
CONTINUOUS
10
5.990668346456693
20
-2.5890890944881888
11
5.9912677165354333
21
-2.5921023622047246
0
LINE
8
BLACK
6
CONTINUOUS
10
5.9912677165354333
20
-2.5921023622047246
11
5.9912677165354333
21
-2.6078503937007875
0
LINE
8
BLACK
6
CONTINUOUS
10
5.9912677165354333
20
-2.6078503937007875
11
5.990668346456693
21
-2.6108636614173228
0
LINE
8
BLACK
6
CONTINUOUS
10
5.990668346456693
20
-2.6108636614173228
11
5.9889614566929135
21
-2.6134181496062991
0
LINE
8
BLACK
6
CONTINUOUS
10
5.9889614566929135
20
-2.6134181496062991
11
5.9864069685039372
21
-2.6151250393700787
0
LINE
8
BLACK
6
CONTINUOUS
10
5.9864069685039372
20
-2.6151250393700787
11
5.9833937007874018
21
-2.615724409448819
0
LINE
8
BLACK
6
CONTINUOUS
10
5.9833937007874018
20
-2.615724409448819
11
5.9617401574803148
21
-2.615724409448819
0
LINE
8
BLACK
6
CONTINUOUS
10
5.9617401574803148
20
-2.615724409448819
11
5.9587268897637795
21
-2.6151250393700787
0
LINE
8
BLACK
6
CONTINUOUS
10
5.9587268897637795
20
-2.6151250393700787
11
5.9561724015748032
21
-2.6134181496062991
0
LINE
8
BLACK
6
CONTINUOUS
10
5.9561724015748032
20
-2.6134181496062991
11
5.9544655118110237
21
-2.6108636614173228
0
LINE
8
BLACK
6
CONTINUOUS
10
5.9544655118110237
20
-2.6108636614173228
11
5.9538661417322833
21
-2.6078503937007875
0
LINE
8
BLACK
6
CONTINUOUS
10
5.9538661417322833
20
-2.6078503937007875
11
5.9538661417322833
21
-2.5921023622047246
0
LINE
8
BLACK
6
CONTINUOUS
10
5.9538661417322833
20
-2.5921023622047246
11
5.9544655118110237
21
-2.5890890944881888
0
LINE
8
BLACK
6
CONTINUOUS
10
5.9544655118110237
20
-2.5890890944881888
11
5.9561724015748032
21
-2.5865346062992125
0
LINE
8
BLACK
6
CONTINUOUS
10
5.9561724015748032
20
-2.5865346062992125
11
5.9587268897637795
21
-2.584827716535433
0
LINE
8
BLACK
6
CONTINUOUS
10
5.9587268897637795
20
-2.584827716535433
11
5.9617401574803148
21
-2.5842283464566926
0
LINE
8
BLACK
6
CONTINUOUS
10
5.9617401574803148
20
-2.5842283464566926
11
5.9833937007874018
21
-2.5842283464566926
0
LINE
8
BLACK
6
CONTINUOUS
10
5.9833937007874018
20
-2.5842283464566926
11
5.9864069685039372
21
-2.584827716535433
0
LINE
8
BLACK
6
CONTINUOUS
10
6.1864069685039365
20
-2.584827716535433
11
6.1889614566929136
21
-2.5865346062992125
0
LINE
8
BLACK
6
CONTINUOUS
10
6.1889614566929136
20
-2.5865346062992125
11
6.1906683464566932
21
-2.5890890944881888
0
LINE
8
BLACK
6
CONTINUOUS
10
6.1906683464566932
20
-2.5890890944881888
11
6.1912677165354326
21
-2.5921023622047246
0
LINE
8
BLACK
6
CONTINUOUS
10
6.1912677165354326
20
-2.5921023622047246
11
6.1912677165354326
21
-2.6078503937007875
0
LINE
8
BLACK
6
CONTINUOUS
10
6.1912677165354326
20
-2.6078503937007875
11
6.1906683464566932
21
-2.6108636614173228
0
LINE
8
BLACK
6
CONTINUOUS
10
6.1906683464566932
20
-2.6108636614173228
11
6.1889614566929136
21
-2.6134181496062991
0
LINE
8
BLACK
6
CONTINUOUS
10
6.1889614566929136
20
-2.6134181496062991
11
6.1864069685039365
21
-2.6151250393700787
0
LINE
8
BLACK
6
CONTINUOUS
10
6.1864069685039365
20
-2.6151250393700787
11
6.1833937007874011
21
-2.615724409448819
0
LINE
8
BLACK
6
CONTINUOUS
10
6.1833937007874011
20
-2.615724409448819
11
6.161740157480315
21
-2.615724409448819
0
LINE
8
BLACK
6
CONTINUOUS
10
6.161740157480315
20
-2.615724409448819
11
6.1587268897637797
21
-2.6151250393700787
0
LINE
8
BLACK
6
CONTINUOUS
10
6.1587268897637797
20
-2.6151250393700787
11
6.1561724015748034
21
-2.6134181496062991
0
LINE
8
BLACK
6
CONTINUOUS
10
6.1561724015748034
20
-2.6134181496062991
11
6.1544655118110239
21
-2.6108636614173228
0
LINE
8
BLACK
6
CONTINUOUS
10
6.1544655118110239
20
-2.6108636614173228
11
6.1538661417322835
21
-2.6078503937007875
0
LINE
8
BLACK
6
CONTINUOUS
10
6.1538661417322835
20
-2.6078503937007875
11
6.1538661417322835
21
-2.5921023622047246
0
LINE
8
BLACK
6
CONTINUOUS
10
6.1538661417322835
20
-2.5921023622047246
11
6.1544655118110239
21
-2.5890890944881888
0
LINE
8
BLACK
6
CONTINUOUS
10
6.1544655118110239
20
-2.5890890944881888
11
6.1561724015748034
21
-2.5865346062992125
0
LINE
8
BLACK
6
CONTINUOUS
10
6.1561724015748034
20
-2.5865346062992125
11
6.1587268897637797
21
-2.584827716535433
0
LINE
8
BLACK
6
CONTINUOUS
10
6.1587268897637797
20
-2.584827716535433
11
6.161740157480315
21
-2.5842283464566926
0
LINE
8
BLACK
6
CONTINUOUS
10
6.161740157480315
20
-2.5842283464566926
11
6.1833937007874011
21
-2.5842283464566926
0
LINE
8
BLACK
6
CONTINUOUS
10
6.1833937007874011
20
-2.5842283464566926
11
6.1864069685039365
21
-2.584827716535433
0
LINE
8
BLACK
6
CONTINUOUS
10
6.891677283464567
20
-2.5831581889763777
11
6.893593149606299
21
-2.5844383464566927
0
LINE
8
BLACK
6
CONTINUOUS
10
6.893593149606299
20
-2.5844383464566927
11
6.8948733070866144
21
-2.5863542125984251
0
LINE
8
BLACK
6
CONTINUOUS
10
6.8948733070866144
20
-2.5863542125984251
11
6.8953228346456692
21
-2.5886141732283465
0
LINE
8
BLACK
6
CONTINUOUS
10
6.8953228346456692
20
-2.5886141732283465
11
6.8953228346456692
21
-2.6004251968503937
0
LINE
8
BLACK
6
CONTINUOUS
10
6.8953228346456692
20
-2.6004251968503937
11
6.8948733070866144
21
-2.6026851574803147
0
LINE
8
BLACK
6
CONTINUOUS
10
6.8948733070866144
20
-2.6026851574803147
11
6.893593149606299
21
-2.6046010236220472
0
LINE
8
BLACK
6
CONTINUOUS
10
6.893593149606299
20
-2.6046010236220472
11
6.891677283464567
21
-2.6058811811023621
0
LINE
8
BLACK
6
CONTINUOUS
10
6.891677283464567
20
-2.6058811811023621
11
6.8894173228346451
21
-2.6063307086614174
0
LINE
8
BLACK
6
CONTINUOUS
10
6.8894173228346451
20
-2.6063307086614174
11
6.8244566929133859
21
-2.6063307086614174
0
LINE
8
BLACK
6
CONTINUOUS
10
6.8244566929133859
20
-2.6063307086614174
11
6.822196732283464
21
-2.6058811811023621
0
LINE
8
BLACK
6
CONTINUOUS
10
6.822196732283464
20
-2.6058811811023621
11
6.820280866141732
21
-2.6046010236220472
0
LINE
8
BLACK
6
CONTINUOUS
10
6.820280866141732
20
-2.6046010236220472
11
6.8190007086614175
21
-2.6026851574803147
0
LINE
8
BLACK
6
CONTINUOUS
10
6.8190007086614175
20
-2.6026851574803147
11
6.8185511811023618
21
-2.6004251968503937
0
LINE
8
BLACK
6
CONTINUOUS
10
6.8185511811023618
20
-2.6004251968503937
11
6.8185511811023618
21
-2.5886141732283465
0
LINE
8
BLACK
6
CONTINUOUS
10
6.8185511811023618
20
-2.5886141732283465
11
6.8190007086614175
21
-2.5863542125984251
0
LINE
8
BLACK
6
CONTINUOUS
10
6.8190007086614175
20
-2.5863542125984251
11
6.820280866141732
21
-2.5844383464566927
0
LINE
8
BLACK
6
CONTINUOUS
10
6.820280866141732
20
-2.5844383464566927
11
6.822196732283464
21
-2.5831581889763777
0
LINE
8
BLACK
6
CONTINUOUS
10
6.822196732283464
20
-2.5831581889763777
11
6.8244566929133859
21
-2.5827086614173229
0
LINE
8
BLACK
6
CONTINUOUS
10
6.8244566929133859
20
-2.5827086614173229
11
6.8894173228346451
21
-2.5827086614173229
0
LINE
8
BLACK
6
CONTINUOUS
10
6.8894173228346451
20
-2.5827086614173229
11
6.891677283464567
21
-2.5831581889763777
0
LINE
8
BLACK
6
CONTINUOUS
10
7.0865591732283466
20
-2.5831581889763777
11
7.0884750393700786
21
-2.5844383464566927
0
LINE
8
BLACK
6
CONTINUOUS
10
7.0884750393700786
20
-2.5844383464566927
11
7.0897551968503931
21
-2.5863542125984251
0
LINE
8
BLACK
6
CONTINUOUS
10
7.0897551968503931
20
-2.5863542125984251
11
7.0902047244094488
21
-2.5886141732283465
0
LINE
8
BLACK
6
CONTINUOUS
10
7.0902047244094488
20
-2.5886141732283465
11
7.0902047244094488
21
-2.6004251968503937
0
LINE
8
BLACK
6
CONTINUOUS
10
7.0902047244094488
20
-2.6004251968503937
11
7.0897551968503931
21
-2.6026851574803147
0
LINE
8
BLACK
6
CONTINUOUS
10
7.0897551968503931
20
-2.6026851574803147
11
7.0884750393700786
21
-2.6046010236220472
0
LINE
8
BLACK
6
CONTINUOUS
10
7.0884750393700786
20
-2.6046010236220472
11
7.0865591732283466
21
-2.6058811811023621
0
LINE
8
BLACK
6
CONTINUOUS
10
7.0865591732283466
20
-2.6058811811023621
11
7.0842992125984248
21
-2.6063307086614174
0
LINE
8
BLACK
6
CONTINUOUS
10
7.0842992125984248
20
-2.6063307086614174
11
7.0193385826771655
21
-2.6063307086614174
0
LINE
8
BLACK
6
CONTINUOUS
10
7.0193385826771655
20
-2.6063307086614174
11
7.0170786220472436
21
-2.6058811811023621
0
LINE
8
BLACK
6
CONTINUOUS
10
7.0170786220472436
20
-2.6058811811023621
11
7.0151627559055116
21
-2.6046010236220472
0
LINE
8
BLACK
6
CONTINUOUS
10
7.0151627559055116
20
-2.6046010236220472
11
7.0138825984251971
21
-2.6026851574803147
0
LINE
8
BLACK
6
CONTINUOUS
10
7.0138825984251971
20
-2.6026851574803147
11
7.0134330708661414
21
-2.6004251968503937
0
LINE
8
BLACK
6
CONTINUOUS
10
7.0134330708661414
20
-2.6004251968503937
11
7.0134330708661414
21
-2.5886141732283465
0
LINE
8
BLACK
6
CONTINUOUS
10
7.0134330708661414
20
-2.5886141732283465
11
7.0138825984251971
21
-2.5863542125984251
0
LINE
8
BLACK
6
CONTINUOUS
10
7.0138825984251971
20
-2.5863542125984251
11
7.0151627559055116
21
-2.5844383464566927
0
LINE
8
BLACK
6
CONTINUOUS
10
7.0151627559055116
20
-2.5844383464566927
11
7.0170786220472436
21
-2.5831581889763777
0
LINE
8
BLACK
6
CONTINUOUS
10
7.0170786220472436
20
-2.5831581889763777
11
7.0193385826771655
21
-2.5827086614173229
0
LINE
8
BLACK
6
CONTINUOUS
10
7.0193385826771655
20
-2.5827086614173229
11
7.0842992125984248
21
-2.5827086614173229
0
LINE
8
BLACK
6
CONTINUOUS
10
7.0842992125984248
20
-2.5827086614173229
11
7.0865591732283466
21
-2.5831581889763777
0
LINE
8
BLACK
6
CONTINUOUS
10
6.9439567322834641
20
-2.5265456299212596
11
6.9470540551181097
21
-2.5286152362204724
0
LINE
8
BLACK
6
CONTINUOUS
10
6.9470540551181097
20
-2.5286152362204724
11
6.9491236614173229
21
-2.5317125590551179
0
LINE
8
BLACK
6
CONTINUOUS
10
6.9491236614173229
20
-2.5317125590551179
11
6.9498503937007872
21
-2.5353661417322835
0
LINE
8
BLACK
6
CONTINUOUS
10
6.9498503937007872
20
-2.5353661417322835
11
6.9498503937007872
21
-2.5686338582677166
0
LINE
8
BLACK
6
CONTINUOUS
10
6.9498503937007872
20
-2.5686338582677166
11
6.9491236614173229
21
-2.5722874409448817
0
LINE
8
BLACK
6
CONTINUOUS
10
6.9491236614173229
20
-2.5722874409448817
11
6.9470540551181097
21
-2.5753847637795273
0
LINE
8
BLACK
6
CONTINUOUS
10
6.9470540551181097
20
-2.5753847637795273
11
6.9439567322834641
21
-2.57745437007874
0
LINE
8
BLACK
6
CONTINUOUS
10
6.9439567322834641
20
-2.57745437007874
11
6.940303149606299
21
-2.5781811023622048
0
LINE
8
BLACK
6
CONTINUOUS
10
6.940303149606299
20
-2.5781811023622048
11
6.9212086614173227
21
-2.5781811023622048
0
LINE
8
BLACK
6
CONTINUOUS
10
6.9212086614173227
20
-2.5781811023622048
11
6.9175550787401576
21
-2.57745437007874
0
LINE
8
BLACK
6
CONTINUOUS
10
6.9175550787401576
20
-2.57745437007874
11
6.914457755905512
21
-2.5753847637795273
0
LINE
8
BLACK
6
CONTINUOUS
10
6.914457755905512
20
-2.5753847637795273
11
6.9123881496062989
21
-2.5722874409448817
0
LINE
8
BLACK
6
CONTINUOUS
10
6.9123881496062989
20
-2.5722874409448817
11
6.9116614173228346
21
-2.5686338582677166
0
LINE
8
BLACK
6
CONTINUOUS
10
6.9116614173228346
20
-2.5686338582677166
11
6.9116614173228346
21
-2.5353661417322835
0
LINE
8
BLACK
6
CONTINUOUS
10
6.9116614173228346
20
-2.5353661417322835
11
6.9123881496062989
21
-2.5317125590551179
0
LINE
8
BLACK
6
CONTINUOUS
10
6.9123881496062989
20
-2.5317125590551179
11
6.914457755905512
21
-2.5286152362204724
0
LINE
8
BLACK
6
CONTINUOUS
10
6.914457755905512
20
-2.5286152362204724
11
6.9175550787401576
21
-2.5265456299212596
0
LINE
8
BLACK
6
CONTINUOUS
10
6.9175550787401576
20
-2.5265456299212596
11
6.9212086614173227
21
-2.5258188976377953
0
LINE
8
BLACK
6
CONTINUOUS
10
6.9212086614173227
20
-2.5258188976377953
11
6.940303149606299
21
-2.5258188976377953
0
LINE
8
BLACK
6
CONTINUOUS
10
6.940303149606299
20
-2.5258188976377953
11
6.9439567322834641
21
-2.5265456299212596
0
LINE
8
BLACK
6
CONTINUOUS
10
6.991200826771653
20
-2.5265456299212596
11
6.9942981496062995
21
-2.5286152362204724
0
LINE
8
BLACK
6
CONTINUOUS
10
6.9942981496062995
20
-2.5286152362204724
11
6.9963677559055117
21
-2.5317125590551179
0
LINE
8
BLACK
6
CONTINUOUS
10
6.9963677559055117
20
-2.5317125590551179
11
6.9970944881889761
21
-2.5353661417322835
0
LINE
8
BLACK
6
CONTINUOUS
10
6.9970944881889761
20
-2.5353661417322835
11
6.9970944881889761
21
-2.5686338582677166
0
LINE
8
BLACK
6
CONTINUOUS
10
6.9970944881889761
20
-2.5686338582677166
11
6.9963677559055117
21
-2.5722874409448817
0
LINE
8
BLACK
6
CONTINUOUS
10
6.9963677559055117
20
-2.5722874409448817
11
6.9942981496062995
21
-2.5753847637795273
0
LINE
8
BLACK
6
CONTINUOUS
10
6.9942981496062995
20
-2.5753847637795273
11
6.991200826771653
21
-2.57745437007874
0
LINE
8
BLACK
6
CONTINUOUS
10
6.991200826771653
20
-2.57745437007874
11
6.9875472440944879
21
-2.5781811023622048
0
LINE
8
BLACK
6
CONTINUOUS
10
6.9875472440944879
20
-2.5781811023622048
11
6.9684527559055116
21
-2.5781811023622048
0
LINE
8
BLACK
6
CONTINUOUS
10
6.9684527559055116
20
-2.5781811023622048
11
6.9647991732283465
21
-2.57745437007874
0
LINE
8
BLACK
6
CONTINUOUS
10
6.9647991732283465
20
-2.57745437007874
11
6.9617018503937009
21
-2.5753847637795273
0
LINE
8
BLACK
6
CONTINUOUS
10
6.9617018503937009
20
-2.5753847637795273
11
6.9596322440944878
21
-2.5722874409448817
0
LINE
8
BLACK
6
CONTINUOUS
10
6.9596322440944878
20
-2.5722874409448817
11
6.9589055118110235
21
-2.5686338582677166
0
LINE
8
BLACK
6
CONTINUOUS
10
6.9589055118110235
20
-2.5686338582677166
11
6.9589055118110235
21
-2.5353661417322835
0
LINE
8
BLACK
6
CONTINUOUS
10
6.9589055118110235
20
-2.5353661417322835
11
6.9596322440944878
21
-2.5317125590551179
0
LINE
8
BLACK
6
CONTINUOUS
10
6.9596322440944878
20
-2.5317125590551179
11
6.9617018503937009
21
-2.5286152362204724
0
LINE
8
BLACK
6
CONTINUOUS
10
6.9617018503937009
20
-2.5286152362204724
11
6.9647991732283465
21
-2.5265456299212596
0
LINE
8
BLACK
6
CONTINUOUS
10
6.9647991732283465
20
-2.5265456299212596
11
6.9684527559055116
21
-2.5258188976377953
0
LINE
8
BLACK
6
CONTINUOUS
10
6.9684527559055116
20
-2.5258188976377953
11
6.9875472440944879
21
-2.5258188976377953
0
LINE
8
BLACK
6
CONTINUOUS
10
6.9875472440944879
20
-2.5258188976377953
11
6.991200826771653
21
-2.5265456299212596
0
LINE
8
BLACK
6
CONTINUOUS
10
5.8143033070866137
20
-2.5354695669291338
11
5.8171771259842515
21
-2.537389803149606
0
LINE
8
BLACK
6
CONTINUOUS
10
5.8171771259842515
20
-2.537389803149606
11
5.8190973622047242
21
-2.5402636220472439
0
LINE
8
BLACK
6
CONTINUOUS
10
5.8190973622047242
20
-2.5402636220472439
11
5.8197716535433068
21
-2.5436535433070864
0
LINE
8
BLACK
6
CONTINUOUS
10
5.8197716535433068
20
-2.5436535433070864
11
5.8197716535433068
21
-2.5633385826771651
0
LINE
8
BLACK
6
CONTINUOUS
10
5.8197716535433068
20
-2.5633385826771651
11
5.8190973622047242
21
-2.566728503937008
0
LINE
8
BLACK
6
CONTINUOUS
10
5.8190973622047242
20
-2.566728503937008
11
5.8171771259842515
21
-2.5696023228346454
0
LINE
8
BLACK
6
CONTINUOUS
10
5.8171771259842515
20
-2.5696023228346454
11
5.8143033070866137
21
-2.5715225590551181
0
LINE
8
BLACK
6
CONTINUOUS
10
5.8143033070866137
20
-2.5715225590551181
11
5.8109133858267716
21
-2.5721968503937007
0
LINE
8
BLACK
6
CONTINUOUS
10
5.8109133858267716
20
-2.5721968503937007
11
5.7931968503937004
21
-2.5721968503937007
0
LINE
8
BLACK
6
CONTINUOUS
10
5.7931968503937004
20
-2.5721968503937007
11
5.7898069291338583
21
-2.5715225590551181
0
LINE
8
BLACK
6
CONTINUOUS
10
5.7898069291338583
20
-2.5715225590551181
11
5.7869331102362205
21
-2.5696023228346454
0
LINE
8
BLACK
6
CONTINUOUS
10
5.7869331102362205
20
-2.5696023228346454
11
5.7850128740157478
21
-2.566728503937008
0
LINE
8
BLACK
6
CONTINUOUS
10
5.7850128740157478
20
-2.566728503937008
11
5.7843385826771652
21
-2.5633385826771651
0
LINE
8
BLACK
6
CONTINUOUS
10
5.7843385826771652
20
-2.5633385826771651
11
5.7843385826771652
21
-2.5436535433070864
0
LINE
8
BLACK
6
CONTINUOUS
10
5.7843385826771652
20
-2.5436535433070864
11
5.7850128740157478
21
-2.5402636220472439
0
LINE
8
BLACK
6
CONTINUOUS
10
5.7850128740157478
20
-2.5402636220472439
11
5.7869331102362205
21
-2.537389803149606
0
LINE
8
BLACK
6
CONTINUOUS
10
5.7869331102362205
20
-2.537389803149606
11
5.7898069291338583
21
-2.5354695669291338
0
LINE
8
BLACK
6
CONTINUOUS
10
5.7898069291338583
20
-2.5354695669291338
11
5.7931968503937004
21
-2.5347952755905512
0
LINE
8
BLACK
6
CONTINUOUS
10
5.7931968503937004
20
-2.5347952755905512
11
5.8109133858267716
21
-2.5347952755905512
0
LINE
8
BLACK
6
CONTINUOUS
10
5.8109133858267716
20
-2.5347952755905512
11
5.8143033070866137
21
-2.5354695669291338
0
LINE
8
BLACK
6
CONTINUOUS
10
5.8753269291338581
20
-2.5354695669291338
11
5.8782007480314959
21
-2.537389803149606
0
LINE
8
BLACK
6
CONTINUOUS
10
5.8782007480314959
20
-2.537389803149606
11
5.8801209842519686
21
-2.5402636220472439
0
LINE
8
BLACK
6
CONTINUOUS
10
5.8801209842519686
20
-2.5402636220472439
11
5.8807952755905513
21
-2.5436535433070864
0
LINE
8
BLACK
6
CONTINUOUS
10
5.8807952755905513
20
-2.5436535433070864
11
5.8807952755905513
21
-2.5633385826771651
0
LINE
8
BLACK
6
CONTINUOUS
10
5.8807952755905513
20
-2.5633385826771651
11
5.8801209842519686
21
-2.566728503937008
0
LINE
8
BLACK
6
CONTINUOUS
10
5.8801209842519686
20
-2.566728503937008
11
5.8782007480314959
21
-2.5696023228346454
0
LINE
8
BLACK
6
CONTINUOUS
10
5.8782007480314959
20
-2.5696023228346454
11
5.8753269291338581
21
-2.5715225590551181
0
LINE
8
BLACK
6
CONTINUOUS
10
5.8753269291338581
20
-2.5715225590551181
11
5.8719370078740152
21
-2.5721968503937007
0
LINE
8
BLACK
6
CONTINUOUS
10
5.8719370078740152
20
-2.5721968503937007
11
5.8542204724409448
21
-2.5721968503937007
0
LINE
8
BLACK
6
CONTINUOUS
10
5.8542204724409448
20
-2.5721968503937007
11
5.8508305511811018
21
-2.5715225590551181
0
LINE
8
BLACK
6
CONTINUOUS
10
5.8508305511811018
20
-2.5715225590551181
11
5.847956732283464
21
-2.5696023228346454
0
LINE
8
BLACK
6
CONTINUOUS
10
5.847956732283464
20
-2.5696023228346454
11
5.8460364960629922
21
-2.566728503937008
0
LINE
8
BLACK
6
CONTINUOUS
10
5.8460364960629922
20
-2.566728503937008
11
5.8453622047244096
21
-2.5633385826771651
0
LINE
8
BLACK
6
CONTINUOUS
10
5.8453622047244096
20
-2.5633385826771651
11
5.8453622047244096
21
-2.5436535433070864
0
LINE
8
BLACK
6
CONTINUOUS
10
5.8453622047244096
20
-2.5436535433070864
11
5.8460364960629922
21
-2.5402636220472439
0
LINE
8
BLACK
6
CONTINUOUS
10
5.8460364960629922
20
-2.5402636220472439
11
5.847956732283464
21
-2.537389803149606
0
LINE
8
BLACK
6
CONTINUOUS
10
5.847956732283464
20
-2.537389803149606
11
5.8508305511811018
21
-2.5354695669291338
0
LINE
8
BLACK
6
CONTINUOUS
10
5.8508305511811018
20
-2.5354695669291338
11
5.8542204724409448
21
-2.5347952755905512
0
LINE
8
BLACK
6
CONTINUOUS
10
5.8542204724409448
20
-2.5347952755905512
11
5.8719370078740152
21
-2.5347952755905512
0
LINE
8
BLACK
6
CONTINUOUS
10
5.8719370078740152
20
-2.5347952755905512
11
5.8753269291338581
21
-2.5354695669291338
0
LINE
8
BLACK
6
CONTINUOUS
10
6.891677283464567
20
-2.5331581889763779
11
6.893593149606299
21
-2.5344383464566929
0
LINE
8
BLACK
6
CONTINUOUS
10
6.893593149606299
20
-2.5344383464566929
11
6.8948733070866144
21
-2.5363542125984253
0
LINE
8
BLACK
6
CONTINUOUS
10
6.8948733070866144
20
-2.5363542125984253
11
6.8953228346456692
21
-2.5386141732283463
0
LINE
8
BLACK
6
CONTINUOUS
10
6.8953228346456692
20
-2.5386141732283463
11
6.8953228346456692
21
-2.5504251968503935
0
LINE
8
BLACK
6
CONTINUOUS
10
6.8953228346456692
20
-2.5504251968503935
11
6.8948733070866144
21
-2.5526851574803149
0
LINE
8
BLACK
6
CONTINUOUS
10
6.8948733070866144
20
-2.5526851574803149
11
6.893593149606299
21
-2.5546010236220473
0
LINE
8
BLACK
6
CONTINUOUS
10
6.893593149606299
20
-2.5546010236220473
11
6.891677283464567
21
-2.5558811811023623
0
LINE
8
BLACK
6
CONTINUOUS
10
6.891677283464567
20
-2.5558811811023623
11
6.8894173228346451
21
-2.5563307086614171
0
LINE
8
BLACK
6
CONTINUOUS
10
6.8894173228346451
20
-2.5563307086614171
11
6.8244566929133859
21
-2.5563307086614171
0
LINE
8
BLACK
6
CONTINUOUS
10
6.8244566929133859
20
-2.5563307086614171
11
6.822196732283464
21
-2.5558811811023623
0
LINE
8
BLACK
6
CONTINUOUS
10
6.822196732283464
20
-2.5558811811023623
11
6.820280866141732
21
-2.5546010236220473
0
LINE
8
BLACK
6
CONTINUOUS
10
6.820280866141732
20
-2.5546010236220473
11
6.8190007086614175
21
-2.5526851574803149
0
LINE
8
BLACK
6
CONTINUOUS
10
6.8190007086614175
20
-2.5526851574803149
11
6.8185511811023618
21
-2.5504251968503935
0
LINE
8
BLACK
6
CONTINUOUS
10
6.8185511811023618
20
-2.5504251968503935
11
6.8185511811023618
21
-2.5386141732283463
0
LINE
8
BLACK
6
CONTINUOUS
10
6.8185511811023618
20
-2.5386141732283463
11
6.8190007086614175
21
-2.5363542125984253
0
LINE
8
BLACK
6
CONTINUOUS
10
6.8190007086614175
20
-2.5363542125984253
11
6.820280866141732
21
-2.5344383464566929
0
LINE
8
BLACK
6
CONTINUOUS
10
6.820280866141732
20
-2.5344383464566929
11
6.822196732283464
21
-2.5331581889763779
0
LINE
8
BLACK
6
CONTINUOUS
10
6.822196732283464
20
-2.5331581889763779
11
6.8244566929133859
21
-2.5327086614173226
0
LINE
8
BLACK
6
CONTINUOUS
10
6.8244566929133859
20
-2.5327086614173226
11
6.8894173228346451
21
-2.5327086614173226
0
LINE
8
BLACK
6
CONTINUOUS
10
6.8894173228346451
20
-2.5327086614173226
11
6.891677283464567
21
-2.5331581889763779
0
LINE
8
BLACK
6
CONTINUOUS
10
7.0865591732283466
20
-2.5331581889763779
11
7.0884750393700786
21
-2.5344383464566929
0
LINE
8
BLACK
6
CONTINUOUS
10
7.0884750393700786
20
-2.5344383464566929
11
7.0897551968503931
21
-2.5363542125984253
0
LINE
8
BLACK
6
CONTINUOUS
10
7.0897551968503931
20
-2.5363542125984253
11
7.0902047244094488
21
-2.5386141732283463
0
LINE
8
BLACK
6
CONTINUOUS
10
7.0902047244094488
20
-2.5386141732283463
11
7.0902047244094488
21
-2.5504251968503935
0
LINE
8
BLACK
6
CONTINUOUS
10
7.0902047244094488
20
-2.5504251968503935
11
7.0897551968503931
21
-2.5526851574803149
0
LINE
8
BLACK
6
CONTINUOUS
10
7.0897551968503931
20
-2.5526851574803149
11
7.0884750393700786
21
-2.5546010236220473
0
LINE
8
BLACK
6
CONTINUOUS
10
7.0884750393700786
20
-2.5546010236220473
11
7.0865591732283466
21
-2.5558811811023623
0
LINE
8
BLACK
6
CONTINUOUS
10
7.0865591732283466
20
-2.5558811811023623
11
7.0842992125984248
21
-2.5563307086614171
0
LINE
8
BLACK
6
CONTINUOUS
10
7.0842992125984248
20
-2.5563307086614171
11
7.0193385826771655
21
-2.5563307086614171
0
LINE
8
BLACK
6
CONTINUOUS
10
7.0193385826771655
20
-2.5563307086614171
11
7.0170786220472436
21
-2.5558811811023623
0
LINE
8
BLACK
6
CONTINUOUS
10
7.0170786220472436
20
-2.5558811811023623
11
7.0151627559055116
21
-2.5546010236220473
0
LINE
8
BLACK
6
CONTINUOUS
10
7.0151627559055116
20
-2.5546010236220473
11
7.0138825984251971
21
-2.5526851574803149
0
LINE
8
BLACK
6
CONTINUOUS
10
7.0138825984251971
20
-2.5526851574803149
11
7.0134330708661414
21
-2.5504251968503935
0
LINE
8
BLACK
6
CONTINUOUS
10
7.0134330708661414
20
-2.5504251968503935
11
7.0134330708661414
21
-2.5386141732283463
0
LINE
8
BLACK
6
CONTINUOUS
10
7.0134330708661414
20
-2.5386141732283463
11
7.0138825984251971
21
-2.5363542125984253
0
LINE
8
BLACK
6
CONTINUOUS
10
7.0138825984251971
20
-2.5363542125984253
11
7.0151627559055116
21
-2.5344383464566929
0
LINE
8
BLACK
6
CONTINUOUS
10
7.0151627559055116
20
-2.5344383464566929
11
7.0170786220472436
21
-2.5331581889763779
0
LINE
8
BLACK
6
CONTINUOUS
10
7.0170786220472436
20
-2.5331581889763779
11
7.0193385826771655
21
-2.5327086614173226
0
LINE
8
BLACK
6
CONTINUOUS
10
7.0193385826771655
20
-2.5327086614173226
11
7.0842992125984248
21
-2.5327086614173226
0
LINE
8
BLACK
6
CONTINUOUS
10
7.0842992125984248
20
-2.5327086614173226
11
7.0865591732283466
21
-2.5331581889763779
0
LINE
8
BLACK
6
CONTINUOUS
10
5.9864069685039372
20
-2.5198670866141732
11
5.9889614566929135
21
-2.5215739763779528
0
LINE
8
BLACK
6
CONTINUOUS
10
5.9889614566929135
20
-2.5215739763779528
11
5.990668346456693
21
-2.5241284645669291
0
LINE
8
BLACK
6
CONTINUOUS
10
5.990668346456693
20
-2.5241284645669291
11
5.9912677165354333
21
-2.5271417322834644
0
LINE
8
BLACK
6
CONTINUOUS
10
5.9912677165354333
20
-2.5271417322834644
11
5.9912677165354333
21
-2.5428897637795274
0
LINE
8
BLACK
6
CONTINUOUS
10
5.9912677165354333
20
-2.5428897637795274
11
5.990668346456693
21
-2.5459030314960631
0
LINE
8
BLACK
6
CONTINUOUS
10
5.990668346456693
20
-2.5459030314960631
11
5.9889614566929135
21
-2.5484575196850394
0
LINE
8
BLACK
6
CONTINUOUS
10
5.9889614566929135
20
-2.5484575196850394
11
5.9864069685039372
21
-2.5501644094488189
0
LINE
8
BLACK
6
CONTINUOUS
10
5.9864069685039372
20
-2.5501644094488189
11
5.9833937007874018
21
-2.5507637795275588
0
LINE
8
BLACK
6
CONTINUOUS
10
5.9833937007874018
20
-2.5507637795275588
11
5.9617401574803148
21
-2.5507637795275588
0
LINE
8
BLACK
6
CONTINUOUS
10
5.9617401574803148
20
-2.5507637795275588
11
5.9587268897637795
21
-2.5501644094488189
0
LINE
8
BLACK
6
CONTINUOUS
10
5.9587268897637795
20
-2.5501644094488189
11
5.9561724015748032
21
-2.5484575196850394
0
LINE
8
BLACK
6
CONTINUOUS
10
5.9561724015748032
20
-2.5484575196850394
11
5.9544655118110237
21
-2.5459030314960631
0
LINE
8
BLACK
6
CONTINUOUS
10
5.9544655118110237
20
-2.5459030314960631
11
5.9538661417322833
21
-2.5428897637795274
0
LINE
8
BLACK
6
CONTINUOUS
10
5.9538661417322833
20
-2.5428897637795274
11
5.9538661417322833
21
-2.5271417322834644
0
LINE
8
BLACK
6
CONTINUOUS
10
5.9538661417322833
20
-2.5271417322834644
11
5.9544655118110237
21
-2.5241284645669291
0
LINE
8
BLACK
6
CONTINUOUS
10
5.9544655118110237
20
-2.5241284645669291
11
5.9561724015748032
21
-2.5215739763779528
0
LINE
8
BLACK
6
CONTINUOUS
10
5.9561724015748032
20
-2.5215739763779528
11
5.9587268897637795
21
-2.5198670866141732
0
LINE
8
BLACK
6
CONTINUOUS
10
5.9587268897637795
20
-2.5198670866141732
11
5.9617401574803148
21
-2.5192677165354329
0
LINE
8
BLACK
6
CONTINUOUS
10
5.9617401574803148
20
-2.5192677165354329
11
5.9833937007874018
21
-2.5192677165354329
0
LINE
8
BLACK
6
CONTINUOUS
10
5.9833937007874018
20
-2.5192677165354329
11
5.9864069685039372
21
-2.5198670866141732
0
LINE
8
BLACK
6
CONTINUOUS
10
6.1864069685039365
20
-2.5198670866141732
11
6.1889614566929136
21
-2.5215739763779528
0
LINE
8
BLACK
6
CONTINUOUS
10
6.1889614566929136
20
-2.5215739763779528
11
6.1906683464566932
21
-2.5241284645669291
0
LINE
8
BLACK
6
CONTINUOUS
10
6.1906683464566932
20
-2.5241284645669291
11
6.1912677165354326
21
-2.5271417322834644
0
LINE
8
BLACK
6
CONTINUOUS
10
6.1912677165354326
20
-2.5271417322834644
11
6.1912677165354326
21
-2.5428897637795274
0
LINE
8
BLACK
6
CONTINUOUS
10
6.1912677165354326
20
-2.5428897637795274
11
6.1906683464566932
21
-2.5459030314960631
0
LINE
8
BLACK
6
CONTINUOUS
10
6.1906683464566932
20
-2.5459030314960631
11
6.1889614566929136
21
-2.5484575196850394
0
LINE
8
BLACK
6
CONTINUOUS
10
6.1889614566929136
20
-2.5484575196850394
11
6.1864069685039365
21
-2.5501644094488189
0
LINE
8
BLACK
6
CONTINUOUS
10
6.1864069685039365
20
-2.5501644094488189
11
6.1833937007874011
21
-2.5507637795275588
0
LINE
8
BLACK
6
CONTINUOUS
10
6.1833937007874011
20
-2.5507637795275588
11
6.161740157480315
21
-2.5507637795275588
0
LINE
8
BLACK
6
CONTINUOUS
10
6.161740157480315
20
-2.5507637795275588
11
6.1587268897637797
21
-2.5501644094488189
0
LINE
8
BLACK
6
CONTINUOUS
10
6.1587268897637797
20
-2.5501644094488189
11
6.1561724015748034
21
-2.5484575196850394
0
LINE
8
BLACK
6
CONTINUOUS
10
6.1561724015748034
20
-2.5484575196850394
11
6.1544655118110239
21
-2.5459030314960631
0
LINE
8
BLACK
6
CONTINUOUS
10
6.1544655118110239
20
-2.5459030314960631
11
6.1538661417322835
21
-2.5428897637795274
0
LINE
8
BLACK
6
CONTINUOUS
10
6.1538661417322835
20
-2.5428897637795274
11
6.1538661417322835
21
-2.5271417322834644
0
LINE
8
BLACK
6
CONTINUOUS
10
6.1538661417322835
20
-2.5271417322834644
11
6.1544655118110239
21
-2.5241284645669291
0
LINE
8
BLACK
6
CONTINUOUS
10
6.1544655118110239
20
-2.5241284645669291
11
6.1561724015748034
21
-2.5215739763779528
0
LINE
8
BLACK
6
CONTINUOUS
10
6.1561724015748034
20
-2.5215739763779528
11
6.1587268897637797
21
-2.5198670866141732
0
LINE
8
BLACK
6
CONTINUOUS
10
6.1587268897637797
20
-2.5198670866141732
11
6.161740157480315
21
-2.5192677165354329
0
LINE
8
BLACK
6
CONTINUOUS
10
6.161740157480315
20
-2.5192677165354329
11
6.1833937007874011
21
-2.5192677165354329
0
LINE
8
BLACK
6
CONTINUOUS
10
6.1833937007874011
20
-2.5192677165354329
11
6.1864069685039365
21
-2.5198670866141732
0
LINE
8
BLACK
6
CONTINUOUS
10
6.9439567322834641
20
-2.4615849999999999
11
6.9470540551181097
21
-2.4636546062992126
0
LINE
8
BLACK
6
CONTINUOUS
10
6.9470540551181097
20
-2.4636546062992126
11
6.9491236614173229
21
-2.4667519291338582
0
LINE
8
BLACK
6
CONTINUOUS
10
6.9491236614173229
20
-2.4667519291338582
11
6.9498503937007872
21
-2.4704055118110237
0
LINE
8
BLACK
6
CONTINUOUS
10
6.9498503937007872
20
-2.4704055118110237
11
6.9498503937007872
21
-2.5036732283464564
0
LINE
8
BLACK
6
CONTINUOUS
10
6.9498503937007872
20
-2.5036732283464564
11
6.9491236614173229
21
-2.507326811023622
0
LINE
8
BLACK
6
CONTINUOUS
10
6.9491236614173229
20
-2.507326811023622
11
6.9470540551181097
21
-2.5104241338582676
0
LINE
8
BLACK
6
CONTINUOUS
10
6.9470540551181097
20
-2.5104241338582676
11
6.9439567322834641
21
-2.5124937401574803
0
LINE
8
BLACK
6
CONTINUOUS
10
6.9439567322834641
20
-2.5124937401574803
11
6.940303149606299
21
-2.513220472440945
0
LINE
8
BLACK
6
CONTINUOUS
10
6.940303149606299
20
-2.513220472440945
11
6.9212086614173227
21
-2.513220472440945
0
LINE
8
BLACK
6
CONTINUOUS
10
6.9212086614173227
20
-2.513220472440945
11
6.9175550787401576
21
-2.5124937401574803
0
LINE
8
BLACK
6
CONTINUOUS
10
6.9175550787401576
20
-2.5124937401574803
11
6.914457755905512
21
-2.5104241338582676
0
LINE
8
BLACK
6
CONTINUOUS
10
6.914457755905512
20
-2.5104241338582676
11
6.9123881496062989
21
-2.507326811023622
0
LINE
8
BLACK
6
CONTINUOUS
10
6.9123881496062989
20
-2.507326811023622
11
6.9116614173228346
21
-2.5036732283464564
0
LINE
8
BLACK
6
CONTINUOUS
10
6.9116614173228346
20
-2.5036732283464564
11
6.9116614173228346
21
-2.4704055118110237
0
LINE
8
BLACK
6
CONTINUOUS
10
6.9116614173228346
20
-2.4704055118110237
11
6.9123881496062989
21
-2.4667519291338582
0
LINE
8
BLACK
6
CONTINUOUS
10
6.9123881496062989
20
-2.4667519291338582
11
6.914457755905512
21
-2.4636546062992126
0
LINE
8
BLACK
6
CONTINUOUS
10
6.914457755905512
20
-2.4636546062992126
11
6.9175550787401576
21
-2.4615849999999999
0
LINE
8
BLACK
6
CONTINUOUS
10
6.9175550787401576
20
-2.4615849999999999
11
6.9212086614173227
21
-2.4608582677165356
0
LINE
8
BLACK
6
CONTINUOUS
10
6.9212086614173227
20
-2.4608582677165356
11
6.940303149606299
21
-2.4608582677165356
0
LINE
8
BLACK
6
CONTINUOUS
10
6.940303149606299
20
-2.4608582677165356
11
6.9439567322834641
21
-2.4615849999999999
0
LINE
8
BLACK
6
CONTINUOUS
10
6.991200826771653
20
-2.4615849999999999
11
6.9942981496062995
21
-2.4636546062992126
0
LINE
8
BLACK
6
CONTINUOUS
10
6.9942981496062995
20
-2.4636546062992126
11
6.9963677559055117
21
-2.4667519291338582
0
LINE
8
BLACK
6
CONTINUOUS
10
6.9963677559055117
20
-2.4667519291338582
11
6.9970944881889761
21
-2.4704055118110237
0
LINE
8
BLACK
6
CONTINUOUS
10
6.9970944881889761
20
-2.4704055118110237
11
6.9970944881889761
21
-2.5036732283464564
0
LINE
8
BLACK
6
CONTINUOUS
10
6.9970944881889761
20
-2.5036732283464564
11
6.9963677559055117
21
-2.507326811023622
0
LINE
8
BLACK
6
CONTINUOUS
10
6.9963677559055117
20
-2.507326811023622
11
6.9942981496062995
21
-2.5104241338582676
0
LINE
8
BLACK
6
CONTINUOUS
10
6.9942981496062995
20
-2.5104241338582676
11
6.991200826771653
21
-2.5124937401574803
0
LINE
8
BLACK
6
CONTINUOUS
10
6.991200826771653
20
-2.5124937401574803
11
6.9875472440944879
21
-2.513220472440945
0
LINE
8
BLACK
6
CONTINUOUS
10
6.9875472440944879
20
-2.513220472440945
11
6.9684527559055116
21
-2.513220472440945
0
LINE
8
BLACK
6
CONTINUOUS
10
6.9684527559055116
20
-2.513220472440945
11
6.9647991732283465
21
-2.5124937401574803
0
LINE
8
BLACK
6
CONTINUOUS
10
6.9647991732283465
20
-2.5124937401574803
11
6.9617018503937009
21
-2.5104241338582676
0
LINE
8
BLACK
6
CONTINUOUS
10
6.9617018503937009
20
-2.5104241338582676
11
6.9596322440944878
21
-2.507326811023622
0
LINE
8
BLACK
6
CONTINUOUS
10
6.9596322440944878
20
-2.507326811023622
11
6.9589055118110235
21
-2.5036732283464564
0
LINE
8
BLACK
6
CONTINUOUS
10
6.9589055118110235
20
-2.5036732283464564
11
6.9589055118110235
21
-2.4704055118110237
0
LINE
8
BLACK
6
CONTINUOUS
10
6.9589055118110235
20
-2.4704055118110237
11
6.9596322440944878
21
-2.4667519291338582
0
LINE
8
BLACK
6
CONTINUOUS
10
6.9596322440944878
20
-2.4667519291338582
11
6.9617018503937009
21
-2.4636546062992126
0
LINE
8
BLACK
6
CONTINUOUS
10
6.9617018503937009
20
-2.4636546062992126
11
6.9647991732283465
21
-2.4615849999999999
0
LINE
8
BLACK
6
CONTINUOUS
10
6.9647991732283465
20
-2.4615849999999999
11
6.9684527559055116
21
-2.4608582677165356
0
LINE
8
BLACK
6
CONTINUOUS
10
6.9684527559055116
20
-2.4608582677165356
11
6.9875472440944879
21
-2.4608582677165356
0
LINE
8
BLACK
6
CONTINUOUS
10
6.9875472440944879
20
-2.4608582677165356
11
6.991200826771653
21
-2.4615849999999999
0
LINE
8
BLACK
6
CONTINUOUS
10
6.891677283464567
20
-2.4831581889763781
11
6.893593149606299
21
-2.484438346456693
0
LINE
8
BLACK
6
CONTINUOUS
10
6.893593149606299
20
-2.484438346456693
11
6.8948733070866144
21
-2.486354212598425
0
LINE
8
BLACK
6
CONTINUOUS
10
6.8948733070866144
20
-2.486354212598425
11
6.8953228346456692
21
-2.4886141732283464
0
LINE
8
BLACK
6
CONTINUOUS
10
6.8953228346456692
20
-2.4886141732283464
11
6.8953228346456692
21
-2.5004251968503937
0
LINE
8
BLACK
6
CONTINUOUS
10
6.8953228346456692
20
-2.5004251968503937
11
6.8948733070866144
21
-2.5026851574803151
0
LINE
8
BLACK
6
CONTINUOUS
10
6.8948733070866144
20
-2.5026851574803151
11
6.893593149606299
21
-2.5046010236220471
0
LINE
8
BLACK
6
CONTINUOUS
10
6.893593149606299
20
-2.5046010236220471
11
6.891677283464567
21
-2.505881181102362
0
LINE
8
BLACK
6
CONTINUOUS
10
6.891677283464567
20
-2.505881181102362
11
6.8894173228346451
21
-2.5063307086614173
0
LINE
8
BLACK
6
CONTINUOUS
10
6.8894173228346451
20
-2.5063307086614173
11
6.8244566929133859
21
-2.5063307086614173
0
LINE
8
BLACK
6
CONTINUOUS
10
6.8244566929133859
20
-2.5063307086614173
11
6.822196732283464
21
-2.505881181102362
0
LINE
8
BLACK
6
CONTINUOUS
10
6.822196732283464
20
-2.505881181102362
11
6.820280866141732
21
-2.5046010236220471
0
LINE
8
BLACK
6
CONTINUOUS
10
6.820280866141732
20
-2.5046010236220471
11
6.8190007086614175
21
-2.5026851574803151
0
LINE
8
BLACK
6
CONTINUOUS
10
6.8190007086614175
20
-2.5026851574803151
11
6.8185511811023618
21
-2.5004251968503937
0
LINE
8
BLACK
6
CONTINUOUS
10
6.8185511811023618
20
-2.5004251968503937
11
6.8185511811023618
21
-2.4886141732283464
0
LINE
8
BLACK
6
CONTINUOUS
10
6.8185511811023618
20
-2.4886141732283464
11
6.8190007086614175
21
-2.486354212598425
0
LINE
8
BLACK
6
CONTINUOUS
10
6.8190007086614175
20
-2.486354212598425
11
6.820280866141732
21
-2.484438346456693
0
LINE
8
BLACK
6
CONTINUOUS
10
6.820280866141732
20
-2.484438346456693
11
6.822196732283464
21
-2.4831581889763781
0
LINE
8
BLACK
6
CONTINUOUS
10
6.822196732283464
20
-2.4831581889763781
11
6.8244566929133859
21
-2.4827086614173228
0
LINE
8
BLACK
6
CONTINUOUS
10
6.8244566929133859
20
-2.4827086614173228
11
6.8894173228346451
21
-2.4827086614173228
0
LINE
8
BLACK
6
CONTINUOUS
10
6.8894173228346451
20
-2.4827086614173228
11
6.891677283464567
21
-2.4831581889763781
0
LINE
8
BLACK
6
CONTINUOUS
10
7.0865591732283466
20
-2.4831581889763781
11
7.0884750393700786
21
-2.484438346456693
0
LINE
8
BLACK
6
CONTINUOUS
10
7.0884750393700786
20
-2.484438346456693
11
7.0897551968503931
21
-2.486354212598425
0
LINE
8
BLACK
6
CONTINUOUS
10
7.0897551968503931
20
-2.486354212598425
11
7.0902047244094488
21
-2.4886141732283464
0
LINE
8
BLACK
6
CONTINUOUS
10
7.0902047244094488
20
-2.4886141732283464
11
7.0902047244094488
21
-2.5004251968503937
0
LINE
8
BLACK
6
CONTINUOUS
10
7.0902047244094488
20
-2.5004251968503937
11
7.0897551968503931
21
-2.5026851574803151
0
LINE
8
BLACK
6
CONTINUOUS
10
7.0897551968503931
20
-2.5026851574803151
11
7.0884750393700786
21
-2.5046010236220471
0
LINE
8
BLACK
6
CONTINUOUS
10
7.0884750393700786
20
-2.5046010236220471
11
7.0865591732283466
21
-2.505881181102362
0
LINE
8
BLACK
6
CONTINUOUS
10
7.0865591732283466
20
-2.505881181102362
11
7.0842992125984248
21
-2.5063307086614173
0
LINE
8
BLACK
6
CONTINUOUS
10
7.0842992125984248
20
-2.5063307086614173
11
7.0193385826771655
21
-2.5063307086614173
0
LINE
8
BLACK
6
CONTINUOUS
10
7.0193385826771655
20
-2.5063307086614173
11
7.0170786220472436
21
-2.505881181102362
0
LINE
8
BLACK
6
CONTINUOUS
10
7.0170786220472436
20
-2.505881181102362
11
7.0151627559055116
21
-2.5046010236220471
0
LINE
8
BLACK
6
CONTINUOUS
10
7.0151627559055116
20
-2.5046010236220471
11
7.0138825984251971
21
-2.5026851574803151
0
LINE
8
BLACK
6
CONTINUOUS
10
7.0138825984251971
20
-2.5026851574803151
11
7.0134330708661414
21
-2.5004251968503937
0
LINE
8
BLACK
6
CONTINUOUS
10
7.0134330708661414
20
-2.5004251968503937
11
7.0134330708661414
21
-2.4886141732283464
0
LINE
8
BLACK
6
CONTINUOUS
10
7.0134330708661414
20
-2.4886141732283464
11
7.0138825984251971
21
-2.486354212598425
0
LINE
8
BLACK
6
CONTINUOUS
10
7.0138825984251971
20
-2.486354212598425
11
7.0151627559055116
21
-2.484438346456693
0
LINE
8
BLACK
6
CONTINUOUS
10
7.0151627559055116
20
-2.484438346456693
11
7.0170786220472436
21
-2.4831581889763781
0
LINE
8
BLACK
6
CONTINUOUS
10
7.0170786220472436
20
-2.4831581889763781
11
7.0193385826771655
21
-2.4827086614173228
0
LINE
8
BLACK
6
CONTINUOUS
10
7.0193385826771655
20
-2.4827086614173228
11
7.0842992125984248
21
-2.4827086614173228
0
LINE
8
BLACK
6
CONTINUOUS
10
7.0842992125984248
20
-2.4827086614173228
11
7.0865591732283466
21
-2.4831581889763781
0
LINE
8
BLACK
6
CONTINUOUS
10
6.891677283464567
20
-2.4331581889763778
11
6.893593149606299
21
-2.4344383464566928
0
LINE
8
BLACK
6
CONTINUOUS
10
6.893593149606299
20
-2.4344383464566928
11
6.8948733070866144
21
-2.4363542125984252
0
LINE
8
BLACK
6
CONTINUOUS
10
6.8948733070866144
20
-2.4363542125984252
11
6.8953228346456692
21
-2.4386141732283466
0
LINE
8
BLACK
6
CONTINUOUS
10
6.8953228346456692
20
-2.4386141732283466
11
6.8953228346456692
21
-2.4504251968503938
0
LINE
8
BLACK
6
CONTINUOUS
10
6.8953228346456692
20
-2.4504251968503938
11
6.8948733070866144
21
-2.4526851574803148
0
LINE
8
BLACK
6
CONTINUOUS
10
6.8948733070866144
20
-2.4526851574803148
11
6.893593149606299
21
-2.4546010236220472
0
LINE
8
BLACK
6
CONTINUOUS
10
6.893593149606299
20
-2.4546010236220472
11
6.891677283464567
21
-2.4558811811023622
0
LINE
8
BLACK
6
CONTINUOUS
10
6.891677283464567
20
-2.4558811811023622
11
6.8894173228346451
21
-2.4563307086614175
0
LINE
8
BLACK
6
CONTINUOUS
10
6.8894173228346451
20
-2.4563307086614175
11
6.8244566929133859
21
-2.4563307086614175
0
LINE
8
BLACK
6
CONTINUOUS
10
6.8244566929133859
20
-2.4563307086614175
11
6.822196732283464
21
-2.4558811811023622
0
LINE
8
BLACK
6
CONTINUOUS
10
6.822196732283464
20
-2.4558811811023622
11
6.820280866141732
21
-2.4546010236220472
0
LINE
8
BLACK
6
CONTINUOUS
10
6.820280866141732
20
-2.4546010236220472
11
6.8190007086614175
21
-2.4526851574803148
0
LINE
8
BLACK
6
CONTINUOUS
10
6.8190007086614175
20
-2.4526851574803148
11
6.8185511811023618
21
-2.4504251968503938
0
LINE
8
BLACK
6
CONTINUOUS
10
6.8185511811023618
20
-2.4504251968503938
11
6.8185511811023618
21
-2.4386141732283466
0
LINE
8
BLACK
6
CONTINUOUS
10
6.8185511811023618
20
-2.4386141732283466
11
6.8190007086614175
21
-2.4363542125984252
0
LINE
8
BLACK
6
CONTINUOUS
10
6.8190007086614175
20
-2.4363542125984252
11
6.820280866141732
21
-2.4344383464566928
0
LINE
8
BLACK
6
CONTINUOUS
10
6.820280866141732
20
-2.4344383464566928
11
6.822196732283464
21
-2.4331581889763778
0
LINE
8
BLACK
6
CONTINUOUS
10
6.822196732283464
20
-2.4331581889763778
11
6.8244566929133859
21
-2.4327086614173226
0
LINE
8
BLACK
6
CONTINUOUS
10
6.8244566929133859
20
-2.4327086614173226
11
6.8894173228346451
21
-2.4327086614173226
0
LINE
8
BLACK
6
CONTINUOUS
10
6.8894173228346451
20
-2.4327086614173226
11
6.891677283464567
21
-2.4331581889763778
0
LINE
8
BLACK
6
CONTINUOUS
10
7.0865591732283466
20
-2.4331581889763778
11
7.0884750393700786
21
-2.4344383464566928
0
LINE
8
BLACK
6
CONTINUOUS
10
7.0884750393700786
20
-2.4344383464566928
11
7.0897551968503931
21
-2.4363542125984252
0
LINE
8
BLACK
6
CONTINUOUS
10
7.0897551968503931
20
-2.4363542125984252
11
7.0902047244094488
21
-2.4386141732283466
0
LINE
8
BLACK
6
CONTINUOUS
10
7.0902047244094488
20
-2.4386141732283466
11
7.0902047244094488
21
-2.4504251968503938
0
LINE
8
BLACK
6
CONTINUOUS
10
7.0902047244094488
20
-2.4504251968503938
11
7.0897551968503931
21
-2.4526851574803148
0
LINE
8
BLACK
6
CONTINUOUS
10
7.0897551968503931
20
-2.4526851574803148
11
7.0884750393700786
21
-2.4546010236220472
0
LINE
8
BLACK
6
CONTINUOUS
10
7.0884750393700786
20
-2.4546010236220472
11
7.0865591732283466
21
-2.4558811811023622
0
LINE
8
BLACK
6
CONTINUOUS
10
7.0865591732283466
20
-2.4558811811023622
11
7.0842992125984248
21
-2.4563307086614175
0
LINE
8
BLACK
6
CONTINUOUS
10
7.0842992125984248
20
-2.4563307086614175
11
7.0193385826771655
21
-2.4563307086614175
0
LINE
8
BLACK
6
CONTINUOUS
10
7.0193385826771655
20
-2.4563307086614175
11
7.0170786220472436
21
-2.4558811811023622
0
LINE
8
BLACK
6
CONTINUOUS
10
7.0170786220472436
20
-2.4558811811023622
11
7.0151627559055116
21
-2.4546010236220472
0
LINE
8
BLACK
6
CONTINUOUS
10
7.0151627559055116
20
-2.4546010236220472
11
7.0138825984251971
21
-2.4526851574803148
0
LINE
8
BLACK
6
CONTINUOUS
10
7.0138825984251971
20
-2.4526851574803148
11
7.0134330708661414
21
-2.4504251968503938
0
LINE
8
BLACK
6
CONTINUOUS
10
7.0134330708661414
20
-2.4504251968503938
11
7.0134330708661414
21
-2.4386141732283466
0
LINE
8
BLACK
6
CONTINUOUS
10
7.0134330708661414
20
-2.4386141732283466
11
7.0138825984251971
21
-2.4363542125984252
0
LINE
8
BLACK
6
CONTINUOUS
10
7.0138825984251971
20
-2.4363542125984252
11
7.0151627559055116
21
-2.4344383464566928
0
LINE
8
BLACK
6
CONTINUOUS
10
7.0151627559055116
20
-2.4344383464566928
11
7.0170786220472436
21
-2.4331581889763778
0
LINE
8
BLACK
6
CONTINUOUS
10
7.0170786220472436
20
-2.4331581889763778
11
7.0193385826771655
21
-2.4327086614173226
0
LINE
8
BLACK
6
CONTINUOUS
10
7.0193385826771655
20
-2.4327086614173226
11
7.0842992125984248
21
-2.4327086614173226
0
LINE
8
BLACK
6
CONTINUOUS
10
7.0842992125984248
20
-2.4327086614173226
11
7.0865591732283466
21
-2.4331581889763778
  0
ENDSEC
  0
EOF
